<?xml version="1.0" encoding="utf-8" standalone="no"?>
<!DOCTYPE svg PUBLIC "-//W3C//DTD SVG 1.1//EN"
  "http://www.w3.org/Graphics/SVG/1.1/DTD/svg11.dtd">
<!-- Created with matplotlib (https://matplotlib.org/) -->
<svg height="432pt" version="1.1" viewBox="0 0 720 432" width="720pt" xmlns="http://www.w3.org/2000/svg" xmlns:xlink="http://www.w3.org/1999/xlink">
 <metadata>
  <rdf:RDF xmlns:cc="http://creativecommons.org/ns#" xmlns:dc="http://purl.org/dc/elements/1.1/" xmlns:rdf="http://www.w3.org/1999/02/22-rdf-syntax-ns#">
   <cc:Work>
    <dc:type rdf:resource="http://purl.org/dc/dcmitype/StillImage"/>
    <dc:date>2022-01-11T17:35:27.676219</dc:date>
    <dc:format>image/svg+xml</dc:format>
    <dc:creator>
     <cc:Agent>
      <dc:title>Matplotlib v3.3.1, https://matplotlib.org/</dc:title>
     </cc:Agent>
    </dc:creator>
   </cc:Work>
  </rdf:RDF>
 </metadata>
 <defs>
  <style type="text/css">*{stroke-linecap:butt;stroke-linejoin:round;}</style>
 </defs>
 <g id="figure_1">
  <g id="patch_1">
   <path d="M 0 432 
L 720 432 
L 720 0 
L 0 0 
z
" style="fill:#ffffff;"/>
  </g>
  <g id="axes_1">
   <g id="patch_2">
    <path d="M 90 384.48 
L 343.636364 384.48 
L 343.636364 51.84 
L 90 51.84 
z
" style="fill:#ffffff;"/>
   </g>
   <g id="matplotlib.axis_1">
    <g id="xtick_1">
     <g id="line2d_1">
      <defs>
       <path d="M 0 0 
L 0 3.5 
" id="mf812da3507" style="stroke:#000000;stroke-width:0.8;"/>
      </defs>
      <g>
       <use style="stroke:#000000;stroke-width:0.8;" x="90" xlink:href="#mf812da3507" y="384.48"/>
      </g>
     </g>
     <g id="text_1">
      <!-- 0 -->
      <g transform="translate(86.81875 399.078438)scale(0.1 -0.1)">
       <defs>
        <path d="M 31.78125 66.40625 
Q 24.171875 66.40625 20.328125 58.90625 
Q 16.5 51.421875 16.5 36.375 
Q 16.5 21.390625 20.328125 13.890625 
Q 24.171875 6.390625 31.78125 6.390625 
Q 39.453125 6.390625 43.28125 13.890625 
Q 47.125 21.390625 47.125 36.375 
Q 47.125 51.421875 43.28125 58.90625 
Q 39.453125 66.40625 31.78125 66.40625 
z
M 31.78125 74.21875 
Q 44.046875 74.21875 50.515625 64.515625 
Q 56.984375 54.828125 56.984375 36.375 
Q 56.984375 17.96875 50.515625 8.265625 
Q 44.046875 -1.421875 31.78125 -1.421875 
Q 19.53125 -1.421875 13.0625 8.265625 
Q 6.59375 17.96875 6.59375 36.375 
Q 6.59375 54.828125 13.0625 64.515625 
Q 19.53125 74.21875 31.78125 74.21875 
z
" id="DejaVuSans-48"/>
       </defs>
       <use xlink:href="#DejaVuSans-48"/>
      </g>
     </g>
    </g>
    <g id="xtick_2">
     <g id="line2d_2">
      <g>
       <use style="stroke:#000000;stroke-width:0.8;" x="121.704545" xlink:href="#mf812da3507" y="384.48"/>
      </g>
     </g>
     <g id="text_2">
      <!-- 50 -->
      <g transform="translate(115.342045 399.078438)scale(0.1 -0.1)">
       <defs>
        <path d="M 10.796875 72.90625 
L 49.515625 72.90625 
L 49.515625 64.59375 
L 19.828125 64.59375 
L 19.828125 46.734375 
Q 21.96875 47.46875 24.109375 47.828125 
Q 26.265625 48.1875 28.421875 48.1875 
Q 40.625 48.1875 47.75 41.5 
Q 54.890625 34.8125 54.890625 23.390625 
Q 54.890625 11.625 47.5625 5.09375 
Q 40.234375 -1.421875 26.90625 -1.421875 
Q 22.3125 -1.421875 17.546875 -0.640625 
Q 12.796875 0.140625 7.71875 1.703125 
L 7.71875 11.625 
Q 12.109375 9.234375 16.796875 8.0625 
Q 21.484375 6.890625 26.703125 6.890625 
Q 35.15625 6.890625 40.078125 11.328125 
Q 45.015625 15.765625 45.015625 23.390625 
Q 45.015625 31 40.078125 35.4375 
Q 35.15625 39.890625 26.703125 39.890625 
Q 22.75 39.890625 18.8125 39.015625 
Q 14.890625 38.140625 10.796875 36.28125 
z
" id="DejaVuSans-53"/>
       </defs>
       <use xlink:href="#DejaVuSans-53"/>
       <use x="63.623047" xlink:href="#DejaVuSans-48"/>
      </g>
     </g>
    </g>
    <g id="xtick_3">
     <g id="line2d_3">
      <g>
       <use style="stroke:#000000;stroke-width:0.8;" x="153.409091" xlink:href="#mf812da3507" y="384.48"/>
      </g>
     </g>
     <g id="text_3">
      <!-- 100 -->
      <g transform="translate(143.865341 399.078438)scale(0.1 -0.1)">
       <defs>
        <path d="M 12.40625 8.296875 
L 28.515625 8.296875 
L 28.515625 63.921875 
L 10.984375 60.40625 
L 10.984375 69.390625 
L 28.421875 72.90625 
L 38.28125 72.90625 
L 38.28125 8.296875 
L 54.390625 8.296875 
L 54.390625 0 
L 12.40625 0 
z
" id="DejaVuSans-49"/>
       </defs>
       <use xlink:href="#DejaVuSans-49"/>
       <use x="63.623047" xlink:href="#DejaVuSans-48"/>
       <use x="127.246094" xlink:href="#DejaVuSans-48"/>
      </g>
     </g>
    </g>
    <g id="xtick_4">
     <g id="line2d_4">
      <g>
       <use style="stroke:#000000;stroke-width:0.8;" x="185.113636" xlink:href="#mf812da3507" y="384.48"/>
      </g>
     </g>
     <g id="text_4">
      <!-- 150 -->
      <g transform="translate(175.569886 399.078438)scale(0.1 -0.1)">
       <use xlink:href="#DejaVuSans-49"/>
       <use x="63.623047" xlink:href="#DejaVuSans-53"/>
       <use x="127.246094" xlink:href="#DejaVuSans-48"/>
      </g>
     </g>
    </g>
    <g id="xtick_5">
     <g id="line2d_5">
      <g>
       <use style="stroke:#000000;stroke-width:0.8;" x="216.818182" xlink:href="#mf812da3507" y="384.48"/>
      </g>
     </g>
     <g id="text_5">
      <!-- 200 -->
      <g transform="translate(207.274432 399.078438)scale(0.1 -0.1)">
       <defs>
        <path d="M 19.1875 8.296875 
L 53.609375 8.296875 
L 53.609375 0 
L 7.328125 0 
L 7.328125 8.296875 
Q 12.9375 14.109375 22.625 23.890625 
Q 32.328125 33.6875 34.8125 36.53125 
Q 39.546875 41.84375 41.421875 45.53125 
Q 43.3125 49.21875 43.3125 52.78125 
Q 43.3125 58.59375 39.234375 62.25 
Q 35.15625 65.921875 28.609375 65.921875 
Q 23.96875 65.921875 18.8125 64.3125 
Q 13.671875 62.703125 7.8125 59.421875 
L 7.8125 69.390625 
Q 13.765625 71.78125 18.9375 73 
Q 24.125 74.21875 28.421875 74.21875 
Q 39.75 74.21875 46.484375 68.546875 
Q 53.21875 62.890625 53.21875 53.421875 
Q 53.21875 48.921875 51.53125 44.890625 
Q 49.859375 40.875 45.40625 35.40625 
Q 44.1875 33.984375 37.640625 27.21875 
Q 31.109375 20.453125 19.1875 8.296875 
z
" id="DejaVuSans-50"/>
       </defs>
       <use xlink:href="#DejaVuSans-50"/>
       <use x="63.623047" xlink:href="#DejaVuSans-48"/>
       <use x="127.246094" xlink:href="#DejaVuSans-48"/>
      </g>
     </g>
    </g>
    <g id="xtick_6">
     <g id="line2d_6">
      <g>
       <use style="stroke:#000000;stroke-width:0.8;" x="248.522727" xlink:href="#mf812da3507" y="384.48"/>
      </g>
     </g>
     <g id="text_6">
      <!-- 250 -->
      <g transform="translate(238.978977 399.078438)scale(0.1 -0.1)">
       <use xlink:href="#DejaVuSans-50"/>
       <use x="63.623047" xlink:href="#DejaVuSans-53"/>
       <use x="127.246094" xlink:href="#DejaVuSans-48"/>
      </g>
     </g>
    </g>
    <g id="xtick_7">
     <g id="line2d_7">
      <g>
       <use style="stroke:#000000;stroke-width:0.8;" x="280.227273" xlink:href="#mf812da3507" y="384.48"/>
      </g>
     </g>
     <g id="text_7">
      <!-- 300 -->
      <g transform="translate(270.683523 399.078438)scale(0.1 -0.1)">
       <defs>
        <path d="M 40.578125 39.3125 
Q 47.65625 37.796875 51.625 33 
Q 55.609375 28.21875 55.609375 21.1875 
Q 55.609375 10.40625 48.1875 4.484375 
Q 40.765625 -1.421875 27.09375 -1.421875 
Q 22.515625 -1.421875 17.65625 -0.515625 
Q 12.796875 0.390625 7.625 2.203125 
L 7.625 11.71875 
Q 11.71875 9.328125 16.59375 8.109375 
Q 21.484375 6.890625 26.8125 6.890625 
Q 36.078125 6.890625 40.9375 10.546875 
Q 45.796875 14.203125 45.796875 21.1875 
Q 45.796875 27.640625 41.28125 31.265625 
Q 36.765625 34.90625 28.71875 34.90625 
L 20.21875 34.90625 
L 20.21875 43.015625 
L 29.109375 43.015625 
Q 36.375 43.015625 40.234375 45.921875 
Q 44.09375 48.828125 44.09375 54.296875 
Q 44.09375 59.90625 40.109375 62.90625 
Q 36.140625 65.921875 28.71875 65.921875 
Q 24.65625 65.921875 20.015625 65.03125 
Q 15.375 64.15625 9.8125 62.3125 
L 9.8125 71.09375 
Q 15.4375 72.65625 20.34375 73.4375 
Q 25.25 74.21875 29.59375 74.21875 
Q 40.828125 74.21875 47.359375 69.109375 
Q 53.90625 64.015625 53.90625 55.328125 
Q 53.90625 49.265625 50.4375 45.09375 
Q 46.96875 40.921875 40.578125 39.3125 
z
" id="DejaVuSans-51"/>
       </defs>
       <use xlink:href="#DejaVuSans-51"/>
       <use x="63.623047" xlink:href="#DejaVuSans-48"/>
       <use x="127.246094" xlink:href="#DejaVuSans-48"/>
      </g>
     </g>
    </g>
    <g id="xtick_8">
     <g id="line2d_8">
      <g>
       <use style="stroke:#000000;stroke-width:0.8;" x="311.931818" xlink:href="#mf812da3507" y="384.48"/>
      </g>
     </g>
     <g id="text_8">
      <!-- 350 -->
      <g transform="translate(302.388068 399.078438)scale(0.1 -0.1)">
       <use xlink:href="#DejaVuSans-51"/>
       <use x="63.623047" xlink:href="#DejaVuSans-53"/>
       <use x="127.246094" xlink:href="#DejaVuSans-48"/>
      </g>
     </g>
    </g>
    <g id="xtick_9">
     <g id="line2d_9">
      <g>
       <use style="stroke:#000000;stroke-width:0.8;" x="343.636364" xlink:href="#mf812da3507" y="384.48"/>
      </g>
     </g>
     <g id="text_9">
      <!-- 400 -->
      <g transform="translate(334.092614 399.078438)scale(0.1 -0.1)">
       <defs>
        <path d="M 37.796875 64.3125 
L 12.890625 25.390625 
L 37.796875 25.390625 
z
M 35.203125 72.90625 
L 47.609375 72.90625 
L 47.609375 25.390625 
L 58.015625 25.390625 
L 58.015625 17.1875 
L 47.609375 17.1875 
L 47.609375 0 
L 37.796875 0 
L 37.796875 17.1875 
L 4.890625 17.1875 
L 4.890625 26.703125 
z
" id="DejaVuSans-52"/>
       </defs>
       <use xlink:href="#DejaVuSans-52"/>
       <use x="63.623047" xlink:href="#DejaVuSans-48"/>
       <use x="127.246094" xlink:href="#DejaVuSans-48"/>
      </g>
     </g>
    </g>
    <g id="text_10">
     <!-- Epoch -->
     <g transform="translate(201.507244 412.756563)scale(0.1 -0.1)">
      <defs>
       <path d="M 9.8125 72.90625 
L 55.90625 72.90625 
L 55.90625 64.59375 
L 19.671875 64.59375 
L 19.671875 43.015625 
L 54.390625 43.015625 
L 54.390625 34.71875 
L 19.671875 34.71875 
L 19.671875 8.296875 
L 56.78125 8.296875 
L 56.78125 0 
L 9.8125 0 
z
" id="DejaVuSans-69"/>
       <path d="M 18.109375 8.203125 
L 18.109375 -20.796875 
L 9.078125 -20.796875 
L 9.078125 54.6875 
L 18.109375 54.6875 
L 18.109375 46.390625 
Q 20.953125 51.265625 25.265625 53.625 
Q 29.59375 56 35.59375 56 
Q 45.5625 56 51.78125 48.09375 
Q 58.015625 40.1875 58.015625 27.296875 
Q 58.015625 14.40625 51.78125 6.484375 
Q 45.5625 -1.421875 35.59375 -1.421875 
Q 29.59375 -1.421875 25.265625 0.953125 
Q 20.953125 3.328125 18.109375 8.203125 
z
M 48.6875 27.296875 
Q 48.6875 37.203125 44.609375 42.84375 
Q 40.53125 48.484375 33.40625 48.484375 
Q 26.265625 48.484375 22.1875 42.84375 
Q 18.109375 37.203125 18.109375 27.296875 
Q 18.109375 17.390625 22.1875 11.75 
Q 26.265625 6.109375 33.40625 6.109375 
Q 40.53125 6.109375 44.609375 11.75 
Q 48.6875 17.390625 48.6875 27.296875 
z
" id="DejaVuSans-112"/>
       <path d="M 30.609375 48.390625 
Q 23.390625 48.390625 19.1875 42.75 
Q 14.984375 37.109375 14.984375 27.296875 
Q 14.984375 17.484375 19.15625 11.84375 
Q 23.34375 6.203125 30.609375 6.203125 
Q 37.796875 6.203125 41.984375 11.859375 
Q 46.1875 17.53125 46.1875 27.296875 
Q 46.1875 37.015625 41.984375 42.703125 
Q 37.796875 48.390625 30.609375 48.390625 
z
M 30.609375 56 
Q 42.328125 56 49.015625 48.375 
Q 55.71875 40.765625 55.71875 27.296875 
Q 55.71875 13.875 49.015625 6.21875 
Q 42.328125 -1.421875 30.609375 -1.421875 
Q 18.84375 -1.421875 12.171875 6.21875 
Q 5.515625 13.875 5.515625 27.296875 
Q 5.515625 40.765625 12.171875 48.375 
Q 18.84375 56 30.609375 56 
z
" id="DejaVuSans-111"/>
       <path d="M 48.78125 52.59375 
L 48.78125 44.1875 
Q 44.96875 46.296875 41.140625 47.34375 
Q 37.3125 48.390625 33.40625 48.390625 
Q 24.65625 48.390625 19.8125 42.84375 
Q 14.984375 37.3125 14.984375 27.296875 
Q 14.984375 17.28125 19.8125 11.734375 
Q 24.65625 6.203125 33.40625 6.203125 
Q 37.3125 6.203125 41.140625 7.25 
Q 44.96875 8.296875 48.78125 10.40625 
L 48.78125 2.09375 
Q 45.015625 0.34375 40.984375 -0.53125 
Q 36.96875 -1.421875 32.421875 -1.421875 
Q 20.0625 -1.421875 12.78125 6.34375 
Q 5.515625 14.109375 5.515625 27.296875 
Q 5.515625 40.671875 12.859375 48.328125 
Q 20.21875 56 33.015625 56 
Q 37.15625 56 41.109375 55.140625 
Q 45.0625 54.296875 48.78125 52.59375 
z
" id="DejaVuSans-99"/>
       <path d="M 54.890625 33.015625 
L 54.890625 0 
L 45.90625 0 
L 45.90625 32.71875 
Q 45.90625 40.484375 42.875 44.328125 
Q 39.84375 48.1875 33.796875 48.1875 
Q 26.515625 48.1875 22.3125 43.546875 
Q 18.109375 38.921875 18.109375 30.90625 
L 18.109375 0 
L 9.078125 0 
L 9.078125 75.984375 
L 18.109375 75.984375 
L 18.109375 46.1875 
Q 21.34375 51.125 25.703125 53.5625 
Q 30.078125 56 35.796875 56 
Q 45.21875 56 50.046875 50.171875 
Q 54.890625 44.34375 54.890625 33.015625 
z
" id="DejaVuSans-104"/>
      </defs>
      <use xlink:href="#DejaVuSans-69"/>
      <use x="63.183594" xlink:href="#DejaVuSans-112"/>
      <use x="126.660156" xlink:href="#DejaVuSans-111"/>
      <use x="187.841797" xlink:href="#DejaVuSans-99"/>
      <use x="242.822266" xlink:href="#DejaVuSans-104"/>
     </g>
    </g>
   </g>
   <g id="matplotlib.axis_2">
    <g id="ytick_1">
     <g id="line2d_10">
      <defs>
       <path d="M 0 0 
L -3.5 0 
" id="m7cd1e70844" style="stroke:#000000;stroke-width:0.8;"/>
      </defs>
      <g>
       <use style="stroke:#000000;stroke-width:0.8;" x="90" xlink:href="#m7cd1e70844" y="371.972859"/>
      </g>
     </g>
     <g id="text_11">
      <!-- 10 -->
      <g transform="translate(70.275 375.772078)scale(0.1 -0.1)">
       <use xlink:href="#DejaVuSans-49"/>
       <use x="63.623047" xlink:href="#DejaVuSans-48"/>
      </g>
     </g>
    </g>
    <g id="ytick_2">
     <g id="line2d_11">
      <g>
       <use style="stroke:#000000;stroke-width:0.8;" x="90" xlink:href="#m7cd1e70844" y="333.548463"/>
      </g>
     </g>
     <g id="text_12">
      <!-- 20 -->
      <g transform="translate(70.275 337.347681)scale(0.1 -0.1)">
       <use xlink:href="#DejaVuSans-50"/>
       <use x="63.623047" xlink:href="#DejaVuSans-48"/>
      </g>
     </g>
    </g>
    <g id="ytick_3">
     <g id="line2d_12">
      <g>
       <use style="stroke:#000000;stroke-width:0.8;" x="90" xlink:href="#m7cd1e70844" y="295.124066"/>
      </g>
     </g>
     <g id="text_13">
      <!-- 30 -->
      <g transform="translate(70.275 298.923285)scale(0.1 -0.1)">
       <use xlink:href="#DejaVuSans-51"/>
       <use x="63.623047" xlink:href="#DejaVuSans-48"/>
      </g>
     </g>
    </g>
    <g id="ytick_4">
     <g id="line2d_13">
      <g>
       <use style="stroke:#000000;stroke-width:0.8;" x="90" xlink:href="#m7cd1e70844" y="256.69967"/>
      </g>
     </g>
     <g id="text_14">
      <!-- 40 -->
      <g transform="translate(70.275 260.498888)scale(0.1 -0.1)">
       <use xlink:href="#DejaVuSans-52"/>
       <use x="63.623047" xlink:href="#DejaVuSans-48"/>
      </g>
     </g>
    </g>
    <g id="ytick_5">
     <g id="line2d_14">
      <g>
       <use style="stroke:#000000;stroke-width:0.8;" x="90" xlink:href="#m7cd1e70844" y="218.275273"/>
      </g>
     </g>
     <g id="text_15">
      <!-- 50 -->
      <g transform="translate(70.275 222.074492)scale(0.1 -0.1)">
       <use xlink:href="#DejaVuSans-53"/>
       <use x="63.623047" xlink:href="#DejaVuSans-48"/>
      </g>
     </g>
    </g>
    <g id="ytick_6">
     <g id="line2d_15">
      <g>
       <use style="stroke:#000000;stroke-width:0.8;" x="90" xlink:href="#m7cd1e70844" y="179.850877"/>
      </g>
     </g>
     <g id="text_16">
      <!-- 60 -->
      <g transform="translate(70.275 183.650095)scale(0.1 -0.1)">
       <defs>
        <path d="M 33.015625 40.375 
Q 26.375 40.375 22.484375 35.828125 
Q 18.609375 31.296875 18.609375 23.390625 
Q 18.609375 15.53125 22.484375 10.953125 
Q 26.375 6.390625 33.015625 6.390625 
Q 39.65625 6.390625 43.53125 10.953125 
Q 47.40625 15.53125 47.40625 23.390625 
Q 47.40625 31.296875 43.53125 35.828125 
Q 39.65625 40.375 33.015625 40.375 
z
M 52.59375 71.296875 
L 52.59375 62.3125 
Q 48.875 64.0625 45.09375 64.984375 
Q 41.3125 65.921875 37.59375 65.921875 
Q 27.828125 65.921875 22.671875 59.328125 
Q 17.53125 52.734375 16.796875 39.40625 
Q 19.671875 43.65625 24.015625 45.921875 
Q 28.375 48.1875 33.59375 48.1875 
Q 44.578125 48.1875 50.953125 41.515625 
Q 57.328125 34.859375 57.328125 23.390625 
Q 57.328125 12.15625 50.6875 5.359375 
Q 44.046875 -1.421875 33.015625 -1.421875 
Q 20.359375 -1.421875 13.671875 8.265625 
Q 6.984375 17.96875 6.984375 36.375 
Q 6.984375 53.65625 15.1875 63.9375 
Q 23.390625 74.21875 37.203125 74.21875 
Q 40.921875 74.21875 44.703125 73.484375 
Q 48.484375 72.75 52.59375 71.296875 
z
" id="DejaVuSans-54"/>
       </defs>
       <use xlink:href="#DejaVuSans-54"/>
       <use x="63.623047" xlink:href="#DejaVuSans-48"/>
      </g>
     </g>
    </g>
    <g id="ytick_7">
     <g id="line2d_16">
      <g>
       <use style="stroke:#000000;stroke-width:0.8;" x="90" xlink:href="#m7cd1e70844" y="141.42648"/>
      </g>
     </g>
     <g id="text_17">
      <!-- 70 -->
      <g transform="translate(70.275 145.225699)scale(0.1 -0.1)">
       <defs>
        <path d="M 8.203125 72.90625 
L 55.078125 72.90625 
L 55.078125 68.703125 
L 28.609375 0 
L 18.3125 0 
L 43.21875 64.59375 
L 8.203125 64.59375 
z
" id="DejaVuSans-55"/>
       </defs>
       <use xlink:href="#DejaVuSans-55"/>
       <use x="63.623047" xlink:href="#DejaVuSans-48"/>
      </g>
     </g>
    </g>
    <g id="ytick_8">
     <g id="line2d_17">
      <g>
       <use style="stroke:#000000;stroke-width:0.8;" x="90" xlink:href="#m7cd1e70844" y="103.002084"/>
      </g>
     </g>
     <g id="text_18">
      <!-- 80 -->
      <g transform="translate(70.275 106.801303)scale(0.1 -0.1)">
       <defs>
        <path d="M 31.78125 34.625 
Q 24.75 34.625 20.71875 30.859375 
Q 16.703125 27.09375 16.703125 20.515625 
Q 16.703125 13.921875 20.71875 10.15625 
Q 24.75 6.390625 31.78125 6.390625 
Q 38.8125 6.390625 42.859375 10.171875 
Q 46.921875 13.96875 46.921875 20.515625 
Q 46.921875 27.09375 42.890625 30.859375 
Q 38.875 34.625 31.78125 34.625 
z
M 21.921875 38.8125 
Q 15.578125 40.375 12.03125 44.71875 
Q 8.5 49.078125 8.5 55.328125 
Q 8.5 64.0625 14.71875 69.140625 
Q 20.953125 74.21875 31.78125 74.21875 
Q 42.671875 74.21875 48.875 69.140625 
Q 55.078125 64.0625 55.078125 55.328125 
Q 55.078125 49.078125 51.53125 44.71875 
Q 48 40.375 41.703125 38.8125 
Q 48.828125 37.15625 52.796875 32.3125 
Q 56.78125 27.484375 56.78125 20.515625 
Q 56.78125 9.90625 50.3125 4.234375 
Q 43.84375 -1.421875 31.78125 -1.421875 
Q 19.734375 -1.421875 13.25 4.234375 
Q 6.78125 9.90625 6.78125 20.515625 
Q 6.78125 27.484375 10.78125 32.3125 
Q 14.796875 37.15625 21.921875 38.8125 
z
M 18.3125 54.390625 
Q 18.3125 48.734375 21.84375 45.5625 
Q 25.390625 42.390625 31.78125 42.390625 
Q 38.140625 42.390625 41.71875 45.5625 
Q 45.3125 48.734375 45.3125 54.390625 
Q 45.3125 60.0625 41.71875 63.234375 
Q 38.140625 66.40625 31.78125 66.40625 
Q 25.390625 66.40625 21.84375 63.234375 
Q 18.3125 60.0625 18.3125 54.390625 
z
" id="DejaVuSans-56"/>
       </defs>
       <use xlink:href="#DejaVuSans-56"/>
       <use x="63.623047" xlink:href="#DejaVuSans-48"/>
      </g>
     </g>
    </g>
    <g id="ytick_9">
     <g id="line2d_18">
      <g>
       <use style="stroke:#000000;stroke-width:0.8;" x="90" xlink:href="#m7cd1e70844" y="64.577687"/>
      </g>
     </g>
     <g id="text_19">
      <!-- 90 -->
      <g transform="translate(70.275 68.376906)scale(0.1 -0.1)">
       <defs>
        <path d="M 10.984375 1.515625 
L 10.984375 10.5 
Q 14.703125 8.734375 18.5 7.8125 
Q 22.3125 6.890625 25.984375 6.890625 
Q 35.75 6.890625 40.890625 13.453125 
Q 46.046875 20.015625 46.78125 33.40625 
Q 43.953125 29.203125 39.59375 26.953125 
Q 35.25 24.703125 29.984375 24.703125 
Q 19.046875 24.703125 12.671875 31.3125 
Q 6.296875 37.9375 6.296875 49.421875 
Q 6.296875 60.640625 12.9375 67.421875 
Q 19.578125 74.21875 30.609375 74.21875 
Q 43.265625 74.21875 49.921875 64.515625 
Q 56.59375 54.828125 56.59375 36.375 
Q 56.59375 19.140625 48.40625 8.859375 
Q 40.234375 -1.421875 26.421875 -1.421875 
Q 22.703125 -1.421875 18.890625 -0.6875 
Q 15.09375 0.046875 10.984375 1.515625 
z
M 30.609375 32.421875 
Q 37.25 32.421875 41.125 36.953125 
Q 45.015625 41.5 45.015625 49.421875 
Q 45.015625 57.28125 41.125 61.84375 
Q 37.25 66.40625 30.609375 66.40625 
Q 23.96875 66.40625 20.09375 61.84375 
Q 16.21875 57.28125 16.21875 49.421875 
Q 16.21875 41.5 20.09375 36.953125 
Q 23.96875 32.421875 30.609375 32.421875 
z
" id="DejaVuSans-57"/>
       </defs>
       <use xlink:href="#DejaVuSans-57"/>
       <use x="63.623047" xlink:href="#DejaVuSans-48"/>
      </g>
     </g>
    </g>
    <g id="text_20">
     <!-- MAE -->
     <g transform="translate(64.195312 229.05375)rotate(-90)scale(0.1 -0.1)">
      <defs>
       <path d="M 9.8125 72.90625 
L 24.515625 72.90625 
L 43.109375 23.296875 
L 61.8125 72.90625 
L 76.515625 72.90625 
L 76.515625 0 
L 66.890625 0 
L 66.890625 64.015625 
L 48.09375 14.015625 
L 38.1875 14.015625 
L 19.390625 64.015625 
L 19.390625 0 
L 9.8125 0 
z
" id="DejaVuSans-77"/>
       <path d="M 34.1875 63.1875 
L 20.796875 26.90625 
L 47.609375 26.90625 
z
M 28.609375 72.90625 
L 39.796875 72.90625 
L 67.578125 0 
L 57.328125 0 
L 50.6875 18.703125 
L 17.828125 18.703125 
L 11.1875 0 
L 0.78125 0 
z
" id="DejaVuSans-65"/>
      </defs>
      <use xlink:href="#DejaVuSans-77"/>
      <use x="86.279297" xlink:href="#DejaVuSans-65"/>
      <use x="154.6875" xlink:href="#DejaVuSans-69"/>
     </g>
    </g>
   </g>
   <g id="line2d_19">
    <path clip-path="url(#p798365886a)" d="M 90 66.96 
L 90.634091 190.187039 
L 91.268182 216.315629 
L 91.902273 211.896823 
L 92.536364 250.129098 
L 93.170455 259.85047 
L 93.804545 267.535349 
L 94.438636 260.772656 
L 95.072727 289.859924 
L 95.706818 277.141449 
L 96.340909 294.739822 
L 96.975 285.402694 
L 97.609091 285.517967 
L 98.243182 284.67263 
L 98.877273 295.662008 
L 99.511364 297.352681 
L 100.145455 303.193189 
L 100.779545 288.899314 
L 101.413636 299.542872 
L 102.681818 304.038526 
L 103.315909 317.333367 
L 103.95 317.102821 
L 104.584091 318.293977 
L 105.218182 323.097027 
L 105.852273 299.61972 
L 106.486364 319.293011 
L 107.120455 313.33723 
L 107.754545 317.256518 
L 108.388636 317.563914 
L 109.022727 325.633037 
L 109.656818 314.758933 
L 110.290909 309.110546 
L 110.925 324.634003 
L 111.559091 314.528386 
L 112.193182 322.59751 
L 112.827273 327.016315 
L 113.461364 318.793494 
L 114.095455 306.805083 
L 114.729545 319.331436 
L 115.363636 310.685947 
L 115.997727 325.056671 
L 116.631818 334.585921 
L 117.265909 311.070191 
L 117.9 324.249759 
L 118.534091 329.437052 
L 119.168182 308.726302 
L 119.802273 325.517764 
L 120.436364 325.40249 
L 121.070455 311.339161 
L 122.338636 340.234307 
L 123.606818 338.313088 
L 124.240909 347.765489 
L 124.875 347.265972 
L 125.509091 350.109377 
L 126.143182 344.307294 
L 126.777273 345.344752 
L 127.411364 348.188158 
L 128.045455 340.580127 
L 128.679545 341.463888 
L 129.313636 345.652147 
L 129.947727 352.799085 
L 130.581818 348.418704 
L 131.215909 349.686709 
L 131.85 348.764524 
L 132.484091 345.114206 
L 133.118182 342.885591 
L 133.752273 349.225616 
L 134.386364 351.953748 
L 135.020455 346.228513 
L 135.654545 352.722236 
L 136.288636 351.223685 
L 136.922727 351.492656 
L 137.556818 351.223685 
L 138.190909 349.801982 
L 138.825 352.952783 
L 139.459091 352.991207 
L 140.093182 348.918221 
L 140.727273 350.416773 
L 141.361364 348.303431 
L 141.995455 347.07385 
L 142.629545 352.261144 
L 143.263636 350.532046 
L 143.897727 349.225616 
L 144.531818 349.340889 
L 145.165909 351.761626 
L 145.8 349.264041 
L 146.434091 349.725133 
L 147.068182 354.528183 
L 147.702273 349.725133 
L 148.336364 352.107446 
L 148.970455 350.877865 
L 149.604545 351.992173 
L 150.238636 347.265972 
L 150.872727 350.493621 
L 151.506818 350.954714 
L 152.140909 350.954714 
L 152.775 354.950851 
L 153.409091 351.723202 
L 155.311364 358.063227 
L 155.945455 356.257281 
L 156.579545 354.105515 
L 157.213636 354.835578 
L 157.847727 355.296671 
L 158.481818 356.6031 
L 159.115909 351.838475 
L 159.75 357.947954 
L 160.384091 347.842338 
L 161.018182 356.94892 
L 161.652273 358.063227 
L 162.286364 353.529149 
L 162.920455 353.990241 
L 163.554545 350.762592 
L 164.188636 354.374485 
L 164.822727 354.874003 
L 165.456818 350.532046 
L 166.090909 357.448437 
L 166.725 352.914358 
L 167.359091 355.949886 
L 167.993182 355.066125 
L 168.627273 351.992173 
L 169.261364 353.836544 
L 169.895455 350.877865 
L 170.529545 354.528183 
L 171.163636 352.799085 
L 171.797727 355.911461 
L 172.431818 352.606963 
L 173.065909 354.297637 
L 173.7 352.722236 
L 174.334091 353.721271 
L 174.968182 351.146836 
L 175.602273 351.8769 
L 176.236364 357.794257 
L 176.870455 356.065159 
L 177.504545 355.258247 
L 178.138636 355.949886 
L 178.772727 355.104549 
L 179.406818 349.264041 
L 180.040909 353.951817 
L 180.675 354.41291 
L 181.309091 356.372554 
L 181.943182 353.413875 
L 182.577273 355.0277 
L 183.211364 358.409047 
L 184.479545 353.4523 
L 185.113636 356.872071 
L 185.747727 356.910496 
L 186.381818 356.641525 
L 187.015909 351.992173 
L 187.65 353.913393 
L 188.284091 355.0277 
L 188.918182 356.679949 
L 189.552273 352.568539 
L 190.186364 355.450368 
L 190.820455 353.375451 
L 191.454545 357.448437 
L 192.088636 351.223685 
L 192.722727 355.604066 
L 193.356818 354.297637 
L 193.990909 354.182363 
L 195.259091 359.48493 
L 195.893182 358.52432 
L 197.161364 357.525286 
L 197.795455 360.330267 
L 198.429545 350.532046 
L 199.063636 357.371588 
L 199.697727 354.182363 
L 200.331818 355.258247 
L 200.965909 355.565642 
L 201.6 354.605032 
L 202.234091 351.607929 
L 202.868182 357.448437 
L 203.502273 354.797154 
L 204.136364 353.490724 
L 204.770455 356.795222 
L 205.404545 355.757764 
L 206.038636 350.301499 
L 207.306818 352.83751 
L 207.940909 347.765489 
L 209.209091 359.369657 
L 209.843182 356.718374 
L 210.477273 359.292808 
L 211.111364 350.455197 
L 211.745455 355.64249 
L 212.379545 355.37352 
L 213.013636 354.336061 
L 213.647727 357.333164 
L 214.281818 354.41291 
L 214.915909 356.33413 
L 215.55 354.528183 
L 216.818182 358.754867 
L 217.452273 359.369657 
L 218.086364 357.448437 
L 218.720455 356.718374 
L 219.354545 353.913393 
L 219.988636 354.605032 
L 220.622727 354.297637 
L 221.256818 356.679949 
L 221.890909 355.64249 
L 222.525 358.024803 
L 223.793182 353.375451 
L 224.427273 353.490724 
L 225.061364 354.797154 
L 225.695455 356.910496 
L 226.329545 357.525286 
L 226.963636 356.641525 
L 227.597727 351.223685 
L 228.231818 350.455197 
L 228.865909 350.532046 
L 229.5 351.53108 
L 230.134091 359.48493 
L 230.768182 352.568539 
L 231.402273 355.258247 
L 232.036364 354.41291 
L 232.670455 356.872071 
L 233.304545 352.83751 
L 233.938636 355.565642 
L 234.572727 353.490724 
L 235.206818 356.833647 
L 235.840909 354.182363 
L 237.109091 356.795222 
L 237.743182 347.765489 
L 238.377273 359.292808 
L 239.011364 351.607929 
L 239.645455 355.37352 
L 240.279545 355.757764 
L 240.913636 358.52432 
L 241.547727 356.33413 
L 242.181818 356.718374 
L 242.815909 354.336061 
L 243.45 350.301499 
L 244.084091 354.182363 
L 245.352273 360.330267 
L 245.986364 354.528183 
L 246.620455 351.992173 
L 247.254545 355.0277 
L 247.888636 357.448437 
L 248.522727 357.371588 
L 250.425 347.765489 
L 251.059091 355.37352 
L 251.693182 355.565642 
L 252.327273 351.223685 
L 252.961364 359.369657 
L 253.595455 356.33413 
L 254.229545 351.53108 
L 254.863636 357.525286 
L 255.497727 356.910496 
L 256.131818 359.48493 
L 256.765909 352.83751 
L 257.4 358.024803 
L 258.034091 354.797154 
L 258.668182 353.490724 
L 259.302273 358.52432 
L 259.936364 350.301499 
L 260.570455 357.371588 
L 261.204545 356.679949 
L 261.838636 355.258247 
L 262.472727 355.450368 
L 263.106818 360.330267 
L 263.740909 354.297637 
L 264.375 350.455197 
L 265.009091 356.718374 
L 265.643182 356.795222 
L 266.277273 357.448437 
L 266.911364 356.872071 
L 267.545455 355.757764 
L 268.179545 355.604066 
L 268.813636 353.913393 
L 269.447727 359.292808 
L 270.081818 356.718374 
L 270.715909 357.448437 
L 271.35 354.605032 
L 271.984091 356.641525 
L 273.252273 352.568539 
L 273.886364 356.833647 
L 274.520455 353.375451 
L 275.154545 355.64249 
L 275.788636 354.336061 
L 276.422727 354.41291 
L 277.056818 351.992173 
L 277.690909 354.182363 
L 278.325 351.607929 
L 280.227273 357.333164 
L 280.861364 353.913393 
L 281.495455 355.64249 
L 282.129545 352.568539 
L 282.763636 351.223685 
L 283.397727 359.292808 
L 284.031818 354.605032 
L 284.665909 356.679949 
L 285.3 353.375451 
L 285.934091 354.528183 
L 286.568182 353.490724 
L 287.202273 356.718374 
L 287.836364 356.641525 
L 288.470455 354.182363 
L 289.104545 360.330267 
L 289.738636 355.604066 
L 290.372727 352.83751 
L 291.006818 355.258247 
L 291.640909 355.757764 
L 292.275 351.607929 
L 292.909091 356.872071 
L 293.543182 356.910496 
L 294.177273 354.797154 
L 294.811364 357.371588 
L 295.445455 355.450368 
L 296.079545 357.333164 
L 296.713636 355.565642 
L 297.347727 356.833647 
L 297.981818 357.448437 
L 298.615909 357.525286 
L 299.25 359.48493 
L 300.518182 350.455197 
L 301.152273 357.448437 
L 301.786364 354.182363 
L 302.420455 356.33413 
L 303.054545 355.37352 
L 303.688636 358.52432 
L 304.322727 347.765489 
L 304.956818 359.369657 
L 305.590909 350.532046 
L 306.225 358.024803 
L 306.859091 351.53108 
L 307.493182 354.41291 
L 308.127273 354.336061 
L 308.761364 351.992173 
L 309.395455 353.490724 
L 310.029545 350.301499 
L 310.663636 356.795222 
L 311.297727 356.718374 
L 311.931818 354.297637 
L 312.565909 356.679949 
L 313.2 354.605032 
L 313.834091 351.223685 
L 314.468182 355.565642 
L 315.102273 353.490724 
L 315.736364 359.48493 
L 316.370455 352.83751 
L 317.004545 350.301499 
L 317.638636 353.490724 
L 318.272727 354.297637 
L 318.906818 357.371588 
L 319.540909 356.718374 
L 320.175 354.182363 
L 320.809091 358.024803 
L 321.443182 358.52432 
L 322.077273 360.330267 
L 322.711364 356.641525 
L 323.345455 353.913393 
L 323.979545 354.528183 
L 324.613636 347.765489 
L 325.247727 359.369657 
L 325.881818 351.607929 
L 326.515909 351.53108 
L 327.15 350.455197 
L 327.784091 354.336061 
L 328.418182 354.182363 
L 329.686364 355.757764 
L 330.320455 354.41291 
L 331.588636 356.795222 
L 332.222727 356.718374 
L 332.856818 353.375451 
L 333.490909 356.872071 
L 334.125 357.448437 
L 334.759091 355.450368 
L 335.393182 355.37352 
L 336.027273 351.992173 
L 336.661364 350.532046 
L 337.295455 355.64249 
L 337.929545 357.525286 
L 338.563636 357.333164 
L 339.197727 355.258247 
L 340.465909 359.292808 
L 341.1 356.910496 
L 341.734091 352.568539 
L 342.368182 354.797154 
L 343.002273 356.33413 
L 343.002273 356.33413 
" style="fill:none;stroke:#1f77b4;stroke-linecap:square;stroke-width:1.5;"/>
   </g>
   <g id="line2d_20">
    <path clip-path="url(#p798365886a)" d="M 90 118.256569 
L 90.634091 182.425311 
L 91.268182 185.537687 
L 91.902273 181.042033 
L 92.536364 227.727675 
L 93.170455 228.496163 
L 93.804545 242.482643 
L 94.438636 224.19263 
L 95.072727 242.098399 
L 95.706818 245.287624 
L 96.340909 262.770724 
L 96.975 267.573774 
L 97.609091 258.428767 
L 98.243182 240.638272 
L 98.877273 268.76493 
L 99.511364 274.413316 
L 100.145455 260.618958 
L 100.779545 279.216366 
L 101.413636 280.445947 
L 102.047727 281.291283 
L 102.681818 268.226989 
L 103.315909 295.085642 
L 103.95 299.389174 
L 104.584091 276.565083 
L 105.218182 296.507344 
L 105.852273 266.036798 
L 106.486364 304.153799 
L 107.120455 289.437255 
L 107.754545 290.43629 
L 108.388636 295.047217 
L 109.022727 309.686912 
L 109.656818 294.586125 
L 110.290909 286.478577 
L 110.925 300.772452 
L 111.559091 279.869581 
L 112.193182 291.781144 
L 112.827273 306.612961 
L 113.461364 293.125997 
L 114.095455 285.325845 
L 114.729545 290.167319 
L 115.363636 310.416976 
L 115.997727 284.595781 
L 116.631818 300.080813 
L 117.265909 274.759136 
L 117.9 305.03756 
L 118.534091 313.490928 
L 119.168182 291.166353 
L 119.802273 301.733062 
L 120.436364 303.731131 
L 121.070455 279.60061 
L 121.704545 310.532249 
L 122.338636 303.539009 
L 122.972727 312.99141 
L 123.606818 308.803151 
L 124.240909 321.790597 
L 124.875 310.148005 
L 125.509091 333.894282 
L 126.143182 320.983685 
L 126.777273 320.637865 
L 127.411364 324.7877 
L 128.045455 301.848335 
L 128.679545 320.599441 
L 129.947727 285.748513 
L 130.581818 327.05474 
L 131.215909 318.601372 
L 131.85 315.066328 
L 132.484091 316.103787 
L 133.118182 309.49479 
L 133.752273 305.959746 
L 134.386364 320.176773 
L 135.020455 319.792529 
L 135.654545 332.549428 
L 136.288636 327.554257 
L 136.922727 320.829987 
L 137.556818 324.634003 
L 138.190909 329.475476 
L 138.825 311.877103 
L 139.459091 317.487065 
L 140.093182 318.447675 
L 140.727273 312.837713 
L 141.995455 327.400559 
L 142.629545 329.360203 
L 143.263636 321.329504 
L 143.897727 293.010724 
L 144.531818 317.102821 
L 145.165909 315.104752 
L 145.8 325.095095 
L 146.434091 325.056671 
L 147.068182 331.204574 
L 147.702273 331.050877 
L 148.336364 335.469682 
L 148.970455 336.622414 
L 149.604545 330.666633 
L 150.238636 328.668564 
L 150.872727 317.986582 
L 151.506818 322.097992 
L 152.140909 302.885794 
L 152.775 326.478374 
L 153.409091 341.694435 
L 154.043182 347.189123 
L 154.677273 346.305362 
L 155.311364 352.530114 
L 155.945455 349.494587 
L 156.579545 350.070953 
L 157.847727 352.49169 
L 158.481818 349.071919 
L 159.115909 352.107446 
L 159.75 352.49169 
L 160.384091 350.724168 
L 161.018182 352.914358 
L 161.652273 359.062262 
L 162.286364 355.834612 
L 162.920455 351.723202 
L 163.554545 350.378348 
L 164.188636 354.451334 
L 164.822727 355.296671 
L 165.456818 347.842338 
L 166.090909 358.831715 
L 166.725 353.144905 
L 167.359091 354.259212 
L 167.993182 357.371588 
L 168.627273 353.759695 
L 169.261364 352.568539 
L 169.895455 354.41291 
L 170.529545 355.565642 
L 171.163636 354.989276 
L 171.797727 354.681881 
L 172.431818 354.835578 
L 173.065909 357.448437 
L 173.7 356.526252 
L 174.334091 357.525286 
L 174.968182 352.414841 
L 175.602273 354.758729 
L 176.236364 358.52432 
L 176.870455 361.137179 
L 177.504545 355.411944 
L 178.138636 355.98831 
L 178.772727 358.255349 
L 179.406818 354.182363 
L 180.040909 356.987344 
L 180.675 357.602135 
L 181.309091 356.218856 
L 181.943182 353.298602 
L 182.577273 355.181398 
L 183.211364 360.44554 
L 183.845455 358.409047 
L 184.479545 356.987344 
L 185.113636 359.523355 
L 185.747727 358.678018 
L 186.381818 361.713545 
L 187.015909 354.41291 
L 187.65 359.600203 
L 188.284091 358.293774 
L 188.918182 360.407116 
L 189.552273 360.176569 
L 190.186364 359.408081 
L 190.820455 357.486861 
L 191.454545 358.447471 
L 192.088636 358.678018 
L 192.722727 355.411944 
L 193.356818 357.986379 
L 193.990909 362.213062 
L 194.625 360.407116 
L 195.259091 361.636696 
L 195.893182 363.865311 
L 196.527273 363.442643 
L 197.161364 360.752935 
L 197.795455 360.752935 
L 198.429545 357.640559 
L 199.063636 361.021906 
L 199.697727 362.059365 
L 200.331818 360.138145 
L 200.965909 360.945057 
L 201.6 359.638628 
L 202.234091 359.292808 
L 202.868182 360.291842 
L 203.502273 360.061296 
L 204.136364 362.789428 
L 204.770455 360.983482 
L 206.038636 358.485896 
L 206.672727 360.09972 
L 207.306818 359.946023 
L 207.940909 352.914358 
L 208.575 361.329301 
L 209.209091 363.788463 
L 209.843182 363.481067 
L 210.477273 358.52432 
L 211.111364 356.372554 
L 211.745455 358.485896 
L 212.379545 358.409047 
L 213.013636 359.100686 
L 213.647727 362.136213 
L 214.281818 361.713545 
L 214.915909 362.174638 
L 215.55 363.634765 
L 216.184091 361.559848 
L 216.818182 365.287014 
L 217.452273 363.788463 
L 218.086364 361.329301 
L 218.720455 365.709682 
L 219.354545 366.093926 
L 219.988636 366.747141 
L 220.622727 365.287014 
L 221.256818 366.47817 
L 221.890909 364.403253 
L 222.525 360.560813 
L 223.159091 364.518526 
L 223.793182 365.594409 
L 224.427273 364.55695 
L 225.061364 363.903736 
L 225.695455 364.90277 
L 226.329545 363.557916 
L 226.963636 364.979619 
L 227.597727 361.175604 
L 228.231818 363.519492 
L 228.865909 359.523355 
L 229.5 364.787497 
L 230.134091 364.095858 
L 230.768182 364.326404 
L 231.402273 364.134282 
L 232.036364 360.945057 
L 232.670455 365.978653 
L 233.304545 365.094892 
L 233.938636 361.290877 
L 234.572727 368.322541 
L 235.206818 364.864346 
L 235.840909 365.671258 
L 236.475 363.596341 
L 237.109091 362.98155 
L 237.743182 360.983482 
L 238.377273 364.864346 
L 239.011364 365.287014 
L 239.645455 365.325438 
L 240.279545 363.019975 
L 240.913636 364.749072 
L 241.547727 362.904701 
L 242.181818 364.672224 
L 242.815909 361.905667 
L 244.084091 366.708717 
L 244.718182 359.408081 
L 245.352273 364.787497 
L 245.986364 365.824956 
L 246.620455 363.596341 
L 247.254545 364.403253 
L 247.888636 366.324473 
L 248.522727 363.826887 
L 249.156818 365.171741 
L 250.425 365.133316 
L 251.059091 363.94216 
L 251.693182 362.097789 
L 252.327273 362.289911 
L 252.961364 365.671258 
L 253.595455 365.86338 
L 254.229545 361.867243 
L 254.863636 364.633799 
L 255.497727 366.516595 
L 256.131818 361.40615 
L 257.4 366.747141 
L 258.034091 365.325438 
L 258.668182 361.944091 
L 259.302273 366.631868 
L 259.936364 365.133316 
L 260.570455 360.44554 
L 261.204545 366.132351 
L 261.838636 362.482033 
L 262.472727 365.171741 
L 263.106818 365.133316 
L 263.740909 366.286048 
L 264.375 364.55695 
L 265.643182 365.479136 
L 266.277273 366.47817 
L 266.911364 362.558882 
L 267.545455 362.98155 
L 268.179545 366.939263 
L 268.813636 368.591512 
L 269.447727 365.018043 
L 270.081818 365.51756 
L 270.715909 364.749072 
L 271.35 364.326404 
L 271.984091 364.864346 
L 272.618182 367.400356 
L 273.252273 362.289911 
L 273.886364 366.324473 
L 274.520455 362.712579 
L 275.154545 363.404219 
L 276.422727 365.594409 
L 277.056818 366.324473 
L 277.690909 359.100686 
L 278.325 365.479136 
L 278.959091 364.172706 
L 279.593182 367.323507 
L 280.227273 367.515629 
L 280.861364 364.710648 
L 281.495455 365.094892 
L 282.129545 366.247624 
L 282.763636 366.401321 
L 283.397727 363.634765 
L 284.031818 364.172706 
L 285.3 366.093926 
L 285.934091 365.094892 
L 286.568182 361.329301 
L 287.202273 363.980584 
L 287.836364 363.404219 
L 288.470455 362.98155 
L 289.104545 363.404219 
L 289.738636 365.632834 
L 290.372727 363.788463 
L 291.006818 366.939263 
L 291.640909 366.017078 
L 292.275 366.362897 
L 292.909091 363.711614 
L 293.543182 367.630902 
L 294.177273 366.670292 
L 294.811364 361.214028 
L 295.445455 367.707751 
L 296.079545 363.750038 
L 296.713636 368.39939 
L 297.347727 363.634765 
L 297.981818 361.675121 
L 298.615909 368.015146 
L 299.25 365.210165 
L 299.884091 360.253418 
L 300.518182 365.901804 
L 301.152273 363.442643 
L 301.786364 363.903736 
L 302.420455 367.400356 
L 303.054545 367.169809 
L 303.688636 366.439746 
L 304.322727 367.246658 
L 304.956818 363.711614 
L 305.590909 365.325438 
L 306.225 363.557916 
L 306.859091 367.7846 
L 307.493182 364.825921 
L 308.127273 366.132351 
L 308.761364 365.363863 
L 309.395455 365.171741 
L 310.029545 362.251487 
L 310.663636 365.287014 
L 311.297727 365.671258 
L 311.931818 363.019975 
L 312.565909 368.860483 
L 313.2 366.785565 
L 313.834091 367.938297 
L 314.468182 365.632834 
L 315.102273 364.403253 
L 315.736364 365.479136 
L 316.370455 363.903736 
L 317.004545 362.827853 
L 317.638636 365.171741 
L 318.272727 364.518526 
L 318.906818 364.595375 
L 319.540909 368.629936 
L 320.175 367.400356 
L 320.809091 365.86338 
L 322.077273 364.55695 
L 322.711364 363.596341 
L 323.345455 360.176569 
L 323.979545 364.249555 
L 324.613636 366.132351 
L 325.247727 367.43878 
L 325.881818 364.979619 
L 326.515909 366.209199 
L 327.15 368.245693 
L 327.784091 365.86338 
L 328.418182 362.751004 
L 329.052273 367.246658 
L 329.686364 367.554053 
L 330.954545 367.016112 
L 331.588636 364.749072 
L 332.222727 361.905667 
L 332.856818 366.286048 
L 333.490909 366.939263 
L 334.125 362.98155 
L 334.759091 366.401321 
L 335.393182 365.402287 
L 336.027273 367.592478 
L 337.929545 364.403253 
L 338.563636 365.133316 
L 339.197727 366.132351 
L 339.831818 362.904701 
L 340.465909 363.32737 
L 341.1 364.787497 
L 341.734091 365.018043 
L 343.002273 369.36 
L 343.636364 363.826887 
L 343.636364 363.826887 
" style="fill:none;stroke:#ff7f0e;stroke-linecap:square;stroke-width:1.5;"/>
   </g>
   <g id="patch_3">
    <path d="M 90 384.48 
L 90 51.84 
" style="fill:none;stroke:#000000;stroke-linecap:square;stroke-linejoin:miter;stroke-width:0.8;"/>
   </g>
   <g id="patch_4">
    <path d="M 343.636364 384.48 
L 343.636364 51.84 
" style="fill:none;stroke:#000000;stroke-linecap:square;stroke-linejoin:miter;stroke-width:0.8;"/>
   </g>
   <g id="patch_5">
    <path d="M 90 384.48 
L 343.636364 384.48 
" style="fill:none;stroke:#000000;stroke-linecap:square;stroke-linejoin:miter;stroke-width:0.8;"/>
   </g>
   <g id="patch_6">
    <path d="M 90 51.84 
L 343.636364 51.84 
" style="fill:none;stroke:#000000;stroke-linecap:square;stroke-linejoin:miter;stroke-width:0.8;"/>
   </g>
   <g id="legend_1">
    <g id="patch_7">
     <path d="M 143.201989 89.19625 
L 336.636364 89.19625 
Q 338.636364 89.19625 338.636364 87.19625 
L 338.636364 58.84 
Q 338.636364 56.84 336.636364 56.84 
L 143.201989 56.84 
Q 141.201989 56.84 141.201989 58.84 
L 141.201989 87.19625 
Q 141.201989 89.19625 143.201989 89.19625 
z
" style="fill:#ffffff;opacity:0.8;stroke:#cccccc;stroke-linejoin:miter;"/>
    </g>
    <g id="line2d_21">
     <path d="M 145.201989 64.938437 
L 165.201989 64.938437 
" style="fill:none;stroke:#1f77b4;stroke-linecap:square;stroke-width:1.5;"/>
    </g>
    <g id="line2d_22"/>
    <g id="text_21">
     <!-- Train from ImageNet pre-trained -->
     <g transform="translate(173.201989 68.438437)scale(0.1 -0.1)">
      <defs>
       <path d="M -0.296875 72.90625 
L 61.375 72.90625 
L 61.375 64.59375 
L 35.5 64.59375 
L 35.5 0 
L 25.59375 0 
L 25.59375 64.59375 
L -0.296875 64.59375 
z
" id="DejaVuSans-84"/>
       <path d="M 41.109375 46.296875 
Q 39.59375 47.171875 37.8125 47.578125 
Q 36.03125 48 33.890625 48 
Q 26.265625 48 22.1875 43.046875 
Q 18.109375 38.09375 18.109375 28.8125 
L 18.109375 0 
L 9.078125 0 
L 9.078125 54.6875 
L 18.109375 54.6875 
L 18.109375 46.1875 
Q 20.953125 51.171875 25.484375 53.578125 
Q 30.03125 56 36.53125 56 
Q 37.453125 56 38.578125 55.875 
Q 39.703125 55.765625 41.0625 55.515625 
z
" id="DejaVuSans-114"/>
       <path d="M 34.28125 27.484375 
Q 23.390625 27.484375 19.1875 25 
Q 14.984375 22.515625 14.984375 16.5 
Q 14.984375 11.71875 18.140625 8.90625 
Q 21.296875 6.109375 26.703125 6.109375 
Q 34.1875 6.109375 38.703125 11.40625 
Q 43.21875 16.703125 43.21875 25.484375 
L 43.21875 27.484375 
z
M 52.203125 31.203125 
L 52.203125 0 
L 43.21875 0 
L 43.21875 8.296875 
Q 40.140625 3.328125 35.546875 0.953125 
Q 30.953125 -1.421875 24.3125 -1.421875 
Q 15.921875 -1.421875 10.953125 3.296875 
Q 6 8.015625 6 15.921875 
Q 6 25.140625 12.171875 29.828125 
Q 18.359375 34.515625 30.609375 34.515625 
L 43.21875 34.515625 
L 43.21875 35.40625 
Q 43.21875 41.609375 39.140625 45 
Q 35.0625 48.390625 27.6875 48.390625 
Q 23 48.390625 18.546875 47.265625 
Q 14.109375 46.140625 10.015625 43.890625 
L 10.015625 52.203125 
Q 14.9375 54.109375 19.578125 55.046875 
Q 24.21875 56 28.609375 56 
Q 40.484375 56 46.34375 49.84375 
Q 52.203125 43.703125 52.203125 31.203125 
z
" id="DejaVuSans-97"/>
       <path d="M 9.421875 54.6875 
L 18.40625 54.6875 
L 18.40625 0 
L 9.421875 0 
z
M 9.421875 75.984375 
L 18.40625 75.984375 
L 18.40625 64.59375 
L 9.421875 64.59375 
z
" id="DejaVuSans-105"/>
       <path d="M 54.890625 33.015625 
L 54.890625 0 
L 45.90625 0 
L 45.90625 32.71875 
Q 45.90625 40.484375 42.875 44.328125 
Q 39.84375 48.1875 33.796875 48.1875 
Q 26.515625 48.1875 22.3125 43.546875 
Q 18.109375 38.921875 18.109375 30.90625 
L 18.109375 0 
L 9.078125 0 
L 9.078125 54.6875 
L 18.109375 54.6875 
L 18.109375 46.1875 
Q 21.34375 51.125 25.703125 53.5625 
Q 30.078125 56 35.796875 56 
Q 45.21875 56 50.046875 50.171875 
Q 54.890625 44.34375 54.890625 33.015625 
z
" id="DejaVuSans-110"/>
       <path id="DejaVuSans-32"/>
       <path d="M 37.109375 75.984375 
L 37.109375 68.5 
L 28.515625 68.5 
Q 23.6875 68.5 21.796875 66.546875 
Q 19.921875 64.59375 19.921875 59.515625 
L 19.921875 54.6875 
L 34.71875 54.6875 
L 34.71875 47.703125 
L 19.921875 47.703125 
L 19.921875 0 
L 10.890625 0 
L 10.890625 47.703125 
L 2.296875 47.703125 
L 2.296875 54.6875 
L 10.890625 54.6875 
L 10.890625 58.5 
Q 10.890625 67.625 15.140625 71.796875 
Q 19.390625 75.984375 28.609375 75.984375 
z
" id="DejaVuSans-102"/>
       <path d="M 52 44.1875 
Q 55.375 50.25 60.0625 53.125 
Q 64.75 56 71.09375 56 
Q 79.640625 56 84.28125 50.015625 
Q 88.921875 44.046875 88.921875 33.015625 
L 88.921875 0 
L 79.890625 0 
L 79.890625 32.71875 
Q 79.890625 40.578125 77.09375 44.375 
Q 74.3125 48.1875 68.609375 48.1875 
Q 61.625 48.1875 57.5625 43.546875 
Q 53.515625 38.921875 53.515625 30.90625 
L 53.515625 0 
L 44.484375 0 
L 44.484375 32.71875 
Q 44.484375 40.625 41.703125 44.40625 
Q 38.921875 48.1875 33.109375 48.1875 
Q 26.21875 48.1875 22.15625 43.53125 
Q 18.109375 38.875 18.109375 30.90625 
L 18.109375 0 
L 9.078125 0 
L 9.078125 54.6875 
L 18.109375 54.6875 
L 18.109375 46.1875 
Q 21.1875 51.21875 25.484375 53.609375 
Q 29.78125 56 35.6875 56 
Q 41.65625 56 45.828125 52.96875 
Q 50 49.953125 52 44.1875 
z
" id="DejaVuSans-109"/>
       <path d="M 9.8125 72.90625 
L 19.671875 72.90625 
L 19.671875 0 
L 9.8125 0 
z
" id="DejaVuSans-73"/>
       <path d="M 45.40625 27.984375 
Q 45.40625 37.75 41.375 43.109375 
Q 37.359375 48.484375 30.078125 48.484375 
Q 22.859375 48.484375 18.828125 43.109375 
Q 14.796875 37.75 14.796875 27.984375 
Q 14.796875 18.265625 18.828125 12.890625 
Q 22.859375 7.515625 30.078125 7.515625 
Q 37.359375 7.515625 41.375 12.890625 
Q 45.40625 18.265625 45.40625 27.984375 
z
M 54.390625 6.78125 
Q 54.390625 -7.171875 48.1875 -13.984375 
Q 42 -20.796875 29.203125 -20.796875 
Q 24.46875 -20.796875 20.265625 -20.09375 
Q 16.0625 -19.390625 12.109375 -17.921875 
L 12.109375 -9.1875 
Q 16.0625 -11.328125 19.921875 -12.34375 
Q 23.78125 -13.375 27.78125 -13.375 
Q 36.625 -13.375 41.015625 -8.765625 
Q 45.40625 -4.15625 45.40625 5.171875 
L 45.40625 9.625 
Q 42.625 4.78125 38.28125 2.390625 
Q 33.9375 0 27.875 0 
Q 17.828125 0 11.671875 7.65625 
Q 5.515625 15.328125 5.515625 27.984375 
Q 5.515625 40.671875 11.671875 48.328125 
Q 17.828125 56 27.875 56 
Q 33.9375 56 38.28125 53.609375 
Q 42.625 51.21875 45.40625 46.390625 
L 45.40625 54.6875 
L 54.390625 54.6875 
z
" id="DejaVuSans-103"/>
       <path d="M 56.203125 29.59375 
L 56.203125 25.203125 
L 14.890625 25.203125 
Q 15.484375 15.921875 20.484375 11.0625 
Q 25.484375 6.203125 34.421875 6.203125 
Q 39.59375 6.203125 44.453125 7.46875 
Q 49.3125 8.734375 54.109375 11.28125 
L 54.109375 2.78125 
Q 49.265625 0.734375 44.1875 -0.34375 
Q 39.109375 -1.421875 33.890625 -1.421875 
Q 20.796875 -1.421875 13.15625 6.1875 
Q 5.515625 13.8125 5.515625 26.8125 
Q 5.515625 40.234375 12.765625 48.109375 
Q 20.015625 56 32.328125 56 
Q 43.359375 56 49.78125 48.890625 
Q 56.203125 41.796875 56.203125 29.59375 
z
M 47.21875 32.234375 
Q 47.125 39.59375 43.09375 43.984375 
Q 39.0625 48.390625 32.421875 48.390625 
Q 24.90625 48.390625 20.390625 44.140625 
Q 15.875 39.890625 15.1875 32.171875 
z
" id="DejaVuSans-101"/>
       <path d="M 9.8125 72.90625 
L 23.09375 72.90625 
L 55.421875 11.921875 
L 55.421875 72.90625 
L 64.984375 72.90625 
L 64.984375 0 
L 51.703125 0 
L 19.390625 60.984375 
L 19.390625 0 
L 9.8125 0 
z
" id="DejaVuSans-78"/>
       <path d="M 18.3125 70.21875 
L 18.3125 54.6875 
L 36.8125 54.6875 
L 36.8125 47.703125 
L 18.3125 47.703125 
L 18.3125 18.015625 
Q 18.3125 11.328125 20.140625 9.421875 
Q 21.96875 7.515625 27.59375 7.515625 
L 36.8125 7.515625 
L 36.8125 0 
L 27.59375 0 
Q 17.1875 0 13.234375 3.875 
Q 9.28125 7.765625 9.28125 18.015625 
L 9.28125 47.703125 
L 2.6875 47.703125 
L 2.6875 54.6875 
L 9.28125 54.6875 
L 9.28125 70.21875 
z
" id="DejaVuSans-116"/>
       <path d="M 4.890625 31.390625 
L 31.203125 31.390625 
L 31.203125 23.390625 
L 4.890625 23.390625 
z
" id="DejaVuSans-45"/>
       <path d="M 45.40625 46.390625 
L 45.40625 75.984375 
L 54.390625 75.984375 
L 54.390625 0 
L 45.40625 0 
L 45.40625 8.203125 
Q 42.578125 3.328125 38.25 0.953125 
Q 33.9375 -1.421875 27.875 -1.421875 
Q 17.96875 -1.421875 11.734375 6.484375 
Q 5.515625 14.40625 5.515625 27.296875 
Q 5.515625 40.1875 11.734375 48.09375 
Q 17.96875 56 27.875 56 
Q 33.9375 56 38.25 53.625 
Q 42.578125 51.265625 45.40625 46.390625 
z
M 14.796875 27.296875 
Q 14.796875 17.390625 18.875 11.75 
Q 22.953125 6.109375 30.078125 6.109375 
Q 37.203125 6.109375 41.296875 11.75 
Q 45.40625 17.390625 45.40625 27.296875 
Q 45.40625 37.203125 41.296875 42.84375 
Q 37.203125 48.484375 30.078125 48.484375 
Q 22.953125 48.484375 18.875 42.84375 
Q 14.796875 37.203125 14.796875 27.296875 
z
" id="DejaVuSans-100"/>
      </defs>
      <use xlink:href="#DejaVuSans-84"/>
      <use x="46.333984" xlink:href="#DejaVuSans-114"/>
      <use x="87.447266" xlink:href="#DejaVuSans-97"/>
      <use x="148.726562" xlink:href="#DejaVuSans-105"/>
      <use x="176.509766" xlink:href="#DejaVuSans-110"/>
      <use x="239.888672" xlink:href="#DejaVuSans-32"/>
      <use x="271.675781" xlink:href="#DejaVuSans-102"/>
      <use x="306.880859" xlink:href="#DejaVuSans-114"/>
      <use x="345.744141" xlink:href="#DejaVuSans-111"/>
      <use x="406.925781" xlink:href="#DejaVuSans-109"/>
      <use x="504.337891" xlink:href="#DejaVuSans-32"/>
      <use x="536.125" xlink:href="#DejaVuSans-73"/>
      <use x="565.617188" xlink:href="#DejaVuSans-109"/>
      <use x="663.029297" xlink:href="#DejaVuSans-97"/>
      <use x="724.308594" xlink:href="#DejaVuSans-103"/>
      <use x="787.785156" xlink:href="#DejaVuSans-101"/>
      <use x="849.308594" xlink:href="#DejaVuSans-78"/>
      <use x="924.113281" xlink:href="#DejaVuSans-101"/>
      <use x="985.636719" xlink:href="#DejaVuSans-116"/>
      <use x="1024.845703" xlink:href="#DejaVuSans-32"/>
      <use x="1056.632812" xlink:href="#DejaVuSans-112"/>
      <use x="1120.109375" xlink:href="#DejaVuSans-114"/>
      <use x="1158.972656" xlink:href="#DejaVuSans-101"/>
      <use x="1220.496094" xlink:href="#DejaVuSans-45"/>
      <use x="1256.580078" xlink:href="#DejaVuSans-116"/>
      <use x="1295.789062" xlink:href="#DejaVuSans-114"/>
      <use x="1336.902344" xlink:href="#DejaVuSans-97"/>
      <use x="1398.181641" xlink:href="#DejaVuSans-105"/>
      <use x="1425.964844" xlink:href="#DejaVuSans-110"/>
      <use x="1489.34375" xlink:href="#DejaVuSans-101"/>
      <use x="1550.867188" xlink:href="#DejaVuSans-100"/>
     </g>
    </g>
    <g id="line2d_23">
     <path d="M 145.201989 79.616562 
L 165.201989 79.616562 
" style="fill:none;stroke:#ff7f0e;stroke-linecap:square;stroke-width:1.5;"/>
    </g>
    <g id="line2d_24"/>
    <g id="text_22">
     <!-- Train from synthetic-2d-texture -->
     <g transform="translate(173.201989 83.116562)scale(0.1 -0.1)">
      <defs>
       <path d="M 44.28125 53.078125 
L 44.28125 44.578125 
Q 40.484375 46.53125 36.375 47.5 
Q 32.28125 48.484375 27.875 48.484375 
Q 21.1875 48.484375 17.84375 46.4375 
Q 14.5 44.390625 14.5 40.28125 
Q 14.5 37.15625 16.890625 35.375 
Q 19.28125 33.59375 26.515625 31.984375 
L 29.59375 31.296875 
Q 39.15625 29.25 43.1875 25.515625 
Q 47.21875 21.78125 47.21875 15.09375 
Q 47.21875 7.46875 41.1875 3.015625 
Q 35.15625 -1.421875 24.609375 -1.421875 
Q 20.21875 -1.421875 15.453125 -0.5625 
Q 10.6875 0.296875 5.421875 2 
L 5.421875 11.28125 
Q 10.40625 8.6875 15.234375 7.390625 
Q 20.0625 6.109375 24.8125 6.109375 
Q 31.15625 6.109375 34.5625 8.28125 
Q 37.984375 10.453125 37.984375 14.40625 
Q 37.984375 18.0625 35.515625 20.015625 
Q 33.0625 21.96875 24.703125 23.78125 
L 21.578125 24.515625 
Q 13.234375 26.265625 9.515625 29.90625 
Q 5.8125 33.546875 5.8125 39.890625 
Q 5.8125 47.609375 11.28125 51.796875 
Q 16.75 56 26.8125 56 
Q 31.78125 56 36.171875 55.265625 
Q 40.578125 54.546875 44.28125 53.078125 
z
" id="DejaVuSans-115"/>
       <path d="M 32.171875 -5.078125 
Q 28.375 -14.84375 24.75 -17.8125 
Q 21.140625 -20.796875 15.09375 -20.796875 
L 7.90625 -20.796875 
L 7.90625 -13.28125 
L 13.1875 -13.28125 
Q 16.890625 -13.28125 18.9375 -11.515625 
Q 21 -9.765625 23.484375 -3.21875 
L 25.09375 0.875 
L 2.984375 54.6875 
L 12.5 54.6875 
L 29.59375 11.921875 
L 46.6875 54.6875 
L 56.203125 54.6875 
z
" id="DejaVuSans-121"/>
       <path d="M 54.890625 54.6875 
L 35.109375 28.078125 
L 55.90625 0 
L 45.3125 0 
L 29.390625 21.484375 
L 13.484375 0 
L 2.875 0 
L 24.125 28.609375 
L 4.6875 54.6875 
L 15.28125 54.6875 
L 29.78125 35.203125 
L 44.28125 54.6875 
z
" id="DejaVuSans-120"/>
       <path d="M 8.5 21.578125 
L 8.5 54.6875 
L 17.484375 54.6875 
L 17.484375 21.921875 
Q 17.484375 14.15625 20.5 10.265625 
Q 23.53125 6.390625 29.59375 6.390625 
Q 36.859375 6.390625 41.078125 11.03125 
Q 45.3125 15.671875 45.3125 23.6875 
L 45.3125 54.6875 
L 54.296875 54.6875 
L 54.296875 0 
L 45.3125 0 
L 45.3125 8.40625 
Q 42.046875 3.421875 37.71875 1 
Q 33.40625 -1.421875 27.6875 -1.421875 
Q 18.265625 -1.421875 13.375 4.4375 
Q 8.5 10.296875 8.5 21.578125 
z
M 31.109375 56 
z
" id="DejaVuSans-117"/>
      </defs>
      <use xlink:href="#DejaVuSans-84"/>
      <use x="46.333984" xlink:href="#DejaVuSans-114"/>
      <use x="87.447266" xlink:href="#DejaVuSans-97"/>
      <use x="148.726562" xlink:href="#DejaVuSans-105"/>
      <use x="176.509766" xlink:href="#DejaVuSans-110"/>
      <use x="239.888672" xlink:href="#DejaVuSans-32"/>
      <use x="271.675781" xlink:href="#DejaVuSans-102"/>
      <use x="306.880859" xlink:href="#DejaVuSans-114"/>
      <use x="345.744141" xlink:href="#DejaVuSans-111"/>
      <use x="406.925781" xlink:href="#DejaVuSans-109"/>
      <use x="504.337891" xlink:href="#DejaVuSans-32"/>
      <use x="536.125" xlink:href="#DejaVuSans-115"/>
      <use x="588.224609" xlink:href="#DejaVuSans-121"/>
      <use x="647.404297" xlink:href="#DejaVuSans-110"/>
      <use x="710.783203" xlink:href="#DejaVuSans-116"/>
      <use x="749.992188" xlink:href="#DejaVuSans-104"/>
      <use x="813.371094" xlink:href="#DejaVuSans-101"/>
      <use x="874.894531" xlink:href="#DejaVuSans-116"/>
      <use x="914.103516" xlink:href="#DejaVuSans-105"/>
      <use x="941.886719" xlink:href="#DejaVuSans-99"/>
      <use x="996.867188" xlink:href="#DejaVuSans-45"/>
      <use x="1032.951172" xlink:href="#DejaVuSans-50"/>
      <use x="1096.574219" xlink:href="#DejaVuSans-100"/>
      <use x="1160.050781" xlink:href="#DejaVuSans-45"/>
      <use x="1196.134766" xlink:href="#DejaVuSans-116"/>
      <use x="1235.34375" xlink:href="#DejaVuSans-101"/>
      <use x="1295.117188" xlink:href="#DejaVuSans-120"/>
      <use x="1354.296875" xlink:href="#DejaVuSans-116"/>
      <use x="1393.505859" xlink:href="#DejaVuSans-117"/>
      <use x="1456.884766" xlink:href="#DejaVuSans-114"/>
      <use x="1495.748047" xlink:href="#DejaVuSans-101"/>
     </g>
    </g>
   </g>
  </g>
  <g id="axes_2">
   <g id="patch_8">
    <path d="M 394.363636 384.48 
L 648 384.48 
L 648 51.84 
L 394.363636 51.84 
z
" style="fill:#ffffff;"/>
   </g>
   <g id="matplotlib.axis_3">
    <g id="xtick_10">
     <g id="line2d_25">
      <g>
       <use style="stroke:#000000;stroke-width:0.8;" x="394.363636" xlink:href="#mf812da3507" y="384.48"/>
      </g>
     </g>
     <g id="text_23">
      <!-- 0 -->
      <g transform="translate(391.182386 399.078438)scale(0.1 -0.1)">
       <use xlink:href="#DejaVuSans-48"/>
      </g>
     </g>
    </g>
    <g id="xtick_11">
     <g id="line2d_26">
      <g>
       <use style="stroke:#000000;stroke-width:0.8;" x="426.068182" xlink:href="#mf812da3507" y="384.48"/>
      </g>
     </g>
     <g id="text_24">
      <!-- 50 -->
      <g transform="translate(419.705682 399.078438)scale(0.1 -0.1)">
       <use xlink:href="#DejaVuSans-53"/>
       <use x="63.623047" xlink:href="#DejaVuSans-48"/>
      </g>
     </g>
    </g>
    <g id="xtick_12">
     <g id="line2d_27">
      <g>
       <use style="stroke:#000000;stroke-width:0.8;" x="457.772727" xlink:href="#mf812da3507" y="384.48"/>
      </g>
     </g>
     <g id="text_25">
      <!-- 100 -->
      <g transform="translate(448.228977 399.078438)scale(0.1 -0.1)">
       <use xlink:href="#DejaVuSans-49"/>
       <use x="63.623047" xlink:href="#DejaVuSans-48"/>
       <use x="127.246094" xlink:href="#DejaVuSans-48"/>
      </g>
     </g>
    </g>
    <g id="xtick_13">
     <g id="line2d_28">
      <g>
       <use style="stroke:#000000;stroke-width:0.8;" x="489.477273" xlink:href="#mf812da3507" y="384.48"/>
      </g>
     </g>
     <g id="text_26">
      <!-- 150 -->
      <g transform="translate(479.933523 399.078438)scale(0.1 -0.1)">
       <use xlink:href="#DejaVuSans-49"/>
       <use x="63.623047" xlink:href="#DejaVuSans-53"/>
       <use x="127.246094" xlink:href="#DejaVuSans-48"/>
      </g>
     </g>
    </g>
    <g id="xtick_14">
     <g id="line2d_29">
      <g>
       <use style="stroke:#000000;stroke-width:0.8;" x="521.181818" xlink:href="#mf812da3507" y="384.48"/>
      </g>
     </g>
     <g id="text_27">
      <!-- 200 -->
      <g transform="translate(511.638068 399.078438)scale(0.1 -0.1)">
       <use xlink:href="#DejaVuSans-50"/>
       <use x="63.623047" xlink:href="#DejaVuSans-48"/>
       <use x="127.246094" xlink:href="#DejaVuSans-48"/>
      </g>
     </g>
    </g>
    <g id="xtick_15">
     <g id="line2d_30">
      <g>
       <use style="stroke:#000000;stroke-width:0.8;" x="552.886364" xlink:href="#mf812da3507" y="384.48"/>
      </g>
     </g>
     <g id="text_28">
      <!-- 250 -->
      <g transform="translate(543.342614 399.078438)scale(0.1 -0.1)">
       <use xlink:href="#DejaVuSans-50"/>
       <use x="63.623047" xlink:href="#DejaVuSans-53"/>
       <use x="127.246094" xlink:href="#DejaVuSans-48"/>
      </g>
     </g>
    </g>
    <g id="xtick_16">
     <g id="line2d_31">
      <g>
       <use style="stroke:#000000;stroke-width:0.8;" x="584.590909" xlink:href="#mf812da3507" y="384.48"/>
      </g>
     </g>
     <g id="text_29">
      <!-- 300 -->
      <g transform="translate(575.047159 399.078438)scale(0.1 -0.1)">
       <use xlink:href="#DejaVuSans-51"/>
       <use x="63.623047" xlink:href="#DejaVuSans-48"/>
       <use x="127.246094" xlink:href="#DejaVuSans-48"/>
      </g>
     </g>
    </g>
    <g id="xtick_17">
     <g id="line2d_32">
      <g>
       <use style="stroke:#000000;stroke-width:0.8;" x="616.295455" xlink:href="#mf812da3507" y="384.48"/>
      </g>
     </g>
     <g id="text_30">
      <!-- 350 -->
      <g transform="translate(606.751705 399.078438)scale(0.1 -0.1)">
       <use xlink:href="#DejaVuSans-51"/>
       <use x="63.623047" xlink:href="#DejaVuSans-53"/>
       <use x="127.246094" xlink:href="#DejaVuSans-48"/>
      </g>
     </g>
    </g>
    <g id="xtick_18">
     <g id="line2d_33">
      <g>
       <use style="stroke:#000000;stroke-width:0.8;" x="648" xlink:href="#mf812da3507" y="384.48"/>
      </g>
     </g>
     <g id="text_31">
      <!-- 400 -->
      <g transform="translate(638.45625 399.078438)scale(0.1 -0.1)">
       <use xlink:href="#DejaVuSans-52"/>
       <use x="63.623047" xlink:href="#DejaVuSans-48"/>
       <use x="127.246094" xlink:href="#DejaVuSans-48"/>
      </g>
     </g>
    </g>
    <g id="text_32">
     <!-- Epoch -->
     <g transform="translate(505.870881 412.756563)scale(0.1 -0.1)">
      <use xlink:href="#DejaVuSans-69"/>
      <use x="63.183594" xlink:href="#DejaVuSans-112"/>
      <use x="126.660156" xlink:href="#DejaVuSans-111"/>
      <use x="187.841797" xlink:href="#DejaVuSans-99"/>
      <use x="242.822266" xlink:href="#DejaVuSans-104"/>
     </g>
    </g>
   </g>
   <g id="matplotlib.axis_4">
    <g id="ytick_10">
     <g id="line2d_34">
      <g>
       <use style="stroke:#000000;stroke-width:0.8;" x="394.363636" xlink:href="#m7cd1e70844" y="362.657078"/>
      </g>
     </g>
     <g id="text_33">
      <!-- 20 -->
      <g transform="translate(374.638636 366.456296)scale(0.1 -0.1)">
       <use xlink:href="#DejaVuSans-50"/>
       <use x="63.623047" xlink:href="#DejaVuSans-48"/>
      </g>
     </g>
    </g>
    <g id="ytick_11">
     <g id="line2d_35">
      <g>
       <use style="stroke:#000000;stroke-width:0.8;" x="394.363636" xlink:href="#m7cd1e70844" y="319.963304"/>
      </g>
     </g>
     <g id="text_34">
      <!-- 40 -->
      <g transform="translate(374.638636 323.762522)scale(0.1 -0.1)">
       <use xlink:href="#DejaVuSans-52"/>
       <use x="63.623047" xlink:href="#DejaVuSans-48"/>
      </g>
     </g>
    </g>
    <g id="ytick_12">
     <g id="line2d_36">
      <g>
       <use style="stroke:#000000;stroke-width:0.8;" x="394.363636" xlink:href="#m7cd1e70844" y="277.26953"/>
      </g>
     </g>
     <g id="text_35">
      <!-- 60 -->
      <g transform="translate(374.638636 281.068749)scale(0.1 -0.1)">
       <use xlink:href="#DejaVuSans-54"/>
       <use x="63.623047" xlink:href="#DejaVuSans-48"/>
      </g>
     </g>
    </g>
    <g id="ytick_13">
     <g id="line2d_37">
      <g>
       <use style="stroke:#000000;stroke-width:0.8;" x="394.363636" xlink:href="#m7cd1e70844" y="234.575756"/>
      </g>
     </g>
     <g id="text_36">
      <!-- 80 -->
      <g transform="translate(374.638636 238.374975)scale(0.1 -0.1)">
       <use xlink:href="#DejaVuSans-56"/>
       <use x="63.623047" xlink:href="#DejaVuSans-48"/>
      </g>
     </g>
    </g>
    <g id="ytick_14">
     <g id="line2d_38">
      <g>
       <use style="stroke:#000000;stroke-width:0.8;" x="394.363636" xlink:href="#m7cd1e70844" y="191.881982"/>
      </g>
     </g>
     <g id="text_37">
      <!-- 100 -->
      <g transform="translate(368.276136 195.681201)scale(0.1 -0.1)">
       <use xlink:href="#DejaVuSans-49"/>
       <use x="63.623047" xlink:href="#DejaVuSans-48"/>
       <use x="127.246094" xlink:href="#DejaVuSans-48"/>
      </g>
     </g>
    </g>
    <g id="ytick_15">
     <g id="line2d_39">
      <g>
       <use style="stroke:#000000;stroke-width:0.8;" x="394.363636" xlink:href="#m7cd1e70844" y="149.188208"/>
      </g>
     </g>
     <g id="text_38">
      <!-- 120 -->
      <g transform="translate(368.276136 152.987427)scale(0.1 -0.1)">
       <use xlink:href="#DejaVuSans-49"/>
       <use x="63.623047" xlink:href="#DejaVuSans-50"/>
       <use x="127.246094" xlink:href="#DejaVuSans-48"/>
      </g>
     </g>
    </g>
    <g id="ytick_16">
     <g id="line2d_40">
      <g>
       <use style="stroke:#000000;stroke-width:0.8;" x="394.363636" xlink:href="#m7cd1e70844" y="106.494435"/>
      </g>
     </g>
     <g id="text_39">
      <!-- 140 -->
      <g transform="translate(368.276136 110.293653)scale(0.1 -0.1)">
       <use xlink:href="#DejaVuSans-49"/>
       <use x="63.623047" xlink:href="#DejaVuSans-52"/>
       <use x="127.246094" xlink:href="#DejaVuSans-48"/>
      </g>
     </g>
    </g>
    <g id="ytick_17">
     <g id="line2d_41">
      <g>
       <use style="stroke:#000000;stroke-width:0.8;" x="394.363636" xlink:href="#m7cd1e70844" y="63.800661"/>
      </g>
     </g>
     <g id="text_40">
      <!-- 160 -->
      <g transform="translate(368.276136 67.599879)scale(0.1 -0.1)">
       <use xlink:href="#DejaVuSans-49"/>
       <use x="63.623047" xlink:href="#DejaVuSans-54"/>
       <use x="127.246094" xlink:href="#DejaVuSans-48"/>
      </g>
     </g>
    </g>
    <g id="text_41">
     <!-- MSE -->
     <g transform="translate(362.196449 228.807656)rotate(-90)scale(0.1 -0.1)">
      <defs>
       <path d="M 53.515625 70.515625 
L 53.515625 60.890625 
Q 47.90625 63.578125 42.921875 64.890625 
Q 37.9375 66.21875 33.296875 66.21875 
Q 25.25 66.21875 20.875 63.09375 
Q 16.5 59.96875 16.5 54.203125 
Q 16.5 49.359375 19.40625 46.890625 
Q 22.3125 44.4375 30.421875 42.921875 
L 36.375 41.703125 
Q 47.40625 39.59375 52.65625 34.296875 
Q 57.90625 29 57.90625 20.125 
Q 57.90625 9.515625 50.796875 4.046875 
Q 43.703125 -1.421875 29.984375 -1.421875 
Q 24.8125 -1.421875 18.96875 -0.25 
Q 13.140625 0.921875 6.890625 3.21875 
L 6.890625 13.375 
Q 12.890625 10.015625 18.65625 8.296875 
Q 24.421875 6.59375 29.984375 6.59375 
Q 38.421875 6.59375 43.015625 9.90625 
Q 47.609375 13.234375 47.609375 19.390625 
Q 47.609375 24.75 44.3125 27.78125 
Q 41.015625 30.8125 33.5 32.328125 
L 27.484375 33.5 
Q 16.453125 35.6875 11.515625 40.375 
Q 6.59375 45.0625 6.59375 53.421875 
Q 6.59375 63.09375 13.40625 68.65625 
Q 20.21875 74.21875 32.171875 74.21875 
Q 37.3125 74.21875 42.625 73.28125 
Q 47.953125 72.359375 53.515625 70.515625 
z
" id="DejaVuSans-83"/>
      </defs>
      <use xlink:href="#DejaVuSans-77"/>
      <use x="86.279297" xlink:href="#DejaVuSans-83"/>
      <use x="149.755859" xlink:href="#DejaVuSans-69"/>
     </g>
    </g>
   </g>
   <g id="line2d_42">
    <path clip-path="url(#p6a002cb249)" d="M 394.363636 66.96 
L 394.997727 174.697738 
L 395.631818 198.777027 
L 396.265909 188.509174 
L 397.534091 255.004727 
L 398.168182 250.842084 
L 398.802273 248.131029 
L 399.436364 282.905108 
L 400.070455 267.023024 
L 400.704545 286.363304 
L 401.972727 258.697738 
L 402.606818 277.845896 
L 403.240909 283.502821 
L 403.875 287.665464 
L 404.509091 294.368386 
L 405.143182 279.574994 
L 405.777273 288.562033 
L 406.411364 292.447166 
L 407.045455 298.637764 
L 407.679545 306.642846 
L 408.313636 305.148564 
L 408.947727 310.698755 
L 409.581818 320.475629 
L 410.215909 283.353393 
L 410.85 310.826836 
L 411.484091 298.31756 
L 412.118182 308.457332 
L 412.752273 302.77906 
L 413.386364 323.186684 
L 414.020455 300.025311 
L 414.654545 293.151614 
L 415.288636 320.731792 
L 415.922727 297.677154 
L 416.556818 312.193037 
L 417.190909 314.114257 
L 417.825 311.702058 
L 418.459091 291.46521 
L 419.093182 306.365337 
L 419.727273 293.10892 
L 420.361364 312.534587 
L 420.995455 327.242592 
L 421.629545 294.902058 
L 422.263636 317.99939 
L 422.897727 322.18338 
L 423.531818 300.793799 
L 424.165909 318.34094 
L 424.8 304.593545 
L 425.434091 293.642592 
L 426.068182 315.05352 
L 426.702273 330.209809 
L 427.336364 326.70892 
L 427.970455 331.704091 
L 428.604545 345.067243 
L 429.238636 341.032681 
L 429.872727 347.949072 
L 430.506818 340.797865 
L 431.140909 345.067243 
L 431.775 346.305362 
L 432.409091 333.369149 
L 433.043182 337.980076 
L 433.677273 336.976773 
L 434.311364 347.244625 
L 434.945455 343.039288 
L 435.579545 349.33662 
L 436.213636 346.412097 
L 436.847727 344.085286 
L 437.481818 330.295197 
L 438.115909 347.009809 
L 438.75 347.927726 
L 439.384091 342.356188 
L 440.018182 349.443355 
L 440.652273 342.783126 
L 441.286364 346.988463 
L 441.920455 349.400661 
L 442.554545 347.970419 
L 443.188636 350.617433 
L 443.822727 351.172452 
L 444.456818 342.633698 
L 445.090909 345.579568 
L 445.725 341.609047 
L 446.359091 339.858602 
L 446.993182 347.35136 
L 447.627273 346.625565 
L 448.261364 346.39075 
L 448.895455 342.975248 
L 449.529545 349.464701 
L 450.163636 348.397357 
L 450.797727 346.881728 
L 451.431818 353.328488 
L 452.065909 345.216671 
L 453.334091 353.008285 
L 453.968182 342.975248 
L 454.602273 343.081982 
L 455.236364 346.305362 
L 455.870455 348.397357 
L 456.504545 343.871817 
L 457.138636 354.096976 
L 457.772727 345.43014 
L 459.040909 353.456569 
L 459.675 358.622516 
L 460.309091 352.83751 
L 460.943182 353.371182 
L 461.577273 351.407268 
L 462.211364 354.075629 
L 462.845455 353.968895 
L 463.479545 346.369403 
L 464.113636 355.826074 
L 464.747727 342.526963 
L 465.381818 351.983634 
L 466.015909 355.121626 
L 466.65 348.226582 
L 467.284091 350.403964 
L 467.918182 344.042592 
L 468.552273 351.172452 
L 469.186364 354.566607 
L 469.820455 345.77169 
L 470.454545 357.405743 
L 471.088636 351.471309 
L 471.722727 354.20371 
L 472.356818 353.563304 
L 472.990909 347.308666 
L 473.625 347.500788 
L 474.259091 346.412097 
L 474.893182 350.553393 
L 475.527273 352.624041 
L 476.161364 353.307141 
L 476.795455 348.568132 
L 477.429545 347.137891 
L 478.063636 350.211842 
L 478.697727 354.246404 
L 479.331818 345.195324 
L 479.965909 348.65352 
L 480.6 358.430394 
L 481.234091 350.809555 
L 482.502273 355.16432 
L 483.136364 348.760254 
L 483.770455 346.070546 
L 484.404545 351.514003 
L 485.038636 347.75695 
L 485.672727 356.060889 
L 486.306818 350.553393 
L 486.940909 351.620737 
L 487.575 355.612605 
L 488.209091 351.94094 
L 488.843182 347.394053 
L 489.477273 357.789987 
L 490.111364 352.965591 
L 490.745455 352.28249 
L 491.379545 348.696213 
L 492.013636 353.157713 
L 492.647727 351.535349 
L 493.281818 353.328488 
L 493.915909 347.244625 
L 494.55 353.328488 
L 495.184091 347.671563 
L 495.818182 354.48122 
L 496.452273 344.213367 
L 497.086364 347.586175 
L 497.720455 349.528742 
L 498.354545 352.047675 
L 498.988636 351.834206 
L 499.622727 357.064193 
L 500.256818 358.345006 
L 500.890909 356.80803 
L 501.525 357.106887 
L 502.159091 360.116798 
L 502.793182 345.43014 
L 503.427273 356.637255 
L 504.061364 352.90155 
L 504.695455 353.52061 
L 505.329545 353.392529 
L 506.597727 348.99507 
L 507.231818 354.374485 
L 507.865909 355.207014 
L 508.5 351.321881 
L 509.134091 353.115019 
L 509.768182 353.157713 
L 510.402273 343.786429 
L 511.036364 347.607522 
L 511.670455 345.878424 
L 512.304545 343.679695 
L 512.938636 348.71756 
L 513.572727 359.092147 
L 514.206818 354.075629 
L 514.840909 353.221753 
L 515.475 339.794562 
L 516.109091 355.399136 
L 516.743182 349.315273 
L 517.377273 353.307141 
L 518.011364 359.092147 
L 518.645455 353.008285 
L 519.279545 355.463177 
L 519.913636 353.648691 
L 520.547727 357.192274 
L 521.181818 356.12493 
L 521.815909 348.696213 
L 522.45 357.789987 
L 523.084091 355.207014 
L 523.718182 354.48122 
L 524.352273 353.52061 
L 524.986364 352.90155 
L 525.620455 347.244625 
L 526.888636 351.535349 
L 527.522727 360.116798 
L 528.156818 353.307141 
L 528.790909 344.213367 
L 529.425 358.345006 
L 530.059091 352.965591 
L 530.693182 353.328488 
L 531.327273 357.106887 
L 531.961364 348.71756 
L 532.595455 347.586175 
L 533.229545 353.221753 
L 533.863636 351.834206 
L 534.497727 352.28249 
L 535.131818 355.399136 
L 535.765909 343.679695 
L 536.4 353.157713 
L 537.034091 351.321881 
L 537.668182 357.064193 
L 538.302273 356.637255 
L 538.936364 356.80803 
L 539.570455 353.157713 
L 540.204545 350.98033 
L 540.838636 353.648691 
L 541.472727 357.192274 
L 542.106818 353.008285 
L 542.740909 355.463177 
L 543.375 345.43014 
L 544.009091 353.115019 
L 544.643182 352.047675 
L 545.277273 339.794562 
L 545.911364 349.528742 
L 546.545455 354.075629 
L 547.179545 345.878424 
L 547.813636 359.092147 
L 549.081818 348.99507 
L 549.715909 353.392529 
L 550.35 359.092147 
L 551.618182 347.607522 
L 552.252273 347.671563 
L 552.886364 343.786429 
L 553.520455 353.115019 
L 554.154545 352.90155 
L 554.788636 347.607522 
L 555.422727 345.43014 
L 556.056818 355.399136 
L 556.690909 357.789987 
L 557.959091 348.99507 
L 558.593182 353.008285 
L 559.861364 348.71756 
L 560.495455 353.328488 
L 561.129545 344.213367 
L 561.763636 356.80803 
L 562.397727 359.092147 
L 563.031818 356.637255 
L 563.665909 351.834206 
L 564.3 352.28249 
L 564.934091 347.671563 
L 565.568182 351.321881 
L 566.202273 339.794562 
L 566.836364 359.092147 
L 567.470455 354.48122 
L 568.104545 352.047675 
L 568.738636 351.535349 
L 569.372727 353.157713 
L 570.006818 353.392529 
L 570.640909 354.075629 
L 571.275 354.374485 
L 571.909091 347.586175 
L 572.543182 349.315273 
L 573.177273 353.307141 
L 573.811364 355.207014 
L 574.445455 343.679695 
L 575.079545 347.244625 
L 575.713636 357.106887 
L 576.347727 348.696213 
L 576.981818 343.786429 
L 577.615909 360.116798 
L 578.25 357.064193 
L 578.884091 353.328488 
L 579.518182 355.463177 
L 580.152273 353.221753 
L 580.786364 353.157713 
L 581.420455 345.878424 
L 582.054545 352.965591 
L 582.688636 357.192274 
L 583.322727 358.345006 
L 584.590909 349.528742 
L 585.225 345.43014 
L 585.859091 354.374485 
L 586.493182 359.092147 
L 587.127273 351.321881 
L 587.761364 359.092147 
L 588.395455 353.392529 
L 589.029545 351.535349 
L 589.663636 353.157713 
L 590.297727 356.80803 
L 590.931818 347.671563 
L 591.565909 350.98033 
L 592.2 348.71756 
L 592.834091 352.28249 
L 593.468182 339.794562 
L 594.102273 353.221753 
L 594.736364 348.696213 
L 595.370455 347.244625 
L 596.004545 357.106887 
L 596.638636 353.008285 
L 597.272727 357.064193 
L 597.906818 347.607522 
L 598.540909 353.115019 
L 599.175 347.586175 
L 599.809091 356.637255 
L 600.443182 358.345006 
L 601.077273 354.48122 
L 601.711364 357.789987 
L 602.345455 355.207014 
L 602.979545 353.648691 
L 603.613636 355.463177 
L 604.247727 345.878424 
L 604.881818 349.315273 
L 605.515909 357.192274 
L 606.15 360.116798 
L 606.784091 343.679695 
L 607.418182 353.328488 
L 608.052273 353.157713 
L 608.686364 351.834206 
L 609.320455 349.528742 
L 609.954545 344.213367 
L 610.588636 352.965591 
L 611.222727 353.52061 
L 611.856818 348.99507 
L 612.490909 353.307141 
L 613.125 355.399136 
L 613.759091 343.786429 
L 614.393182 354.075629 
L 615.027273 352.90155 
L 615.661364 353.328488 
L 616.295455 352.047675 
L 616.929545 355.399136 
L 617.563636 343.786429 
L 618.197727 347.671563 
L 618.831818 353.328488 
L 619.465909 357.789987 
L 620.1 359.092147 
L 620.734091 344.213367 
L 621.368182 349.528742 
L 622.002273 351.321881 
L 622.636364 354.075629 
L 623.270455 354.374485 
L 623.904545 352.965591 
L 624.538636 352.047675 
L 625.172727 359.092147 
L 625.806818 356.637255 
L 626.440909 356.80803 
L 627.075 353.115019 
L 627.709091 347.607522 
L 628.343182 354.48122 
L 628.977273 343.679695 
L 629.611364 357.064193 
L 630.245455 347.244625 
L 630.879545 352.28249 
L 631.513636 350.98033 
L 632.147727 353.221753 
L 632.781818 353.328488 
L 633.415909 339.794562 
L 634.05 353.157713 
L 634.684091 348.696213 
L 635.318182 348.71756 
L 635.952273 360.116798 
L 636.586364 351.834206 
L 637.220455 357.106887 
L 637.854545 345.43014 
L 638.488636 352.90155 
L 639.122727 348.99507 
L 639.756818 353.008285 
L 640.390909 355.463177 
L 641.025 353.648691 
L 641.659091 349.315273 
L 642.293182 355.207014 
L 642.927273 345.878424 
L 643.561364 358.345006 
L 644.195455 351.535349 
L 644.829545 347.586175 
L 645.463636 353.307141 
L 646.097727 353.392529 
L 646.731818 353.157713 
L 647.365909 353.52061 
L 647.365909 353.52061 
" style="fill:none;stroke:#1f77b4;stroke-linecap:square;stroke-width:1.5;"/>
   </g>
   <g id="line2d_43">
    <path clip-path="url(#p6a002cb249)" d="M 394.363636 83.439797 
L 394.997727 158.346023 
L 395.631818 156.44615 
L 396.265909 142.442592 
L 396.9 203.28122 
L 398.168182 236.902567 
L 398.802273 214.573723 
L 399.436364 229.623278 
L 400.070455 221.297992 
L 400.704545 253.723914 
L 401.338636 255.687827 
L 401.972727 236.795832 
L 402.606818 237.350851 
L 403.240909 257.203456 
L 403.875 255.623787 
L 404.509091 244.566099 
L 405.143182 276.799898 
L 405.777273 262.241321 
L 406.411364 267.812859 
L 407.045455 249.027598 
L 407.679545 287.772198 
L 408.313636 293.301042 
L 408.947727 257.758475 
L 409.581818 289.287827 
L 410.215909 244.459365 
L 410.85 301.797103 
L 411.484091 275.284269 
L 412.752273 283.908412 
L 413.386364 306.642846 
L 414.020455 274.3877 
L 414.654545 271.249708 
L 415.288636 284.698247 
L 415.922727 264.440051 
L 416.556818 278.422262 
L 417.190909 296.246912 
L 417.825 280.642338 
L 418.459091 270.758729 
L 419.093182 270.865464 
L 419.727273 304.337382 
L 420.361364 268.773469 
L 420.995455 289.074358 
L 421.629545 253.510445 
L 422.263636 304.358729 
L 422.897727 311.48859 
L 423.531818 279.276137 
L 424.165909 284.442084 
L 424.8 284.804981 
L 425.434091 267.385921 
L 426.068182 292.14831 
L 426.702273 286.875629 
L 427.336364 307.475375 
L 427.970455 303.398119 
L 428.604545 320.94526 
L 429.238636 300.17474 
L 429.872727 333.689352 
L 430.506818 315.565845 
L 431.140909 309.930267 
L 431.775 314.77601 
L 432.409091 287.537382 
L 433.043182 317.444371 
L 433.677273 282.862414 
L 434.311364 263.650216 
L 434.945455 324.766353 
L 435.579545 310.506633 
L 436.213636 304.678933 
L 436.847727 311.403202 
L 437.481818 283.161271 
L 438.115909 288.135095 
L 438.75 315.971436 
L 439.384091 301.434206 
L 440.018182 329.484015 
L 440.652273 320.859873 
L 441.286364 308.585413 
L 441.920455 321.692402 
L 442.554545 327.32798 
L 443.188636 288.327217 
L 443.822727 311.232427 
L 445.090909 301.903837 
L 445.725 310.079695 
L 446.359091 322.418196 
L 447.627273 313.345769 
L 448.261364 274.216925 
L 448.895455 303.568895 
L 449.529545 305.10587 
L 450.163636 321.542973 
L 450.797727 314.199644 
L 451.431818 322.653011 
L 452.065909 323.250724 
L 453.334091 337.275629 
L 453.968182 321.286811 
L 454.602273 323.272071 
L 455.236364 293.45047 
L 455.870455 306.173215 
L 456.504545 283.951105 
L 457.138636 320.859873 
L 457.772727 334.735349 
L 458.406818 341.694435 
L 459.040909 344.426836 
L 459.675 349.891639 
L 460.309091 347.436747 
L 460.943182 349.592783 
L 461.577273 349.229886 
L 462.211364 348.183888 
L 462.845455 346.839034 
L 463.479545 352.175756 
L 464.113636 351.727471 
L 464.747727 346.945769 
L 465.381818 347.714257 
L 466.015909 354.609301 
L 466.65 353.605997 
L 467.284091 341.801169 
L 467.918182 347.842338 
L 468.552273 349.870292 
L 469.186364 354.801423 
L 469.820455 340.605743 
L 470.454545 356.914765 
L 471.088636 348.931029 
L 472.356818 355.16432 
L 472.990909 349.464701 
L 473.625 347.287319 
L 474.259091 347.287319 
L 474.893182 353.883507 
L 475.527273 352.197103 
L 476.161364 347.4154 
L 476.795455 349.977027 
L 477.429545 351.428615 
L 478.063636 354.886811 
L 478.697727 357.064193 
L 479.331818 348.119848 
L 479.965909 349.827598 
L 480.6 357.918069 
L 481.234091 357.576518 
L 481.868182 354.651995 
L 482.502273 356.103583 
L 483.136364 352.922897 
L 483.770455 352.28249 
L 484.404545 356.637255 
L 485.038636 350.190496 
L 485.672727 351.449962 
L 486.306818 350.489352 
L 486.940909 352.111715 
L 487.575 358.366353 
L 488.209091 355.121626 
L 488.843182 353.798119 
L 489.477273 356.957459 
L 490.111364 357.021499 
L 490.745455 358.686557 
L 491.379545 351.129759 
L 492.013636 358.771944 
L 492.647727 354.950851 
L 493.281818 357.747294 
L 494.55 355.399136 
L 495.184091 352.069022 
L 495.818182 355.335095 
L 496.452273 354.523914 
L 497.086364 349.037764 
L 497.720455 352.581347 
L 498.354545 363.446912 
L 498.988636 358.152884 
L 499.622727 361.26953 
L 500.256818 362.699771 
L 500.890909 362.486302 
L 501.525 360.223532 
L 502.159091 360.372961 
L 502.793182 356.850724 
L 504.061364 362.849199 
L 504.695455 356.445133 
L 505.329545 352.410572 
L 505.963636 358.409047 
L 507.231818 356.658602 
L 507.865909 359.519085 
L 508.5 359.220229 
L 509.134091 357.555172 
L 509.768182 358.302313 
L 510.402273 355.527217 
L 511.036364 360.159492 
L 511.670455 356.487827 
L 512.304545 346.476137 
L 512.938636 356.573215 
L 513.572727 364.236747 
L 514.206818 359.647166 
L 514.840909 353.904854 
L 515.475 349.720864 
L 516.109091 355.932808 
L 516.743182 353.392529 
L 517.377273 358.579822 
L 518.011364 360.437001 
L 518.645455 362.934587 
L 519.279545 361.867243 
L 519.913636 362.123405 
L 520.547727 358.110191 
L 521.181818 361.88859 
L 521.815909 362.934587 
L 522.45 359.092147 
L 523.084091 364.941194 
L 523.718182 364.749072 
L 524.352273 365.923151 
L 524.986364 359.732554 
L 525.620455 363.019975 
L 526.254545 359.753901 
L 526.888636 358.537128 
L 527.522727 363.105362 
L 528.156818 364.471563 
L 528.790909 362.806506 
L 529.425 360.458348 
L 530.059091 354.096976 
L 530.693182 363.297484 
L 531.327273 361.568386 
L 531.961364 350.894943 
L 532.595455 360.693164 
L 533.229545 355.335095 
L 533.863636 361.248183 
L 534.497727 359.817942 
L 535.131818 359.881982 
L 535.765909 359.796595 
L 536.4 358.088844 
L 537.034091 362.550343 
L 537.668182 363.382872 
L 538.302273 356.082236 
L 538.936364 367.545515 
L 539.570455 364.813113 
L 540.204545 364.813113 
L 540.838636 357.640559 
L 541.472727 359.753901 
L 542.106818 355.271055 
L 542.740909 360.671817 
L 543.375 359.96737 
L 544.009091 363.937891 
L 544.643182 363.916544 
L 545.277273 363.382872 
L 545.911364 357.747294 
L 546.545455 366.371436 
L 547.179545 358.515781 
L 547.813636 365.325438 
L 548.447727 366.200661 
L 549.081818 350.660127 
L 549.715909 363.297484 
L 550.35 363.297484 
L 550.984091 354.566607 
L 551.618182 358.964066 
L 552.252273 365.560254 
L 552.886364 362.827853 
L 553.520455 361.95263 
L 554.154545 362.059365 
L 554.788636 363.468259 
L 555.422727 361.354917 
L 556.056818 360.99202 
L 556.690909 357.747294 
L 557.959091 365.154663 
L 558.593182 360.372961 
L 559.227273 362.29418 
L 559.861364 366.905108 
L 560.495455 357.299009 
L 561.129545 360.266226 
L 561.763636 365.389479 
L 562.397727 365.047929 
L 563.031818 359.68986 
L 563.665909 365.368132 
L 564.934091 357.36305 
L 565.568182 364.343482 
L 566.202273 362.336874 
L 566.836364 361.803202 
L 567.470455 364.962541 
L 568.104545 365.154663 
L 568.738636 360.010064 
L 569.372727 362.144752 
L 570.006818 358.515781 
L 570.640909 365.602948 
L 571.275 355.356442 
L 571.909091 362.208793 
L 572.543182 364.279441 
L 573.177273 367.481474 
L 574.445455 359.262922 
L 575.079545 357.384396 
L 575.713636 361.909936 
L 576.347727 360.074104 
L 576.981818 364.727726 
L 577.615909 351.428615 
L 578.25 366.328742 
L 578.884091 358.750597 
L 579.518182 355.44183 
L 580.152273 364.727726 
L 580.786364 363.596341 
L 581.420455 365.261398 
L 582.054545 352.303837 
L 582.688636 362.998628 
L 583.322727 363.959238 
L 583.956818 362.678424 
L 584.590909 364.983888 
L 585.225 359.305616 
L 585.859091 360.99202 
L 586.493182 364.087319 
L 587.127273 364.001931 
L 587.761364 355.804727 
L 588.395455 362.443609 
L 589.029545 365.240051 
L 589.663636 364.194053 
L 590.297727 364.172706 
L 590.931818 357.405743 
L 591.565909 358.750597 
L 592.2 360.671817 
L 592.834091 359.647166 
L 593.468182 358.003456 
L 594.102273 364.023278 
L 594.736364 364.642338 
L 595.370455 365.624295 
L 596.004545 362.315527 
L 596.638636 362.785159 
L 597.272727 360.266226 
L 597.906818 366.41413 
L 598.540909 364.194053 
L 599.175 358.088844 
L 599.809091 367.353393 
L 600.443182 362.166099 
L 601.077273 364.941194 
L 601.711364 361.931283 
L 602.345455 360.372961 
L 602.979545 366.200661 
L 603.613636 362.080712 
L 604.247727 359.241576 
L 604.881818 364.55695 
L 605.515909 361.290877 
L 606.15 358.964066 
L 606.784091 367.993799 
L 608.052273 363.126709 
L 608.686364 367.139924 
L 609.320455 362.187446 
L 609.954545 359.262922 
L 610.588636 363.19075 
L 611.222727 360.906633 
L 611.856818 363.340178 
L 612.490909 362.657078 
L 613.125 365.773723 
L 614.393182 359.156188 
L 615.027273 365.538907 
L 615.661364 361.781855 
L 616.295455 358.750597 
L 616.929545 367.566861 
L 617.563636 365.133316 
L 618.831818 364.172706 
L 619.465909 361.781855 
L 620.1 363.510953 
L 621.368182 358.174231 
L 622.002273 364.49291 
L 622.636364 358.964066 
L 623.270455 362.059365 
L 623.904545 366.990496 
L 624.538636 367.566861 
L 625.172727 364.83446 
L 625.806818 359.092147 
L 626.440909 361.418958 
L 627.075 360.30892 
L 627.709091 355.804727 
L 628.343182 362.678424 
L 628.977273 365.538907 
L 629.611364 367.246658 
L 630.245455 363.468259 
L 630.879545 364.727726 
L 631.513636 369.36 
L 632.147727 365.368132 
L 632.781818 358.494435 
L 633.415909 365.773723 
L 634.05 365.880457 
L 634.684091 363.703075 
L 635.318182 364.962541 
L 635.952273 352.688081 
L 636.586364 359.433698 
L 637.220455 363.468259 
L 637.854545 361.95263 
L 638.488636 361.95263 
L 639.122727 365.816417 
L 639.756818 367.182618 
L 640.390909 364.620991 
L 641.025 364.55695 
L 641.659091 366.371436 
L 642.293182 363.724422 
L 642.927273 364.791766 
L 643.561364 365.218704 
L 644.195455 362.57169 
L 644.829545 360.863939 
L 645.463636 360.778551 
L 646.731818 367.161271 
L 647.365909 366.926455 
L 648 363.276137 
L 648 363.276137 
" style="fill:none;stroke:#ff7f0e;stroke-linecap:square;stroke-width:1.5;"/>
   </g>
   <g id="patch_9">
    <path d="M 394.363636 384.48 
L 394.363636 51.84 
" style="fill:none;stroke:#000000;stroke-linecap:square;stroke-linejoin:miter;stroke-width:0.8;"/>
   </g>
   <g id="patch_10">
    <path d="M 648 384.48 
L 648 51.84 
" style="fill:none;stroke:#000000;stroke-linecap:square;stroke-linejoin:miter;stroke-width:0.8;"/>
   </g>
   <g id="patch_11">
    <path d="M 394.363636 384.48 
L 648 384.48 
" style="fill:none;stroke:#000000;stroke-linecap:square;stroke-linejoin:miter;stroke-width:0.8;"/>
   </g>
   <g id="patch_12">
    <path d="M 394.363636 51.84 
L 648 51.84 
" style="fill:none;stroke:#000000;stroke-linecap:square;stroke-linejoin:miter;stroke-width:0.8;"/>
   </g>
   <g id="legend_2">
    <g id="patch_13">
     <path d="M 447.565625 89.19625 
L 641 89.19625 
Q 643 89.19625 643 87.19625 
L 643 58.84 
Q 643 56.84 641 56.84 
L 447.565625 56.84 
Q 445.565625 56.84 445.565625 58.84 
L 445.565625 87.19625 
Q 445.565625 89.19625 447.565625 89.19625 
z
" style="fill:#ffffff;opacity:0.8;stroke:#cccccc;stroke-linejoin:miter;"/>
    </g>
    <g id="line2d_44">
     <path d="M 449.565625 64.938437 
L 469.565625 64.938437 
" style="fill:none;stroke:#1f77b4;stroke-linecap:square;stroke-width:1.5;"/>
    </g>
    <g id="line2d_45"/>
    <g id="text_42">
     <!-- Train from ImageNet pre-trained -->
     <g transform="translate(477.565625 68.438437)scale(0.1 -0.1)">
      <use xlink:href="#DejaVuSans-84"/>
      <use x="46.333984" xlink:href="#DejaVuSans-114"/>
      <use x="87.447266" xlink:href="#DejaVuSans-97"/>
      <use x="148.726562" xlink:href="#DejaVuSans-105"/>
      <use x="176.509766" xlink:href="#DejaVuSans-110"/>
      <use x="239.888672" xlink:href="#DejaVuSans-32"/>
      <use x="271.675781" xlink:href="#DejaVuSans-102"/>
      <use x="306.880859" xlink:href="#DejaVuSans-114"/>
      <use x="345.744141" xlink:href="#DejaVuSans-111"/>
      <use x="406.925781" xlink:href="#DejaVuSans-109"/>
      <use x="504.337891" xlink:href="#DejaVuSans-32"/>
      <use x="536.125" xlink:href="#DejaVuSans-73"/>
      <use x="565.617188" xlink:href="#DejaVuSans-109"/>
      <use x="663.029297" xlink:href="#DejaVuSans-97"/>
      <use x="724.308594" xlink:href="#DejaVuSans-103"/>
      <use x="787.785156" xlink:href="#DejaVuSans-101"/>
      <use x="849.308594" xlink:href="#DejaVuSans-78"/>
      <use x="924.113281" xlink:href="#DejaVuSans-101"/>
      <use x="985.636719" xlink:href="#DejaVuSans-116"/>
      <use x="1024.845703" xlink:href="#DejaVuSans-32"/>
      <use x="1056.632812" xlink:href="#DejaVuSans-112"/>
      <use x="1120.109375" xlink:href="#DejaVuSans-114"/>
      <use x="1158.972656" xlink:href="#DejaVuSans-101"/>
      <use x="1220.496094" xlink:href="#DejaVuSans-45"/>
      <use x="1256.580078" xlink:href="#DejaVuSans-116"/>
      <use x="1295.789062" xlink:href="#DejaVuSans-114"/>
      <use x="1336.902344" xlink:href="#DejaVuSans-97"/>
      <use x="1398.181641" xlink:href="#DejaVuSans-105"/>
      <use x="1425.964844" xlink:href="#DejaVuSans-110"/>
      <use x="1489.34375" xlink:href="#DejaVuSans-101"/>
      <use x="1550.867188" xlink:href="#DejaVuSans-100"/>
     </g>
    </g>
    <g id="line2d_46">
     <path d="M 449.565625 79.616562 
L 469.565625 79.616562 
" style="fill:none;stroke:#ff7f0e;stroke-linecap:square;stroke-width:1.5;"/>
    </g>
    <g id="line2d_47"/>
    <g id="text_43">
     <!-- Train from synthetic-2d-texture -->
     <g transform="translate(477.565625 83.116562)scale(0.1 -0.1)">
      <use xlink:href="#DejaVuSans-84"/>
      <use x="46.333984" xlink:href="#DejaVuSans-114"/>
      <use x="87.447266" xlink:href="#DejaVuSans-97"/>
      <use x="148.726562" xlink:href="#DejaVuSans-105"/>
      <use x="176.509766" xlink:href="#DejaVuSans-110"/>
      <use x="239.888672" xlink:href="#DejaVuSans-32"/>
      <use x="271.675781" xlink:href="#DejaVuSans-102"/>
      <use x="306.880859" xlink:href="#DejaVuSans-114"/>
      <use x="345.744141" xlink:href="#DejaVuSans-111"/>
      <use x="406.925781" xlink:href="#DejaVuSans-109"/>
      <use x="504.337891" xlink:href="#DejaVuSans-32"/>
      <use x="536.125" xlink:href="#DejaVuSans-115"/>
      <use x="588.224609" xlink:href="#DejaVuSans-121"/>
      <use x="647.404297" xlink:href="#DejaVuSans-110"/>
      <use x="710.783203" xlink:href="#DejaVuSans-116"/>
      <use x="749.992188" xlink:href="#DejaVuSans-104"/>
      <use x="813.371094" xlink:href="#DejaVuSans-101"/>
      <use x="874.894531" xlink:href="#DejaVuSans-116"/>
      <use x="914.103516" xlink:href="#DejaVuSans-105"/>
      <use x="941.886719" xlink:href="#DejaVuSans-99"/>
      <use x="996.867188" xlink:href="#DejaVuSans-45"/>
      <use x="1032.951172" xlink:href="#DejaVuSans-50"/>
      <use x="1096.574219" xlink:href="#DejaVuSans-100"/>
      <use x="1160.050781" xlink:href="#DejaVuSans-45"/>
      <use x="1196.134766" xlink:href="#DejaVuSans-116"/>
      <use x="1235.34375" xlink:href="#DejaVuSans-101"/>
      <use x="1295.117188" xlink:href="#DejaVuSans-120"/>
      <use x="1354.296875" xlink:href="#DejaVuSans-116"/>
      <use x="1393.505859" xlink:href="#DejaVuSans-117"/>
      <use x="1456.884766" xlink:href="#DejaVuSans-114"/>
      <use x="1495.748047" xlink:href="#DejaVuSans-101"/>
     </g>
    </g>
   </g>
  </g>
  <g id="text_44">
   <!-- UCF-QNRF -->
   <g transform="translate(328.754062 17.758125)scale(0.12 -0.12)">
    <defs>
     <path d="M 8.6875 72.90625 
L 18.609375 72.90625 
L 18.609375 28.609375 
Q 18.609375 16.890625 22.84375 11.734375 
Q 27.09375 6.59375 36.625 6.59375 
Q 46.09375 6.59375 50.34375 11.734375 
Q 54.59375 16.890625 54.59375 28.609375 
L 54.59375 72.90625 
L 64.5 72.90625 
L 64.5 27.390625 
Q 64.5 13.140625 57.4375 5.859375 
Q 50.390625 -1.421875 36.625 -1.421875 
Q 22.796875 -1.421875 15.734375 5.859375 
Q 8.6875 13.140625 8.6875 27.390625 
z
" id="DejaVuSans-85"/>
     <path d="M 64.40625 67.28125 
L 64.40625 56.890625 
Q 59.421875 61.53125 53.78125 63.8125 
Q 48.140625 66.109375 41.796875 66.109375 
Q 29.296875 66.109375 22.65625 58.46875 
Q 16.015625 50.828125 16.015625 36.375 
Q 16.015625 21.96875 22.65625 14.328125 
Q 29.296875 6.6875 41.796875 6.6875 
Q 48.140625 6.6875 53.78125 8.984375 
Q 59.421875 11.28125 64.40625 15.921875 
L 64.40625 5.609375 
Q 59.234375 2.09375 53.4375 0.328125 
Q 47.65625 -1.421875 41.21875 -1.421875 
Q 24.65625 -1.421875 15.125 8.703125 
Q 5.609375 18.84375 5.609375 36.375 
Q 5.609375 53.953125 15.125 64.078125 
Q 24.65625 74.21875 41.21875 74.21875 
Q 47.75 74.21875 53.53125 72.484375 
Q 59.328125 70.75 64.40625 67.28125 
z
" id="DejaVuSans-67"/>
     <path d="M 9.8125 72.90625 
L 51.703125 72.90625 
L 51.703125 64.59375 
L 19.671875 64.59375 
L 19.671875 43.109375 
L 48.578125 43.109375 
L 48.578125 34.8125 
L 19.671875 34.8125 
L 19.671875 0 
L 9.8125 0 
z
" id="DejaVuSans-70"/>
     <path d="M 39.40625 66.21875 
Q 28.65625 66.21875 22.328125 58.203125 
Q 16.015625 50.203125 16.015625 36.375 
Q 16.015625 22.609375 22.328125 14.59375 
Q 28.65625 6.59375 39.40625 6.59375 
Q 50.140625 6.59375 56.421875 14.59375 
Q 62.703125 22.609375 62.703125 36.375 
Q 62.703125 50.203125 56.421875 58.203125 
Q 50.140625 66.21875 39.40625 66.21875 
z
M 53.21875 1.3125 
L 66.21875 -12.890625 
L 54.296875 -12.890625 
L 43.5 -1.21875 
Q 41.890625 -1.3125 41.03125 -1.359375 
Q 40.1875 -1.421875 39.40625 -1.421875 
Q 24.03125 -1.421875 14.8125 8.859375 
Q 5.609375 19.140625 5.609375 36.375 
Q 5.609375 53.65625 14.8125 63.9375 
Q 24.03125 74.21875 39.40625 74.21875 
Q 54.734375 74.21875 63.90625 63.9375 
Q 73.09375 53.65625 73.09375 36.375 
Q 73.09375 23.6875 67.984375 14.640625 
Q 62.890625 5.609375 53.21875 1.3125 
z
" id="DejaVuSans-81"/>
     <path d="M 44.390625 34.1875 
Q 47.5625 33.109375 50.5625 29.59375 
Q 53.5625 26.078125 56.59375 19.921875 
L 66.609375 0 
L 56 0 
L 46.6875 18.703125 
Q 43.0625 26.03125 39.671875 28.421875 
Q 36.28125 30.8125 30.421875 30.8125 
L 19.671875 30.8125 
L 19.671875 0 
L 9.8125 0 
L 9.8125 72.90625 
L 32.078125 72.90625 
Q 44.578125 72.90625 50.734375 67.671875 
Q 56.890625 62.453125 56.890625 51.90625 
Q 56.890625 45.015625 53.6875 40.46875 
Q 50.484375 35.9375 44.390625 34.1875 
z
M 19.671875 64.796875 
L 19.671875 38.921875 
L 32.078125 38.921875 
Q 39.203125 38.921875 42.84375 42.21875 
Q 46.484375 45.515625 46.484375 51.90625 
Q 46.484375 58.296875 42.84375 61.546875 
Q 39.203125 64.796875 32.078125 64.796875 
z
" id="DejaVuSans-82"/>
    </defs>
    <use xlink:href="#DejaVuSans-85"/>
    <use x="73.193359" xlink:href="#DejaVuSans-67"/>
    <use x="143.017578" xlink:href="#DejaVuSans-70"/>
    <use x="200.537109" xlink:href="#DejaVuSans-45"/>
    <use x="240.246094" xlink:href="#DejaVuSans-81"/>
    <use x="318.957031" xlink:href="#DejaVuSans-78"/>
    <use x="393.761719" xlink:href="#DejaVuSans-82"/>
    <use x="463.244141" xlink:href="#DejaVuSans-70"/>
   </g>
  </g>
 </g>
 <defs>
  <clipPath id="p798365886a">
   <rect height="332.64" width="253.636364" x="90" y="51.84"/>
  </clipPath>
  <clipPath id="p6a002cb249">
   <rect height="332.64" width="253.636364" x="394.363636" y="51.84"/>
  </clipPath>
 </defs>
</svg>
