<?xml version="1.0" encoding="utf-8" standalone="no"?>
<!DOCTYPE svg PUBLIC "-//W3C//DTD SVG 1.1//EN"
  "http://www.w3.org/Graphics/SVG/1.1/DTD/svg11.dtd">
<!-- Created with matplotlib (https://matplotlib.org/) -->
<svg height="432pt" version="1.1" viewBox="0 0 720 432" width="720pt" xmlns="http://www.w3.org/2000/svg" xmlns:xlink="http://www.w3.org/1999/xlink">
 <metadata>
  <rdf:RDF xmlns:cc="http://creativecommons.org/ns#" xmlns:dc="http://purl.org/dc/elements/1.1/" xmlns:rdf="http://www.w3.org/1999/02/22-rdf-syntax-ns#">
   <cc:Work>
    <dc:type rdf:resource="http://purl.org/dc/dcmitype/StillImage"/>
    <dc:date>2022-01-11T17:09:36.601952</dc:date>
    <dc:format>image/svg+xml</dc:format>
    <dc:creator>
     <cc:Agent>
      <dc:title>Matplotlib v3.3.1, https://matplotlib.org/</dc:title>
     </cc:Agent>
    </dc:creator>
   </cc:Work>
  </rdf:RDF>
 </metadata>
 <defs>
  <style type="text/css">*{stroke-linecap:butt;stroke-linejoin:round;}</style>
 </defs>
 <g id="figure_1">
  <g id="patch_1">
   <path d="M 0 432 
L 720 432 
L 720 0 
L 0 0 
z
" style="fill:#ffffff;"/>
  </g>
  <g id="axes_1">
   <g id="patch_2">
    <path d="M 90 384.48 
L 343.636364 384.48 
L 343.636364 51.84 
L 90 51.84 
z
" style="fill:#ffffff;"/>
   </g>
   <g id="matplotlib.axis_1">
    <g id="xtick_1">
     <g id="line2d_1">
      <defs>
       <path d="M 0 0 
L 0 3.5 
" id="mdcaf02b7fb" style="stroke:#000000;stroke-width:0.8;"/>
      </defs>
      <g>
       <use style="stroke:#000000;stroke-width:0.8;" x="90" xlink:href="#mdcaf02b7fb" y="384.48"/>
      </g>
     </g>
     <g id="text_1">
      <!-- 0 -->
      <g transform="translate(86.81875 399.078438)scale(0.1 -0.1)">
       <defs>
        <path d="M 31.78125 66.40625 
Q 24.171875 66.40625 20.328125 58.90625 
Q 16.5 51.421875 16.5 36.375 
Q 16.5 21.390625 20.328125 13.890625 
Q 24.171875 6.390625 31.78125 6.390625 
Q 39.453125 6.390625 43.28125 13.890625 
Q 47.125 21.390625 47.125 36.375 
Q 47.125 51.421875 43.28125 58.90625 
Q 39.453125 66.40625 31.78125 66.40625 
z
M 31.78125 74.21875 
Q 44.046875 74.21875 50.515625 64.515625 
Q 56.984375 54.828125 56.984375 36.375 
Q 56.984375 17.96875 50.515625 8.265625 
Q 44.046875 -1.421875 31.78125 -1.421875 
Q 19.53125 -1.421875 13.0625 8.265625 
Q 6.59375 17.96875 6.59375 36.375 
Q 6.59375 54.828125 13.0625 64.515625 
Q 19.53125 74.21875 31.78125 74.21875 
z
" id="DejaVuSans-48"/>
       </defs>
       <use xlink:href="#DejaVuSans-48"/>
      </g>
     </g>
    </g>
    <g id="xtick_2">
     <g id="line2d_2">
      <g>
       <use style="stroke:#000000;stroke-width:0.8;" x="121.704545" xlink:href="#mdcaf02b7fb" y="384.48"/>
      </g>
     </g>
     <g id="text_2">
      <!-- 50 -->
      <g transform="translate(115.342045 399.078438)scale(0.1 -0.1)">
       <defs>
        <path d="M 10.796875 72.90625 
L 49.515625 72.90625 
L 49.515625 64.59375 
L 19.828125 64.59375 
L 19.828125 46.734375 
Q 21.96875 47.46875 24.109375 47.828125 
Q 26.265625 48.1875 28.421875 48.1875 
Q 40.625 48.1875 47.75 41.5 
Q 54.890625 34.8125 54.890625 23.390625 
Q 54.890625 11.625 47.5625 5.09375 
Q 40.234375 -1.421875 26.90625 -1.421875 
Q 22.3125 -1.421875 17.546875 -0.640625 
Q 12.796875 0.140625 7.71875 1.703125 
L 7.71875 11.625 
Q 12.109375 9.234375 16.796875 8.0625 
Q 21.484375 6.890625 26.703125 6.890625 
Q 35.15625 6.890625 40.078125 11.328125 
Q 45.015625 15.765625 45.015625 23.390625 
Q 45.015625 31 40.078125 35.4375 
Q 35.15625 39.890625 26.703125 39.890625 
Q 22.75 39.890625 18.8125 39.015625 
Q 14.890625 38.140625 10.796875 36.28125 
z
" id="DejaVuSans-53"/>
       </defs>
       <use xlink:href="#DejaVuSans-53"/>
       <use x="63.623047" xlink:href="#DejaVuSans-48"/>
      </g>
     </g>
    </g>
    <g id="xtick_3">
     <g id="line2d_3">
      <g>
       <use style="stroke:#000000;stroke-width:0.8;" x="153.409091" xlink:href="#mdcaf02b7fb" y="384.48"/>
      </g>
     </g>
     <g id="text_3">
      <!-- 100 -->
      <g transform="translate(143.865341 399.078438)scale(0.1 -0.1)">
       <defs>
        <path d="M 12.40625 8.296875 
L 28.515625 8.296875 
L 28.515625 63.921875 
L 10.984375 60.40625 
L 10.984375 69.390625 
L 28.421875 72.90625 
L 38.28125 72.90625 
L 38.28125 8.296875 
L 54.390625 8.296875 
L 54.390625 0 
L 12.40625 0 
z
" id="DejaVuSans-49"/>
       </defs>
       <use xlink:href="#DejaVuSans-49"/>
       <use x="63.623047" xlink:href="#DejaVuSans-48"/>
       <use x="127.246094" xlink:href="#DejaVuSans-48"/>
      </g>
     </g>
    </g>
    <g id="xtick_4">
     <g id="line2d_4">
      <g>
       <use style="stroke:#000000;stroke-width:0.8;" x="185.113636" xlink:href="#mdcaf02b7fb" y="384.48"/>
      </g>
     </g>
     <g id="text_4">
      <!-- 150 -->
      <g transform="translate(175.569886 399.078438)scale(0.1 -0.1)">
       <use xlink:href="#DejaVuSans-49"/>
       <use x="63.623047" xlink:href="#DejaVuSans-53"/>
       <use x="127.246094" xlink:href="#DejaVuSans-48"/>
      </g>
     </g>
    </g>
    <g id="xtick_5">
     <g id="line2d_5">
      <g>
       <use style="stroke:#000000;stroke-width:0.8;" x="216.818182" xlink:href="#mdcaf02b7fb" y="384.48"/>
      </g>
     </g>
     <g id="text_5">
      <!-- 200 -->
      <g transform="translate(207.274432 399.078438)scale(0.1 -0.1)">
       <defs>
        <path d="M 19.1875 8.296875 
L 53.609375 8.296875 
L 53.609375 0 
L 7.328125 0 
L 7.328125 8.296875 
Q 12.9375 14.109375 22.625 23.890625 
Q 32.328125 33.6875 34.8125 36.53125 
Q 39.546875 41.84375 41.421875 45.53125 
Q 43.3125 49.21875 43.3125 52.78125 
Q 43.3125 58.59375 39.234375 62.25 
Q 35.15625 65.921875 28.609375 65.921875 
Q 23.96875 65.921875 18.8125 64.3125 
Q 13.671875 62.703125 7.8125 59.421875 
L 7.8125 69.390625 
Q 13.765625 71.78125 18.9375 73 
Q 24.125 74.21875 28.421875 74.21875 
Q 39.75 74.21875 46.484375 68.546875 
Q 53.21875 62.890625 53.21875 53.421875 
Q 53.21875 48.921875 51.53125 44.890625 
Q 49.859375 40.875 45.40625 35.40625 
Q 44.1875 33.984375 37.640625 27.21875 
Q 31.109375 20.453125 19.1875 8.296875 
z
" id="DejaVuSans-50"/>
       </defs>
       <use xlink:href="#DejaVuSans-50"/>
       <use x="63.623047" xlink:href="#DejaVuSans-48"/>
       <use x="127.246094" xlink:href="#DejaVuSans-48"/>
      </g>
     </g>
    </g>
    <g id="xtick_6">
     <g id="line2d_6">
      <g>
       <use style="stroke:#000000;stroke-width:0.8;" x="248.522727" xlink:href="#mdcaf02b7fb" y="384.48"/>
      </g>
     </g>
     <g id="text_6">
      <!-- 250 -->
      <g transform="translate(238.978977 399.078438)scale(0.1 -0.1)">
       <use xlink:href="#DejaVuSans-50"/>
       <use x="63.623047" xlink:href="#DejaVuSans-53"/>
       <use x="127.246094" xlink:href="#DejaVuSans-48"/>
      </g>
     </g>
    </g>
    <g id="xtick_7">
     <g id="line2d_7">
      <g>
       <use style="stroke:#000000;stroke-width:0.8;" x="280.227273" xlink:href="#mdcaf02b7fb" y="384.48"/>
      </g>
     </g>
     <g id="text_7">
      <!-- 300 -->
      <g transform="translate(270.683523 399.078438)scale(0.1 -0.1)">
       <defs>
        <path d="M 40.578125 39.3125 
Q 47.65625 37.796875 51.625 33 
Q 55.609375 28.21875 55.609375 21.1875 
Q 55.609375 10.40625 48.1875 4.484375 
Q 40.765625 -1.421875 27.09375 -1.421875 
Q 22.515625 -1.421875 17.65625 -0.515625 
Q 12.796875 0.390625 7.625 2.203125 
L 7.625 11.71875 
Q 11.71875 9.328125 16.59375 8.109375 
Q 21.484375 6.890625 26.8125 6.890625 
Q 36.078125 6.890625 40.9375 10.546875 
Q 45.796875 14.203125 45.796875 21.1875 
Q 45.796875 27.640625 41.28125 31.265625 
Q 36.765625 34.90625 28.71875 34.90625 
L 20.21875 34.90625 
L 20.21875 43.015625 
L 29.109375 43.015625 
Q 36.375 43.015625 40.234375 45.921875 
Q 44.09375 48.828125 44.09375 54.296875 
Q 44.09375 59.90625 40.109375 62.90625 
Q 36.140625 65.921875 28.71875 65.921875 
Q 24.65625 65.921875 20.015625 65.03125 
Q 15.375 64.15625 9.8125 62.3125 
L 9.8125 71.09375 
Q 15.4375 72.65625 20.34375 73.4375 
Q 25.25 74.21875 29.59375 74.21875 
Q 40.828125 74.21875 47.359375 69.109375 
Q 53.90625 64.015625 53.90625 55.328125 
Q 53.90625 49.265625 50.4375 45.09375 
Q 46.96875 40.921875 40.578125 39.3125 
z
" id="DejaVuSans-51"/>
       </defs>
       <use xlink:href="#DejaVuSans-51"/>
       <use x="63.623047" xlink:href="#DejaVuSans-48"/>
       <use x="127.246094" xlink:href="#DejaVuSans-48"/>
      </g>
     </g>
    </g>
    <g id="xtick_8">
     <g id="line2d_8">
      <g>
       <use style="stroke:#000000;stroke-width:0.8;" x="311.931818" xlink:href="#mdcaf02b7fb" y="384.48"/>
      </g>
     </g>
     <g id="text_8">
      <!-- 350 -->
      <g transform="translate(302.388068 399.078438)scale(0.1 -0.1)">
       <use xlink:href="#DejaVuSans-51"/>
       <use x="63.623047" xlink:href="#DejaVuSans-53"/>
       <use x="127.246094" xlink:href="#DejaVuSans-48"/>
      </g>
     </g>
    </g>
    <g id="xtick_9">
     <g id="line2d_9">
      <g>
       <use style="stroke:#000000;stroke-width:0.8;" x="343.636364" xlink:href="#mdcaf02b7fb" y="384.48"/>
      </g>
     </g>
     <g id="text_9">
      <!-- 400 -->
      <g transform="translate(334.092614 399.078438)scale(0.1 -0.1)">
       <defs>
        <path d="M 37.796875 64.3125 
L 12.890625 25.390625 
L 37.796875 25.390625 
z
M 35.203125 72.90625 
L 47.609375 72.90625 
L 47.609375 25.390625 
L 58.015625 25.390625 
L 58.015625 17.1875 
L 47.609375 17.1875 
L 47.609375 0 
L 37.796875 0 
L 37.796875 17.1875 
L 4.890625 17.1875 
L 4.890625 26.703125 
z
" id="DejaVuSans-52"/>
       </defs>
       <use xlink:href="#DejaVuSans-52"/>
       <use x="63.623047" xlink:href="#DejaVuSans-48"/>
       <use x="127.246094" xlink:href="#DejaVuSans-48"/>
      </g>
     </g>
    </g>
    <g id="text_10">
     <!-- Epoch -->
     <g transform="translate(201.507244 412.756563)scale(0.1 -0.1)">
      <defs>
       <path d="M 9.8125 72.90625 
L 55.90625 72.90625 
L 55.90625 64.59375 
L 19.671875 64.59375 
L 19.671875 43.015625 
L 54.390625 43.015625 
L 54.390625 34.71875 
L 19.671875 34.71875 
L 19.671875 8.296875 
L 56.78125 8.296875 
L 56.78125 0 
L 9.8125 0 
z
" id="DejaVuSans-69"/>
       <path d="M 18.109375 8.203125 
L 18.109375 -20.796875 
L 9.078125 -20.796875 
L 9.078125 54.6875 
L 18.109375 54.6875 
L 18.109375 46.390625 
Q 20.953125 51.265625 25.265625 53.625 
Q 29.59375 56 35.59375 56 
Q 45.5625 56 51.78125 48.09375 
Q 58.015625 40.1875 58.015625 27.296875 
Q 58.015625 14.40625 51.78125 6.484375 
Q 45.5625 -1.421875 35.59375 -1.421875 
Q 29.59375 -1.421875 25.265625 0.953125 
Q 20.953125 3.328125 18.109375 8.203125 
z
M 48.6875 27.296875 
Q 48.6875 37.203125 44.609375 42.84375 
Q 40.53125 48.484375 33.40625 48.484375 
Q 26.265625 48.484375 22.1875 42.84375 
Q 18.109375 37.203125 18.109375 27.296875 
Q 18.109375 17.390625 22.1875 11.75 
Q 26.265625 6.109375 33.40625 6.109375 
Q 40.53125 6.109375 44.609375 11.75 
Q 48.6875 17.390625 48.6875 27.296875 
z
" id="DejaVuSans-112"/>
       <path d="M 30.609375 48.390625 
Q 23.390625 48.390625 19.1875 42.75 
Q 14.984375 37.109375 14.984375 27.296875 
Q 14.984375 17.484375 19.15625 11.84375 
Q 23.34375 6.203125 30.609375 6.203125 
Q 37.796875 6.203125 41.984375 11.859375 
Q 46.1875 17.53125 46.1875 27.296875 
Q 46.1875 37.015625 41.984375 42.703125 
Q 37.796875 48.390625 30.609375 48.390625 
z
M 30.609375 56 
Q 42.328125 56 49.015625 48.375 
Q 55.71875 40.765625 55.71875 27.296875 
Q 55.71875 13.875 49.015625 6.21875 
Q 42.328125 -1.421875 30.609375 -1.421875 
Q 18.84375 -1.421875 12.171875 6.21875 
Q 5.515625 13.875 5.515625 27.296875 
Q 5.515625 40.765625 12.171875 48.375 
Q 18.84375 56 30.609375 56 
z
" id="DejaVuSans-111"/>
       <path d="M 48.78125 52.59375 
L 48.78125 44.1875 
Q 44.96875 46.296875 41.140625 47.34375 
Q 37.3125 48.390625 33.40625 48.390625 
Q 24.65625 48.390625 19.8125 42.84375 
Q 14.984375 37.3125 14.984375 27.296875 
Q 14.984375 17.28125 19.8125 11.734375 
Q 24.65625 6.203125 33.40625 6.203125 
Q 37.3125 6.203125 41.140625 7.25 
Q 44.96875 8.296875 48.78125 10.40625 
L 48.78125 2.09375 
Q 45.015625 0.34375 40.984375 -0.53125 
Q 36.96875 -1.421875 32.421875 -1.421875 
Q 20.0625 -1.421875 12.78125 6.34375 
Q 5.515625 14.109375 5.515625 27.296875 
Q 5.515625 40.671875 12.859375 48.328125 
Q 20.21875 56 33.015625 56 
Q 37.15625 56 41.109375 55.140625 
Q 45.0625 54.296875 48.78125 52.59375 
z
" id="DejaVuSans-99"/>
       <path d="M 54.890625 33.015625 
L 54.890625 0 
L 45.90625 0 
L 45.90625 32.71875 
Q 45.90625 40.484375 42.875 44.328125 
Q 39.84375 48.1875 33.796875 48.1875 
Q 26.515625 48.1875 22.3125 43.546875 
Q 18.109375 38.921875 18.109375 30.90625 
L 18.109375 0 
L 9.078125 0 
L 9.078125 75.984375 
L 18.109375 75.984375 
L 18.109375 46.1875 
Q 21.34375 51.125 25.703125 53.5625 
Q 30.078125 56 35.796875 56 
Q 45.21875 56 50.046875 50.171875 
Q 54.890625 44.34375 54.890625 33.015625 
z
" id="DejaVuSans-104"/>
      </defs>
      <use xlink:href="#DejaVuSans-69"/>
      <use x="63.183594" xlink:href="#DejaVuSans-112"/>
      <use x="126.660156" xlink:href="#DejaVuSans-111"/>
      <use x="187.841797" xlink:href="#DejaVuSans-99"/>
      <use x="242.822266" xlink:href="#DejaVuSans-104"/>
     </g>
    </g>
   </g>
   <g id="matplotlib.axis_2">
    <g id="ytick_1">
     <g id="line2d_10">
      <defs>
       <path d="M 0 0 
L -3.5 0 
" id="m0eb6d0257c" style="stroke:#000000;stroke-width:0.8;"/>
      </defs>
      <g>
       <use style="stroke:#000000;stroke-width:0.8;" x="90" xlink:href="#m0eb6d0257c" y="328.477374"/>
      </g>
     </g>
     <g id="text_11">
      <!-- 40 -->
      <g transform="translate(70.275 332.276593)scale(0.1 -0.1)">
       <use xlink:href="#DejaVuSans-52"/>
       <use x="63.623047" xlink:href="#DejaVuSans-48"/>
      </g>
     </g>
    </g>
    <g id="ytick_2">
     <g id="line2d_11">
      <g>
       <use style="stroke:#000000;stroke-width:0.8;" x="90" xlink:href="#m0eb6d0257c" y="259.302034"/>
      </g>
     </g>
     <g id="text_12">
      <!-- 60 -->
      <g transform="translate(70.275 263.101252)scale(0.1 -0.1)">
       <defs>
        <path d="M 33.015625 40.375 
Q 26.375 40.375 22.484375 35.828125 
Q 18.609375 31.296875 18.609375 23.390625 
Q 18.609375 15.53125 22.484375 10.953125 
Q 26.375 6.390625 33.015625 6.390625 
Q 39.65625 6.390625 43.53125 10.953125 
Q 47.40625 15.53125 47.40625 23.390625 
Q 47.40625 31.296875 43.53125 35.828125 
Q 39.65625 40.375 33.015625 40.375 
z
M 52.59375 71.296875 
L 52.59375 62.3125 
Q 48.875 64.0625 45.09375 64.984375 
Q 41.3125 65.921875 37.59375 65.921875 
Q 27.828125 65.921875 22.671875 59.328125 
Q 17.53125 52.734375 16.796875 39.40625 
Q 19.671875 43.65625 24.015625 45.921875 
Q 28.375 48.1875 33.59375 48.1875 
Q 44.578125 48.1875 50.953125 41.515625 
Q 57.328125 34.859375 57.328125 23.390625 
Q 57.328125 12.15625 50.6875 5.359375 
Q 44.046875 -1.421875 33.015625 -1.421875 
Q 20.359375 -1.421875 13.671875 8.265625 
Q 6.984375 17.96875 6.984375 36.375 
Q 6.984375 53.65625 15.1875 63.9375 
Q 23.390625 74.21875 37.203125 74.21875 
Q 40.921875 74.21875 44.703125 73.484375 
Q 48.484375 72.75 52.59375 71.296875 
z
" id="DejaVuSans-54"/>
       </defs>
       <use xlink:href="#DejaVuSans-54"/>
       <use x="63.623047" xlink:href="#DejaVuSans-48"/>
      </g>
     </g>
    </g>
    <g id="ytick_3">
     <g id="line2d_12">
      <g>
       <use style="stroke:#000000;stroke-width:0.8;" x="90" xlink:href="#m0eb6d0257c" y="190.126693"/>
      </g>
     </g>
     <g id="text_13">
      <!-- 80 -->
      <g transform="translate(70.275 193.925912)scale(0.1 -0.1)">
       <defs>
        <path d="M 31.78125 34.625 
Q 24.75 34.625 20.71875 30.859375 
Q 16.703125 27.09375 16.703125 20.515625 
Q 16.703125 13.921875 20.71875 10.15625 
Q 24.75 6.390625 31.78125 6.390625 
Q 38.8125 6.390625 42.859375 10.171875 
Q 46.921875 13.96875 46.921875 20.515625 
Q 46.921875 27.09375 42.890625 30.859375 
Q 38.875 34.625 31.78125 34.625 
z
M 21.921875 38.8125 
Q 15.578125 40.375 12.03125 44.71875 
Q 8.5 49.078125 8.5 55.328125 
Q 8.5 64.0625 14.71875 69.140625 
Q 20.953125 74.21875 31.78125 74.21875 
Q 42.671875 74.21875 48.875 69.140625 
Q 55.078125 64.0625 55.078125 55.328125 
Q 55.078125 49.078125 51.53125 44.71875 
Q 48 40.375 41.703125 38.8125 
Q 48.828125 37.15625 52.796875 32.3125 
Q 56.78125 27.484375 56.78125 20.515625 
Q 56.78125 9.90625 50.3125 4.234375 
Q 43.84375 -1.421875 31.78125 -1.421875 
Q 19.734375 -1.421875 13.25 4.234375 
Q 6.78125 9.90625 6.78125 20.515625 
Q 6.78125 27.484375 10.78125 32.3125 
Q 14.796875 37.15625 21.921875 38.8125 
z
M 18.3125 54.390625 
Q 18.3125 48.734375 21.84375 45.5625 
Q 25.390625 42.390625 31.78125 42.390625 
Q 38.140625 42.390625 41.71875 45.5625 
Q 45.3125 48.734375 45.3125 54.390625 
Q 45.3125 60.0625 41.71875 63.234375 
Q 38.140625 66.40625 31.78125 66.40625 
Q 25.390625 66.40625 21.84375 63.234375 
Q 18.3125 60.0625 18.3125 54.390625 
z
" id="DejaVuSans-56"/>
       </defs>
       <use xlink:href="#DejaVuSans-56"/>
       <use x="63.623047" xlink:href="#DejaVuSans-48"/>
      </g>
     </g>
    </g>
    <g id="ytick_4">
     <g id="line2d_13">
      <g>
       <use style="stroke:#000000;stroke-width:0.8;" x="90" xlink:href="#m0eb6d0257c" y="120.951353"/>
      </g>
     </g>
     <g id="text_14">
      <!-- 100 -->
      <g transform="translate(63.9125 124.750572)scale(0.1 -0.1)">
       <use xlink:href="#DejaVuSans-49"/>
       <use x="63.623047" xlink:href="#DejaVuSans-48"/>
       <use x="127.246094" xlink:href="#DejaVuSans-48"/>
      </g>
     </g>
    </g>
    <g id="text_15">
     <!-- MAE -->
     <g transform="translate(57.832812 229.05375)rotate(-90)scale(0.1 -0.1)">
      <defs>
       <path d="M 9.8125 72.90625 
L 24.515625 72.90625 
L 43.109375 23.296875 
L 61.8125 72.90625 
L 76.515625 72.90625 
L 76.515625 0 
L 66.890625 0 
L 66.890625 64.015625 
L 48.09375 14.015625 
L 38.1875 14.015625 
L 19.390625 64.015625 
L 19.390625 0 
L 9.8125 0 
z
" id="DejaVuSans-77"/>
       <path d="M 34.1875 63.1875 
L 20.796875 26.90625 
L 47.609375 26.90625 
z
M 28.609375 72.90625 
L 39.796875 72.90625 
L 67.578125 0 
L 57.328125 0 
L 50.6875 18.703125 
L 17.828125 18.703125 
L 11.1875 0 
L 0.78125 0 
z
" id="DejaVuSans-65"/>
      </defs>
      <use xlink:href="#DejaVuSans-77"/>
      <use x="86.279297" xlink:href="#DejaVuSans-65"/>
      <use x="154.6875" xlink:href="#DejaVuSans-69"/>
     </g>
    </g>
   </g>
   <g id="line2d_14">
    <path clip-path="url(#p983b7ef0cd)" d="M 90 66.96 
L 90.634091 97.673851 
L 91.268182 89.23446 
L 92.536364 147.929736 
L 93.170455 161.937742 
L 93.804545 157.752634 
L 94.438636 170.342546 
L 95.072727 174.389303 
L 95.706818 158.824852 
L 96.340909 193.066645 
L 96.975 169.616205 
L 97.609091 187.290504 
L 98.243182 173.559199 
L 98.877273 182.655757 
L 99.511364 188.189784 
L 100.145455 181.583539 
L 100.779545 195.245669 
L 101.413636 193.481697 
L 102.047727 197.943507 
L 102.681818 191.095148 
L 103.315909 210.671769 
L 103.95 216.205797 
L 104.584091 228.069367 
L 105.218182 216.482498 
L 105.852273 212.435741 
L 106.486364 224.991065 
L 107.754545 230.767206 
L 108.388636 226.512922 
L 109.022727 232.081537 
L 109.656818 216.102034 
L 110.290909 210.913883 
L 110.925 232.877054 
L 111.559091 239.206597 
L 112.193182 232.04695 
L 112.827273 233.430456 
L 113.461364 240.728455 
L 114.095455 224.852714 
L 115.363636 265.078175 
L 115.997727 253.249191 
L 116.631818 245.086501 
L 117.265909 246.193307 
L 117.9 235.920769 
L 118.534091 250.482178 
L 119.168182 239.76 
L 119.802273 237.580977 
L 120.436364 244.290985 
L 121.070455 242.354075 
L 121.704545 246.366245 
L 122.338636 251.623571 
L 122.972727 250.274652 
L 123.606818 248.026453 
L 124.240909 256.777134 
L 124.875 258.852394 
L 125.509091 268.294828 
L 126.143182 273.033339 
L 126.777273 239.344948 
L 127.411364 261.930697 
L 128.045455 255.428215 
L 128.679545 256.327494 
L 129.313636 265.839103 
L 129.947727 269.816685 
L 130.581818 264.974412 
L 131.215909 252.592026 
L 131.85 272.099472 
L 132.484091 268.951994 
L 133.118182 261.930697 
L 133.752273 272.410761 
L 134.386364 269.29787 
L 135.020455 266.876733 
L 135.654545 264.905236 
L 136.288636 261.066005 
L 136.922727 273.275452 
L 137.556818 270.992666 
L 138.190909 279.362882 
L 138.825 268.70988 
L 139.459091 270.78514 
L 140.093182 269.782098 
L 140.727273 275.108599 
L 141.361364 256.465845 
L 141.995455 272.998751 
L 142.629545 274.313082 
L 143.263636 282.268247 
L 143.897727 271.961121 
L 144.531818 282.51036 
L 145.165909 277.771849 
L 145.8 292.437022 
L 146.434091 274.451433 
L 147.068182 283.444227 
L 147.702273 282.614123 
L 148.336364 293.301713 
L 148.970455 285.519488 
L 149.604545 288.943667 
L 150.238636 263.487142 
L 150.872727 275.800352 
L 151.506818 268.606117 
L 152.775 284.205156 
L 153.409091 287.387222 
L 154.043182 288.632378 
L 154.677273 295.065685 
L 155.311364 297.486821 
L 155.945455 307.517246 
L 156.579545 298.593627 
L 157.213636 300.530536 
L 157.847727 305.891625 
L 158.481818 306.687142 
L 159.115909 312.082818 
L 159.75 309.454155 
L 160.384091 296.137902 
L 161.018182 306.825492 
L 161.652273 306.514203 
L 162.286364 298.1094 
L 162.920455 304.438943 
L 163.554545 306.064564 
L 164.188636 305.857038 
L 164.822727 310.941425 
L 165.456818 292.990424 
L 166.090909 304.715645 
L 166.725 298.386101 
L 167.359091 312.151994 
L 168.627273 299.112442 
L 169.261364 313.016685 
L 169.895455 308.174412 
L 170.529545 307.413483 
L 171.797727 299.250793 
L 172.431818 311.529416 
L 173.065909 309.523331 
L 173.7 305.684099 
L 174.334091 310.111321 
L 174.968182 306.341265 
L 175.602273 296.483779 
L 176.236364 316.855917 
L 176.870455 304.992346 
L 177.504545 308.036061 
L 178.138636 313.39715 
L 178.772727 317.374732 
L 179.406818 292.60996 
L 180.040909 302.84791 
L 180.675 300.495949 
L 181.309091 314.780657 
L 181.943182 290.638463 
L 182.577273 298.1094 
L 183.211364 311.494828 
L 184.479545 299.112442 
L 185.113636 316.682978 
L 185.747727 310.111321 
L 186.381818 309.83462 
L 187.015909 308.969928 
L 187.65 311.46024 
L 188.284091 297.452234 
L 188.918182 303.539664 
L 190.186364 312.532458 
L 190.820455 323.150873 
L 191.454545 302.329095 
L 192.088636 298.628215 
L 192.722727 308.174412 
L 193.356818 310.941425 
L 193.990909 300.046309 
L 195.259091 317.54767 
L 195.893182 305.857038 
L 196.527273 305.857038 
L 197.795455 313.915965 
L 198.429545 303.193787 
L 199.063636 315.749111 
L 199.697727 307.44807 
L 200.331818 314.123491 
L 200.965909 309.765444 
L 201.6 308.866165 
L 202.234091 302.882498 
L 202.868182 313.189624 
L 203.502273 312.532458 
L 204.136364 311.32189 
L 204.770455 310.837662 
L 205.404545 305.338223 
L 206.038636 314.054315 
L 206.672727 313.431737 
L 207.306818 311.771529 
L 207.940909 302.571209 
L 208.575 304.369768 
L 209.209091 319.519167 
L 209.843182 328.09691 
L 210.477273 313.743026 
L 211.111364 309.696269 
L 211.745455 316.994267 
L 212.379545 311.979055 
L 213.013636 318.239424 
L 213.647727 317.340144 
L 214.281818 311.356477 
L 215.55 313.293387 
L 216.184091 311.806117 
L 216.818182 311.944468 
L 217.452273 322.00948 
L 218.086364 316.544628 
L 218.720455 309.730857 
L 219.354545 313.085861 
L 219.988636 312.428695 
L 220.622727 310.180496 
L 221.256818 314.953595 
L 221.890909 306.064564 
L 222.525 303.262962 
L 223.793182 318.239424 
L 224.427273 319.311641 
L 225.061364 309.938383 
L 225.695455 313.673851 
L 226.329545 314.711481 
L 226.963636 313.085861 
L 227.597727 315.576173 
L 228.231818 304.231417 
L 228.865909 306.514203 
L 229.5 308.243587 
L 230.134091 315.02277 
L 230.768182 302.467446 
L 231.402273 310.630136 
L 232.036364 315.091946 
L 232.670455 317.236381 
L 233.304545 315.403235 
L 233.938636 306.514203 
L 234.572727 312.013643 
L 235.206818 314.43478 
L 235.840909 324.015564 
L 236.475 311.806117 
L 237.109091 314.158078 
L 237.743182 314.988183 
L 238.377273 313.39715 
L 239.011364 327.578094 
L 239.645455 313.950552 
L 240.279545 316.371689 
L 240.913636 313.98514 
L 241.547727 301.429816 
L 242.181818 317.409319 
L 242.815909 307.759359 
L 243.45 306.375853 
L 244.084091 312.048231 
L 244.718182 304.715645 
L 245.352273 316.198751 
L 245.986364 312.878335 
L 246.620455 312.221169 
L 247.254545 309.83462 
L 247.888636 320.383859 
L 248.522727 316.440865 
L 249.156818 304.646469 
L 250.425 318.239424 
L 251.059091 316.786741 
L 251.693182 310.318847 
L 252.327273 312.670809 
L 252.961364 309.315805 
L 253.595455 316.890504 
L 254.229545 305.061521 
L 254.863636 319.03494 
L 255.497727 322.355356 
L 256.131818 307.621009 
L 256.765909 318.481537 
L 257.4 320.625973 
L 258.034091 318.343187 
L 258.668182 302.674972 
L 259.302273 321.629015 
L 259.936364 309.869207 
L 260.570455 315.852874 
L 261.204545 316.579215 
L 261.838636 307.344307 
L 262.472727 309.696269 
L 263.106818 319.311641 
L 263.740909 313.466325 
L 264.375 310.976013 
L 265.009091 315.714524 
L 265.643182 313.604676 
L 266.277273 322.00948 
L 266.911364 309.039103 
L 267.545455 316.233339 
L 268.179545 308.866165 
L 268.813636 322.839584 
L 269.447727 307.621009 
L 270.081818 312.567046 
L 270.715909 322.00948 
L 271.984091 314.123491 
L 272.618182 317.063443 
L 273.252273 312.151994 
L 273.886364 316.406277 
L 274.520455 312.912922 
L 275.154545 306.963843 
L 275.788636 319.104115 
L 276.422727 310.87225 
L 277.056818 329.411241 
L 277.690909 295.653675 
L 278.325 319.519167 
L 278.959091 310.526373 
L 279.593182 324.08474 
L 280.227273 310.87225 
L 280.861364 311.148951 
L 281.495455 315.195709 
L 282.129545 308.208999 
L 282.763636 310.803074 
L 283.397727 303.608839 
L 284.031818 316.267926 
L 284.665909 311.0106 
L 285.3 307.828535 
L 285.934091 314.469367 
L 286.568182 319.657518 
L 287.202273 317.755196 
L 287.836364 309.592506 
L 288.470455 304.646469 
L 289.104545 310.457198 
L 289.738636 317.374732 
L 290.372727 309.350392 
L 291.006818 315.126533 
L 291.640909 316.95968 
L 292.275 314.676894 
L 292.909091 315.714524 
L 293.543182 317.201793 
L 294.177273 311.183539 
L 294.811364 312.774572 
L 295.445455 321.836541 
L 296.079545 309.38498 
L 296.713636 312.601633 
L 297.347727 324.153915 
L 297.981818 310.457198 
L 298.615909 310.457198 
L 299.25 311.633179 
L 299.884091 316.752154 
L 300.518182 311.114363 
L 301.152273 313.466325 
L 301.786364 310.388022 
L 302.420455 315.991225 
L 303.054545 316.752154 
L 303.688636 318.619888 
L 304.322727 319.173291 
L 304.956818 324.949432 
L 305.590909 325.295308 
L 306.225 320.210921 
L 306.859091 322.804996 
L 307.493182 310.007558 
L 308.127273 309.004516 
L 308.761364 319.380817 
L 309.395455 317.962722 
L 310.029545 312.013643 
L 310.663636 317.720608 
L 311.297727 314.676894 
L 311.931818 322.943347 
L 312.565909 318.204836 
L 313.2 320.798911 
L 313.834091 322.251593 
L 314.468182 315.368647 
L 315.102273 314.365604 
L 315.736364 316.164163 
L 316.370455 325.053195 
L 317.004545 305.096109 
L 317.638636 321.836541 
L 318.272727 313.5355 
L 318.906818 312.463283 
L 319.540909 323.220048 
L 320.175 322.528295 
L 320.809091 322.943347 
L 321.443182 315.749111 
L 322.077273 320.383859 
L 322.711364 327.64727 
L 323.345455 310.803074 
L 323.979545 318.827414 
L 324.613636 315.852874 
L 325.247727 324.396029 
L 325.881818 323.600512 
L 326.515909 307.724772 
L 327.15 313.950552 
L 327.784091 308.624051 
L 328.418182 304.957758 
L 329.052273 316.164163 
L 329.686364 318.170248 
L 330.320455 312.35952 
L 330.954545 318.654476 
L 331.588636 312.774572 
L 332.222727 311.148951 
L 332.856818 314.158078 
L 333.490909 307.793947 
L 334.125 322.770408 
L 334.759091 315.02277 
L 335.393182 320.591385 
L 336.027273 314.019728 
L 336.661364 312.601633 
L 337.295455 315.091946 
L 337.929545 325.226133 
L 338.563636 314.642306 
L 339.197727 312.878335 
L 339.831818 314.573131 
L 340.465909 308.139824 
L 341.1 317.443907 
L 341.734091 312.705396 
L 342.368182 322.632058 
L 343.636364 311.667766 
L 343.636364 311.667766 
" style="fill:none;stroke:#1f77b4;stroke-linecap:square;stroke-width:1.5;"/>
   </g>
   <g id="line2d_15">
    <path clip-path="url(#p983b7ef0cd)" d="M 90 135.236061 
L 90.634091 184.073851 
L 91.268182 184.143026 
L 91.902273 184.973131 
L 93.170455 218.38482 
L 93.804545 215.098991 
L 94.438636 220.771369 
L 95.072727 232.289063 
L 95.706818 223.019568 
L 96.340909 240.970568 
L 96.975 220.840544 
L 97.609091 230.490504 
L 98.243182 208.596509 
L 98.877273 238.929896 
L 99.511364 240.486341 
L 100.145455 252.834139 
L 100.779545 248.510681 
L 101.413636 250.482178 
L 102.047727 240.105877 
L 102.681818 246.781297 
L 103.315909 260.893066 
L 103.95 278.705717 
L 104.584091 279.881697 
L 105.218182 267.360961 
L 105.852273 259.717086 
L 106.486364 282.925412 
L 107.120455 279.777934 
L 107.754545 282.925412 
L 108.388636 274.34767 
L 109.022727 280.400512 
L 109.656818 251.208519 
L 110.290909 264.732298 
L 110.925 283.859279 
L 111.559091 277.875612 
L 112.193182 287.283459 
L 112.827273 264.836061 
L 113.461364 299.873371 
L 114.095455 279.189944 
L 114.729545 282.026133 
L 115.363636 300.253835 
L 115.997727 301.741105 
L 116.631818 293.64759 
L 117.265909 290.500112 
L 117.9 275.212362 
L 118.534091 301.844868 
L 119.168182 292.852074 
L 119.802273 274.416845 
L 120.436364 284.862322 
L 121.070455 293.094187 
L 121.704545 282.648711 
L 122.338636 275.281537 
L 122.972727 293.232538 
L 123.606818 294.09723 
L 124.240909 309.419568 
L 124.875 295.307798 
L 125.509091 314.538543 
L 126.143182 308.416525 
L 126.777273 305.338223 
L 127.411364 296.068727 
L 128.045455 279.950873 
L 129.313636 308.312762 
L 129.947727 305.614924 
L 130.581818 320.141745 
L 131.215909 297.002594 
L 131.85 311.32189 
L 132.484091 311.32189 
L 133.118182 288.321089 
L 133.752273 307.551833 
L 134.386364 303.539664 
L 135.020455 300.392186 
L 135.654545 292.817486 
L 136.288636 305.926213 
L 136.922727 300.980176 
L 137.556818 324.465204 
L 138.190909 313.604676 
L 138.825 304.78482 
L 139.459091 322.804996 
L 140.093182 314.538543 
L 140.727273 314.331017 
L 141.361364 297.313883 
L 141.995455 316.717566 
L 142.629545 330.137582 
L 143.263636 315.541585 
L 143.897727 315.403235 
L 144.531818 306.41044 
L 145.165909 309.142866 
L 145.8 319.588343 
L 146.434091 325.295308 
L 147.068182 327.854796 
L 147.702273 326.056237 
L 148.336364 331.451914 
L 148.970455 315.818287 
L 149.604545 322.943347 
L 150.238636 299.873371 
L 150.872727 304.750232 
L 151.506818 302.778735 
L 152.140909 320.764323 
L 152.775 321.767366 
L 153.409091 329.584179 
L 154.043182 333.042946 
L 154.677273 343.004195 
L 155.311364 349.61044 
L 155.945455 340.479295 
L 156.579545 344.768167 
L 157.213636 347.258479 
L 157.847727 351.858639 
L 158.481818 350.717246 
L 159.115909 345.494508 
L 159.75 354.037662 
L 160.384091 340.99811 
L 161.018182 345.736621 
L 161.652273 348.296109 
L 162.286364 343.211721 
L 162.920455 343.038783 
L 163.554545 337.954396 
L 164.188636 345.978735 
L 165.456818 338.438623 
L 166.090909 351.339824 
L 166.725 346.220849 
L 167.359091 354.452714 
L 167.993182 343.592186 
L 168.627273 349.714203 
L 169.895455 350.475132 
L 170.529545 350.06008 
L 171.163636 350.094668 
L 171.797727 344.180176 
L 172.431818 352.550392 
L 173.065909 350.924772 
L 173.7 346.566725 
L 174.334091 354.418127 
L 174.968182 346.359199 
L 175.602273 343.142546 
L 176.236364 350.544307 
L 176.870455 347.154716 
L 177.504545 352.308279 
L 178.138636 351.651113 
L 178.772727 354.176013 
L 179.406818 341.482338 
L 180.675 350.993947 
L 181.309091 357.046789 
L 181.943182 344.007238 
L 182.577273 346.739664 
L 183.211364 353.657198 
L 183.845455 353.138383 
L 184.479545 350.64807 
L 185.113636 353.449672 
L 185.747727 354.487302 
L 186.381818 359.882978 
L 187.015909 345.01028 
L 187.65 354.764003 
L 188.284091 342.035741 
L 188.918182 342.174091 
L 189.552273 350.64807 
L 190.186364 355.040705 
L 190.820455 351.028535 
L 191.454545 343.695949 
L 192.088636 343.592186 
L 192.722727 353.103795 
L 193.356818 354.245188 
L 193.990909 351.720288 
L 194.625 359.2604 
L 195.259091 358.706998 
L 195.893182 351.858639 
L 196.527273 357.115965 
L 197.161364 354.452714 
L 197.795455 360.713082 
L 198.429545 351.789464 
L 199.063636 357.115965 
L 199.697727 348.745749 
L 200.331818 356.320448 
L 200.965909 355.10988 
L 201.6 352.550392 
L 202.234091 351.754876 
L 203.502273 362.753755 
L 204.136364 355.69787 
L 204.770455 357.565604 
L 205.404545 356.285861 
L 206.038636 353.345909 
L 207.306818 357.046789 
L 207.940909 344.560641 
L 208.575 346.912602 
L 209.209091 359.329576 
L 209.843182 362.926693 
L 210.477273 353.103795 
L 211.111364 350.613483 
L 211.745455 351.893227 
L 212.379545 355.870809 
L 213.013636 354.52189 
L 213.647727 358.464884 
L 214.281818 350.371369 
L 214.915909 358.08442 
L 215.55 353.691785 
L 216.184091 350.198431 
L 216.818182 355.974572 
L 217.452273 363.065044 
L 218.086364 355.55952 
L 219.354545 364.75984 
L 219.988636 353.311321 
L 221.256818 362.200352 
L 222.525 349.195388 
L 223.159091 359.882978 
L 223.793182 358.706998 
L 224.427273 362.407878 
L 225.061364 359.848391 
L 225.695455 356.562562 
L 226.329545 359.606277 
L 226.963636 356.804676 
L 227.597727 355.801633 
L 228.231818 353.760961 
L 228.865909 355.10988 
L 229.5 353.138383 
L 230.134091 352.965444 
L 230.768182 352.550392 
L 231.402273 357.946069 
L 232.036364 355.939984 
L 232.670455 358.810761 
L 233.304545 354.66024 
L 233.938636 355.974572 
L 234.572727 350.025492 
L 235.206818 359.2604 
L 235.840909 361.439424 
L 236.475 355.386581 
L 237.109091 358.361121 
L 237.743182 354.729416 
L 239.011364 361.543187 
L 240.279545 355.455757 
L 240.913636 357.703955 
L 241.547727 355.801633 
L 242.181818 355.628695 
L 242.815909 352.481217 
L 244.084091 361.058959 
L 244.718182 359.294988 
L 245.352273 361.7853 
L 245.986364 358.776173 
L 246.620455 357.738543 
L 247.254545 357.600192 
L 247.888636 363.653034 
L 248.522727 362.961281 
L 249.156818 349.02245 
L 249.790909 352.654155 
L 250.425 362.719167 
L 251.059091 359.917566 
L 251.693182 361.058959 
L 252.327273 357.219728 
L 252.961364 357.807718 
L 253.595455 360.194267 
L 254.229545 357.18514 
L 254.863636 359.502514 
L 255.497727 365.832058 
L 256.131818 360.332618 
L 256.765909 358.914524 
L 257.4 368.080256 
L 258.034091 362.753755 
L 258.668182 349.057038 
L 259.302273 364.275612 
L 259.936364 352.066165 
L 260.570455 354.2106 
L 261.204545 360.470969 
L 261.838636 354.729416 
L 262.472727 357.012202 
L 263.106818 361.335661 
L 263.740909 362.511641 
L 264.375 354.279776 
L 265.009091 360.401793 
L 265.643182 360.713082 
L 266.277273 362.027414 
L 266.911364 357.738543 
L 267.545455 357.358078 
L 268.179545 355.386581 
L 268.813636 360.367206 
L 270.081818 357.323491 
L 270.715909 364.379376 
L 271.35 354.971529 
L 271.984091 355.351994 
L 272.618182 359.12205 
L 273.252273 356.7355 
L 273.886364 366.38546 
L 274.520455 356.873851 
L 275.154545 352.688743 
L 276.422727 363.237982 
L 277.056818 368.426133 
L 277.690909 349.714203 
L 278.325 360.401793 
L 278.959091 358.188183 
L 279.593182 365.555356 
L 280.227273 352.239103 
L 280.861364 353.380496 
L 281.495455 359.71004 
L 282.129545 356.182098 
L 282.763636 358.188183 
L 283.397727 350.163843 
L 284.031818 354.902354 
L 284.665909 356.493387 
L 285.3 355.870809 
L 285.934091 355.801633 
L 286.568182 361.923651 
L 287.202273 363.065044 
L 287.836364 353.518847 
L 288.470455 356.216685 
L 289.104545 360.816845 
L 289.738636 357.496429 
L 290.372727 358.015244 
L 291.006818 359.502514 
L 291.640909 355.974572 
L 292.275 363.687622 
L 292.909091 359.087462 
L 293.543182 365.140304 
L 294.177273 357.669367 
L 294.811364 352.58498 
L 295.445455 362.719167 
L 296.079545 353.276733 
L 296.713636 360.436381 
L 297.347727 360.955196 
L 297.981818 360.055917 
L 298.615909 363.27257 
L 299.25 360.678495 
L 299.884091 356.770088 
L 300.518182 357.392666 
L 301.152273 356.631737 
L 301.786364 354.418127 
L 302.420455 366.38546 
L 303.054545 360.713082 
L 303.688636 365.174892 
L 304.322727 359.952154 
L 304.956818 360.816845 
L 305.590909 363.030456 
L 306.225 364.656077 
L 306.859091 369.36 
L 307.493182 351.858639 
L 308.761364 363.099632 
L 309.395455 355.69787 
L 310.029545 355.732458 
L 310.663636 363.86056 
L 311.297727 361.923651 
L 311.931818 365.417006 
L 312.565909 363.065044 
L 313.2 362.373291 
L 313.834091 363.445508 
L 314.468182 358.879936 
L 315.102273 358.395709 
L 315.736364 355.801633 
L 316.370455 365.20948 
L 317.004545 352.412042 
L 317.638636 363.687622 
L 318.272727 357.911481 
L 318.906818 354.106837 
L 319.540909 365.659119 
L 320.175 361.128135 
L 321.443182 359.744628 
L 322.077273 364.552314 
L 322.711364 365.935821 
L 323.345455 358.430296 
L 323.979545 359.225813 
L 324.613636 365.659119 
L 325.247727 366.108759 
L 325.881818 365.486181 
L 326.515909 356.112922 
L 327.15 358.015244 
L 327.784091 352.58498 
L 328.418182 352.481217 
L 329.052273 359.986741 
L 329.686364 364.75984 
L 330.320455 361.612362 
L 330.954545 361.612362 
L 331.588636 349.679616 
L 332.222727 361.058959 
L 332.856818 359.640865 
L 333.490909 358.603235 
L 334.125 360.090504 
L 335.393182 362.511641 
L 336.027273 362.857518 
L 336.661364 362.200352 
L 337.295455 355.10988 
L 337.929545 367.561441 
L 338.563636 354.418127 
L 339.197727 357.738543 
L 339.831818 358.845348 
L 340.465909 358.153595 
L 341.1 359.12205 
L 341.734091 361.19731 
L 343.002273 368.841185 
L 343.636364 360.090504 
L 343.636364 360.090504 
" style="fill:none;stroke:#ff7f0e;stroke-linecap:square;stroke-width:1.5;"/>
   </g>
   <g id="patch_3">
    <path d="M 90 384.48 
L 90 51.84 
" style="fill:none;stroke:#000000;stroke-linecap:square;stroke-linejoin:miter;stroke-width:0.8;"/>
   </g>
   <g id="patch_4">
    <path d="M 343.636364 384.48 
L 343.636364 51.84 
" style="fill:none;stroke:#000000;stroke-linecap:square;stroke-linejoin:miter;stroke-width:0.8;"/>
   </g>
   <g id="patch_5">
    <path d="M 90 384.48 
L 343.636364 384.48 
" style="fill:none;stroke:#000000;stroke-linecap:square;stroke-linejoin:miter;stroke-width:0.8;"/>
   </g>
   <g id="patch_6">
    <path d="M 90 51.84 
L 343.636364 51.84 
" style="fill:none;stroke:#000000;stroke-linecap:square;stroke-linejoin:miter;stroke-width:0.8;"/>
   </g>
   <g id="legend_1">
    <g id="patch_7">
     <path d="M 148.912926 89.19625 
L 336.636364 89.19625 
Q 338.636364 89.19625 338.636364 87.19625 
L 338.636364 58.84 
Q 338.636364 56.84 336.636364 56.84 
L 148.912926 56.84 
Q 146.912926 56.84 146.912926 58.84 
L 146.912926 87.19625 
Q 146.912926 89.19625 148.912926 89.19625 
z
" style="fill:#ffffff;opacity:0.8;stroke:#cccccc;stroke-linejoin:miter;"/>
    </g>
    <g id="line2d_16">
     <path d="M 150.912926 64.938437 
L 170.912926 64.938437 
" style="fill:none;stroke:#1f77b4;stroke-linecap:square;stroke-width:1.5;"/>
    </g>
    <g id="line2d_17"/>
    <g id="text_16">
     <!-- Train from scratch -->
     <g transform="translate(178.912926 68.438437)scale(0.1 -0.1)">
      <defs>
       <path d="M -0.296875 72.90625 
L 61.375 72.90625 
L 61.375 64.59375 
L 35.5 64.59375 
L 35.5 0 
L 25.59375 0 
L 25.59375 64.59375 
L -0.296875 64.59375 
z
" id="DejaVuSans-84"/>
       <path d="M 41.109375 46.296875 
Q 39.59375 47.171875 37.8125 47.578125 
Q 36.03125 48 33.890625 48 
Q 26.265625 48 22.1875 43.046875 
Q 18.109375 38.09375 18.109375 28.8125 
L 18.109375 0 
L 9.078125 0 
L 9.078125 54.6875 
L 18.109375 54.6875 
L 18.109375 46.1875 
Q 20.953125 51.171875 25.484375 53.578125 
Q 30.03125 56 36.53125 56 
Q 37.453125 56 38.578125 55.875 
Q 39.703125 55.765625 41.0625 55.515625 
z
" id="DejaVuSans-114"/>
       <path d="M 34.28125 27.484375 
Q 23.390625 27.484375 19.1875 25 
Q 14.984375 22.515625 14.984375 16.5 
Q 14.984375 11.71875 18.140625 8.90625 
Q 21.296875 6.109375 26.703125 6.109375 
Q 34.1875 6.109375 38.703125 11.40625 
Q 43.21875 16.703125 43.21875 25.484375 
L 43.21875 27.484375 
z
M 52.203125 31.203125 
L 52.203125 0 
L 43.21875 0 
L 43.21875 8.296875 
Q 40.140625 3.328125 35.546875 0.953125 
Q 30.953125 -1.421875 24.3125 -1.421875 
Q 15.921875 -1.421875 10.953125 3.296875 
Q 6 8.015625 6 15.921875 
Q 6 25.140625 12.171875 29.828125 
Q 18.359375 34.515625 30.609375 34.515625 
L 43.21875 34.515625 
L 43.21875 35.40625 
Q 43.21875 41.609375 39.140625 45 
Q 35.0625 48.390625 27.6875 48.390625 
Q 23 48.390625 18.546875 47.265625 
Q 14.109375 46.140625 10.015625 43.890625 
L 10.015625 52.203125 
Q 14.9375 54.109375 19.578125 55.046875 
Q 24.21875 56 28.609375 56 
Q 40.484375 56 46.34375 49.84375 
Q 52.203125 43.703125 52.203125 31.203125 
z
" id="DejaVuSans-97"/>
       <path d="M 9.421875 54.6875 
L 18.40625 54.6875 
L 18.40625 0 
L 9.421875 0 
z
M 9.421875 75.984375 
L 18.40625 75.984375 
L 18.40625 64.59375 
L 9.421875 64.59375 
z
" id="DejaVuSans-105"/>
       <path d="M 54.890625 33.015625 
L 54.890625 0 
L 45.90625 0 
L 45.90625 32.71875 
Q 45.90625 40.484375 42.875 44.328125 
Q 39.84375 48.1875 33.796875 48.1875 
Q 26.515625 48.1875 22.3125 43.546875 
Q 18.109375 38.921875 18.109375 30.90625 
L 18.109375 0 
L 9.078125 0 
L 9.078125 54.6875 
L 18.109375 54.6875 
L 18.109375 46.1875 
Q 21.34375 51.125 25.703125 53.5625 
Q 30.078125 56 35.796875 56 
Q 45.21875 56 50.046875 50.171875 
Q 54.890625 44.34375 54.890625 33.015625 
z
" id="DejaVuSans-110"/>
       <path id="DejaVuSans-32"/>
       <path d="M 37.109375 75.984375 
L 37.109375 68.5 
L 28.515625 68.5 
Q 23.6875 68.5 21.796875 66.546875 
Q 19.921875 64.59375 19.921875 59.515625 
L 19.921875 54.6875 
L 34.71875 54.6875 
L 34.71875 47.703125 
L 19.921875 47.703125 
L 19.921875 0 
L 10.890625 0 
L 10.890625 47.703125 
L 2.296875 47.703125 
L 2.296875 54.6875 
L 10.890625 54.6875 
L 10.890625 58.5 
Q 10.890625 67.625 15.140625 71.796875 
Q 19.390625 75.984375 28.609375 75.984375 
z
" id="DejaVuSans-102"/>
       <path d="M 52 44.1875 
Q 55.375 50.25 60.0625 53.125 
Q 64.75 56 71.09375 56 
Q 79.640625 56 84.28125 50.015625 
Q 88.921875 44.046875 88.921875 33.015625 
L 88.921875 0 
L 79.890625 0 
L 79.890625 32.71875 
Q 79.890625 40.578125 77.09375 44.375 
Q 74.3125 48.1875 68.609375 48.1875 
Q 61.625 48.1875 57.5625 43.546875 
Q 53.515625 38.921875 53.515625 30.90625 
L 53.515625 0 
L 44.484375 0 
L 44.484375 32.71875 
Q 44.484375 40.625 41.703125 44.40625 
Q 38.921875 48.1875 33.109375 48.1875 
Q 26.21875 48.1875 22.15625 43.53125 
Q 18.109375 38.875 18.109375 30.90625 
L 18.109375 0 
L 9.078125 0 
L 9.078125 54.6875 
L 18.109375 54.6875 
L 18.109375 46.1875 
Q 21.1875 51.21875 25.484375 53.609375 
Q 29.78125 56 35.6875 56 
Q 41.65625 56 45.828125 52.96875 
Q 50 49.953125 52 44.1875 
z
" id="DejaVuSans-109"/>
       <path d="M 44.28125 53.078125 
L 44.28125 44.578125 
Q 40.484375 46.53125 36.375 47.5 
Q 32.28125 48.484375 27.875 48.484375 
Q 21.1875 48.484375 17.84375 46.4375 
Q 14.5 44.390625 14.5 40.28125 
Q 14.5 37.15625 16.890625 35.375 
Q 19.28125 33.59375 26.515625 31.984375 
L 29.59375 31.296875 
Q 39.15625 29.25 43.1875 25.515625 
Q 47.21875 21.78125 47.21875 15.09375 
Q 47.21875 7.46875 41.1875 3.015625 
Q 35.15625 -1.421875 24.609375 -1.421875 
Q 20.21875 -1.421875 15.453125 -0.5625 
Q 10.6875 0.296875 5.421875 2 
L 5.421875 11.28125 
Q 10.40625 8.6875 15.234375 7.390625 
Q 20.0625 6.109375 24.8125 6.109375 
Q 31.15625 6.109375 34.5625 8.28125 
Q 37.984375 10.453125 37.984375 14.40625 
Q 37.984375 18.0625 35.515625 20.015625 
Q 33.0625 21.96875 24.703125 23.78125 
L 21.578125 24.515625 
Q 13.234375 26.265625 9.515625 29.90625 
Q 5.8125 33.546875 5.8125 39.890625 
Q 5.8125 47.609375 11.28125 51.796875 
Q 16.75 56 26.8125 56 
Q 31.78125 56 36.171875 55.265625 
Q 40.578125 54.546875 44.28125 53.078125 
z
" id="DejaVuSans-115"/>
       <path d="M 18.3125 70.21875 
L 18.3125 54.6875 
L 36.8125 54.6875 
L 36.8125 47.703125 
L 18.3125 47.703125 
L 18.3125 18.015625 
Q 18.3125 11.328125 20.140625 9.421875 
Q 21.96875 7.515625 27.59375 7.515625 
L 36.8125 7.515625 
L 36.8125 0 
L 27.59375 0 
Q 17.1875 0 13.234375 3.875 
Q 9.28125 7.765625 9.28125 18.015625 
L 9.28125 47.703125 
L 2.6875 47.703125 
L 2.6875 54.6875 
L 9.28125 54.6875 
L 9.28125 70.21875 
z
" id="DejaVuSans-116"/>
      </defs>
      <use xlink:href="#DejaVuSans-84"/>
      <use x="46.333984" xlink:href="#DejaVuSans-114"/>
      <use x="87.447266" xlink:href="#DejaVuSans-97"/>
      <use x="148.726562" xlink:href="#DejaVuSans-105"/>
      <use x="176.509766" xlink:href="#DejaVuSans-110"/>
      <use x="239.888672" xlink:href="#DejaVuSans-32"/>
      <use x="271.675781" xlink:href="#DejaVuSans-102"/>
      <use x="306.880859" xlink:href="#DejaVuSans-114"/>
      <use x="345.744141" xlink:href="#DejaVuSans-111"/>
      <use x="406.925781" xlink:href="#DejaVuSans-109"/>
      <use x="504.337891" xlink:href="#DejaVuSans-32"/>
      <use x="536.125" xlink:href="#DejaVuSans-115"/>
      <use x="588.224609" xlink:href="#DejaVuSans-99"/>
      <use x="643.205078" xlink:href="#DejaVuSans-114"/>
      <use x="684.318359" xlink:href="#DejaVuSans-97"/>
      <use x="745.597656" xlink:href="#DejaVuSans-116"/>
      <use x="784.806641" xlink:href="#DejaVuSans-99"/>
      <use x="839.787109" xlink:href="#DejaVuSans-104"/>
     </g>
    </g>
    <g id="line2d_18">
     <path d="M 150.912926 79.616562 
L 170.912926 79.616562 
" style="fill:none;stroke:#ff7f0e;stroke-linecap:square;stroke-width:1.5;"/>
    </g>
    <g id="line2d_19"/>
    <g id="text_17">
     <!-- Train from synthetic-2d-texture -->
     <g transform="translate(178.912926 83.116562)scale(0.1 -0.1)">
      <defs>
       <path d="M 32.171875 -5.078125 
Q 28.375 -14.84375 24.75 -17.8125 
Q 21.140625 -20.796875 15.09375 -20.796875 
L 7.90625 -20.796875 
L 7.90625 -13.28125 
L 13.1875 -13.28125 
Q 16.890625 -13.28125 18.9375 -11.515625 
Q 21 -9.765625 23.484375 -3.21875 
L 25.09375 0.875 
L 2.984375 54.6875 
L 12.5 54.6875 
L 29.59375 11.921875 
L 46.6875 54.6875 
L 56.203125 54.6875 
z
" id="DejaVuSans-121"/>
       <path d="M 56.203125 29.59375 
L 56.203125 25.203125 
L 14.890625 25.203125 
Q 15.484375 15.921875 20.484375 11.0625 
Q 25.484375 6.203125 34.421875 6.203125 
Q 39.59375 6.203125 44.453125 7.46875 
Q 49.3125 8.734375 54.109375 11.28125 
L 54.109375 2.78125 
Q 49.265625 0.734375 44.1875 -0.34375 
Q 39.109375 -1.421875 33.890625 -1.421875 
Q 20.796875 -1.421875 13.15625 6.1875 
Q 5.515625 13.8125 5.515625 26.8125 
Q 5.515625 40.234375 12.765625 48.109375 
Q 20.015625 56 32.328125 56 
Q 43.359375 56 49.78125 48.890625 
Q 56.203125 41.796875 56.203125 29.59375 
z
M 47.21875 32.234375 
Q 47.125 39.59375 43.09375 43.984375 
Q 39.0625 48.390625 32.421875 48.390625 
Q 24.90625 48.390625 20.390625 44.140625 
Q 15.875 39.890625 15.1875 32.171875 
z
" id="DejaVuSans-101"/>
       <path d="M 4.890625 31.390625 
L 31.203125 31.390625 
L 31.203125 23.390625 
L 4.890625 23.390625 
z
" id="DejaVuSans-45"/>
       <path d="M 45.40625 46.390625 
L 45.40625 75.984375 
L 54.390625 75.984375 
L 54.390625 0 
L 45.40625 0 
L 45.40625 8.203125 
Q 42.578125 3.328125 38.25 0.953125 
Q 33.9375 -1.421875 27.875 -1.421875 
Q 17.96875 -1.421875 11.734375 6.484375 
Q 5.515625 14.40625 5.515625 27.296875 
Q 5.515625 40.1875 11.734375 48.09375 
Q 17.96875 56 27.875 56 
Q 33.9375 56 38.25 53.625 
Q 42.578125 51.265625 45.40625 46.390625 
z
M 14.796875 27.296875 
Q 14.796875 17.390625 18.875 11.75 
Q 22.953125 6.109375 30.078125 6.109375 
Q 37.203125 6.109375 41.296875 11.75 
Q 45.40625 17.390625 45.40625 27.296875 
Q 45.40625 37.203125 41.296875 42.84375 
Q 37.203125 48.484375 30.078125 48.484375 
Q 22.953125 48.484375 18.875 42.84375 
Q 14.796875 37.203125 14.796875 27.296875 
z
" id="DejaVuSans-100"/>
       <path d="M 54.890625 54.6875 
L 35.109375 28.078125 
L 55.90625 0 
L 45.3125 0 
L 29.390625 21.484375 
L 13.484375 0 
L 2.875 0 
L 24.125 28.609375 
L 4.6875 54.6875 
L 15.28125 54.6875 
L 29.78125 35.203125 
L 44.28125 54.6875 
z
" id="DejaVuSans-120"/>
       <path d="M 8.5 21.578125 
L 8.5 54.6875 
L 17.484375 54.6875 
L 17.484375 21.921875 
Q 17.484375 14.15625 20.5 10.265625 
Q 23.53125 6.390625 29.59375 6.390625 
Q 36.859375 6.390625 41.078125 11.03125 
Q 45.3125 15.671875 45.3125 23.6875 
L 45.3125 54.6875 
L 54.296875 54.6875 
L 54.296875 0 
L 45.3125 0 
L 45.3125 8.40625 
Q 42.046875 3.421875 37.71875 1 
Q 33.40625 -1.421875 27.6875 -1.421875 
Q 18.265625 -1.421875 13.375 4.4375 
Q 8.5 10.296875 8.5 21.578125 
z
M 31.109375 56 
z
" id="DejaVuSans-117"/>
      </defs>
      <use xlink:href="#DejaVuSans-84"/>
      <use x="46.333984" xlink:href="#DejaVuSans-114"/>
      <use x="87.447266" xlink:href="#DejaVuSans-97"/>
      <use x="148.726562" xlink:href="#DejaVuSans-105"/>
      <use x="176.509766" xlink:href="#DejaVuSans-110"/>
      <use x="239.888672" xlink:href="#DejaVuSans-32"/>
      <use x="271.675781" xlink:href="#DejaVuSans-102"/>
      <use x="306.880859" xlink:href="#DejaVuSans-114"/>
      <use x="345.744141" xlink:href="#DejaVuSans-111"/>
      <use x="406.925781" xlink:href="#DejaVuSans-109"/>
      <use x="504.337891" xlink:href="#DejaVuSans-32"/>
      <use x="536.125" xlink:href="#DejaVuSans-115"/>
      <use x="588.224609" xlink:href="#DejaVuSans-121"/>
      <use x="647.404297" xlink:href="#DejaVuSans-110"/>
      <use x="710.783203" xlink:href="#DejaVuSans-116"/>
      <use x="749.992188" xlink:href="#DejaVuSans-104"/>
      <use x="813.371094" xlink:href="#DejaVuSans-101"/>
      <use x="874.894531" xlink:href="#DejaVuSans-116"/>
      <use x="914.103516" xlink:href="#DejaVuSans-105"/>
      <use x="941.886719" xlink:href="#DejaVuSans-99"/>
      <use x="996.867188" xlink:href="#DejaVuSans-45"/>
      <use x="1032.951172" xlink:href="#DejaVuSans-50"/>
      <use x="1096.574219" xlink:href="#DejaVuSans-100"/>
      <use x="1160.050781" xlink:href="#DejaVuSans-45"/>
      <use x="1196.134766" xlink:href="#DejaVuSans-116"/>
      <use x="1235.34375" xlink:href="#DejaVuSans-101"/>
      <use x="1295.117188" xlink:href="#DejaVuSans-120"/>
      <use x="1354.296875" xlink:href="#DejaVuSans-116"/>
      <use x="1393.505859" xlink:href="#DejaVuSans-117"/>
      <use x="1456.884766" xlink:href="#DejaVuSans-114"/>
      <use x="1495.748047" xlink:href="#DejaVuSans-101"/>
     </g>
    </g>
   </g>
  </g>
  <g id="axes_2">
   <g id="patch_8">
    <path d="M 394.363636 384.48 
L 648 384.48 
L 648 51.84 
L 394.363636 51.84 
z
" style="fill:#ffffff;"/>
   </g>
   <g id="matplotlib.axis_3">
    <g id="xtick_10">
     <g id="line2d_20">
      <g>
       <use style="stroke:#000000;stroke-width:0.8;" x="394.363636" xlink:href="#mdcaf02b7fb" y="384.48"/>
      </g>
     </g>
     <g id="text_18">
      <!-- 0 -->
      <g transform="translate(391.182386 399.078438)scale(0.1 -0.1)">
       <use xlink:href="#DejaVuSans-48"/>
      </g>
     </g>
    </g>
    <g id="xtick_11">
     <g id="line2d_21">
      <g>
       <use style="stroke:#000000;stroke-width:0.8;" x="426.068182" xlink:href="#mdcaf02b7fb" y="384.48"/>
      </g>
     </g>
     <g id="text_19">
      <!-- 50 -->
      <g transform="translate(419.705682 399.078438)scale(0.1 -0.1)">
       <use xlink:href="#DejaVuSans-53"/>
       <use x="63.623047" xlink:href="#DejaVuSans-48"/>
      </g>
     </g>
    </g>
    <g id="xtick_12">
     <g id="line2d_22">
      <g>
       <use style="stroke:#000000;stroke-width:0.8;" x="457.772727" xlink:href="#mdcaf02b7fb" y="384.48"/>
      </g>
     </g>
     <g id="text_20">
      <!-- 100 -->
      <g transform="translate(448.228977 399.078438)scale(0.1 -0.1)">
       <use xlink:href="#DejaVuSans-49"/>
       <use x="63.623047" xlink:href="#DejaVuSans-48"/>
       <use x="127.246094" xlink:href="#DejaVuSans-48"/>
      </g>
     </g>
    </g>
    <g id="xtick_13">
     <g id="line2d_23">
      <g>
       <use style="stroke:#000000;stroke-width:0.8;" x="489.477273" xlink:href="#mdcaf02b7fb" y="384.48"/>
      </g>
     </g>
     <g id="text_21">
      <!-- 150 -->
      <g transform="translate(479.933523 399.078438)scale(0.1 -0.1)">
       <use xlink:href="#DejaVuSans-49"/>
       <use x="63.623047" xlink:href="#DejaVuSans-53"/>
       <use x="127.246094" xlink:href="#DejaVuSans-48"/>
      </g>
     </g>
    </g>
    <g id="xtick_14">
     <g id="line2d_24">
      <g>
       <use style="stroke:#000000;stroke-width:0.8;" x="521.181818" xlink:href="#mdcaf02b7fb" y="384.48"/>
      </g>
     </g>
     <g id="text_22">
      <!-- 200 -->
      <g transform="translate(511.638068 399.078438)scale(0.1 -0.1)">
       <use xlink:href="#DejaVuSans-50"/>
       <use x="63.623047" xlink:href="#DejaVuSans-48"/>
       <use x="127.246094" xlink:href="#DejaVuSans-48"/>
      </g>
     </g>
    </g>
    <g id="xtick_15">
     <g id="line2d_25">
      <g>
       <use style="stroke:#000000;stroke-width:0.8;" x="552.886364" xlink:href="#mdcaf02b7fb" y="384.48"/>
      </g>
     </g>
     <g id="text_23">
      <!-- 250 -->
      <g transform="translate(543.342614 399.078438)scale(0.1 -0.1)">
       <use xlink:href="#DejaVuSans-50"/>
       <use x="63.623047" xlink:href="#DejaVuSans-53"/>
       <use x="127.246094" xlink:href="#DejaVuSans-48"/>
      </g>
     </g>
    </g>
    <g id="xtick_16">
     <g id="line2d_26">
      <g>
       <use style="stroke:#000000;stroke-width:0.8;" x="584.590909" xlink:href="#mdcaf02b7fb" y="384.48"/>
      </g>
     </g>
     <g id="text_24">
      <!-- 300 -->
      <g transform="translate(575.047159 399.078438)scale(0.1 -0.1)">
       <use xlink:href="#DejaVuSans-51"/>
       <use x="63.623047" xlink:href="#DejaVuSans-48"/>
       <use x="127.246094" xlink:href="#DejaVuSans-48"/>
      </g>
     </g>
    </g>
    <g id="xtick_17">
     <g id="line2d_27">
      <g>
       <use style="stroke:#000000;stroke-width:0.8;" x="616.295455" xlink:href="#mdcaf02b7fb" y="384.48"/>
      </g>
     </g>
     <g id="text_25">
      <!-- 350 -->
      <g transform="translate(606.751705 399.078438)scale(0.1 -0.1)">
       <use xlink:href="#DejaVuSans-51"/>
       <use x="63.623047" xlink:href="#DejaVuSans-53"/>
       <use x="127.246094" xlink:href="#DejaVuSans-48"/>
      </g>
     </g>
    </g>
    <g id="xtick_18">
     <g id="line2d_28">
      <g>
       <use style="stroke:#000000;stroke-width:0.8;" x="648" xlink:href="#mdcaf02b7fb" y="384.48"/>
      </g>
     </g>
     <g id="text_26">
      <!-- 400 -->
      <g transform="translate(638.45625 399.078438)scale(0.1 -0.1)">
       <use xlink:href="#DejaVuSans-52"/>
       <use x="63.623047" xlink:href="#DejaVuSans-48"/>
       <use x="127.246094" xlink:href="#DejaVuSans-48"/>
      </g>
     </g>
    </g>
    <g id="text_27">
     <!-- Epoch -->
     <g transform="translate(505.870881 412.756563)scale(0.1 -0.1)">
      <use xlink:href="#DejaVuSans-69"/>
      <use x="63.183594" xlink:href="#DejaVuSans-112"/>
      <use x="126.660156" xlink:href="#DejaVuSans-111"/>
      <use x="187.841797" xlink:href="#DejaVuSans-99"/>
      <use x="242.822266" xlink:href="#DejaVuSans-104"/>
     </g>
    </g>
   </g>
   <g id="matplotlib.axis_4">
    <g id="ytick_5">
     <g id="line2d_29">
      <g>
       <use style="stroke:#000000;stroke-width:0.8;" x="394.363636" xlink:href="#m0eb6d0257c" y="345.145915"/>
      </g>
     </g>
     <g id="text_28">
      <!-- 60 -->
      <g transform="translate(374.638636 348.945134)scale(0.1 -0.1)">
       <use xlink:href="#DejaVuSans-54"/>
       <use x="63.623047" xlink:href="#DejaVuSans-48"/>
      </g>
     </g>
    </g>
    <g id="ytick_6">
     <g id="line2d_30">
      <g>
       <use style="stroke:#000000;stroke-width:0.8;" x="394.363636" xlink:href="#m0eb6d0257c" y="305.709296"/>
      </g>
     </g>
     <g id="text_29">
      <!-- 80 -->
      <g transform="translate(374.638636 309.508515)scale(0.1 -0.1)">
       <use xlink:href="#DejaVuSans-56"/>
       <use x="63.623047" xlink:href="#DejaVuSans-48"/>
      </g>
     </g>
    </g>
    <g id="ytick_7">
     <g id="line2d_31">
      <g>
       <use style="stroke:#000000;stroke-width:0.8;" x="394.363636" xlink:href="#m0eb6d0257c" y="266.272676"/>
      </g>
     </g>
     <g id="text_30">
      <!-- 100 -->
      <g transform="translate(368.276136 270.071895)scale(0.1 -0.1)">
       <use xlink:href="#DejaVuSans-49"/>
       <use x="63.623047" xlink:href="#DejaVuSans-48"/>
       <use x="127.246094" xlink:href="#DejaVuSans-48"/>
      </g>
     </g>
    </g>
    <g id="ytick_8">
     <g id="line2d_32">
      <g>
       <use style="stroke:#000000;stroke-width:0.8;" x="394.363636" xlink:href="#m0eb6d0257c" y="226.836056"/>
      </g>
     </g>
     <g id="text_31">
      <!-- 120 -->
      <g transform="translate(368.276136 230.635275)scale(0.1 -0.1)">
       <use xlink:href="#DejaVuSans-49"/>
       <use x="63.623047" xlink:href="#DejaVuSans-50"/>
       <use x="127.246094" xlink:href="#DejaVuSans-48"/>
      </g>
     </g>
    </g>
    <g id="ytick_9">
     <g id="line2d_33">
      <g>
       <use style="stroke:#000000;stroke-width:0.8;" x="394.363636" xlink:href="#m0eb6d0257c" y="187.399437"/>
      </g>
     </g>
     <g id="text_32">
      <!-- 140 -->
      <g transform="translate(368.276136 191.198655)scale(0.1 -0.1)">
       <use xlink:href="#DejaVuSans-49"/>
       <use x="63.623047" xlink:href="#DejaVuSans-52"/>
       <use x="127.246094" xlink:href="#DejaVuSans-48"/>
      </g>
     </g>
    </g>
    <g id="ytick_10">
     <g id="line2d_34">
      <g>
       <use style="stroke:#000000;stroke-width:0.8;" x="394.363636" xlink:href="#m0eb6d0257c" y="147.962817"/>
      </g>
     </g>
     <g id="text_33">
      <!-- 160 -->
      <g transform="translate(368.276136 151.762036)scale(0.1 -0.1)">
       <use xlink:href="#DejaVuSans-49"/>
       <use x="63.623047" xlink:href="#DejaVuSans-54"/>
       <use x="127.246094" xlink:href="#DejaVuSans-48"/>
      </g>
     </g>
    </g>
    <g id="ytick_11">
     <g id="line2d_35">
      <g>
       <use style="stroke:#000000;stroke-width:0.8;" x="394.363636" xlink:href="#m0eb6d0257c" y="108.526197"/>
      </g>
     </g>
     <g id="text_34">
      <!-- 180 -->
      <g transform="translate(368.276136 112.325416)scale(0.1 -0.1)">
       <use xlink:href="#DejaVuSans-49"/>
       <use x="63.623047" xlink:href="#DejaVuSans-56"/>
       <use x="127.246094" xlink:href="#DejaVuSans-48"/>
      </g>
     </g>
    </g>
    <g id="ytick_12">
     <g id="line2d_36">
      <g>
       <use style="stroke:#000000;stroke-width:0.8;" x="394.363636" xlink:href="#m0eb6d0257c" y="69.089577"/>
      </g>
     </g>
     <g id="text_35">
      <!-- 200 -->
      <g transform="translate(368.276136 72.888796)scale(0.1 -0.1)">
       <use xlink:href="#DejaVuSans-50"/>
       <use x="63.623047" xlink:href="#DejaVuSans-48"/>
       <use x="127.246094" xlink:href="#DejaVuSans-48"/>
      </g>
     </g>
    </g>
    <g id="text_36">
     <!-- MSE -->
     <g transform="translate(362.196449 228.807656)rotate(-90)scale(0.1 -0.1)">
      <defs>
       <path d="M 53.515625 70.515625 
L 53.515625 60.890625 
Q 47.90625 63.578125 42.921875 64.890625 
Q 37.9375 66.21875 33.296875 66.21875 
Q 25.25 66.21875 20.875 63.09375 
Q 16.5 59.96875 16.5 54.203125 
Q 16.5 49.359375 19.40625 46.890625 
Q 22.3125 44.4375 30.421875 42.921875 
L 36.375 41.703125 
Q 47.40625 39.59375 52.65625 34.296875 
Q 57.90625 29 57.90625 20.125 
Q 57.90625 9.515625 50.796875 4.046875 
Q 43.703125 -1.421875 29.984375 -1.421875 
Q 24.8125 -1.421875 18.96875 -0.25 
Q 13.140625 0.921875 6.890625 3.21875 
L 6.890625 13.375 
Q 12.890625 10.015625 18.65625 8.296875 
Q 24.421875 6.59375 29.984375 6.59375 
Q 38.421875 6.59375 43.015625 9.90625 
Q 47.609375 13.234375 47.609375 19.390625 
Q 47.609375 24.75 44.3125 27.78125 
Q 41.015625 30.8125 33.5 32.328125 
L 27.484375 33.5 
Q 16.453125 35.6875 11.515625 40.375 
Q 6.59375 45.0625 6.59375 53.421875 
Q 6.59375 63.09375 13.40625 68.65625 
Q 20.21875 74.21875 32.171875 74.21875 
Q 37.3125 74.21875 42.625 73.28125 
Q 47.953125 72.359375 53.515625 70.515625 
z
" id="DejaVuSans-83"/>
      </defs>
      <use xlink:href="#DejaVuSans-77"/>
      <use x="86.279297" xlink:href="#DejaVuSans-83"/>
      <use x="149.755859" xlink:href="#DejaVuSans-69"/>
     </g>
    </g>
   </g>
   <g id="line2d_37">
    <path clip-path="url(#p188ba2444a)" d="M 394.363636 66.96 
L 394.997727 95.275493 
L 395.631818 89.202254 
L 396.265909 78.436056 
L 396.9 124.00507 
L 397.534091 131.774085 
L 398.168182 130.472676 
L 398.802273 142.895211 
L 399.436364 144.295211 
L 400.070455 135.244507 
L 400.704545 155.830423 
L 401.338636 129.151549 
L 401.972727 145.12338 
L 402.606818 138.655775 
L 403.240909 150.900845 
L 403.875 144.433239 
L 404.509091 152.852958 
L 405.143182 154.016338 
L 405.777273 153.050141 
L 406.411364 160.326197 
L 407.045455 148.39662 
L 407.679545 183.120563 
L 408.313636 181.385352 
L 408.947727 193.019155 
L 409.581818 195.069859 
L 410.215909 175.92338 
L 410.85 195.286761 
L 411.484091 195.582535 
L 412.118182 201.281127 
L 412.752273 189.430423 
L 413.386364 203.312113 
L 414.020455 173.59662 
L 414.654545 189.903662 
L 415.288636 201.438873 
L 415.922727 204.593803 
L 416.556818 192.999437 
L 417.190909 188.99662 
L 417.825 207.768451 
L 418.459091 196.647324 
L 419.093182 203.213521 
L 419.727273 232.376901 
L 420.361364 226.658592 
L 420.995455 208.044507 
L 421.629545 225.416338 
L 422.263636 225.534648 
L 422.897727 220.999437 
L 423.531818 215.379718 
L 424.165909 215.024789 
L 424.8 215.912113 
L 425.434091 209.898028 
L 426.068182 218.04169 
L 426.702273 211.081127 
L 427.336364 225.120563 
L 427.970455 224.292394 
L 428.604545 224.568451 
L 429.238636 225.39662 
L 429.872727 248.230423 
L 430.506818 250.892394 
L 431.140909 220.60507 
L 431.775 242.531831 
L 432.409091 223.010704 
L 433.043182 250.971268 
L 433.677273 243.636056 
L 434.311364 245.11493 
L 434.945455 231.016338 
L 435.579545 236.083944 
L 436.213636 256.847324 
L 436.847727 246.04169 
L 437.481818 221.413521 
L 438.115909 250.36 
L 438.75 247.264225 
L 439.384091 256.038873 
L 440.018182 241.230423 
L 440.652273 234.368451 
L 441.286364 251.267042 
L 441.920455 237.838873 
L 442.554545 266.489577 
L 443.188636 240.145915 
L 443.822727 254.974085 
L 444.456818 248.585352 
L 445.090909 256.867042 
L 445.725 238.469859 
L 446.359091 262.131831 
L 446.993182 251.444507 
L 447.627273 265.99662 
L 448.261364 249.157183 
L 448.895455 254.027606 
L 449.529545 252.745915 
L 450.163636 279.99662 
L 450.797727 251.917746 
L 451.431818 268.91493 
L 452.065909 260.27831 
L 452.7 285.143099 
L 453.334091 276.190986 
L 453.968182 273.312113 
L 454.602273 238.213521 
L 455.236364 253.712113 
L 455.870455 243.47831 
L 456.504545 242.374085 
L 457.138636 267.554366 
L 457.772727 265.050141 
L 458.406818 267.889577 
L 459.040909 282.698028 
L 459.675 269.683944 
L 460.309091 296.126197 
L 460.943182 294.706479 
L 461.577273 291.729014 
L 462.211364 281.238873 
L 463.479545 301.982535 
L 464.113636 289.934648 
L 464.747727 267.061408 
L 465.381818 293.819155 
L 466.015909 290.230423 
L 466.65 279.602254 
L 467.284091 284.038873 
L 467.918182 284.334648 
L 468.552273 289.461408 
L 469.186364 297.092394 
L 469.820455 286.286761 
L 470.454545 292.12338 
L 471.088636 280.686761 
L 472.356818 296.145915 
L 472.990909 277.729014 
L 473.625 300.819155 
L 474.259091 300.720563 
L 474.893182 290.289577 
L 475.527273 284.650141 
L 476.161364 284.985352 
L 476.795455 298.729014 
L 477.429545 299.813521 
L 478.063636 286.424789 
L 478.697727 299.951549 
L 479.331818 295.27831 
L 479.965909 281.16 
L 480.6 303.20507 
L 481.234091 287.982535 
L 481.868182 304.585352 
L 482.502273 307.819155 
L 483.136364 307.976901 
L 483.770455 279.681127 
L 484.404545 281.869859 
L 485.038636 288.199437 
L 485.672727 313.261408 
L 486.306818 275.32338 
L 486.940909 286.76 
L 487.575 277.354366 
L 488.209091 290.131831 
L 488.843182 281.988169 
L 489.477273 311.762817 
L 490.111364 298.452958 
L 490.745455 290.210704 
L 491.379545 296.717746 
L 492.013636 301.982535 
L 492.647727 287.134648 
L 493.281818 288.337465 
L 493.915909 290.526197 
L 494.55 300.227606 
L 495.184091 302.455775 
L 495.818182 284.512113 
L 496.452273 281.199437 
L 497.086364 289.757183 
L 497.720455 290.821972 
L 498.354545 293.681127 
L 498.988636 293.937465 
L 499.622727 311.171268 
L 500.890909 297.979718 
L 501.525 300.306479 
L 502.159091 306.103662 
L 502.793182 286.602254 
L 503.427273 302.317746 
L 504.061364 296.382535 
L 504.695455 309.436056 
L 505.329545 296.698028 
L 505.963636 303.264225 
L 506.597727 291.886761 
L 507.231818 297.979718 
L 507.865909 302.652958 
L 508.5 297.486761 
L 509.134091 299.59662 
L 509.768182 295.889577 
L 510.402273 303.619155 
L 511.036364 304.585352 
L 511.670455 298.433239 
L 512.304545 282.20507 
L 512.938636 290.821972 
L 514.206818 323.948732 
L 514.840909 307.227606 
L 515.475 294.371268 
L 516.109091 310.047324 
L 516.743182 302.455775 
L 518.011364 305.985352 
L 518.645455 288.613521 
L 519.279545 300.306479 
L 519.913636 300.503662 
L 520.547727 306.103662 
L 521.181818 285.951549 
L 521.815909 313.379718 
L 522.45 309.574085 
L 523.084091 304.289577 
L 523.718182 307.87831 
L 524.352273 297.348732 
L 524.986364 290.427606 
L 525.620455 310.79662 
L 526.254545 282.737465 
L 526.888636 297.388169 
L 527.522727 309.258592 
L 528.156818 304.703662 
L 528.790909 311.979718 
L 529.425 299.12338 
L 530.059091 294.469859 
L 530.693182 307.543099 
L 531.327273 296.599437 
L 531.961364 295.830423 
L 532.595455 279.819155 
L 533.229545 295.613521 
L 533.863636 285.951549 
L 534.497727 299.399437 
L 535.131818 284.729014 
L 535.765909 286.779718 
L 536.4 295.613521 
L 537.034091 295.771268 
L 537.668182 305.374085 
L 538.302273 285.143099 
L 538.936364 302.081127 
L 539.570455 299.517746 
L 540.204545 318.703662 
L 540.838636 306.951549 
L 541.472727 299.12338 
L 542.106818 303.421972 
L 542.740909 303.224789 
L 543.375 325.526197 
L 544.009091 306.221972 
L 544.643182 316.790986 
L 545.277273 305.748732 
L 545.911364 267.593803 
L 546.545455 314.52338 
L 547.179545 291.452958 
L 547.813636 294.252958 
L 548.447727 301.075493 
L 549.081818 281.376901 
L 549.715909 297.171268 
L 550.35 291.19662 
L 550.984091 295.061408 
L 551.618182 291.038873 
L 552.252273 319.669859 
L 552.886364 309.475493 
L 553.520455 280.055775 
L 554.154545 300.64169 
L 554.788636 309.771268 
L 555.422727 311.250141 
L 556.056818 297.486761 
L 556.690909 290.802254 
L 557.325 294.864225 
L 557.959091 305.31493 
L 558.593182 269.565634 
L 559.227273 304.664225 
L 559.861364 316.04169 
L 560.495455 299.576901 
L 561.129545 313.754366 
L 561.763636 315.292394 
L 562.397727 308.016338 
L 563.031818 284.137465 
L 563.665909 309.869859 
L 564.3 297.526197 
L 564.934091 300.602254 
L 565.568182 300.937465 
L 566.202273 291.985352 
L 567.470455 309.869859 
L 568.104545 297.585352 
L 568.738636 294.667042 
L 569.372727 307.720563 
L 570.006818 298.019155 
L 570.640909 308.548732 
L 571.275 293.799437 
L 571.909091 307.52338 
L 572.543182 291.098028 
L 573.177273 308.410704 
L 573.811364 288.889577 
L 574.445455 295.751549 
L 575.079545 313.655775 
L 575.713636 309.574085 
L 576.347727 302.810704 
L 576.981818 304.96 
L 577.615909 284.689577 
L 578.25 304.092394 
L 578.884091 292.813521 
L 579.518182 289.500845 
L 580.152273 309.929014 
L 580.786364 302.081127 
L 581.420455 314.424789 
L 582.054545 282.32338 
L 582.688636 303.20507 
L 583.322727 300.720563 
L 583.956818 320.675493 
L 584.590909 291.216338 
L 585.225 294.154366 
L 585.859091 303.32338 
L 586.493182 291.590986 
L 587.127273 292.754366 
L 587.761364 288.298028 
L 588.395455 307.779718 
L 589.663636 290.407887 
L 590.297727 299.36 
L 590.931818 310.56 
L 591.565909 307.661408 
L 592.834091 292.12338 
L 593.468182 290.250141 
L 594.102273 302.179718 
L 594.736364 290.644507 
L 595.370455 304.940282 
L 596.004545 307.069859 
L 596.638636 299.734648 
L 597.272727 306.576901 
L 597.906818 299.261408 
L 599.175 296.362817 
L 599.809091 308.193803 
L 600.443182 286.52338 
L 601.077273 298.867042 
L 601.711364 305.512113 
L 602.345455 296.875493 
L 602.979545 296.007887 
L 603.613636 303.145915 
L 604.247727 307.306479 
L 604.881818 306.971268 
L 605.515909 297.506479 
L 606.15 296.895211 
L 606.784091 298.255775 
L 607.418182 304.920563 
L 608.052273 307.76 
L 608.686364 304.96 
L 609.320455 320.675493 
L 609.954545 321.483944 
L 610.588636 314.503662 
L 611.222727 306.044507 
L 611.856818 300.345915 
L 612.490909 296.599437 
L 613.125 315.213521 
L 613.759091 310.658592 
L 614.393182 296.500845 
L 615.027273 316.712113 
L 615.661364 295.04169 
L 616.295455 310.658592 
L 616.929545 304.013521 
L 617.563636 311.427606 
L 618.197727 312.098028 
L 618.831818 306.872676 
L 619.465909 310.757183 
L 620.1 313.24169 
L 620.734091 312.965634 
L 621.368182 294.174085 
L 622.002273 315.154366 
L 622.636364 300.819155 
L 623.270455 295.534648 
L 623.904545 315.864225 
L 624.538636 309.002254 
L 625.172727 308.745915 
L 625.806818 309.317746 
L 626.440909 315.233239 
L 627.075 320.083944 
L 627.709091 298.472676 
L 629.611364 313.616338 
L 630.245455 316.712113 
L 630.879545 295.140282 
L 631.513636 301.193803 
L 632.147727 302.692394 
L 632.781818 294.430423 
L 633.415909 298.452958 
L 634.05 299.971268 
L 634.684091 295.495211 
L 635.318182 313.576901 
L 635.952273 288.357183 
L 636.586364 297.979718 
L 637.220455 302.021972 
L 637.854545 293.621972 
L 638.488636 311.388169 
L 639.122727 305.630423 
L 639.756818 307.976901 
L 640.390909 299.990986 
L 641.025 298.275493 
L 641.659091 301.529014 
L 642.293182 323.574085 
L 642.927273 299.537465 
L 643.561364 302.021972 
L 644.195455 311.585352 
L 644.829545 289.836056 
L 645.463636 300.799437 
L 646.097727 297.151549 
L 646.731818 313.458592 
L 647.365909 292.00507 
L 648 303.067042 
L 648 303.067042 
" style="fill:none;stroke:#1f77b4;stroke-linecap:square;stroke-width:1.5;"/>
   </g>
   <g id="line2d_38">
    <path clip-path="url(#p188ba2444a)" d="M 394.363636 114.836056 
L 394.997727 164.881127 
L 395.631818 168.864225 
L 396.265909 139.050141 
L 396.9 173.300845 
L 397.534091 192.348732 
L 398.168182 193.867042 
L 398.802273 204.968451 
L 399.436364 207.117746 
L 400.070455 211.751549 
L 400.704545 201.064225 
L 401.338636 185.585352 
L 401.972727 193.275493 
L 402.606818 183.574085 
L 403.240909 207.807887 
L 403.875 221.354366 
L 404.509091 224.92338 
L 405.143182 221.768451 
L 405.777273 213.84169 
L 406.411364 221.31493 
L 407.045455 219.56 
L 407.679545 246.376901 
L 408.313636 256.492394 
L 408.947727 255.920563 
L 409.581818 256.354366 
L 410.215909 229.281127 
L 410.85 267.021972 
L 411.484091 263.275493 
L 412.118182 265.976901 
L 412.752273 247.737465 
L 413.386364 270.669859 
L 414.020455 229.47831 
L 414.654545 238.11493 
L 415.288636 268.20507 
L 415.922727 255.072676 
L 416.556818 262.703662 
L 417.190909 229.340282 
L 417.825 283.052958 
L 418.459091 259.055775 
L 419.093182 253.081127 
L 419.727273 279.898028 
L 420.361364 285.616338 
L 420.995455 273.844507 
L 421.629545 276.151549 
L 422.263636 265.424789 
L 422.897727 291.374085 
L 423.531818 281.731831 
L 424.165909 256.255775 
L 424.8 264.872676 
L 425.434091 279.424789 
L 426.068182 256.216338 
L 426.702273 237.464225 
L 427.336364 270.709296 
L 427.970455 285.931831 
L 428.604545 295.455775 
L 429.238636 280.469859 
L 429.872727 301.824789 
L 430.506818 296.993803 
L 431.140909 300.957183 
L 432.409091 261.56 
L 433.043182 287.824789 
L 433.677273 290.84169 
L 434.311364 289.224789 
L 434.945455 303.047324 
L 435.579545 282.974085 
L 436.213636 303.303662 
L 436.847727 303.658592 
L 437.481818 265.87831 
L 438.115909 286.424789 
L 438.75 281.337465 
L 439.384091 289.303662 
L 440.018182 280.824789 
L 440.652273 283.486761 
L 441.286364 273.252958 
L 441.920455 311.743099 
L 442.554545 305.137465 
L 443.188636 288.39662 
L 443.822727 315.686761 
L 444.456818 300.030423 
L 445.090909 306.498028 
L 445.725 284.689577 
L 446.359091 309.909296 
L 446.993182 319.472676 
L 447.627273 311.171268 
L 448.261364 311.802254 
L 448.895455 282.20507 
L 449.529545 294.371268 
L 450.163636 310.500845 
L 450.797727 316.593803 
L 451.431818 323.929014 
L 452.065909 310.20507 
L 452.7 330.574085 
L 453.334091 314.129014 
L 453.968182 315.548732 
L 454.602273 286.503662 
L 455.236364 282.836056 
L 455.870455 288.988169 
L 456.504545 302.830423 
L 457.138636 307.64169 
L 457.772727 310.185352 
L 458.406818 317.776901 
L 459.040909 333.768451 
L 459.675 346.052958 
L 460.309091 331.875493 
L 460.943182 343.962817 
L 461.577273 342.87831 
L 462.211364 347.492394 
L 462.845455 346.131831 
L 463.479545 342.089577 
L 464.113636 346.782535 
L 464.747727 322.745915 
L 465.381818 340.709296 
L 466.015909 340.058592 
L 466.65 337.988169 
L 467.918182 323.238873 
L 468.552273 337.219155 
L 469.186364 334.990986 
L 469.820455 336.154366 
L 470.454545 347.827606 
L 471.088636 337.04169 
L 471.722727 345.717746 
L 472.356818 338.067042 
L 472.990909 341.162817 
L 473.625 340.906479 
L 474.259091 344.534648 
L 474.893182 340.847324 
L 475.527273 342.582535 
L 476.161364 332.368451 
L 476.795455 342.168451 
L 477.429545 345.303662 
L 478.063636 336.548732 
L 478.697727 347.157183 
L 479.331818 341.852958 
L 479.965909 338.91493 
L 480.6 342.306479 
L 481.234091 343.213521 
L 481.868182 346.210704 
L 482.502273 348.379718 
L 483.136364 351.436056 
L 483.770455 337.574085 
L 484.404545 340.255775 
L 485.038636 341.083944 
L 485.672727 354.886761 
L 486.306818 338.717746 
L 486.940909 341.340282 
L 487.575 334.300845 
L 488.209091 345.007887 
L 488.843182 338.79662 
L 489.477273 350.11493 
L 490.111364 353.309296 
L 490.745455 349.227606 
L 491.379545 339.289577 
L 492.013636 348.419155 
L 492.647727 333.157183 
L 493.281818 335.740282 
L 493.915909 349.779718 
L 494.55 343.883944 
L 495.184091 344.790986 
L 495.818182 329.292394 
L 496.452273 342.129014 
L 497.720455 348.695211 
L 498.354545 356.385352 
L 498.988636 350.548732 
L 499.622727 358.16 
L 500.256818 347.216338 
L 500.890909 356.188169 
L 501.525 350.785352 
L 502.159091 359.402254 
L 502.793182 347.926197 
L 503.427273 356.838873 
L 504.061364 350.667042 
L 504.695455 359.362817 
L 505.963636 337.574085 
L 506.597727 345.047324 
L 507.231818 348.734648 
L 507.865909 361.393803 
L 508.5 349.40507 
L 509.134091 350.351549 
L 509.768182 353.467042 
L 510.402273 349.87831 
L 511.036364 352.737465 
L 511.670455 349.720563 
L 512.304545 334.202254 
L 512.938636 339.131831 
L 513.572727 353.979718 
L 514.206818 357.450141 
L 514.840909 353.624789 
L 515.475 346.368451 
L 516.109091 352.303662 
L 516.743182 346.664225 
L 517.377273 350.883944 
L 518.011364 348.793803 
L 518.645455 339.289577 
L 519.279545 354.098028 
L 519.913636 349.385352 
L 520.547727 348.971268 
L 521.181818 348.833239 
L 521.815909 362.774085 
L 522.45 358.948732 
L 523.084091 357.410704 
L 523.718182 358.179718 
L 524.352273 344.751549 
L 524.986364 351.771268 
L 525.620455 360.230423 
L 526.254545 348.24169 
L 526.888636 343.844507 
L 527.522727 360.447324 
L 528.156818 350.647324 
L 528.790909 359.343099 
L 529.425 351.199437 
L 530.059091 339.427606 
L 530.693182 362.221972 
L 531.327273 350.607887 
L 531.961364 345.816338 
L 532.595455 341.892394 
L 533.229545 349.207887 
L 533.863636 350.075493 
L 534.497727 346.230423 
L 535.131818 346.703662 
L 535.765909 351.021972 
L 536.4 345.362817 
L 537.034091 349.365634 
L 537.668182 351.534648 
L 538.302273 345.402254 
L 538.936364 340.709296 
L 539.570455 351.574085 
L 540.204545 358.672676 
L 540.838636 350.667042 
L 541.472727 353.190986 
L 542.106818 352.027606 
L 542.740909 355.00507 
L 543.375 362.695211 
L 544.009091 353.467042 
L 544.643182 357.371268 
L 545.277273 355.517746 
L 545.911364 343.390986 
L 546.545455 356.365634 
L 547.179545 345.599437 
L 547.813636 351.731831 
L 548.447727 355.517746 
L 549.081818 339.348732 
L 549.715909 360.585352 
L 550.35 346.526197 
L 550.984091 346.72338 
L 551.618182 345.79662 
L 552.252273 365.002254 
L 552.886364 357.529014 
L 553.520455 340.058592 
L 554.788636 360.861408 
L 555.422727 358.436056 
L 556.056818 358.790986 
L 556.690909 348.083944 
L 557.959091 362.24169 
L 558.593182 357.272676 
L 559.227273 355.990986 
L 559.861364 366.599437 
L 561.129545 353.72338 
L 561.763636 366.540282 
L 562.397727 360.664225 
L 563.031818 338.757183 
L 563.665909 364.213521 
L 564.3 345.658592 
L 564.934091 351.771268 
L 565.568182 354.926197 
L 566.202273 350.903662 
L 567.470455 359.934648 
L 568.104545 362.47831 
L 568.738636 347.295211 
L 569.372727 355.971268 
L 570.006818 351.633239 
L 570.640909 355.064225 
L 571.275 349.503662 
L 571.909091 355.616338 
L 572.543182 349.286761 
L 573.177273 353.151549 
L 573.811364 350.588169 
L 574.445455 349.917746 
L 575.079545 359.895211 
L 575.713636 351.672676 
L 576.347727 348.774085 
L 576.981818 355.892394 
L 577.615909 335.543099 
L 578.25 366.362817 
L 578.884091 348.379718 
L 579.518182 340.748732 
L 580.152273 353.171268 
L 581.420455 366.658592 
L 582.054545 343.92338 
L 582.688636 359.343099 
L 583.322727 357.529014 
L 583.956818 362.47831 
L 584.590909 340.236056 
L 585.225 353.644507 
L 585.859091 356.188169 
L 586.493182 352.106479 
L 587.127273 352.047324 
L 587.761364 340.374085 
L 588.395455 353.624789 
L 589.029545 352.185352 
L 589.663636 352.698028 
L 590.297727 347.551549 
L 590.931818 358.51493 
L 591.565909 363.267042 
L 592.2 348.695211 
L 592.834091 350.982535 
L 593.468182 355.221972 
L 594.736364 343.982535 
L 595.370455 353.112113 
L 596.004545 348.517746 
L 596.638636 360.230423 
L 597.272727 359.343099 
L 597.906818 361.669859 
L 598.540909 358.04169 
L 599.175 343.785352 
L 599.809091 362.458592 
L 600.443182 338.974085 
L 601.077273 352.855775 
L 601.711364 354.058592 
L 602.345455 352.165634 
L 602.979545 364.509296 
L 603.613636 361.275493 
L 604.247727 350.410704 
L 604.881818 351.495211 
L 605.515909 353.72338 
L 606.15 346.703662 
L 606.784091 367.565634 
L 607.418182 357.706479 
L 608.052273 362.774085 
L 608.686364 357.864225 
L 609.320455 362.833239 
L 609.954545 362.340282 
L 610.588636 365.869859 
L 611.222727 365.120563 
L 611.856818 347.827606 
L 612.490909 351.850141 
L 613.125 360.269859 
L 613.759091 349.976901 
L 614.393182 350.252958 
L 615.027273 362.182535 
L 615.661364 356.99662 
L 616.295455 356.503662 
L 616.929545 360.506479 
L 617.563636 362.833239 
L 618.197727 358.100845 
L 618.831818 354.610704 
L 619.465909 354.393803 
L 620.1 350.765634 
L 620.734091 358.002254 
L 621.368182 346.96 
L 622.002273 359.461408 
L 622.636364 348.557183 
L 623.270455 350.450141 
L 623.904545 361.965634 
L 624.538636 354.906479 
L 625.172727 353.762817 
L 625.806818 355.162817 
L 626.440909 359.974085 
L 627.075 362.024789 
L 627.709091 350.982535 
L 628.343182 354.137465 
L 628.977273 363.99662 
L 629.611364 362.576901 
L 630.245455 362.00507 
L 630.879545 352.461408 
L 631.513636 356.030423 
L 632.147727 348.044507 
L 632.781818 348.182535 
L 633.415909 357.785352 
L 634.05 361.472676 
L 634.684091 361.19662 
L 635.318182 360.072676 
L 635.952273 332.388169 
L 636.586364 353.96 
L 637.220455 354.176901 
L 637.854545 353.210704 
L 638.488636 352.934648 
L 639.122727 363.976901 
L 639.756818 360.506479 
L 640.390909 354.472676 
L 641.025 357.193803 
L 641.659091 352.895211 
L 642.293182 368.334648 
L 642.927273 350.174085 
L 643.561364 348.655775 
L 644.195455 364.745915 
L 644.829545 355.498028 
L 645.463636 349.779718 
L 646.731818 366.067042 
L 647.365909 369.36 
L 648 362.438873 
L 648 362.438873 
" style="fill:none;stroke:#ff7f0e;stroke-linecap:square;stroke-width:1.5;"/>
   </g>
   <g id="patch_9">
    <path d="M 394.363636 384.48 
L 394.363636 51.84 
" style="fill:none;stroke:#000000;stroke-linecap:square;stroke-linejoin:miter;stroke-width:0.8;"/>
   </g>
   <g id="patch_10">
    <path d="M 648 384.48 
L 648 51.84 
" style="fill:none;stroke:#000000;stroke-linecap:square;stroke-linejoin:miter;stroke-width:0.8;"/>
   </g>
   <g id="patch_11">
    <path d="M 394.363636 384.48 
L 648 384.48 
" style="fill:none;stroke:#000000;stroke-linecap:square;stroke-linejoin:miter;stroke-width:0.8;"/>
   </g>
   <g id="patch_12">
    <path d="M 394.363636 51.84 
L 648 51.84 
" style="fill:none;stroke:#000000;stroke-linecap:square;stroke-linejoin:miter;stroke-width:0.8;"/>
   </g>
   <g id="legend_2">
    <g id="patch_13">
     <path d="M 453.276562 89.19625 
L 641 89.19625 
Q 643 89.19625 643 87.19625 
L 643 58.84 
Q 643 56.84 641 56.84 
L 453.276562 56.84 
Q 451.276562 56.84 451.276562 58.84 
L 451.276562 87.19625 
Q 451.276562 89.19625 453.276562 89.19625 
z
" style="fill:#ffffff;opacity:0.8;stroke:#cccccc;stroke-linejoin:miter;"/>
    </g>
    <g id="line2d_39">
     <path d="M 455.276562 64.938437 
L 475.276562 64.938437 
" style="fill:none;stroke:#1f77b4;stroke-linecap:square;stroke-width:1.5;"/>
    </g>
    <g id="line2d_40"/>
    <g id="text_37">
     <!-- Train from scratch -->
     <g transform="translate(483.276562 68.438437)scale(0.1 -0.1)">
      <use xlink:href="#DejaVuSans-84"/>
      <use x="46.333984" xlink:href="#DejaVuSans-114"/>
      <use x="87.447266" xlink:href="#DejaVuSans-97"/>
      <use x="148.726562" xlink:href="#DejaVuSans-105"/>
      <use x="176.509766" xlink:href="#DejaVuSans-110"/>
      <use x="239.888672" xlink:href="#DejaVuSans-32"/>
      <use x="271.675781" xlink:href="#DejaVuSans-102"/>
      <use x="306.880859" xlink:href="#DejaVuSans-114"/>
      <use x="345.744141" xlink:href="#DejaVuSans-111"/>
      <use x="406.925781" xlink:href="#DejaVuSans-109"/>
      <use x="504.337891" xlink:href="#DejaVuSans-32"/>
      <use x="536.125" xlink:href="#DejaVuSans-115"/>
      <use x="588.224609" xlink:href="#DejaVuSans-99"/>
      <use x="643.205078" xlink:href="#DejaVuSans-114"/>
      <use x="684.318359" xlink:href="#DejaVuSans-97"/>
      <use x="745.597656" xlink:href="#DejaVuSans-116"/>
      <use x="784.806641" xlink:href="#DejaVuSans-99"/>
      <use x="839.787109" xlink:href="#DejaVuSans-104"/>
     </g>
    </g>
    <g id="line2d_41">
     <path d="M 455.276562 79.616562 
L 475.276562 79.616562 
" style="fill:none;stroke:#ff7f0e;stroke-linecap:square;stroke-width:1.5;"/>
    </g>
    <g id="line2d_42"/>
    <g id="text_38">
     <!-- Train from synthetic-2d-texture -->
     <g transform="translate(483.276562 83.116562)scale(0.1 -0.1)">
      <use xlink:href="#DejaVuSans-84"/>
      <use x="46.333984" xlink:href="#DejaVuSans-114"/>
      <use x="87.447266" xlink:href="#DejaVuSans-97"/>
      <use x="148.726562" xlink:href="#DejaVuSans-105"/>
      <use x="176.509766" xlink:href="#DejaVuSans-110"/>
      <use x="239.888672" xlink:href="#DejaVuSans-32"/>
      <use x="271.675781" xlink:href="#DejaVuSans-102"/>
      <use x="306.880859" xlink:href="#DejaVuSans-114"/>
      <use x="345.744141" xlink:href="#DejaVuSans-111"/>
      <use x="406.925781" xlink:href="#DejaVuSans-109"/>
      <use x="504.337891" xlink:href="#DejaVuSans-32"/>
      <use x="536.125" xlink:href="#DejaVuSans-115"/>
      <use x="588.224609" xlink:href="#DejaVuSans-121"/>
      <use x="647.404297" xlink:href="#DejaVuSans-110"/>
      <use x="710.783203" xlink:href="#DejaVuSans-116"/>
      <use x="749.992188" xlink:href="#DejaVuSans-104"/>
      <use x="813.371094" xlink:href="#DejaVuSans-101"/>
      <use x="874.894531" xlink:href="#DejaVuSans-116"/>
      <use x="914.103516" xlink:href="#DejaVuSans-105"/>
      <use x="941.886719" xlink:href="#DejaVuSans-99"/>
      <use x="996.867188" xlink:href="#DejaVuSans-45"/>
      <use x="1032.951172" xlink:href="#DejaVuSans-50"/>
      <use x="1096.574219" xlink:href="#DejaVuSans-100"/>
      <use x="1160.050781" xlink:href="#DejaVuSans-45"/>
      <use x="1196.134766" xlink:href="#DejaVuSans-116"/>
      <use x="1235.34375" xlink:href="#DejaVuSans-101"/>
      <use x="1295.117188" xlink:href="#DejaVuSans-120"/>
      <use x="1354.296875" xlink:href="#DejaVuSans-116"/>
      <use x="1393.505859" xlink:href="#DejaVuSans-117"/>
      <use x="1456.884766" xlink:href="#DejaVuSans-114"/>
      <use x="1495.748047" xlink:href="#DejaVuSans-101"/>
     </g>
    </g>
   </g>
  </g>
  <g id="text_39">
   <!-- UCF-QNRF -->
   <g transform="translate(328.754062 17.758125)scale(0.12 -0.12)">
    <defs>
     <path d="M 8.6875 72.90625 
L 18.609375 72.90625 
L 18.609375 28.609375 
Q 18.609375 16.890625 22.84375 11.734375 
Q 27.09375 6.59375 36.625 6.59375 
Q 46.09375 6.59375 50.34375 11.734375 
Q 54.59375 16.890625 54.59375 28.609375 
L 54.59375 72.90625 
L 64.5 72.90625 
L 64.5 27.390625 
Q 64.5 13.140625 57.4375 5.859375 
Q 50.390625 -1.421875 36.625 -1.421875 
Q 22.796875 -1.421875 15.734375 5.859375 
Q 8.6875 13.140625 8.6875 27.390625 
z
" id="DejaVuSans-85"/>
     <path d="M 64.40625 67.28125 
L 64.40625 56.890625 
Q 59.421875 61.53125 53.78125 63.8125 
Q 48.140625 66.109375 41.796875 66.109375 
Q 29.296875 66.109375 22.65625 58.46875 
Q 16.015625 50.828125 16.015625 36.375 
Q 16.015625 21.96875 22.65625 14.328125 
Q 29.296875 6.6875 41.796875 6.6875 
Q 48.140625 6.6875 53.78125 8.984375 
Q 59.421875 11.28125 64.40625 15.921875 
L 64.40625 5.609375 
Q 59.234375 2.09375 53.4375 0.328125 
Q 47.65625 -1.421875 41.21875 -1.421875 
Q 24.65625 -1.421875 15.125 8.703125 
Q 5.609375 18.84375 5.609375 36.375 
Q 5.609375 53.953125 15.125 64.078125 
Q 24.65625 74.21875 41.21875 74.21875 
Q 47.75 74.21875 53.53125 72.484375 
Q 59.328125 70.75 64.40625 67.28125 
z
" id="DejaVuSans-67"/>
     <path d="M 9.8125 72.90625 
L 51.703125 72.90625 
L 51.703125 64.59375 
L 19.671875 64.59375 
L 19.671875 43.109375 
L 48.578125 43.109375 
L 48.578125 34.8125 
L 19.671875 34.8125 
L 19.671875 0 
L 9.8125 0 
z
" id="DejaVuSans-70"/>
     <path d="M 39.40625 66.21875 
Q 28.65625 66.21875 22.328125 58.203125 
Q 16.015625 50.203125 16.015625 36.375 
Q 16.015625 22.609375 22.328125 14.59375 
Q 28.65625 6.59375 39.40625 6.59375 
Q 50.140625 6.59375 56.421875 14.59375 
Q 62.703125 22.609375 62.703125 36.375 
Q 62.703125 50.203125 56.421875 58.203125 
Q 50.140625 66.21875 39.40625 66.21875 
z
M 53.21875 1.3125 
L 66.21875 -12.890625 
L 54.296875 -12.890625 
L 43.5 -1.21875 
Q 41.890625 -1.3125 41.03125 -1.359375 
Q 40.1875 -1.421875 39.40625 -1.421875 
Q 24.03125 -1.421875 14.8125 8.859375 
Q 5.609375 19.140625 5.609375 36.375 
Q 5.609375 53.65625 14.8125 63.9375 
Q 24.03125 74.21875 39.40625 74.21875 
Q 54.734375 74.21875 63.90625 63.9375 
Q 73.09375 53.65625 73.09375 36.375 
Q 73.09375 23.6875 67.984375 14.640625 
Q 62.890625 5.609375 53.21875 1.3125 
z
" id="DejaVuSans-81"/>
     <path d="M 9.8125 72.90625 
L 23.09375 72.90625 
L 55.421875 11.921875 
L 55.421875 72.90625 
L 64.984375 72.90625 
L 64.984375 0 
L 51.703125 0 
L 19.390625 60.984375 
L 19.390625 0 
L 9.8125 0 
z
" id="DejaVuSans-78"/>
     <path d="M 44.390625 34.1875 
Q 47.5625 33.109375 50.5625 29.59375 
Q 53.5625 26.078125 56.59375 19.921875 
L 66.609375 0 
L 56 0 
L 46.6875 18.703125 
Q 43.0625 26.03125 39.671875 28.421875 
Q 36.28125 30.8125 30.421875 30.8125 
L 19.671875 30.8125 
L 19.671875 0 
L 9.8125 0 
L 9.8125 72.90625 
L 32.078125 72.90625 
Q 44.578125 72.90625 50.734375 67.671875 
Q 56.890625 62.453125 56.890625 51.90625 
Q 56.890625 45.015625 53.6875 40.46875 
Q 50.484375 35.9375 44.390625 34.1875 
z
M 19.671875 64.796875 
L 19.671875 38.921875 
L 32.078125 38.921875 
Q 39.203125 38.921875 42.84375 42.21875 
Q 46.484375 45.515625 46.484375 51.90625 
Q 46.484375 58.296875 42.84375 61.546875 
Q 39.203125 64.796875 32.078125 64.796875 
z
" id="DejaVuSans-82"/>
    </defs>
    <use xlink:href="#DejaVuSans-85"/>
    <use x="73.193359" xlink:href="#DejaVuSans-67"/>
    <use x="143.017578" xlink:href="#DejaVuSans-70"/>
    <use x="200.537109" xlink:href="#DejaVuSans-45"/>
    <use x="240.246094" xlink:href="#DejaVuSans-81"/>
    <use x="318.957031" xlink:href="#DejaVuSans-78"/>
    <use x="393.761719" xlink:href="#DejaVuSans-82"/>
    <use x="463.244141" xlink:href="#DejaVuSans-70"/>
   </g>
  </g>
 </g>
 <defs>
  <clipPath id="p983b7ef0cd">
   <rect height="332.64" width="253.636364" x="90" y="51.84"/>
  </clipPath>
  <clipPath id="p188ba2444a">
   <rect height="332.64" width="253.636364" x="394.363636" y="51.84"/>
  </clipPath>
 </defs>
</svg>
