<?xml version="1.0" encoding="utf-8" standalone="no"?>
<!DOCTYPE svg PUBLIC "-//W3C//DTD SVG 1.1//EN"
  "http://www.w3.org/Graphics/SVG/1.1/DTD/svg11.dtd">
<!-- Created with matplotlib (https://matplotlib.org/) -->
<svg height="432pt" version="1.1" viewBox="0 0 720 432" width="720pt" xmlns="http://www.w3.org/2000/svg" xmlns:xlink="http://www.w3.org/1999/xlink">
 <metadata>
  <rdf:RDF xmlns:cc="http://creativecommons.org/ns#" xmlns:dc="http://purl.org/dc/elements/1.1/" xmlns:rdf="http://www.w3.org/1999/02/22-rdf-syntax-ns#">
   <cc:Work>
    <dc:type rdf:resource="http://purl.org/dc/dcmitype/StillImage"/>
    <dc:date>2022-01-11T17:11:20.082837</dc:date>
    <dc:format>image/svg+xml</dc:format>
    <dc:creator>
     <cc:Agent>
      <dc:title>Matplotlib v3.3.1, https://matplotlib.org/</dc:title>
     </cc:Agent>
    </dc:creator>
   </cc:Work>
  </rdf:RDF>
 </metadata>
 <defs>
  <style type="text/css">*{stroke-linecap:butt;stroke-linejoin:round;}</style>
 </defs>
 <g id="figure_1">
  <g id="patch_1">
   <path d="M 0 432 
L 720 432 
L 720 0 
L 0 0 
z
" style="fill:#ffffff;"/>
  </g>
  <g id="axes_1">
   <g id="patch_2">
    <path d="M 90 384.48 
L 343.636364 384.48 
L 343.636364 51.84 
L 90 51.84 
z
" style="fill:#ffffff;"/>
   </g>
   <g id="matplotlib.axis_1">
    <g id="xtick_1">
     <g id="line2d_1">
      <defs>
       <path d="M 0 0 
L 0 3.5 
" id="m6d185c4735" style="stroke:#000000;stroke-width:0.8;"/>
      </defs>
      <g>
       <use style="stroke:#000000;stroke-width:0.8;" x="90" xlink:href="#m6d185c4735" y="384.48"/>
      </g>
     </g>
     <g id="text_1">
      <!-- 0 -->
      <g transform="translate(86.81875 399.078438)scale(0.1 -0.1)">
       <defs>
        <path d="M 31.78125 66.40625 
Q 24.171875 66.40625 20.328125 58.90625 
Q 16.5 51.421875 16.5 36.375 
Q 16.5 21.390625 20.328125 13.890625 
Q 24.171875 6.390625 31.78125 6.390625 
Q 39.453125 6.390625 43.28125 13.890625 
Q 47.125 21.390625 47.125 36.375 
Q 47.125 51.421875 43.28125 58.90625 
Q 39.453125 66.40625 31.78125 66.40625 
z
M 31.78125 74.21875 
Q 44.046875 74.21875 50.515625 64.515625 
Q 56.984375 54.828125 56.984375 36.375 
Q 56.984375 17.96875 50.515625 8.265625 
Q 44.046875 -1.421875 31.78125 -1.421875 
Q 19.53125 -1.421875 13.0625 8.265625 
Q 6.59375 17.96875 6.59375 36.375 
Q 6.59375 54.828125 13.0625 64.515625 
Q 19.53125 74.21875 31.78125 74.21875 
z
" id="DejaVuSans-48"/>
       </defs>
       <use xlink:href="#DejaVuSans-48"/>
      </g>
     </g>
    </g>
    <g id="xtick_2">
     <g id="line2d_2">
      <g>
       <use style="stroke:#000000;stroke-width:0.8;" x="121.704545" xlink:href="#m6d185c4735" y="384.48"/>
      </g>
     </g>
     <g id="text_2">
      <!-- 50 -->
      <g transform="translate(115.342045 399.078438)scale(0.1 -0.1)">
       <defs>
        <path d="M 10.796875 72.90625 
L 49.515625 72.90625 
L 49.515625 64.59375 
L 19.828125 64.59375 
L 19.828125 46.734375 
Q 21.96875 47.46875 24.109375 47.828125 
Q 26.265625 48.1875 28.421875 48.1875 
Q 40.625 48.1875 47.75 41.5 
Q 54.890625 34.8125 54.890625 23.390625 
Q 54.890625 11.625 47.5625 5.09375 
Q 40.234375 -1.421875 26.90625 -1.421875 
Q 22.3125 -1.421875 17.546875 -0.640625 
Q 12.796875 0.140625 7.71875 1.703125 
L 7.71875 11.625 
Q 12.109375 9.234375 16.796875 8.0625 
Q 21.484375 6.890625 26.703125 6.890625 
Q 35.15625 6.890625 40.078125 11.328125 
Q 45.015625 15.765625 45.015625 23.390625 
Q 45.015625 31 40.078125 35.4375 
Q 35.15625 39.890625 26.703125 39.890625 
Q 22.75 39.890625 18.8125 39.015625 
Q 14.890625 38.140625 10.796875 36.28125 
z
" id="DejaVuSans-53"/>
       </defs>
       <use xlink:href="#DejaVuSans-53"/>
       <use x="63.623047" xlink:href="#DejaVuSans-48"/>
      </g>
     </g>
    </g>
    <g id="xtick_3">
     <g id="line2d_3">
      <g>
       <use style="stroke:#000000;stroke-width:0.8;" x="153.409091" xlink:href="#m6d185c4735" y="384.48"/>
      </g>
     </g>
     <g id="text_3">
      <!-- 100 -->
      <g transform="translate(143.865341 399.078438)scale(0.1 -0.1)">
       <defs>
        <path d="M 12.40625 8.296875 
L 28.515625 8.296875 
L 28.515625 63.921875 
L 10.984375 60.40625 
L 10.984375 69.390625 
L 28.421875 72.90625 
L 38.28125 72.90625 
L 38.28125 8.296875 
L 54.390625 8.296875 
L 54.390625 0 
L 12.40625 0 
z
" id="DejaVuSans-49"/>
       </defs>
       <use xlink:href="#DejaVuSans-49"/>
       <use x="63.623047" xlink:href="#DejaVuSans-48"/>
       <use x="127.246094" xlink:href="#DejaVuSans-48"/>
      </g>
     </g>
    </g>
    <g id="xtick_4">
     <g id="line2d_4">
      <g>
       <use style="stroke:#000000;stroke-width:0.8;" x="185.113636" xlink:href="#m6d185c4735" y="384.48"/>
      </g>
     </g>
     <g id="text_4">
      <!-- 150 -->
      <g transform="translate(175.569886 399.078438)scale(0.1 -0.1)">
       <use xlink:href="#DejaVuSans-49"/>
       <use x="63.623047" xlink:href="#DejaVuSans-53"/>
       <use x="127.246094" xlink:href="#DejaVuSans-48"/>
      </g>
     </g>
    </g>
    <g id="xtick_5">
     <g id="line2d_5">
      <g>
       <use style="stroke:#000000;stroke-width:0.8;" x="216.818182" xlink:href="#m6d185c4735" y="384.48"/>
      </g>
     </g>
     <g id="text_5">
      <!-- 200 -->
      <g transform="translate(207.274432 399.078438)scale(0.1 -0.1)">
       <defs>
        <path d="M 19.1875 8.296875 
L 53.609375 8.296875 
L 53.609375 0 
L 7.328125 0 
L 7.328125 8.296875 
Q 12.9375 14.109375 22.625 23.890625 
Q 32.328125 33.6875 34.8125 36.53125 
Q 39.546875 41.84375 41.421875 45.53125 
Q 43.3125 49.21875 43.3125 52.78125 
Q 43.3125 58.59375 39.234375 62.25 
Q 35.15625 65.921875 28.609375 65.921875 
Q 23.96875 65.921875 18.8125 64.3125 
Q 13.671875 62.703125 7.8125 59.421875 
L 7.8125 69.390625 
Q 13.765625 71.78125 18.9375 73 
Q 24.125 74.21875 28.421875 74.21875 
Q 39.75 74.21875 46.484375 68.546875 
Q 53.21875 62.890625 53.21875 53.421875 
Q 53.21875 48.921875 51.53125 44.890625 
Q 49.859375 40.875 45.40625 35.40625 
Q 44.1875 33.984375 37.640625 27.21875 
Q 31.109375 20.453125 19.1875 8.296875 
z
" id="DejaVuSans-50"/>
       </defs>
       <use xlink:href="#DejaVuSans-50"/>
       <use x="63.623047" xlink:href="#DejaVuSans-48"/>
       <use x="127.246094" xlink:href="#DejaVuSans-48"/>
      </g>
     </g>
    </g>
    <g id="xtick_6">
     <g id="line2d_6">
      <g>
       <use style="stroke:#000000;stroke-width:0.8;" x="248.522727" xlink:href="#m6d185c4735" y="384.48"/>
      </g>
     </g>
     <g id="text_6">
      <!-- 250 -->
      <g transform="translate(238.978977 399.078438)scale(0.1 -0.1)">
       <use xlink:href="#DejaVuSans-50"/>
       <use x="63.623047" xlink:href="#DejaVuSans-53"/>
       <use x="127.246094" xlink:href="#DejaVuSans-48"/>
      </g>
     </g>
    </g>
    <g id="xtick_7">
     <g id="line2d_7">
      <g>
       <use style="stroke:#000000;stroke-width:0.8;" x="280.227273" xlink:href="#m6d185c4735" y="384.48"/>
      </g>
     </g>
     <g id="text_7">
      <!-- 300 -->
      <g transform="translate(270.683523 399.078438)scale(0.1 -0.1)">
       <defs>
        <path d="M 40.578125 39.3125 
Q 47.65625 37.796875 51.625 33 
Q 55.609375 28.21875 55.609375 21.1875 
Q 55.609375 10.40625 48.1875 4.484375 
Q 40.765625 -1.421875 27.09375 -1.421875 
Q 22.515625 -1.421875 17.65625 -0.515625 
Q 12.796875 0.390625 7.625 2.203125 
L 7.625 11.71875 
Q 11.71875 9.328125 16.59375 8.109375 
Q 21.484375 6.890625 26.8125 6.890625 
Q 36.078125 6.890625 40.9375 10.546875 
Q 45.796875 14.203125 45.796875 21.1875 
Q 45.796875 27.640625 41.28125 31.265625 
Q 36.765625 34.90625 28.71875 34.90625 
L 20.21875 34.90625 
L 20.21875 43.015625 
L 29.109375 43.015625 
Q 36.375 43.015625 40.234375 45.921875 
Q 44.09375 48.828125 44.09375 54.296875 
Q 44.09375 59.90625 40.109375 62.90625 
Q 36.140625 65.921875 28.71875 65.921875 
Q 24.65625 65.921875 20.015625 65.03125 
Q 15.375 64.15625 9.8125 62.3125 
L 9.8125 71.09375 
Q 15.4375 72.65625 20.34375 73.4375 
Q 25.25 74.21875 29.59375 74.21875 
Q 40.828125 74.21875 47.359375 69.109375 
Q 53.90625 64.015625 53.90625 55.328125 
Q 53.90625 49.265625 50.4375 45.09375 
Q 46.96875 40.921875 40.578125 39.3125 
z
" id="DejaVuSans-51"/>
       </defs>
       <use xlink:href="#DejaVuSans-51"/>
       <use x="63.623047" xlink:href="#DejaVuSans-48"/>
       <use x="127.246094" xlink:href="#DejaVuSans-48"/>
      </g>
     </g>
    </g>
    <g id="xtick_8">
     <g id="line2d_8">
      <g>
       <use style="stroke:#000000;stroke-width:0.8;" x="311.931818" xlink:href="#m6d185c4735" y="384.48"/>
      </g>
     </g>
     <g id="text_8">
      <!-- 350 -->
      <g transform="translate(302.388068 399.078438)scale(0.1 -0.1)">
       <use xlink:href="#DejaVuSans-51"/>
       <use x="63.623047" xlink:href="#DejaVuSans-53"/>
       <use x="127.246094" xlink:href="#DejaVuSans-48"/>
      </g>
     </g>
    </g>
    <g id="xtick_9">
     <g id="line2d_9">
      <g>
       <use style="stroke:#000000;stroke-width:0.8;" x="343.636364" xlink:href="#m6d185c4735" y="384.48"/>
      </g>
     </g>
     <g id="text_9">
      <!-- 400 -->
      <g transform="translate(334.092614 399.078438)scale(0.1 -0.1)">
       <defs>
        <path d="M 37.796875 64.3125 
L 12.890625 25.390625 
L 37.796875 25.390625 
z
M 35.203125 72.90625 
L 47.609375 72.90625 
L 47.609375 25.390625 
L 58.015625 25.390625 
L 58.015625 17.1875 
L 47.609375 17.1875 
L 47.609375 0 
L 37.796875 0 
L 37.796875 17.1875 
L 4.890625 17.1875 
L 4.890625 26.703125 
z
" id="DejaVuSans-52"/>
       </defs>
       <use xlink:href="#DejaVuSans-52"/>
       <use x="63.623047" xlink:href="#DejaVuSans-48"/>
       <use x="127.246094" xlink:href="#DejaVuSans-48"/>
      </g>
     </g>
    </g>
    <g id="text_10">
     <!-- Epoch -->
     <g transform="translate(201.507244 412.756563)scale(0.1 -0.1)">
      <defs>
       <path d="M 9.8125 72.90625 
L 55.90625 72.90625 
L 55.90625 64.59375 
L 19.671875 64.59375 
L 19.671875 43.015625 
L 54.390625 43.015625 
L 54.390625 34.71875 
L 19.671875 34.71875 
L 19.671875 8.296875 
L 56.78125 8.296875 
L 56.78125 0 
L 9.8125 0 
z
" id="DejaVuSans-69"/>
       <path d="M 18.109375 8.203125 
L 18.109375 -20.796875 
L 9.078125 -20.796875 
L 9.078125 54.6875 
L 18.109375 54.6875 
L 18.109375 46.390625 
Q 20.953125 51.265625 25.265625 53.625 
Q 29.59375 56 35.59375 56 
Q 45.5625 56 51.78125 48.09375 
Q 58.015625 40.1875 58.015625 27.296875 
Q 58.015625 14.40625 51.78125 6.484375 
Q 45.5625 -1.421875 35.59375 -1.421875 
Q 29.59375 -1.421875 25.265625 0.953125 
Q 20.953125 3.328125 18.109375 8.203125 
z
M 48.6875 27.296875 
Q 48.6875 37.203125 44.609375 42.84375 
Q 40.53125 48.484375 33.40625 48.484375 
Q 26.265625 48.484375 22.1875 42.84375 
Q 18.109375 37.203125 18.109375 27.296875 
Q 18.109375 17.390625 22.1875 11.75 
Q 26.265625 6.109375 33.40625 6.109375 
Q 40.53125 6.109375 44.609375 11.75 
Q 48.6875 17.390625 48.6875 27.296875 
z
" id="DejaVuSans-112"/>
       <path d="M 30.609375 48.390625 
Q 23.390625 48.390625 19.1875 42.75 
Q 14.984375 37.109375 14.984375 27.296875 
Q 14.984375 17.484375 19.15625 11.84375 
Q 23.34375 6.203125 30.609375 6.203125 
Q 37.796875 6.203125 41.984375 11.859375 
Q 46.1875 17.53125 46.1875 27.296875 
Q 46.1875 37.015625 41.984375 42.703125 
Q 37.796875 48.390625 30.609375 48.390625 
z
M 30.609375 56 
Q 42.328125 56 49.015625 48.375 
Q 55.71875 40.765625 55.71875 27.296875 
Q 55.71875 13.875 49.015625 6.21875 
Q 42.328125 -1.421875 30.609375 -1.421875 
Q 18.84375 -1.421875 12.171875 6.21875 
Q 5.515625 13.875 5.515625 27.296875 
Q 5.515625 40.765625 12.171875 48.375 
Q 18.84375 56 30.609375 56 
z
" id="DejaVuSans-111"/>
       <path d="M 48.78125 52.59375 
L 48.78125 44.1875 
Q 44.96875 46.296875 41.140625 47.34375 
Q 37.3125 48.390625 33.40625 48.390625 
Q 24.65625 48.390625 19.8125 42.84375 
Q 14.984375 37.3125 14.984375 27.296875 
Q 14.984375 17.28125 19.8125 11.734375 
Q 24.65625 6.203125 33.40625 6.203125 
Q 37.3125 6.203125 41.140625 7.25 
Q 44.96875 8.296875 48.78125 10.40625 
L 48.78125 2.09375 
Q 45.015625 0.34375 40.984375 -0.53125 
Q 36.96875 -1.421875 32.421875 -1.421875 
Q 20.0625 -1.421875 12.78125 6.34375 
Q 5.515625 14.109375 5.515625 27.296875 
Q 5.515625 40.671875 12.859375 48.328125 
Q 20.21875 56 33.015625 56 
Q 37.15625 56 41.109375 55.140625 
Q 45.0625 54.296875 48.78125 52.59375 
z
" id="DejaVuSans-99"/>
       <path d="M 54.890625 33.015625 
L 54.890625 0 
L 45.90625 0 
L 45.90625 32.71875 
Q 45.90625 40.484375 42.875 44.328125 
Q 39.84375 48.1875 33.796875 48.1875 
Q 26.515625 48.1875 22.3125 43.546875 
Q 18.109375 38.921875 18.109375 30.90625 
L 18.109375 0 
L 9.078125 0 
L 9.078125 75.984375 
L 18.109375 75.984375 
L 18.109375 46.1875 
Q 21.34375 51.125 25.703125 53.5625 
Q 30.078125 56 35.796875 56 
Q 45.21875 56 50.046875 50.171875 
Q 54.890625 44.34375 54.890625 33.015625 
z
" id="DejaVuSans-104"/>
      </defs>
      <use xlink:href="#DejaVuSans-69"/>
      <use x="63.183594" xlink:href="#DejaVuSans-112"/>
      <use x="126.660156" xlink:href="#DejaVuSans-111"/>
      <use x="187.841797" xlink:href="#DejaVuSans-99"/>
      <use x="242.822266" xlink:href="#DejaVuSans-104"/>
     </g>
    </g>
   </g>
   <g id="matplotlib.axis_2">
    <g id="ytick_1">
     <g id="line2d_10">
      <defs>
       <path d="M 0 0 
L -3.5 0 
" id="m37a73c838b" style="stroke:#000000;stroke-width:0.8;"/>
      </defs>
      <g>
       <use style="stroke:#000000;stroke-width:0.8;" x="90" xlink:href="#m37a73c838b" y="384.166307"/>
      </g>
     </g>
     <g id="text_11">
      <!-- 40 -->
      <g transform="translate(70.275 387.965526)scale(0.1 -0.1)">
       <use xlink:href="#DejaVuSans-52"/>
       <use x="63.623047" xlink:href="#DejaVuSans-48"/>
      </g>
     </g>
    </g>
    <g id="ytick_2">
     <g id="line2d_11">
      <g>
       <use style="stroke:#000000;stroke-width:0.8;" x="90" xlink:href="#m37a73c838b" y="342.340581"/>
      </g>
     </g>
     <g id="text_12">
      <!-- 60 -->
      <g transform="translate(70.275 346.1398)scale(0.1 -0.1)">
       <defs>
        <path d="M 33.015625 40.375 
Q 26.375 40.375 22.484375 35.828125 
Q 18.609375 31.296875 18.609375 23.390625 
Q 18.609375 15.53125 22.484375 10.953125 
Q 26.375 6.390625 33.015625 6.390625 
Q 39.65625 6.390625 43.53125 10.953125 
Q 47.40625 15.53125 47.40625 23.390625 
Q 47.40625 31.296875 43.53125 35.828125 
Q 39.65625 40.375 33.015625 40.375 
z
M 52.59375 71.296875 
L 52.59375 62.3125 
Q 48.875 64.0625 45.09375 64.984375 
Q 41.3125 65.921875 37.59375 65.921875 
Q 27.828125 65.921875 22.671875 59.328125 
Q 17.53125 52.734375 16.796875 39.40625 
Q 19.671875 43.65625 24.015625 45.921875 
Q 28.375 48.1875 33.59375 48.1875 
Q 44.578125 48.1875 50.953125 41.515625 
Q 57.328125 34.859375 57.328125 23.390625 
Q 57.328125 12.15625 50.6875 5.359375 
Q 44.046875 -1.421875 33.015625 -1.421875 
Q 20.359375 -1.421875 13.671875 8.265625 
Q 6.984375 17.96875 6.984375 36.375 
Q 6.984375 53.65625 15.1875 63.9375 
Q 23.390625 74.21875 37.203125 74.21875 
Q 40.921875 74.21875 44.703125 73.484375 
Q 48.484375 72.75 52.59375 71.296875 
z
" id="DejaVuSans-54"/>
       </defs>
       <use xlink:href="#DejaVuSans-54"/>
       <use x="63.623047" xlink:href="#DejaVuSans-48"/>
      </g>
     </g>
    </g>
    <g id="ytick_3">
     <g id="line2d_12">
      <g>
       <use style="stroke:#000000;stroke-width:0.8;" x="90" xlink:href="#m37a73c838b" y="300.514855"/>
      </g>
     </g>
     <g id="text_13">
      <!-- 80 -->
      <g transform="translate(70.275 304.314074)scale(0.1 -0.1)">
       <defs>
        <path d="M 31.78125 34.625 
Q 24.75 34.625 20.71875 30.859375 
Q 16.703125 27.09375 16.703125 20.515625 
Q 16.703125 13.921875 20.71875 10.15625 
Q 24.75 6.390625 31.78125 6.390625 
Q 38.8125 6.390625 42.859375 10.171875 
Q 46.921875 13.96875 46.921875 20.515625 
Q 46.921875 27.09375 42.890625 30.859375 
Q 38.875 34.625 31.78125 34.625 
z
M 21.921875 38.8125 
Q 15.578125 40.375 12.03125 44.71875 
Q 8.5 49.078125 8.5 55.328125 
Q 8.5 64.0625 14.71875 69.140625 
Q 20.953125 74.21875 31.78125 74.21875 
Q 42.671875 74.21875 48.875 69.140625 
Q 55.078125 64.0625 55.078125 55.328125 
Q 55.078125 49.078125 51.53125 44.71875 
Q 48 40.375 41.703125 38.8125 
Q 48.828125 37.15625 52.796875 32.3125 
Q 56.78125 27.484375 56.78125 20.515625 
Q 56.78125 9.90625 50.3125 4.234375 
Q 43.84375 -1.421875 31.78125 -1.421875 
Q 19.734375 -1.421875 13.25 4.234375 
Q 6.78125 9.90625 6.78125 20.515625 
Q 6.78125 27.484375 10.78125 32.3125 
Q 14.796875 37.15625 21.921875 38.8125 
z
M 18.3125 54.390625 
Q 18.3125 48.734375 21.84375 45.5625 
Q 25.390625 42.390625 31.78125 42.390625 
Q 38.140625 42.390625 41.71875 45.5625 
Q 45.3125 48.734375 45.3125 54.390625 
Q 45.3125 60.0625 41.71875 63.234375 
Q 38.140625 66.40625 31.78125 66.40625 
Q 25.390625 66.40625 21.84375 63.234375 
Q 18.3125 60.0625 18.3125 54.390625 
z
" id="DejaVuSans-56"/>
       </defs>
       <use xlink:href="#DejaVuSans-56"/>
       <use x="63.623047" xlink:href="#DejaVuSans-48"/>
      </g>
     </g>
    </g>
    <g id="ytick_4">
     <g id="line2d_13">
      <g>
       <use style="stroke:#000000;stroke-width:0.8;" x="90" xlink:href="#m37a73c838b" y="258.689129"/>
      </g>
     </g>
     <g id="text_14">
      <!-- 100 -->
      <g transform="translate(63.9125 262.488347)scale(0.1 -0.1)">
       <use xlink:href="#DejaVuSans-49"/>
       <use x="63.623047" xlink:href="#DejaVuSans-48"/>
       <use x="127.246094" xlink:href="#DejaVuSans-48"/>
      </g>
     </g>
    </g>
    <g id="ytick_5">
     <g id="line2d_14">
      <g>
       <use style="stroke:#000000;stroke-width:0.8;" x="90" xlink:href="#m37a73c838b" y="216.863402"/>
      </g>
     </g>
     <g id="text_15">
      <!-- 120 -->
      <g transform="translate(63.9125 220.662621)scale(0.1 -0.1)">
       <use xlink:href="#DejaVuSans-49"/>
       <use x="63.623047" xlink:href="#DejaVuSans-50"/>
       <use x="127.246094" xlink:href="#DejaVuSans-48"/>
      </g>
     </g>
    </g>
    <g id="ytick_6">
     <g id="line2d_15">
      <g>
       <use style="stroke:#000000;stroke-width:0.8;" x="90" xlink:href="#m37a73c838b" y="175.037676"/>
      </g>
     </g>
     <g id="text_16">
      <!-- 140 -->
      <g transform="translate(63.9125 178.836895)scale(0.1 -0.1)">
       <use xlink:href="#DejaVuSans-49"/>
       <use x="63.623047" xlink:href="#DejaVuSans-52"/>
       <use x="127.246094" xlink:href="#DejaVuSans-48"/>
      </g>
     </g>
    </g>
    <g id="ytick_7">
     <g id="line2d_16">
      <g>
       <use style="stroke:#000000;stroke-width:0.8;" x="90" xlink:href="#m37a73c838b" y="133.21195"/>
      </g>
     </g>
     <g id="text_17">
      <!-- 160 -->
      <g transform="translate(63.9125 137.011169)scale(0.1 -0.1)">
       <use xlink:href="#DejaVuSans-49"/>
       <use x="63.623047" xlink:href="#DejaVuSans-54"/>
       <use x="127.246094" xlink:href="#DejaVuSans-48"/>
      </g>
     </g>
    </g>
    <g id="ytick_8">
     <g id="line2d_17">
      <g>
       <use style="stroke:#000000;stroke-width:0.8;" x="90" xlink:href="#m37a73c838b" y="91.386224"/>
      </g>
     </g>
     <g id="text_18">
      <!-- 180 -->
      <g transform="translate(63.9125 95.185443)scale(0.1 -0.1)">
       <use xlink:href="#DejaVuSans-49"/>
       <use x="63.623047" xlink:href="#DejaVuSans-56"/>
       <use x="127.246094" xlink:href="#DejaVuSans-48"/>
      </g>
     </g>
    </g>
    <g id="text_19">
     <!-- MAE -->
     <g transform="translate(57.832812 229.05375)rotate(-90)scale(0.1 -0.1)">
      <defs>
       <path d="M 9.8125 72.90625 
L 24.515625 72.90625 
L 43.109375 23.296875 
L 61.8125 72.90625 
L 76.515625 72.90625 
L 76.515625 0 
L 66.890625 0 
L 66.890625 64.015625 
L 48.09375 14.015625 
L 38.1875 14.015625 
L 19.390625 64.015625 
L 19.390625 0 
L 9.8125 0 
z
" id="DejaVuSans-77"/>
       <path d="M 34.1875 63.1875 
L 20.796875 26.90625 
L 47.609375 26.90625 
z
M 28.609375 72.90625 
L 39.796875 72.90625 
L 67.578125 0 
L 57.328125 0 
L 50.6875 18.703125 
L 17.828125 18.703125 
L 11.1875 0 
L 0.78125 0 
z
" id="DejaVuSans-65"/>
      </defs>
      <use xlink:href="#DejaVuSans-77"/>
      <use x="86.279297" xlink:href="#DejaVuSans-65"/>
      <use x="154.6875" xlink:href="#DejaVuSans-69"/>
     </g>
    </g>
   </g>
   <g id="line2d_18">
    <path clip-path="url(#pb48813a37d)" d="M 90 66.96 
L 90.634091 109.810456 
L 91.268182 99.437676 
L 91.902273 103.933942 
L 92.536364 99.312199 
L 93.170455 120.392365 
L 93.804545 127.58639 
L 94.438636 161.193361 
L 95.072727 144.442158 
L 95.706818 195.093112 
L 96.340909 168.34556 
L 97.609091 208.038174 
L 98.243182 202.496266 
L 98.877273 212.074357 
L 99.511364 211.927967 
L 100.145455 214.667552 
L 100.779545 207.368963 
L 101.413636 202.328963 
L 102.047727 208.121826 
L 102.681818 187.33444 
L 103.315909 183.151867 
L 103.95 217.28166 
L 104.584091 217.57444 
L 105.218182 210.024896 
L 105.852273 210.129461 
L 106.486364 241.707884 
L 107.120455 219.937593 
L 107.754545 232.004315 
L 108.388636 219.937593 
L 109.022727 232.652614 
L 109.656818 228.156349 
L 110.290909 212.450788 
L 110.925 225.103071 
L 111.559091 216.298755 
L 112.193182 226.546058 
L 113.461364 193.461909 
L 114.095455 219.77029 
L 114.729545 225.040332 
L 115.363636 217.57444 
L 115.997727 243.401826 
L 116.631818 216.800664 
L 117.9 222.196183 
L 118.534091 243.21361 
L 119.168182 224.141079 
L 119.802273 238.675519 
L 120.436364 224.350207 
L 121.070455 241.833361 
L 121.704545 219.791203 
L 122.338636 237.274357 
L 123.606818 219.686639 
L 124.875 235.559502 
L 125.509091 218.473693 
L 126.143182 246.580581 
L 126.777273 210.861411 
L 127.411364 241.561494 
L 128.045455 224.057427 
L 128.679545 247.061577 
L 129.313636 229.306556 
L 129.947727 241.854274 
L 130.581818 221.213278 
L 131.215909 234.388382 
L 131.85 217.679004 
L 132.484091 224.308382 
L 133.118182 239.093776 
L 133.752273 261.282324 
L 134.386364 225.123983 
L 135.020455 211.551535 
L 135.654545 232.799004 
L 136.288636 227.110705 
L 136.922727 237.567137 
L 137.556818 255.154855 
L 138.190909 223.513693 
L 138.825 247.291618 
L 139.459091 246.768797 
L 140.093182 261.90971 
L 140.727273 246.476017 
L 141.361364 241.728797 
L 141.995455 257.810788 
L 142.629545 237.274357 
L 143.263636 232.757178 
L 143.897727 214.416598 
L 144.531818 236.082324 
L 145.165909 225.897759 
L 145.8 228.051784 
L 146.434091 256.890622 
L 147.068182 224.392033 
L 147.702273 255.280332 
L 148.336364 252.728963 
L 148.970455 244.050124 
L 149.604545 264.586556 
L 150.238636 247.187054 
L 150.872727 254.652946 
L 151.506818 273.558174 
L 152.140909 251.432365 
L 152.775 250.240332 
L 153.409091 250.658589 
L 154.043182 264.189212 
L 154.677273 250.031203 
L 155.311364 268.434523 
L 155.945455 265.13029 
L 156.579545 265.904066 
L 157.213636 260.571286 
L 157.847727 257.246141 
L 158.481818 243.987386 
L 159.115909 269.87751 
L 159.75 268.539087 
L 160.384091 260.445809 
L 161.018182 278.033527 
L 161.652273 264.189212 
L 162.286364 264.732946 
L 162.920455 242.586224 
L 163.554545 258.981909 
L 164.188636 261.094108 
L 164.822727 270.860415 
L 165.456818 255.301245 
L 166.090909 249.633859 
L 166.725 281.525975 
L 167.359091 277.824398 
L 167.993182 255.008465 
L 169.261364 277.259751 
L 169.895455 259.713859 
L 170.529545 258.521826 
L 171.163636 263.582739 
L 171.797727 274.750207 
L 172.431818 255.656763 
L 173.065909 268.037178 
L 173.7 290.309378 
L 174.334091 258.730954 
L 174.968182 272.42888 
L 175.602273 269.166473 
L 176.236364 268.12083 
L 176.870455 272.407967 
L 177.504545 253.711867 
L 178.138636 272.700747 
L 178.772727 269.961162 
L 179.406818 269.501079 
L 180.040909 286.440498 
L 180.675 264.231037 
L 181.309091 265.004813 
L 181.943182 249.069212 
L 182.577273 259.964813 
L 183.211364 276.925145 
L 183.845455 265.820415 
L 184.479545 257.099751 
L 185.113636 288.86639 
L 185.747727 270.797676 
L 186.381818 271.926971 
L 187.015909 265.966805 
L 187.65 273.30722 
L 188.284091 258.438174 
L 188.918182 267.911701 
L 189.552273 266.866058 
L 190.186364 269.103734 
L 190.820455 257.999004 
L 192.088636 279.790207 
L 192.722727 273.495436 
L 193.356818 276.632365 
L 193.990909 274.060083 
L 194.625 261.177759 
L 195.259091 257.329793 
L 195.893182 274.729295 
L 197.161364 259.525643 
L 197.795455 270.755851 
L 198.429545 260.445809 
L 199.063636 259.672033 
L 199.697727 256.827884 
L 200.331818 279.100083 
L 200.965909 272.324315 
L 201.6 285.896763 
L 202.234091 269.73112 
L 202.868182 270.693112 
L 203.502273 280.877676 
L 204.136364 259.086473 
L 204.770455 272.010622 
L 205.404545 258.019917 
L 206.038636 270.504896 
L 206.672727 246.726971 
L 207.306818 271.550539 
L 207.940909 279.455602 
L 208.575 269.58473 
L 209.843182 279.392863 
L 210.477273 265.841328 
L 211.111364 263.457261 
L 211.745455 284.788382 
L 212.379545 256.514191 
L 213.013636 264.293776 
L 213.647727 281.024066 
L 214.281818 260.194855 
L 214.915909 270.902241 
L 215.55 261.637842 
L 216.184091 278.305394 
L 216.818182 271.174108 
L 217.452273 282.048797 
L 218.086364 285.541245 
L 218.720455 272.826224 
L 219.354545 276.757842 
L 219.988636 283.575436 
L 220.622727 260.299419 
L 221.256818 281.776929 
L 221.890909 284.70473 
L 222.525 289.786556 
L 223.159091 277.949876 
L 223.793182 278.93278 
L 224.427273 287.214274 
L 225.061364 278.179917 
L 225.695455 273.913693 
L 226.329545 257.225228 
L 226.963636 278.514523 
L 227.597727 264.628382 
L 228.231818 281.044979 
L 228.865909 269.187386 
L 229.5 252.394357 
L 230.134091 283.575436 
L 230.768182 280.584896 
L 231.402273 275.482158 
L 232.036364 266.656929 
L 233.304545 277.573444 
L 233.938636 272.596183 
L 234.572727 279.497427 
L 235.206818 275.189378 
L 235.840909 264.440166 
L 236.475 275.252116 
L 237.109091 291.313195 
L 237.743182 294.471037 
L 238.377273 271.006805 
L 239.011364 277.510705 
L 239.645455 289.912033 
L 240.279545 262.767137 
L 240.913636 272.010622 
L 241.547727 270.065726 
L 242.181818 259.65112 
L 242.815909 273.202656 
L 243.45 281.024066 
L 244.084091 263.22722 
L 244.718182 277.887137 
L 245.352273 286.921494 
L 245.986364 274.541079 
L 246.620455 289.30556 
L 247.254545 269.501079 
L 247.888636 279.706556 
L 248.522727 270.734938 
L 249.156818 273.244481 
L 249.790909 276.757842 
L 250.425 278.012614 
L 251.059091 272.42888 
L 251.693182 272.888963 
L 252.327273 273.934606 
L 252.961364 280.898589 
L 253.595455 277.134274 
L 254.229545 282.341577 
L 254.863636 277.740747 
L 255.497727 279.288299 
L 256.131818 274.269212 
L 256.765909 276.444149 
L 257.4 276.088631 
L 258.034091 283.09444 
L 258.668182 277.76166 
L 259.302273 275.042988 
L 259.936364 259.902075 
L 260.570455 265.883154 
L 261.204545 281.965145 
L 261.838636 281.463237 
L 262.472727 290.162988 
L 263.106818 264.168299 
L 263.740909 255.071203 
L 264.375 275.335768 
L 265.009091 287.716183 
L 265.643182 272.491618 
L 266.277273 283.97278 
L 266.911364 264.858423 
L 267.545455 270.630373 
L 268.179545 287.235187 
L 268.813636 282.425228 
L 269.447727 287.737095 
L 270.081818 258.856432 
L 270.715909 281.92332 
L 271.35 277.824398 
L 271.984091 280.522158 
L 272.618182 271.383237 
L 273.252273 273.558174 
L 273.886364 271.780581 
L 274.520455 270.609461 
L 275.154545 272.533444 
L 275.788636 264.753859 
L 276.422727 279.727469 
L 277.056818 282.404315 
L 277.690909 277.406141 
L 278.325 279.330124 
L 278.959091 273.997344 
L 279.593182 269.710207 
L 280.227273 278.723651 
L 280.861364 270.839502 
L 281.495455 269.14556 
L 282.129545 283.115353 
L 282.763636 285.917676 
L 283.397727 267.807137 
L 284.031818 269.856598 
L 284.665909 272.784398 
L 285.3 265.945892 
L 285.934091 281.860581 
L 286.568182 279.581079 
L 287.202273 275.837676 
L 287.836364 265.27668 
L 288.470455 266.824232 
L 289.104545 262.537095 
L 289.738636 280.563983 
L 290.372727 282.65527 
L 291.006818 285.248465 
L 291.640909 291.250456 
L 292.275 266.782407 
L 292.909091 282.195187 
L 293.543182 268.957344 
L 294.177273 275.377593 
L 294.811364 267.786224 
L 295.445455 283.199004 
L 296.079545 276.506888 
L 296.713636 271.006805 
L 297.347727 258.689129 
L 297.981818 281.693278 
L 298.615909 282.634357 
L 299.25 270.086639 
L 299.884091 271.508714 
L 300.518182 266.594191 
L 301.152273 274.750207 
L 301.786364 268.831867 
L 302.420455 274.708382 
L 303.054545 268.476349 
L 303.688636 286.335934 
L 304.322727 271.696929 
L 304.956818 280.626722 
L 305.590909 264.314689 
L 306.225 281.588714 
L 306.859091 278.05444 
L 307.493182 265.046639 
L 308.127273 270.400332 
L 308.761364 262.265228 
L 309.395455 265.548548 
L 310.029545 260.947718 
L 310.663636 271.801494 
L 311.297727 277.928963 
L 311.931818 271.717842 
L 312.565909 278.995519 
L 313.2 269.668382 
L 314.468182 287.465228 
L 315.102273 284.307386 
L 315.736364 269.521992 
L 316.370455 279.22556 
L 317.004545 276.548714 
L 317.638636 271.445975 
L 318.272727 271.780581 
L 318.906818 263.164481 
L 319.540909 286.565975 
L 320.175 282.36249 
L 320.809091 257.831701 
L 321.443182 288.594523 
L 322.077273 277.887137 
L 322.711364 272.658921 
L 323.345455 291.710539 
L 323.979545 272.303402 
L 324.613636 285.29029 
L 325.247727 269.752033 
L 325.881818 283.24083 
L 326.515909 278.012614 
L 327.15 278.033527 
L 327.784091 276.025892 
L 328.418182 272.261577 
L 329.052273 277.197012 
L 329.686364 273.809129 
L 330.320455 274.33195 
L 330.954545 266.845145 
L 331.588636 283.554523 
L 332.222727 275.607635 
L 332.856818 287.444315 
L 333.490909 277.301577 
L 334.125 293.843651 
L 334.759091 270.253942 
L 335.393182 275.858589 
L 336.027273 276.485975 
L 336.661364 289.117344 
L 337.295455 265.234855 
L 337.929545 271.801494 
L 338.563636 254.945726 
L 339.197727 275.189378 
L 339.831818 272.240664 
L 340.465909 285.457593 
L 341.1 274.687469 
L 341.734091 287.067884 
L 342.368182 272.407967 
L 343.002273 285.29029 
L 343.636364 266.405975 
L 343.636364 266.405975 
" style="fill:none;stroke:#1f77b4;stroke-linecap:square;stroke-width:1.5;"/>
   </g>
   <g id="line2d_19">
    <path clip-path="url(#pb48813a37d)" d="M 90 146.345228 
L 90.634091 189.572116 
L 91.268182 207.097095 
L 91.902273 179.701245 
L 92.536364 173.364647 
L 93.170455 211.091452 
L 93.804545 219.6239 
L 94.438636 225.354025 
L 95.072727 201.28332 
L 95.706818 238.675519 
L 96.340909 196.515187 
L 97.609091 237.58805 
L 98.243182 229.55751 
L 98.877273 240.097593 
L 99.511364 231.021411 
L 100.145455 235.622241 
L 100.779545 243.736432 
L 101.413636 228.511867 
L 102.047727 239.135602 
L 102.681818 217.009793 
L 103.315909 204.79668 
L 103.95 259.35834 
L 104.584091 250.616763 
L 105.218182 236.584232 
L 105.852273 245.514025 
L 106.486364 269.542905 
L 107.120455 260.654938 
L 107.754545 269.396515 
L 108.388636 248.671867 
L 109.022727 276.925145 
L 109.656818 255.071203 
L 110.290909 247.81444 
L 110.925 272.42888 
L 111.559091 249.696598 
L 112.193182 264.000996 
L 112.827273 250.867718 
L 113.461364 234.576598 
L 114.095455 263.708216 
L 114.729545 270.546722 
L 115.363636 265.904066 
L 115.997727 292.923485 
L 116.631818 276.109544 
L 117.9 275.565809 
L 118.534091 289.577427 
L 119.168182 295.307552 
L 119.802273 282.927137 
L 120.436364 295.307552 
L 121.070455 281.400498 
L 121.704545 287.026058 
L 122.972727 285.813112 
L 123.606818 301.936929 
L 124.240909 288.761826 
L 124.875 309.988382 
L 125.509091 272.42888 
L 126.143182 302.020581 
L 126.777273 255.740415 
L 127.411364 284.495602 
L 128.045455 262.913527 
L 128.679545 306.244979 
L 129.313636 300.075685 
L 129.947727 307.144232 
L 130.581818 301.999668 
L 131.215909 287.172448 
L 131.85 287.862573 
L 132.484091 299.134606 
L 133.118182 292.317012 
L 133.752273 324.794689 
L 134.386364 290.894938 
L 135.020455 290.706722 
L 135.654545 307.834357 
L 136.922727 295.955851 
L 137.556818 306.893278 
L 138.190909 290.518506 
L 138.825 315.739419 
L 139.459091 301.121328 
L 140.093182 326.279502 
L 140.727273 299.552863 
L 141.361364 295.704896 
L 141.995455 315.634855 
L 142.629545 282.006971 
L 143.263636 304.007303 
L 143.897727 247.124315 
L 144.531818 286.607801 
L 145.165909 283.659087 
L 145.8 298.967303 
L 146.434091 303.25444 
L 147.068182 289.263734 
L 147.702273 319.169129 
L 148.336364 322.264232 
L 148.970455 327.597012 
L 149.604545 331.675021 
L 150.238636 314.191867 
L 150.872727 324.062739 
L 151.506818 329.77195 
L 152.140909 320.737593 
L 152.775 338.639004 
L 153.409091 328.203485 
L 154.043182 332.76249 
L 154.677273 329.562822 
L 155.311364 340.521162 
L 155.945455 335.983071 
L 156.579545 337.467884 
L 157.213636 334.832863 
L 157.847727 337.844315 
L 158.481818 333.954523 
L 159.115909 344.243651 
L 159.75 349.597344 
L 160.384091 342.54971 
L 161.018182 347.547884 
L 161.652273 334.498257 
L 162.286364 339.517344 
L 162.920455 329.165477 
L 163.554545 339.810124 
L 164.188636 341.106722 
L 164.822727 345.205643 
L 165.456818 333.599004 
L 166.090909 343.699917 
L 166.725 348.049793 
L 167.359091 349.764647 
L 167.993182 343.971784 
L 168.627273 346.355851 
L 169.261364 347.610622 
L 169.895455 342.821577 
L 170.529545 339.161826 
L 171.163636 338.597178 
L 171.797727 348.698091 
L 172.431818 332.76249 
L 173.065909 351.772282 
L 173.7 348.781743 
L 174.334091 342.026888 
L 174.968182 346.167635 
L 175.602273 346.606805 
L 176.236364 335.10473 
L 176.870455 346.104896 
L 177.504545 342.675187 
L 178.772727 352.190539 
L 179.406818 356.707718 
L 180.040909 349.34639 
L 180.675 336.652282 
L 181.309091 343.825394 
L 181.943182 320.361162 
L 182.577273 347.150539 
L 183.211364 349.471867 
L 183.845455 342.612448 
L 184.479545 344.620083 
L 185.113636 344.661909 
L 185.747727 343.051618 
L 186.381818 344.034523 
L 187.015909 340.081992 
L 187.65 350.893942 
L 188.284091 333.954523 
L 188.918182 352.734274 
L 189.552273 345.77029 
L 190.186364 348.530788 
L 190.820455 346.293112 
L 191.454545 338.346224 
L 192.088636 355.662075 
L 192.722727 355.41112 
L 193.356818 356.205809 
L 194.625 350.538423 
L 195.259091 346.648631 
L 195.893182 357.418755 
L 196.527273 350.245643 
L 197.161364 353.36166 
L 197.795455 344.787386 
L 198.429545 341.483154 
L 199.063636 333.264398 
L 199.697727 345.372946 
L 200.331818 346.188548 
L 200.965909 342.466058 
L 201.6 357.293278 
L 202.234091 357.418755 
L 202.868182 353.110705 
L 203.502273 353.382573 
L 204.136364 348.572614 
L 204.770455 340.416598 
L 205.404545 341.064896 
L 206.038636 349.806473 
L 206.672727 338.367137 
L 207.306818 347.380581 
L 207.940909 345.644813 
L 208.575 348.363485 
L 209.209091 349.994689 
L 209.843182 354.951037 
L 210.477273 354.135436 
L 211.111364 348.488963 
L 211.745455 356.310373 
L 212.379545 356.435851 
L 213.013636 353.403485 
L 213.647727 354.888299 
L 214.281818 345.121992 
L 214.915909 351.897759 
L 215.55 342.821577 
L 216.184091 360.45112 
L 216.818182 354.700083 
L 217.452273 346.606805 
L 218.086364 361.977759 
L 218.720455 347.861577 
L 219.354545 350.95668 
L 219.988636 361.162158 
L 220.622727 356.791369 
L 221.256818 354.344564 
L 221.890909 354.67917 
L 222.525 354.38639 
L 223.159091 357.188714 
L 223.793182 350.622075 
L 224.427273 353.570788 
L 225.695455 357.544232 
L 226.329545 351.521328 
L 226.963636 352.002324 
L 227.597727 353.989046 
L 228.231818 347.652448 
L 228.865909 353.717178 
L 229.5 347.255104 
L 230.134091 358.527137 
L 230.768182 362.354191 
L 231.402273 347.401494 
L 232.036364 353.612614 
L 232.670455 355.933942 
L 233.304545 355.181079 
L 233.938636 359.991037 
L 234.572727 358.882656 
L 235.206818 356.875021 
L 235.840909 344.89195 
L 236.475 352.316017 
L 237.109091 363.232531 
L 237.743182 362.8561 
L 238.377273 343.553527 
L 239.011364 362.333278 
L 239.645455 364.46639 
L 240.279545 352.085975 
L 240.913636 356.498589 
L 241.547727 363.023402 
L 242.181818 344.89195 
L 242.815909 352.065062 
L 243.45 352.274191 
L 244.084091 349.701909 
L 244.718182 355.473859 
L 245.352273 359.760996 
L 245.986364 358.067054 
L 246.620455 358.568963 
L 247.254545 351.291286 
L 247.888636 369.36 
L 248.522727 347.7361 
L 249.156818 363.462573 
L 249.790909 358.087967 
L 250.425 364.048133 
L 251.059091 351.437676 
L 251.693182 344.59917 
L 252.327273 358.087967 
L 252.961364 359.049959 
L 253.595455 352.316017 
L 254.229545 355.829378 
L 254.863636 355.473859 
L 255.497727 358.506224 
L 256.131818 354.992863 
L 256.765909 358.087967 
L 257.4 355.515685 
L 258.034091 360.262905 
L 258.668182 349.952863 
L 259.302273 358.882656 
L 259.936364 348.32166 
L 260.570455 348.154357 
L 261.204545 361.371286 
L 261.838636 359.405477 
L 262.472727 356.791369 
L 263.106818 355.954855 
L 263.740909 357.899751 
L 264.375 357.627884 
L 265.009091 356.707718 
L 265.643182 346.690456 
L 266.277273 359.970124 
L 266.911364 358.98722 
L 267.545455 348.154357 
L 268.179545 361.120332 
L 268.813636 359.551867 
L 269.447727 358.589876 
L 270.081818 343.595353 
L 270.715909 358.757178 
L 271.35 360.137427 
L 271.984091 356.937759 
L 272.618182 348.990871 
L 273.252273 347.506058 
L 273.886364 357.502407 
L 274.520455 359.342739 
L 275.154545 356.017593 
L 275.788636 347.757012 
L 276.422727 359.530954 
L 277.056818 354.051784 
L 277.690909 356.289461 
L 278.325 366.034855 
L 278.959091 366.494938 
L 279.593182 355.599336 
L 280.227273 362.312365 
L 280.861364 349.743734 
L 281.495455 359.530954 
L 282.129545 347.777925 
L 282.763636 360.325643 
L 283.397727 347.464232 
L 284.031818 356.184896 
L 284.665909 354.470041 
L 285.3 354.700083 
L 285.934091 351.981411 
L 286.568182 352.002324 
L 287.202273 354.156349 
L 287.836364 354.260913 
L 288.470455 349.430041 
L 289.104545 348.90722 
L 289.738636 355.473859 
L 290.372727 354.09361 
L 291.006818 364.278174 
L 291.640909 360.869378 
L 292.275 347.903402 
L 292.909091 362.814274 
L 293.543182 357.084149 
L 294.177273 357.397842 
L 294.811364 349.660083 
L 295.445455 354.658257 
L 296.079545 352.546058 
L 296.713636 358.087967 
L 297.347727 350.51751 
L 297.981818 358.819917 
L 298.615909 358.338921 
L 299.25 358.380747 
L 299.884091 364.487303 
L 300.518182 355.139253 
L 301.152273 349.680996 
L 301.786364 354.114523 
L 302.420455 363.044315 
L 303.054545 352.462407 
L 303.688636 364.968299 
L 304.322727 363.964481 
L 304.956818 362.375104 
L 305.590909 348.300747 
L 306.225 358.359834 
L 306.859091 359.363651 
L 307.493182 345.268382 
L 308.127273 355.933942 
L 308.761364 344.285477 
L 309.395455 355.808465 
L 310.029545 345.393859 
L 310.663636 347.464232 
L 311.297727 359.614606 
L 311.931818 353.340747 
L 312.565909 363.086141 
L 313.2 356.143071 
L 313.834091 350.789378 
L 314.468182 357.774274 
L 315.102273 358.568963 
L 315.736364 355.013776 
L 316.370455 357.648797 
L 317.638636 346.732282 
L 318.272727 353.131618 
L 318.906818 356.268548 
L 319.540909 358.046141 
L 320.175 352.253278 
L 320.809091 350.831203 
L 321.443182 359.530954 
L 322.077273 354.281826 
L 322.711364 350.433859 
L 323.345455 366.369461 
L 323.979545 361.329461 
L 324.613636 363.839004 
L 325.247727 357.000498 
L 325.881818 355.724813 
L 326.515909 354.82556 
L 327.15 355.285643 
L 327.784091 357.293278 
L 328.418182 357.878838 
L 329.052273 355.076515 
L 329.686364 353.173444 
L 330.320455 352.713361 
L 330.954545 350.977593 
L 331.588636 353.863568 
L 332.222727 351.500415 
L 332.856818 367.059585 
L 333.490909 355.933942 
L 334.125 362.56332 
L 334.759091 354.051784 
L 335.393182 349.032697 
L 336.027273 366.850456 
L 336.661364 360.45112 
L 337.295455 356.728631 
L 337.929545 347.798838 
L 338.563636 344.89195 
L 339.197727 355.578423 
L 339.831818 361.308548 
L 340.465909 355.641162 
L 341.1 363.420747 
L 341.734091 348.802656 
L 342.368182 356.143071 
L 343.002273 355.954855 
L 343.636364 355.536598 
L 343.636364 355.536598 
" style="fill:none;stroke:#ff7f0e;stroke-linecap:square;stroke-width:1.5;"/>
   </g>
   <g id="patch_3">
    <path d="M 90 384.48 
L 90 51.84 
" style="fill:none;stroke:#000000;stroke-linecap:square;stroke-linejoin:miter;stroke-width:0.8;"/>
   </g>
   <g id="patch_4">
    <path d="M 343.636364 384.48 
L 343.636364 51.84 
" style="fill:none;stroke:#000000;stroke-linecap:square;stroke-linejoin:miter;stroke-width:0.8;"/>
   </g>
   <g id="patch_5">
    <path d="M 90 384.48 
L 343.636364 384.48 
" style="fill:none;stroke:#000000;stroke-linecap:square;stroke-linejoin:miter;stroke-width:0.8;"/>
   </g>
   <g id="patch_6">
    <path d="M 90 51.84 
L 343.636364 51.84 
" style="fill:none;stroke:#000000;stroke-linecap:square;stroke-linejoin:miter;stroke-width:0.8;"/>
   </g>
   <g id="legend_1">
    <g id="patch_7">
     <path d="M 188.634801 89.19625 
L 336.636364 89.19625 
Q 338.636364 89.19625 338.636364 87.19625 
L 338.636364 58.84 
Q 338.636364 56.84 336.636364 56.84 
L 188.634801 56.84 
Q 186.634801 56.84 186.634801 58.84 
L 186.634801 87.19625 
Q 186.634801 89.19625 188.634801 89.19625 
z
" style="fill:#ffffff;opacity:0.8;stroke:#cccccc;stroke-linejoin:miter;"/>
    </g>
    <g id="line2d_20">
     <path d="M 190.634801 64.938437 
L 210.634801 64.938437 
" style="fill:none;stroke:#1f77b4;stroke-linecap:square;stroke-width:1.5;"/>
    </g>
    <g id="line2d_21"/>
    <g id="text_20">
     <!-- Train from scratch -->
     <g transform="translate(218.634801 68.438437)scale(0.1 -0.1)">
      <defs>
       <path d="M -0.296875 72.90625 
L 61.375 72.90625 
L 61.375 64.59375 
L 35.5 64.59375 
L 35.5 0 
L 25.59375 0 
L 25.59375 64.59375 
L -0.296875 64.59375 
z
" id="DejaVuSans-84"/>
       <path d="M 41.109375 46.296875 
Q 39.59375 47.171875 37.8125 47.578125 
Q 36.03125 48 33.890625 48 
Q 26.265625 48 22.1875 43.046875 
Q 18.109375 38.09375 18.109375 28.8125 
L 18.109375 0 
L 9.078125 0 
L 9.078125 54.6875 
L 18.109375 54.6875 
L 18.109375 46.1875 
Q 20.953125 51.171875 25.484375 53.578125 
Q 30.03125 56 36.53125 56 
Q 37.453125 56 38.578125 55.875 
Q 39.703125 55.765625 41.0625 55.515625 
z
" id="DejaVuSans-114"/>
       <path d="M 34.28125 27.484375 
Q 23.390625 27.484375 19.1875 25 
Q 14.984375 22.515625 14.984375 16.5 
Q 14.984375 11.71875 18.140625 8.90625 
Q 21.296875 6.109375 26.703125 6.109375 
Q 34.1875 6.109375 38.703125 11.40625 
Q 43.21875 16.703125 43.21875 25.484375 
L 43.21875 27.484375 
z
M 52.203125 31.203125 
L 52.203125 0 
L 43.21875 0 
L 43.21875 8.296875 
Q 40.140625 3.328125 35.546875 0.953125 
Q 30.953125 -1.421875 24.3125 -1.421875 
Q 15.921875 -1.421875 10.953125 3.296875 
Q 6 8.015625 6 15.921875 
Q 6 25.140625 12.171875 29.828125 
Q 18.359375 34.515625 30.609375 34.515625 
L 43.21875 34.515625 
L 43.21875 35.40625 
Q 43.21875 41.609375 39.140625 45 
Q 35.0625 48.390625 27.6875 48.390625 
Q 23 48.390625 18.546875 47.265625 
Q 14.109375 46.140625 10.015625 43.890625 
L 10.015625 52.203125 
Q 14.9375 54.109375 19.578125 55.046875 
Q 24.21875 56 28.609375 56 
Q 40.484375 56 46.34375 49.84375 
Q 52.203125 43.703125 52.203125 31.203125 
z
" id="DejaVuSans-97"/>
       <path d="M 9.421875 54.6875 
L 18.40625 54.6875 
L 18.40625 0 
L 9.421875 0 
z
M 9.421875 75.984375 
L 18.40625 75.984375 
L 18.40625 64.59375 
L 9.421875 64.59375 
z
" id="DejaVuSans-105"/>
       <path d="M 54.890625 33.015625 
L 54.890625 0 
L 45.90625 0 
L 45.90625 32.71875 
Q 45.90625 40.484375 42.875 44.328125 
Q 39.84375 48.1875 33.796875 48.1875 
Q 26.515625 48.1875 22.3125 43.546875 
Q 18.109375 38.921875 18.109375 30.90625 
L 18.109375 0 
L 9.078125 0 
L 9.078125 54.6875 
L 18.109375 54.6875 
L 18.109375 46.1875 
Q 21.34375 51.125 25.703125 53.5625 
Q 30.078125 56 35.796875 56 
Q 45.21875 56 50.046875 50.171875 
Q 54.890625 44.34375 54.890625 33.015625 
z
" id="DejaVuSans-110"/>
       <path id="DejaVuSans-32"/>
       <path d="M 37.109375 75.984375 
L 37.109375 68.5 
L 28.515625 68.5 
Q 23.6875 68.5 21.796875 66.546875 
Q 19.921875 64.59375 19.921875 59.515625 
L 19.921875 54.6875 
L 34.71875 54.6875 
L 34.71875 47.703125 
L 19.921875 47.703125 
L 19.921875 0 
L 10.890625 0 
L 10.890625 47.703125 
L 2.296875 47.703125 
L 2.296875 54.6875 
L 10.890625 54.6875 
L 10.890625 58.5 
Q 10.890625 67.625 15.140625 71.796875 
Q 19.390625 75.984375 28.609375 75.984375 
z
" id="DejaVuSans-102"/>
       <path d="M 52 44.1875 
Q 55.375 50.25 60.0625 53.125 
Q 64.75 56 71.09375 56 
Q 79.640625 56 84.28125 50.015625 
Q 88.921875 44.046875 88.921875 33.015625 
L 88.921875 0 
L 79.890625 0 
L 79.890625 32.71875 
Q 79.890625 40.578125 77.09375 44.375 
Q 74.3125 48.1875 68.609375 48.1875 
Q 61.625 48.1875 57.5625 43.546875 
Q 53.515625 38.921875 53.515625 30.90625 
L 53.515625 0 
L 44.484375 0 
L 44.484375 32.71875 
Q 44.484375 40.625 41.703125 44.40625 
Q 38.921875 48.1875 33.109375 48.1875 
Q 26.21875 48.1875 22.15625 43.53125 
Q 18.109375 38.875 18.109375 30.90625 
L 18.109375 0 
L 9.078125 0 
L 9.078125 54.6875 
L 18.109375 54.6875 
L 18.109375 46.1875 
Q 21.1875 51.21875 25.484375 53.609375 
Q 29.78125 56 35.6875 56 
Q 41.65625 56 45.828125 52.96875 
Q 50 49.953125 52 44.1875 
z
" id="DejaVuSans-109"/>
       <path d="M 44.28125 53.078125 
L 44.28125 44.578125 
Q 40.484375 46.53125 36.375 47.5 
Q 32.28125 48.484375 27.875 48.484375 
Q 21.1875 48.484375 17.84375 46.4375 
Q 14.5 44.390625 14.5 40.28125 
Q 14.5 37.15625 16.890625 35.375 
Q 19.28125 33.59375 26.515625 31.984375 
L 29.59375 31.296875 
Q 39.15625 29.25 43.1875 25.515625 
Q 47.21875 21.78125 47.21875 15.09375 
Q 47.21875 7.46875 41.1875 3.015625 
Q 35.15625 -1.421875 24.609375 -1.421875 
Q 20.21875 -1.421875 15.453125 -0.5625 
Q 10.6875 0.296875 5.421875 2 
L 5.421875 11.28125 
Q 10.40625 8.6875 15.234375 7.390625 
Q 20.0625 6.109375 24.8125 6.109375 
Q 31.15625 6.109375 34.5625 8.28125 
Q 37.984375 10.453125 37.984375 14.40625 
Q 37.984375 18.0625 35.515625 20.015625 
Q 33.0625 21.96875 24.703125 23.78125 
L 21.578125 24.515625 
Q 13.234375 26.265625 9.515625 29.90625 
Q 5.8125 33.546875 5.8125 39.890625 
Q 5.8125 47.609375 11.28125 51.796875 
Q 16.75 56 26.8125 56 
Q 31.78125 56 36.171875 55.265625 
Q 40.578125 54.546875 44.28125 53.078125 
z
" id="DejaVuSans-115"/>
       <path d="M 18.3125 70.21875 
L 18.3125 54.6875 
L 36.8125 54.6875 
L 36.8125 47.703125 
L 18.3125 47.703125 
L 18.3125 18.015625 
Q 18.3125 11.328125 20.140625 9.421875 
Q 21.96875 7.515625 27.59375 7.515625 
L 36.8125 7.515625 
L 36.8125 0 
L 27.59375 0 
Q 17.1875 0 13.234375 3.875 
Q 9.28125 7.765625 9.28125 18.015625 
L 9.28125 47.703125 
L 2.6875 47.703125 
L 2.6875 54.6875 
L 9.28125 54.6875 
L 9.28125 70.21875 
z
" id="DejaVuSans-116"/>
      </defs>
      <use xlink:href="#DejaVuSans-84"/>
      <use x="46.333984" xlink:href="#DejaVuSans-114"/>
      <use x="87.447266" xlink:href="#DejaVuSans-97"/>
      <use x="148.726562" xlink:href="#DejaVuSans-105"/>
      <use x="176.509766" xlink:href="#DejaVuSans-110"/>
      <use x="239.888672" xlink:href="#DejaVuSans-32"/>
      <use x="271.675781" xlink:href="#DejaVuSans-102"/>
      <use x="306.880859" xlink:href="#DejaVuSans-114"/>
      <use x="345.744141" xlink:href="#DejaVuSans-111"/>
      <use x="406.925781" xlink:href="#DejaVuSans-109"/>
      <use x="504.337891" xlink:href="#DejaVuSans-32"/>
      <use x="536.125" xlink:href="#DejaVuSans-115"/>
      <use x="588.224609" xlink:href="#DejaVuSans-99"/>
      <use x="643.205078" xlink:href="#DejaVuSans-114"/>
      <use x="684.318359" xlink:href="#DejaVuSans-97"/>
      <use x="745.597656" xlink:href="#DejaVuSans-116"/>
      <use x="784.806641" xlink:href="#DejaVuSans-99"/>
      <use x="839.787109" xlink:href="#DejaVuSans-104"/>
     </g>
    </g>
    <g id="line2d_22">
     <path d="M 190.634801 79.616562 
L 210.634801 79.616562 
" style="fill:none;stroke:#ff7f0e;stroke-linecap:square;stroke-width:1.5;"/>
    </g>
    <g id="line2d_23"/>
    <g id="text_21">
     <!-- Train from synthetic-3d -->
     <g transform="translate(218.634801 83.116562)scale(0.1 -0.1)">
      <defs>
       <path d="M 32.171875 -5.078125 
Q 28.375 -14.84375 24.75 -17.8125 
Q 21.140625 -20.796875 15.09375 -20.796875 
L 7.90625 -20.796875 
L 7.90625 -13.28125 
L 13.1875 -13.28125 
Q 16.890625 -13.28125 18.9375 -11.515625 
Q 21 -9.765625 23.484375 -3.21875 
L 25.09375 0.875 
L 2.984375 54.6875 
L 12.5 54.6875 
L 29.59375 11.921875 
L 46.6875 54.6875 
L 56.203125 54.6875 
z
" id="DejaVuSans-121"/>
       <path d="M 56.203125 29.59375 
L 56.203125 25.203125 
L 14.890625 25.203125 
Q 15.484375 15.921875 20.484375 11.0625 
Q 25.484375 6.203125 34.421875 6.203125 
Q 39.59375 6.203125 44.453125 7.46875 
Q 49.3125 8.734375 54.109375 11.28125 
L 54.109375 2.78125 
Q 49.265625 0.734375 44.1875 -0.34375 
Q 39.109375 -1.421875 33.890625 -1.421875 
Q 20.796875 -1.421875 13.15625 6.1875 
Q 5.515625 13.8125 5.515625 26.8125 
Q 5.515625 40.234375 12.765625 48.109375 
Q 20.015625 56 32.328125 56 
Q 43.359375 56 49.78125 48.890625 
Q 56.203125 41.796875 56.203125 29.59375 
z
M 47.21875 32.234375 
Q 47.125 39.59375 43.09375 43.984375 
Q 39.0625 48.390625 32.421875 48.390625 
Q 24.90625 48.390625 20.390625 44.140625 
Q 15.875 39.890625 15.1875 32.171875 
z
" id="DejaVuSans-101"/>
       <path d="M 4.890625 31.390625 
L 31.203125 31.390625 
L 31.203125 23.390625 
L 4.890625 23.390625 
z
" id="DejaVuSans-45"/>
       <path d="M 45.40625 46.390625 
L 45.40625 75.984375 
L 54.390625 75.984375 
L 54.390625 0 
L 45.40625 0 
L 45.40625 8.203125 
Q 42.578125 3.328125 38.25 0.953125 
Q 33.9375 -1.421875 27.875 -1.421875 
Q 17.96875 -1.421875 11.734375 6.484375 
Q 5.515625 14.40625 5.515625 27.296875 
Q 5.515625 40.1875 11.734375 48.09375 
Q 17.96875 56 27.875 56 
Q 33.9375 56 38.25 53.625 
Q 42.578125 51.265625 45.40625 46.390625 
z
M 14.796875 27.296875 
Q 14.796875 17.390625 18.875 11.75 
Q 22.953125 6.109375 30.078125 6.109375 
Q 37.203125 6.109375 41.296875 11.75 
Q 45.40625 17.390625 45.40625 27.296875 
Q 45.40625 37.203125 41.296875 42.84375 
Q 37.203125 48.484375 30.078125 48.484375 
Q 22.953125 48.484375 18.875 42.84375 
Q 14.796875 37.203125 14.796875 27.296875 
z
" id="DejaVuSans-100"/>
      </defs>
      <use xlink:href="#DejaVuSans-84"/>
      <use x="46.333984" xlink:href="#DejaVuSans-114"/>
      <use x="87.447266" xlink:href="#DejaVuSans-97"/>
      <use x="148.726562" xlink:href="#DejaVuSans-105"/>
      <use x="176.509766" xlink:href="#DejaVuSans-110"/>
      <use x="239.888672" xlink:href="#DejaVuSans-32"/>
      <use x="271.675781" xlink:href="#DejaVuSans-102"/>
      <use x="306.880859" xlink:href="#DejaVuSans-114"/>
      <use x="345.744141" xlink:href="#DejaVuSans-111"/>
      <use x="406.925781" xlink:href="#DejaVuSans-109"/>
      <use x="504.337891" xlink:href="#DejaVuSans-32"/>
      <use x="536.125" xlink:href="#DejaVuSans-115"/>
      <use x="588.224609" xlink:href="#DejaVuSans-121"/>
      <use x="647.404297" xlink:href="#DejaVuSans-110"/>
      <use x="710.783203" xlink:href="#DejaVuSans-116"/>
      <use x="749.992188" xlink:href="#DejaVuSans-104"/>
      <use x="813.371094" xlink:href="#DejaVuSans-101"/>
      <use x="874.894531" xlink:href="#DejaVuSans-116"/>
      <use x="914.103516" xlink:href="#DejaVuSans-105"/>
      <use x="941.886719" xlink:href="#DejaVuSans-99"/>
      <use x="996.867188" xlink:href="#DejaVuSans-45"/>
      <use x="1032.951172" xlink:href="#DejaVuSans-51"/>
      <use x="1096.574219" xlink:href="#DejaVuSans-100"/>
     </g>
    </g>
   </g>
  </g>
  <g id="axes_2">
   <g id="patch_8">
    <path d="M 394.363636 384.48 
L 648 384.48 
L 648 51.84 
L 394.363636 51.84 
z
" style="fill:#ffffff;"/>
   </g>
   <g id="matplotlib.axis_3">
    <g id="xtick_10">
     <g id="line2d_24">
      <g>
       <use style="stroke:#000000;stroke-width:0.8;" x="394.363636" xlink:href="#m6d185c4735" y="384.48"/>
      </g>
     </g>
     <g id="text_22">
      <!-- 0 -->
      <g transform="translate(391.182386 399.078438)scale(0.1 -0.1)">
       <use xlink:href="#DejaVuSans-48"/>
      </g>
     </g>
    </g>
    <g id="xtick_11">
     <g id="line2d_25">
      <g>
       <use style="stroke:#000000;stroke-width:0.8;" x="426.068182" xlink:href="#m6d185c4735" y="384.48"/>
      </g>
     </g>
     <g id="text_23">
      <!-- 50 -->
      <g transform="translate(419.705682 399.078438)scale(0.1 -0.1)">
       <use xlink:href="#DejaVuSans-53"/>
       <use x="63.623047" xlink:href="#DejaVuSans-48"/>
      </g>
     </g>
    </g>
    <g id="xtick_12">
     <g id="line2d_26">
      <g>
       <use style="stroke:#000000;stroke-width:0.8;" x="457.772727" xlink:href="#m6d185c4735" y="384.48"/>
      </g>
     </g>
     <g id="text_24">
      <!-- 100 -->
      <g transform="translate(448.228977 399.078438)scale(0.1 -0.1)">
       <use xlink:href="#DejaVuSans-49"/>
       <use x="63.623047" xlink:href="#DejaVuSans-48"/>
       <use x="127.246094" xlink:href="#DejaVuSans-48"/>
      </g>
     </g>
    </g>
    <g id="xtick_13">
     <g id="line2d_27">
      <g>
       <use style="stroke:#000000;stroke-width:0.8;" x="489.477273" xlink:href="#m6d185c4735" y="384.48"/>
      </g>
     </g>
     <g id="text_25">
      <!-- 150 -->
      <g transform="translate(479.933523 399.078438)scale(0.1 -0.1)">
       <use xlink:href="#DejaVuSans-49"/>
       <use x="63.623047" xlink:href="#DejaVuSans-53"/>
       <use x="127.246094" xlink:href="#DejaVuSans-48"/>
      </g>
     </g>
    </g>
    <g id="xtick_14">
     <g id="line2d_28">
      <g>
       <use style="stroke:#000000;stroke-width:0.8;" x="521.181818" xlink:href="#m6d185c4735" y="384.48"/>
      </g>
     </g>
     <g id="text_26">
      <!-- 200 -->
      <g transform="translate(511.638068 399.078438)scale(0.1 -0.1)">
       <use xlink:href="#DejaVuSans-50"/>
       <use x="63.623047" xlink:href="#DejaVuSans-48"/>
       <use x="127.246094" xlink:href="#DejaVuSans-48"/>
      </g>
     </g>
    </g>
    <g id="xtick_15">
     <g id="line2d_29">
      <g>
       <use style="stroke:#000000;stroke-width:0.8;" x="552.886364" xlink:href="#m6d185c4735" y="384.48"/>
      </g>
     </g>
     <g id="text_27">
      <!-- 250 -->
      <g transform="translate(543.342614 399.078438)scale(0.1 -0.1)">
       <use xlink:href="#DejaVuSans-50"/>
       <use x="63.623047" xlink:href="#DejaVuSans-53"/>
       <use x="127.246094" xlink:href="#DejaVuSans-48"/>
      </g>
     </g>
    </g>
    <g id="xtick_16">
     <g id="line2d_30">
      <g>
       <use style="stroke:#000000;stroke-width:0.8;" x="584.590909" xlink:href="#m6d185c4735" y="384.48"/>
      </g>
     </g>
     <g id="text_28">
      <!-- 300 -->
      <g transform="translate(575.047159 399.078438)scale(0.1 -0.1)">
       <use xlink:href="#DejaVuSans-51"/>
       <use x="63.623047" xlink:href="#DejaVuSans-48"/>
       <use x="127.246094" xlink:href="#DejaVuSans-48"/>
      </g>
     </g>
    </g>
    <g id="xtick_17">
     <g id="line2d_31">
      <g>
       <use style="stroke:#000000;stroke-width:0.8;" x="616.295455" xlink:href="#m6d185c4735" y="384.48"/>
      </g>
     </g>
     <g id="text_29">
      <!-- 350 -->
      <g transform="translate(606.751705 399.078438)scale(0.1 -0.1)">
       <use xlink:href="#DejaVuSans-51"/>
       <use x="63.623047" xlink:href="#DejaVuSans-53"/>
       <use x="127.246094" xlink:href="#DejaVuSans-48"/>
      </g>
     </g>
    </g>
    <g id="xtick_18">
     <g id="line2d_32">
      <g>
       <use style="stroke:#000000;stroke-width:0.8;" x="648" xlink:href="#m6d185c4735" y="384.48"/>
      </g>
     </g>
     <g id="text_30">
      <!-- 400 -->
      <g transform="translate(638.45625 399.078438)scale(0.1 -0.1)">
       <use xlink:href="#DejaVuSans-52"/>
       <use x="63.623047" xlink:href="#DejaVuSans-48"/>
       <use x="127.246094" xlink:href="#DejaVuSans-48"/>
      </g>
     </g>
    </g>
    <g id="text_31">
     <!-- Epoch -->
     <g transform="translate(505.870881 412.756563)scale(0.1 -0.1)">
      <use xlink:href="#DejaVuSans-69"/>
      <use x="63.183594" xlink:href="#DejaVuSans-112"/>
      <use x="126.660156" xlink:href="#DejaVuSans-111"/>
      <use x="187.841797" xlink:href="#DejaVuSans-99"/>
      <use x="242.822266" xlink:href="#DejaVuSans-104"/>
     </g>
    </g>
   </g>
   <g id="matplotlib.axis_4">
    <g id="ytick_9">
     <g id="line2d_33">
      <g>
       <use style="stroke:#000000;stroke-width:0.8;" x="394.363636" xlink:href="#m37a73c838b" y="384.290728"/>
      </g>
     </g>
     <g id="text_32">
      <!-- 50 -->
      <g transform="translate(374.638636 388.089947)scale(0.1 -0.1)">
       <use xlink:href="#DejaVuSans-53"/>
       <use x="63.623047" xlink:href="#DejaVuSans-48"/>
      </g>
     </g>
    </g>
    <g id="ytick_10">
     <g id="line2d_34">
      <g>
       <use style="stroke:#000000;stroke-width:0.8;" x="394.363636" xlink:href="#m37a73c838b" y="318.342283"/>
      </g>
     </g>
     <g id="text_33">
      <!-- 100 -->
      <g transform="translate(368.276136 322.141502)scale(0.1 -0.1)">
       <use xlink:href="#DejaVuSans-49"/>
       <use x="63.623047" xlink:href="#DejaVuSans-48"/>
       <use x="127.246094" xlink:href="#DejaVuSans-48"/>
      </g>
     </g>
    </g>
    <g id="ytick_11">
     <g id="line2d_35">
      <g>
       <use style="stroke:#000000;stroke-width:0.8;" x="394.363636" xlink:href="#m37a73c838b" y="252.393838"/>
      </g>
     </g>
     <g id="text_34">
      <!-- 150 -->
      <g transform="translate(368.276136 256.193057)scale(0.1 -0.1)">
       <use xlink:href="#DejaVuSans-49"/>
       <use x="63.623047" xlink:href="#DejaVuSans-53"/>
       <use x="127.246094" xlink:href="#DejaVuSans-48"/>
      </g>
     </g>
    </g>
    <g id="ytick_12">
     <g id="line2d_36">
      <g>
       <use style="stroke:#000000;stroke-width:0.8;" x="394.363636" xlink:href="#m37a73c838b" y="186.445393"/>
      </g>
     </g>
     <g id="text_35">
      <!-- 200 -->
      <g transform="translate(368.276136 190.244612)scale(0.1 -0.1)">
       <use xlink:href="#DejaVuSans-50"/>
       <use x="63.623047" xlink:href="#DejaVuSans-48"/>
       <use x="127.246094" xlink:href="#DejaVuSans-48"/>
      </g>
     </g>
    </g>
    <g id="ytick_13">
     <g id="line2d_37">
      <g>
       <use style="stroke:#000000;stroke-width:0.8;" x="394.363636" xlink:href="#m37a73c838b" y="120.496948"/>
      </g>
     </g>
     <g id="text_36">
      <!-- 250 -->
      <g transform="translate(368.276136 124.296166)scale(0.1 -0.1)">
       <use xlink:href="#DejaVuSans-50"/>
       <use x="63.623047" xlink:href="#DejaVuSans-53"/>
       <use x="127.246094" xlink:href="#DejaVuSans-48"/>
      </g>
     </g>
    </g>
    <g id="ytick_14">
     <g id="line2d_38">
      <g>
       <use style="stroke:#000000;stroke-width:0.8;" x="394.363636" xlink:href="#m37a73c838b" y="54.548503"/>
      </g>
     </g>
     <g id="text_37">
      <!-- 300 -->
      <g transform="translate(368.276136 58.347721)scale(0.1 -0.1)">
       <use xlink:href="#DejaVuSans-51"/>
       <use x="63.623047" xlink:href="#DejaVuSans-48"/>
       <use x="127.246094" xlink:href="#DejaVuSans-48"/>
      </g>
     </g>
    </g>
    <g id="text_38">
     <!-- MSE -->
     <g transform="translate(362.196449 228.807656)rotate(-90)scale(0.1 -0.1)">
      <defs>
       <path d="M 53.515625 70.515625 
L 53.515625 60.890625 
Q 47.90625 63.578125 42.921875 64.890625 
Q 37.9375 66.21875 33.296875 66.21875 
Q 25.25 66.21875 20.875 63.09375 
Q 16.5 59.96875 16.5 54.203125 
Q 16.5 49.359375 19.40625 46.890625 
Q 22.3125 44.4375 30.421875 42.921875 
L 36.375 41.703125 
Q 47.40625 39.59375 52.65625 34.296875 
Q 57.90625 29 57.90625 20.125 
Q 57.90625 9.515625 50.796875 4.046875 
Q 43.703125 -1.421875 29.984375 -1.421875 
Q 24.8125 -1.421875 18.96875 -0.25 
Q 13.140625 0.921875 6.890625 3.21875 
L 6.890625 13.375 
Q 12.890625 10.015625 18.65625 8.296875 
Q 24.421875 6.59375 29.984375 6.59375 
Q 38.421875 6.59375 43.015625 9.90625 
Q 47.609375 13.234375 47.609375 19.390625 
Q 47.609375 24.75 44.3125 27.78125 
Q 41.015625 30.8125 33.5 32.328125 
L 27.484375 33.5 
Q 16.453125 35.6875 11.515625 40.375 
Q 6.59375 45.0625 6.59375 53.421875 
Q 6.59375 63.09375 13.40625 68.65625 
Q 20.21875 74.21875 32.171875 74.21875 
Q 37.3125 74.21875 42.625 73.28125 
Q 47.953125 72.359375 53.515625 70.515625 
z
" id="DejaVuSans-83"/>
      </defs>
      <use xlink:href="#DejaVuSans-77"/>
      <use x="86.279297" xlink:href="#DejaVuSans-83"/>
      <use x="149.755859" xlink:href="#DejaVuSans-69"/>
     </g>
    </g>
   </g>
   <g id="line2d_39">
    <path clip-path="url(#p604ab11e11)" d="M 394.363636 66.96 
L 394.997727 125.311184 
L 395.631818 118.465736 
L 396.265909 117.634785 
L 396.9 111.185027 
L 398.168182 137.867768 
L 398.802273 166.449824 
L 399.436364 137.089576 
L 400.070455 190.586955 
L 400.704545 166.19922 
L 401.338636 183.016074 
L 401.972727 202.958883 
L 402.606818 201.046379 
L 403.240909 213.405117 
L 403.875 209.791142 
L 404.509091 219.432805 
L 405.143182 204.053628 
L 405.777273 200.320946 
L 406.411364 212.758822 
L 407.045455 176.038728 
L 407.679545 203.420523 
L 408.313636 219.023925 
L 408.947727 216.610212 
L 409.581818 223.693075 
L 410.215909 199.081115 
L 410.85 227.570843 
L 411.484091 231.751975 
L 412.118182 229.654814 
L 412.752273 223.231435 
L 413.386364 233.849135 
L 414.020455 230.050505 
L 414.654545 206.889411 
L 415.288636 226.990497 
L 415.922727 216.016676 
L 416.556818 227.122394 
L 417.825 184.03168 
L 418.459091 216.174952 
L 419.093182 209.303124 
L 419.727273 207.812689 
L 420.361364 240.892429 
L 420.995455 215.436329 
L 421.629545 219.459184 
L 422.263636 231.844302 
L 422.897727 240.984757 
L 423.531818 236.223279 
L 424.165909 238.557854 
L 424.8 215.40995 
L 425.434091 227.425757 
L 426.068182 210.411058 
L 426.702273 243.081917 
L 427.336364 235.563795 
L 427.970455 218.694182 
L 428.604545 226.212305 
L 429.238636 237.832421 
L 429.872727 221.371689 
L 430.506818 244.110713 
L 431.140909 214.816414 
L 431.775 243.530367 
L 432.409091 232.728012 
L 433.043182 237.001471 
L 433.677273 245.759424 
L 434.311364 237.159747 
L 434.945455 221.266172 
L 435.579545 234.033791 
L 436.213636 224.708681 
L 436.847727 225.407734 
L 437.481818 252.446597 
L 438.115909 253.290737 
L 438.75 229.918608 
L 439.384091 216.491504 
L 440.018182 245.165888 
L 440.652273 227.465326 
L 441.286364 239.771305 
L 441.920455 260.79567 
L 442.554545 221.75419 
L 443.188636 246.920117 
L 443.822727 246.326581 
L 444.456818 253.13246 
L 445.090909 246.313391 
L 445.725 245.482441 
L 446.359091 256.166089 
L 446.993182 239.837254 
L 447.627273 215.146156 
L 448.261364 227.082825 
L 448.895455 243.266573 
L 449.529545 224.972474 
L 450.163636 235.405518 
L 450.797727 260.78248 
L 451.431818 234.548189 
L 452.065909 260.874808 
L 452.7 253.673238 
L 453.334091 255.150483 
L 453.968182 273.391823 
L 454.602273 242.738985 
L 455.236364 260.215323 
L 455.870455 262.813692 
L 457.138636 259.450321 
L 457.772727 249.056847 
L 458.406818 260.703342 
L 459.040909 249.307451 
L 459.675 271.096817 
L 460.309091 267.443273 
L 460.943182 269.171122 
L 461.577273 262.167397 
L 462.211364 257.300402 
L 462.845455 250.560471 
L 463.479545 267.047582 
L 464.113636 259.674546 
L 464.747727 259.766874 
L 465.381818 280.118564 
L 466.015909 272.996132 
L 466.65 273.418202 
L 467.284091 239.771305 
L 467.918182 267.284997 
L 468.552273 275.568121 
L 469.186364 268.84138 
L 469.820455 257.959887 
L 470.454545 255.480225 
L 471.088636 284.444782 
L 471.722727 282.070638 
L 472.356818 254.161256 
L 472.990909 279.168907 
L 473.625 262.378432 
L 474.259091 278.047783 
L 474.893182 257.933507 
L 475.527273 259.344804 
L 476.161364 273.589668 
L 476.795455 248.713915 
L 477.429545 268.920518 
L 478.063636 282.387191 
L 478.697727 262.853261 
L 479.331818 272.310268 
L 479.965909 272.059664 
L 480.6 269.68552 
L 481.234091 272.719149 
L 481.868182 254.490998 
L 482.502273 279.933908 
L 483.136364 273.972169 
L 483.770455 272.283889 
L 484.404545 290.551608 
L 485.038636 272.943373 
L 485.672727 268.023619 
L 486.306818 250.62642 
L 486.940909 267.258617 
L 487.575 274.684412 
L 488.209091 279.274424 
L 488.843182 254.939448 
L 489.477273 290.380142 
L 490.111364 273.352254 
L 490.745455 271.505697 
L 492.013636 278.087352 
L 492.647727 260.914377 
L 493.281818 270.714316 
L 493.915909 265.86051 
L 494.55 272.402596 
L 495.184091 261.230929 
L 495.818182 261.481534 
L 496.452273 286.621081 
L 497.086364 275.581311 
L 497.720455 285.908838 
L 498.354545 278.206059 
L 498.988636 266.889306 
L 499.622727 261.850845 
L 500.256818 274.750361 
L 500.890909 271.571646 
L 501.525 266.269391 
L 502.159091 274.552515 
L 502.793182 264.409645 
L 503.427273 267.364135 
L 504.061364 266.203442 
L 504.695455 282.611415 
L 505.329545 292.015664 
L 505.963636 281.938741 
L 506.597727 284.484351 
L 507.231818 274.117256 
L 507.865909 274.051307 
L 508.5 265.148267 
L 509.134091 272.389406 
L 509.768182 256.271606 
L 510.402273 272.521303 
L 511.036364 253.897462 
L 512.304545 279.907529 
L 512.938636 269.975693 
L 514.206818 284.5503 
L 514.840909 270.358194 
L 515.475 271.875009 
L 516.109091 287.148668 
L 516.743182 258.118163 
L 517.377273 269.975693 
L 518.011364 287.702635 
L 518.645455 269.237071 
L 519.279545 280.435117 
L 519.913636 274.987775 
L 520.547727 283.191762 
L 521.181818 274.631654 
L 521.815909 284.392023 
L 522.45 285.091077 
L 523.084091 269.210691 
L 523.718182 281.951931 
L 524.352273 282.519088 
L 524.986364 259.50308 
L 525.620455 276.201227 
L 526.254545 280.69891 
L 526.888636 298.452232 
L 527.522727 282.980727 
L 528.156818 285.579095 
L 528.790909 299.82396 
L 530.059091 272.996132 
L 530.693182 262.681795 
L 531.327273 285.631854 
L 531.961364 269.105174 
L 532.595455 285.341681 
L 533.229545 269.817417 
L 533.863636 260.3736 
L 534.497727 277.401488 
L 535.131818 284.088661 
L 535.765909 281.081411 
L 536.4 283.613832 
L 537.034091 270.569229 
L 537.668182 276.504589 
L 538.936364 286.172631 
L 539.570455 280.105374 
L 540.204545 272.877425 
L 540.838636 280.237271 
L 541.472727 292.16075 
L 542.106818 301.51224 
L 542.740909 265.781372 
L 543.375 283.508314 
L 544.009091 290.089969 
L 544.643182 272.112423 
L 545.277273 278.364335 
L 545.911364 277.493816 
L 546.545455 260.109806 
L 547.179545 283.772108 
L 547.813636 284.12823 
L 548.447727 267.377325 
L 549.081818 286.053924 
L 549.715909 293.980927 
L 550.35 279.498649 
L 550.984091 299.692063 
L 551.618182 274.592084 
L 552.252273 279.894339 
L 552.886364 270.476901 
L 553.520455 281.107791 
L 554.154545 288.75781 
L 554.788636 277.75761 
L 555.422727 276.003381 
L 556.056818 273.180788 
L 557.325 289.61514 
L 557.959091 283.073054 
L 558.593182 290.868161 
L 559.227273 274.315101 
L 559.861364 277.863127 
L 560.495455 276.135278 
L 561.129545 277.995024 
L 561.763636 285.974786 
L 562.397727 281.885982 
L 563.031818 279.85477 
L 563.665909 273.642427 
L 564.3 263.908436 
L 564.934091 272.705959 
L 565.568182 278.258818 
L 566.202273 280.329599 
L 566.836364 289.694278 
L 568.104545 258.553423 
L 568.738636 278.905113 
L 569.372727 290.749453 
L 570.006818 276.860711 
L 570.640909 286.383666 
L 571.275 268.287413 
L 571.909091 276.662866 
L 572.543182 286.832116 
L 573.177273 288.836949 
L 573.811364 286.449615 
L 574.445455 255.664881 
L 575.079545 290.129538 
L 575.713636 278.245628 
L 576.347727 288.137895 
L 576.981818 272.600441 
L 577.615909 275.60769 
L 578.25 281.912362 
L 578.884091 273.325874 
L 579.518182 274.816309 
L 580.152273 263.842488 
L 581.420455 283.983143 
L 582.054545 273.405012 
L 582.688636 282.532277 
L 583.322727 289.100742 
L 583.956818 280.29003 
L 584.590909 295.642828 
L 585.225 277.111315 
L 585.859091 278.997441 
L 587.127273 289.021604 
L 587.761364 268.551207 
L 588.395455 268.524827 
L 589.029545 274.671223 
L 589.663636 266.124304 
L 590.297727 284.932801 
L 590.931818 274.869068 
L 591.565909 272.798287 
L 592.2 281.028653 
L 592.834091 261.811276 
L 593.468182 261.864035 
L 594.102273 277.75761 
L 594.736364 287.636687 
L 595.370455 294.350239 
L 596.004545 296.81671 
L 596.638636 274.104066 
L 597.272727 287.09591 
L 597.906818 273.602858 
L 598.540909 270.925351 
L 599.175 273.642427 
L 599.809091 289.575571 
L 600.443182 275.502173 
L 601.077273 276.201227 
L 601.711364 247.63236 
L 602.345455 283.613832 
L 602.979545 284.814093 
L 603.613636 280.962704 
L 604.247727 278.100542 
L 604.881818 270.199918 
L 605.515909 278.548991 
L 606.15 271.241903 
L 606.784091 273.985359 
L 607.418182 269.896555 
L 608.052273 285.36806 
L 608.686364 274.288722 
L 609.320455 286.924444 
L 609.954545 278.034593 
L 610.588636 286.937633 
L 611.222727 292.028853 
L 611.856818 262.114639 
L 612.490909 272.310268 
L 613.759091 267.56198 
L 614.393182 262.193777 
L 615.027273 272.020095 
L 615.661364 289.905313 
L 616.295455 276.306744 
L 616.929545 273.207167 
L 617.563636 277.33554 
L 618.197727 289.760227 
L 618.831818 293.097218 
L 619.465909 282.677364 
L 620.1 275.713208 
L 620.734091 284.840473 
L 621.368182 279.617356 
L 622.002273 271.940957 
L 622.636364 282.769692 
L 623.270455 265.530768 
L 623.904545 296.84309 
L 624.538636 291.659542 
L 625.172727 260.294462 
L 625.806818 295.695587 
L 626.440909 287.06953 
L 627.075 271.017679 
L 627.709091 295.484552 
L 628.343182 270.727506 
L 628.977273 291.870577 
L 629.611364 269.606382 
L 630.245455 287.676256 
L 630.879545 277.995024 
L 631.513636 285.710992 
L 632.147727 268.82819 
L 632.781818 275.726398 
L 633.415909 269.210691 
L 634.05 276.636486 
L 634.684091 280.632962 
L 635.318182 274.935016 
L 635.952273 290.419711 
L 636.586364 282.664174 
L 637.220455 290.630746 
L 637.854545 285.987976 
L 638.488636 298.847923 
L 639.122727 275.304328 
L 639.756818 278.61494 
L 640.390909 283.547883 
L 641.025 295.959381 
L 641.659091 264.858094 
L 642.293182 284.53711 
L 642.927273 262.431191 
L 643.561364 276.517779 
L 644.195455 277.74442 
L 644.829545 290.024021 
L 645.463636 282.664174 
L 646.097727 294.020496 
L 646.731818 273.94579 
L 647.365909 284.840473 
L 648 273.352254 
L 648 273.352254 
" style="fill:none;stroke:#1f77b4;stroke-linecap:square;stroke-width:1.5;"/>
   </g>
   <g id="line2d_40">
    <path clip-path="url(#p604ab11e11)" d="M 394.363636 137.933717 
L 394.997727 199.015166 
L 395.631818 209.500969 
L 396.265909 173.928378 
L 396.9 166.832325 
L 397.534091 203.9613 
L 398.802273 235.682502 
L 399.436364 184.915389 
L 400.070455 241.894845 
L 400.704545 192.868771 
L 401.338636 214.367964 
L 401.972727 225.922132 
L 402.606818 231.277146 
L 403.240909 243.662264 
L 403.875 227.122394 
L 404.509091 237.740093 
L 405.143182 235.893537 
L 405.777273 223.600747 
L 406.411364 245.798993 
L 407.045455 210.516575 
L 407.679545 219.20858 
L 408.313636 257.959887 
L 408.947727 251.87944 
L 410.215909 235.537415 
L 410.85 258.118163 
L 411.484091 271.584835 
L 412.118182 278.562181 
L 412.752273 245.785804 
L 413.386364 264.541541 
L 414.020455 257.841179 
L 414.654545 241.222171 
L 415.288636 276.821142 
L 415.922727 250.059263 
L 416.556818 267.535601 
L 417.190909 255.625312 
L 417.825 231.646457 
L 418.459091 263.196193 
L 419.093182 266.757409 
L 419.727273 275.502173 
L 420.361364 296.130847 
L 420.995455 271.558456 
L 421.629545 267.377325 
L 422.263636 282.308053 
L 422.897727 292.107991 
L 423.531818 299.850339 
L 424.165909 284.655817 
L 424.8 296.275933 
L 425.434091 282.505898 
L 426.068182 286.25177 
L 426.702273 292.015664 
L 427.336364 295.009723 
L 427.970455 301.182497 
L 428.604545 286.871685 
L 429.238636 314.688739 
L 429.872727 290.024021 
L 430.506818 296.711193 
L 431.140909 265.425251 
L 431.775 285.592285 
L 432.409091 266.889306 
L 433.043182 305.772509 
L 433.677273 310.679074 
L 434.311364 303.63578 
L 434.945455 292.767476 
L 435.579545 285.605475 
L 436.213636 295.194379 
L 436.847727 306.735357 
L 437.481818 297.977403 
L 438.115909 324.092987 
L 438.75 295.062482 
L 439.384091 299.415079 
L 440.018182 316.403399 
L 440.652273 299.612924 
L 441.286364 301.419912 
L 441.920455 315.875811 
L 442.554545 290.089969 
L 443.188636 308.344499 
L 443.822727 308.027946 
L 444.456818 319.555734 
L 445.090909 305.535095 
L 445.725 302.949916 
L 446.359091 315.823052 
L 446.993182 289.324967 
L 447.627273 286.752978 
L 448.261364 261.033084 
L 448.895455 290.261435 
L 449.529545 287.900481 
L 450.163636 295.708777 
L 450.797727 309.663468 
L 451.431818 296.170416 
L 452.065909 328.537913 
L 452.7 325.398767 
L 453.334091 328.194981 
L 453.968182 335.132757 
L 454.602273 313.77865 
L 455.236364 330.687832 
L 455.870455 329.553519 
L 456.504545 322.325569 
L 457.138636 345.117352 
L 457.772727 333.629132 
L 458.406818 333.444477 
L 459.040909 330.621883 
L 459.675 344.101746 
L 460.309091 339.340268 
L 460.943182 337.54647 
L 461.577273 338.628025 
L 462.211364 343.204847 
L 462.845455 337.427763 
L 463.479545 343.758814 
L 464.113636 345.948302 
L 464.747727 343.389502 
L 465.381818 340.026132 
L 466.015909 339.524923 
L 466.65 341.991395 
L 467.284091 327.852049 
L 467.918182 345.064593 
L 469.186364 350.393227 
L 469.820455 338.707163 
L 470.454545 347.108995 
L 471.088636 349.0215 
L 471.722727 352.925647 
L 472.356818 342.453034 
L 472.990909 348.507102 
L 473.625 342.334327 
L 474.259091 348.942361 
L 474.893182 340.223977 
L 475.527273 344.035797 
L 476.161364 346.423131 
L 476.795455 332.969648 
L 477.429545 349.944778 
L 478.063636 350.881246 
L 478.697727 342.848725 
L 479.331818 343.020191 
L 479.965909 346.594597 
L 480.6 334.789825 
L 481.234091 346.673735 
L 481.868182 347.913566 
L 482.502273 351.52754 
L 483.136364 353.756598 
L 483.770455 358.834628 
L 484.404545 350.327279 
L 485.038636 344.668902 
L 485.672727 345.011834 
L 486.306818 324.251264 
L 486.940909 350.300899 
L 487.575 347.280461 
L 488.209091 352.754182 
L 488.843182 339.775528 
L 489.477273 351.422023 
L 490.111364 339.722769 
L 490.745455 342.453034 
L 491.379545 343.455451 
L 492.013636 352.872889 
L 492.647727 333.642322 
L 493.281818 352.200215 
L 493.915909 348.493912 
L 494.55 348.942361 
L 495.184091 349.047879 
L 495.818182 337.783885 
L 496.452273 358.781869 
L 497.086364 356.948503 
L 497.720455 359.283078 
L 498.354545 350.749349 
L 498.988636 346.686925 
L 499.622727 347.755289 
L 500.256818 358.241092 
L 500.890909 350.511934 
L 501.525 352.714612 
L 502.159091 346.963908 
L 502.793182 329.645846 
L 503.427273 336.544054 
L 504.061364 348.533481 
L 504.695455 353.862115 
L 505.329545 347.531065 
L 505.963636 353.22901 
L 506.597727 357.832212 
L 507.231818 360.522908 
L 507.865909 350.485555 
L 508.5 348.889603 
L 509.134091 341.37148 
L 509.768182 341.529756 
L 510.402273 351.55392 
L 511.036364 344.74804 
L 511.670455 345.117352 
L 512.304545 347.992704 
L 512.938636 346.502269 
L 513.572727 348.902792 
L 514.206818 354.851342 
L 514.840909 358.201523 
L 515.475 346.383562 
L 516.109091 356.236259 
L 516.743182 353.809357 
L 517.377273 352.556336 
L 518.011364 355.972466 
L 518.645455 347.808048 
L 519.279545 354.50841 
L 519.913636 346.950718 
L 520.547727 355.985655 
L 521.181818 354.389703 
L 521.815909 346.963908 
L 522.45 364.28197 
L 523.084091 348.520291 
L 523.718182 351.580299 
L 524.352273 363.174036 
L 524.986364 353.360907 
L 525.620455 353.65108 
L 526.254545 353.308148 
L 526.888636 357.858591 
L 527.522727 357.265055 
L 528.156818 347.174943 
L 528.790909 356.882554 
L 529.425 356.922123 
L 530.059091 356.711088 
L 530.693182 350.617452 
L 531.327273 352.279353 
L 531.961364 356.658329 
L 532.595455 350.947194 
L 533.229545 349.245724 
L 533.863636 348.744516 
L 534.497727 355.022808 
L 535.131818 364.321539 
L 535.765909 353.2422 
L 536.4 357.542039 
L 537.034091 356.777037 
L 537.668182 358.913766 
L 538.302273 360.074459 
L 539.570455 355.075567 
L 540.204545 337.599229 
L 540.838636 353.044355 
L 541.472727 365.086541 
L 542.106818 363.873089 
L 542.740909 335.43612 
L 543.375 363.068518 
L 544.009091 364.427056 
L 544.643182 352.899268 
L 545.277273 355.207464 
L 545.911364 363.807141 
L 546.545455 346.620976 
L 547.179545 356.038414 
L 547.813636 355.312981 
L 548.447727 350.089864 
L 549.081818 358.966525 
L 549.715909 358.122385 
L 550.35 356.684709 
L 550.984091 360.03489 
L 551.618182 350.986763 
L 552.252273 369.254482 
L 552.886364 345.143731 
L 553.520455 365.323955 
L 554.154545 359.876614 
L 554.788636 366.445079 
L 555.422727 350.907625 
L 556.056818 347.095805 
L 556.690909 356.829795 
L 557.325 360.00851 
L 557.959091 354.877721 
L 558.593182 357.528849 
L 559.227273 355.616344 
L 559.861364 357.04083 
L 560.495455 355.629534 
L 561.129545 355.273412 
L 561.763636 358.584024 
L 562.397727 355.576775 
L 563.031818 351.778145 
L 563.665909 358.33342 
L 564.3 351.13185 
L 564.934091 348.388394 
L 565.568182 358.491696 
L 566.202273 355.405309 
L 566.836364 354.772204 
L 567.470455 358.175144 
L 568.104545 355.36574 
L 568.738636 359.929372 
L 570.006818 340.791134 
L 570.640909 361.973774 
L 571.275 357.093589 
L 571.909091 348.99512 
L 572.543182 359.269888 
L 573.177273 357.344193 
L 573.811364 352.200215 
L 574.445455 340.52734 
L 575.079545 359.203939 
L 575.713636 358.452127 
L 576.347727 360.325063 
L 576.981818 351.672627 
L 577.615909 348.810465 
L 578.25 360.325063 
L 578.884091 363.701623 
L 579.518182 354.917291 
L 580.152273 350.538314 
L 580.786364 357.014451 
L 581.420455 358.808249 
L 582.054545 346.528648 
L 582.688636 366.471458 
L 583.322727 364.479815 
L 583.956818 357.700315 
L 584.590909 365.231627 
L 585.225 350.841677 
L 585.859091 356.64514 
L 586.493182 352.015559 
L 587.127273 361.881446 
L 587.761364 345.987871 
L 588.395455 356.882554 
L 589.029545 350.6834 
L 589.663636 354.719445 
L 590.297727 352.345301 
L 590.931818 347.834428 
L 591.565909 354.152289 
L 592.2 353.110303 
L 592.834091 337.454142 
L 593.468182 349.192965 
L 594.102273 358.280661 
L 594.736364 352.727802 
L 595.370455 364.440246 
L 596.004545 360.338253 
L 596.638636 349.364431 
L 597.272727 365.020592 
L 597.906818 358.227902 
L 599.175 350.722969 
L 599.809091 356.19669 
L 600.443182 354.970049 
L 601.077273 355.075567 
L 601.711364 332.692665 
L 602.345455 350.604262 
L 602.979545 362.052912 
L 603.613636 361.28791 
L 604.247727 361.010927 
L 604.881818 351.184609 
L 605.515909 351.633058 
L 606.15 349.43038 
L 606.784091 363.279553 
L 607.418182 354.270996 
L 608.052273 361.762739 
L 608.686364 359.388595 
L 609.320455 359.863424 
L 609.954545 344.418298 
L 610.588636 360.839461 
L 611.222727 362.857483 
L 611.856818 338.285093 
L 612.490909 352.740992 
L 613.125 342.426655 
L 613.759091 360.44377 
L 614.393182 337.717936 
L 615.027273 346.924339 
L 615.661364 361.037306 
L 616.295455 354.547979 
L 616.929545 362.765155 
L 617.563636 356.025224 
L 618.197727 347.939945 
L 618.831818 359.480923 
L 619.465909 359.731527 
L 620.734091 356.341777 
L 621.368182 353.123493 
L 622.002273 348.533481 
L 622.636364 355.049187 
L 623.270455 352.477198 
L 623.904545 359.256698 
L 625.172727 352.556336 
L 625.806818 359.16437 
L 626.440909 357.858591 
L 627.075 352.041938 
L 627.709091 368.212497 
L 628.343182 363.253174 
L 628.977273 364.123693 
L 629.611364 353.888495 
L 630.879545 358.518076 
L 631.513636 354.09953 
L 632.147727 353.862115 
L 632.781818 357.449711 
L 633.415909 352.028749 
L 634.05 356.289018 
L 634.684091 353.083924 
L 635.318182 350.577883 
L 635.952273 356.025224 
L 636.586364 358.584024 
L 637.220455 367.750858 
L 637.854545 357.449711 
L 638.488636 360.47015 
L 639.122727 357.278245 
L 639.756818 350.788918 
L 640.390909 369.36 
L 641.025 363.543347 
L 641.659091 355.36574 
L 642.293182 349.232535 
L 642.927273 348.190549 
L 643.561364 356.302208 
L 644.195455 358.610403 
L 644.829545 357.964109 
L 645.463636 362.277137 
L 646.097727 354.020392 
L 646.731818 356.157121 
L 647.365909 355.78781 
L 648 360.100838 
L 648 360.100838 
" style="fill:none;stroke:#ff7f0e;stroke-linecap:square;stroke-width:1.5;"/>
   </g>
   <g id="patch_9">
    <path d="M 394.363636 384.48 
L 394.363636 51.84 
" style="fill:none;stroke:#000000;stroke-linecap:square;stroke-linejoin:miter;stroke-width:0.8;"/>
   </g>
   <g id="patch_10">
    <path d="M 648 384.48 
L 648 51.84 
" style="fill:none;stroke:#000000;stroke-linecap:square;stroke-linejoin:miter;stroke-width:0.8;"/>
   </g>
   <g id="patch_11">
    <path d="M 394.363636 384.48 
L 648 384.48 
" style="fill:none;stroke:#000000;stroke-linecap:square;stroke-linejoin:miter;stroke-width:0.8;"/>
   </g>
   <g id="patch_12">
    <path d="M 394.363636 51.84 
L 648 51.84 
" style="fill:none;stroke:#000000;stroke-linecap:square;stroke-linejoin:miter;stroke-width:0.8;"/>
   </g>
   <g id="legend_2">
    <g id="patch_13">
     <path d="M 492.998437 89.19625 
L 641 89.19625 
Q 643 89.19625 643 87.19625 
L 643 58.84 
Q 643 56.84 641 56.84 
L 492.998437 56.84 
Q 490.998437 56.84 490.998437 58.84 
L 490.998437 87.19625 
Q 490.998437 89.19625 492.998437 89.19625 
z
" style="fill:#ffffff;opacity:0.8;stroke:#cccccc;stroke-linejoin:miter;"/>
    </g>
    <g id="line2d_41">
     <path d="M 494.998437 64.938437 
L 514.998437 64.938437 
" style="fill:none;stroke:#1f77b4;stroke-linecap:square;stroke-width:1.5;"/>
    </g>
    <g id="line2d_42"/>
    <g id="text_39">
     <!-- Train from scratch -->
     <g transform="translate(522.998437 68.438437)scale(0.1 -0.1)">
      <use xlink:href="#DejaVuSans-84"/>
      <use x="46.333984" xlink:href="#DejaVuSans-114"/>
      <use x="87.447266" xlink:href="#DejaVuSans-97"/>
      <use x="148.726562" xlink:href="#DejaVuSans-105"/>
      <use x="176.509766" xlink:href="#DejaVuSans-110"/>
      <use x="239.888672" xlink:href="#DejaVuSans-32"/>
      <use x="271.675781" xlink:href="#DejaVuSans-102"/>
      <use x="306.880859" xlink:href="#DejaVuSans-114"/>
      <use x="345.744141" xlink:href="#DejaVuSans-111"/>
      <use x="406.925781" xlink:href="#DejaVuSans-109"/>
      <use x="504.337891" xlink:href="#DejaVuSans-32"/>
      <use x="536.125" xlink:href="#DejaVuSans-115"/>
      <use x="588.224609" xlink:href="#DejaVuSans-99"/>
      <use x="643.205078" xlink:href="#DejaVuSans-114"/>
      <use x="684.318359" xlink:href="#DejaVuSans-97"/>
      <use x="745.597656" xlink:href="#DejaVuSans-116"/>
      <use x="784.806641" xlink:href="#DejaVuSans-99"/>
      <use x="839.787109" xlink:href="#DejaVuSans-104"/>
     </g>
    </g>
    <g id="line2d_43">
     <path d="M 494.998437 79.616562 
L 514.998437 79.616562 
" style="fill:none;stroke:#ff7f0e;stroke-linecap:square;stroke-width:1.5;"/>
    </g>
    <g id="line2d_44"/>
    <g id="text_40">
     <!-- Train from synthetic-3d -->
     <g transform="translate(522.998437 83.116562)scale(0.1 -0.1)">
      <use xlink:href="#DejaVuSans-84"/>
      <use x="46.333984" xlink:href="#DejaVuSans-114"/>
      <use x="87.447266" xlink:href="#DejaVuSans-97"/>
      <use x="148.726562" xlink:href="#DejaVuSans-105"/>
      <use x="176.509766" xlink:href="#DejaVuSans-110"/>
      <use x="239.888672" xlink:href="#DejaVuSans-32"/>
      <use x="271.675781" xlink:href="#DejaVuSans-102"/>
      <use x="306.880859" xlink:href="#DejaVuSans-114"/>
      <use x="345.744141" xlink:href="#DejaVuSans-111"/>
      <use x="406.925781" xlink:href="#DejaVuSans-109"/>
      <use x="504.337891" xlink:href="#DejaVuSans-32"/>
      <use x="536.125" xlink:href="#DejaVuSans-115"/>
      <use x="588.224609" xlink:href="#DejaVuSans-121"/>
      <use x="647.404297" xlink:href="#DejaVuSans-110"/>
      <use x="710.783203" xlink:href="#DejaVuSans-116"/>
      <use x="749.992188" xlink:href="#DejaVuSans-104"/>
      <use x="813.371094" xlink:href="#DejaVuSans-101"/>
      <use x="874.894531" xlink:href="#DejaVuSans-116"/>
      <use x="914.103516" xlink:href="#DejaVuSans-105"/>
      <use x="941.886719" xlink:href="#DejaVuSans-99"/>
      <use x="996.867188" xlink:href="#DejaVuSans-45"/>
      <use x="1032.951172" xlink:href="#DejaVuSans-51"/>
      <use x="1096.574219" xlink:href="#DejaVuSans-100"/>
     </g>
    </g>
   </g>
  </g>
  <g id="text_41">
   <!-- ShanghaiTech PartA -->
   <g transform="translate(300.660937 17.758125)scale(0.12 -0.12)">
    <defs>
     <path d="M 45.40625 27.984375 
Q 45.40625 37.75 41.375 43.109375 
Q 37.359375 48.484375 30.078125 48.484375 
Q 22.859375 48.484375 18.828125 43.109375 
Q 14.796875 37.75 14.796875 27.984375 
Q 14.796875 18.265625 18.828125 12.890625 
Q 22.859375 7.515625 30.078125 7.515625 
Q 37.359375 7.515625 41.375 12.890625 
Q 45.40625 18.265625 45.40625 27.984375 
z
M 54.390625 6.78125 
Q 54.390625 -7.171875 48.1875 -13.984375 
Q 42 -20.796875 29.203125 -20.796875 
Q 24.46875 -20.796875 20.265625 -20.09375 
Q 16.0625 -19.390625 12.109375 -17.921875 
L 12.109375 -9.1875 
Q 16.0625 -11.328125 19.921875 -12.34375 
Q 23.78125 -13.375 27.78125 -13.375 
Q 36.625 -13.375 41.015625 -8.765625 
Q 45.40625 -4.15625 45.40625 5.171875 
L 45.40625 9.625 
Q 42.625 4.78125 38.28125 2.390625 
Q 33.9375 0 27.875 0 
Q 17.828125 0 11.671875 7.65625 
Q 5.515625 15.328125 5.515625 27.984375 
Q 5.515625 40.671875 11.671875 48.328125 
Q 17.828125 56 27.875 56 
Q 33.9375 56 38.28125 53.609375 
Q 42.625 51.21875 45.40625 46.390625 
L 45.40625 54.6875 
L 54.390625 54.6875 
z
" id="DejaVuSans-103"/>
     <path d="M 19.671875 64.796875 
L 19.671875 37.40625 
L 32.078125 37.40625 
Q 38.96875 37.40625 42.71875 40.96875 
Q 46.484375 44.53125 46.484375 51.125 
Q 46.484375 57.671875 42.71875 61.234375 
Q 38.96875 64.796875 32.078125 64.796875 
z
M 9.8125 72.90625 
L 32.078125 72.90625 
Q 44.34375 72.90625 50.609375 67.359375 
Q 56.890625 61.8125 56.890625 51.125 
Q 56.890625 40.328125 50.609375 34.8125 
Q 44.34375 29.296875 32.078125 29.296875 
L 19.671875 29.296875 
L 19.671875 0 
L 9.8125 0 
z
" id="DejaVuSans-80"/>
    </defs>
    <use xlink:href="#DejaVuSans-83"/>
    <use x="63.476562" xlink:href="#DejaVuSans-104"/>
    <use x="126.855469" xlink:href="#DejaVuSans-97"/>
    <use x="188.134766" xlink:href="#DejaVuSans-110"/>
    <use x="251.513672" xlink:href="#DejaVuSans-103"/>
    <use x="314.990234" xlink:href="#DejaVuSans-104"/>
    <use x="378.369141" xlink:href="#DejaVuSans-97"/>
    <use x="439.648438" xlink:href="#DejaVuSans-105"/>
    <use x="467.431641" xlink:href="#DejaVuSans-84"/>
    <use x="511.515625" xlink:href="#DejaVuSans-101"/>
    <use x="573.039062" xlink:href="#DejaVuSans-99"/>
    <use x="628.019531" xlink:href="#DejaVuSans-104"/>
    <use x="691.398438" xlink:href="#DejaVuSans-32"/>
    <use x="723.185547" xlink:href="#DejaVuSans-80"/>
    <use x="778.988281" xlink:href="#DejaVuSans-97"/>
    <use x="840.267578" xlink:href="#DejaVuSans-114"/>
    <use x="881.380859" xlink:href="#DejaVuSans-116"/>
    <use x="920.589844" xlink:href="#DejaVuSans-65"/>
   </g>
  </g>
 </g>
 <defs>
  <clipPath id="pb48813a37d">
   <rect height="332.64" width="253.636364" x="90" y="51.84"/>
  </clipPath>
  <clipPath id="p604ab11e11">
   <rect height="332.64" width="253.636364" x="394.363636" y="51.84"/>
  </clipPath>
 </defs>
</svg>
