<?xml version="1.0" encoding="utf-8" standalone="no"?>
<!DOCTYPE svg PUBLIC "-//W3C//DTD SVG 1.1//EN"
  "http://www.w3.org/Graphics/SVG/1.1/DTD/svg11.dtd">
<!-- Created with matplotlib (https://matplotlib.org/) -->
<svg height="432pt" version="1.1" viewBox="0 0 720 432" width="720pt" xmlns="http://www.w3.org/2000/svg" xmlns:xlink="http://www.w3.org/1999/xlink">
 <metadata>
  <rdf:RDF xmlns:cc="http://creativecommons.org/ns#" xmlns:dc="http://purl.org/dc/elements/1.1/" xmlns:rdf="http://www.w3.org/1999/02/22-rdf-syntax-ns#">
   <cc:Work>
    <dc:type rdf:resource="http://purl.org/dc/dcmitype/StillImage"/>
    <dc:date>2022-01-11T17:38:11.161478</dc:date>
    <dc:format>image/svg+xml</dc:format>
    <dc:creator>
     <cc:Agent>
      <dc:title>Matplotlib v3.3.1, https://matplotlib.org/</dc:title>
     </cc:Agent>
    </dc:creator>
   </cc:Work>
  </rdf:RDF>
 </metadata>
 <defs>
  <style type="text/css">*{stroke-linecap:butt;stroke-linejoin:round;}</style>
 </defs>
 <g id="figure_1">
  <g id="patch_1">
   <path d="M 0 432 
L 720 432 
L 720 0 
L 0 0 
z
" style="fill:#ffffff;"/>
  </g>
  <g id="axes_1">
   <g id="patch_2">
    <path d="M 90 384.48 
L 343.636364 384.48 
L 343.636364 51.84 
L 90 51.84 
z
" style="fill:#ffffff;"/>
   </g>
   <g id="matplotlib.axis_1">
    <g id="xtick_1">
     <g id="line2d_1">
      <defs>
       <path d="M 0 0 
L 0 3.5 
" id="mab329ebf14" style="stroke:#000000;stroke-width:0.8;"/>
      </defs>
      <g>
       <use style="stroke:#000000;stroke-width:0.8;" x="90" xlink:href="#mab329ebf14" y="384.48"/>
      </g>
     </g>
     <g id="text_1">
      <!-- 0 -->
      <g transform="translate(86.81875 399.078438)scale(0.1 -0.1)">
       <defs>
        <path d="M 31.78125 66.40625 
Q 24.171875 66.40625 20.328125 58.90625 
Q 16.5 51.421875 16.5 36.375 
Q 16.5 21.390625 20.328125 13.890625 
Q 24.171875 6.390625 31.78125 6.390625 
Q 39.453125 6.390625 43.28125 13.890625 
Q 47.125 21.390625 47.125 36.375 
Q 47.125 51.421875 43.28125 58.90625 
Q 39.453125 66.40625 31.78125 66.40625 
z
M 31.78125 74.21875 
Q 44.046875 74.21875 50.515625 64.515625 
Q 56.984375 54.828125 56.984375 36.375 
Q 56.984375 17.96875 50.515625 8.265625 
Q 44.046875 -1.421875 31.78125 -1.421875 
Q 19.53125 -1.421875 13.0625 8.265625 
Q 6.59375 17.96875 6.59375 36.375 
Q 6.59375 54.828125 13.0625 64.515625 
Q 19.53125 74.21875 31.78125 74.21875 
z
" id="DejaVuSans-48"/>
       </defs>
       <use xlink:href="#DejaVuSans-48"/>
      </g>
     </g>
    </g>
    <g id="xtick_2">
     <g id="line2d_2">
      <g>
       <use style="stroke:#000000;stroke-width:0.8;" x="121.704545" xlink:href="#mab329ebf14" y="384.48"/>
      </g>
     </g>
     <g id="text_2">
      <!-- 50 -->
      <g transform="translate(115.342045 399.078438)scale(0.1 -0.1)">
       <defs>
        <path d="M 10.796875 72.90625 
L 49.515625 72.90625 
L 49.515625 64.59375 
L 19.828125 64.59375 
L 19.828125 46.734375 
Q 21.96875 47.46875 24.109375 47.828125 
Q 26.265625 48.1875 28.421875 48.1875 
Q 40.625 48.1875 47.75 41.5 
Q 54.890625 34.8125 54.890625 23.390625 
Q 54.890625 11.625 47.5625 5.09375 
Q 40.234375 -1.421875 26.90625 -1.421875 
Q 22.3125 -1.421875 17.546875 -0.640625 
Q 12.796875 0.140625 7.71875 1.703125 
L 7.71875 11.625 
Q 12.109375 9.234375 16.796875 8.0625 
Q 21.484375 6.890625 26.703125 6.890625 
Q 35.15625 6.890625 40.078125 11.328125 
Q 45.015625 15.765625 45.015625 23.390625 
Q 45.015625 31 40.078125 35.4375 
Q 35.15625 39.890625 26.703125 39.890625 
Q 22.75 39.890625 18.8125 39.015625 
Q 14.890625 38.140625 10.796875 36.28125 
z
" id="DejaVuSans-53"/>
       </defs>
       <use xlink:href="#DejaVuSans-53"/>
       <use x="63.623047" xlink:href="#DejaVuSans-48"/>
      </g>
     </g>
    </g>
    <g id="xtick_3">
     <g id="line2d_3">
      <g>
       <use style="stroke:#000000;stroke-width:0.8;" x="153.409091" xlink:href="#mab329ebf14" y="384.48"/>
      </g>
     </g>
     <g id="text_3">
      <!-- 100 -->
      <g transform="translate(143.865341 399.078438)scale(0.1 -0.1)">
       <defs>
        <path d="M 12.40625 8.296875 
L 28.515625 8.296875 
L 28.515625 63.921875 
L 10.984375 60.40625 
L 10.984375 69.390625 
L 28.421875 72.90625 
L 38.28125 72.90625 
L 38.28125 8.296875 
L 54.390625 8.296875 
L 54.390625 0 
L 12.40625 0 
z
" id="DejaVuSans-49"/>
       </defs>
       <use xlink:href="#DejaVuSans-49"/>
       <use x="63.623047" xlink:href="#DejaVuSans-48"/>
       <use x="127.246094" xlink:href="#DejaVuSans-48"/>
      </g>
     </g>
    </g>
    <g id="xtick_4">
     <g id="line2d_4">
      <g>
       <use style="stroke:#000000;stroke-width:0.8;" x="185.113636" xlink:href="#mab329ebf14" y="384.48"/>
      </g>
     </g>
     <g id="text_4">
      <!-- 150 -->
      <g transform="translate(175.569886 399.078438)scale(0.1 -0.1)">
       <use xlink:href="#DejaVuSans-49"/>
       <use x="63.623047" xlink:href="#DejaVuSans-53"/>
       <use x="127.246094" xlink:href="#DejaVuSans-48"/>
      </g>
     </g>
    </g>
    <g id="xtick_5">
     <g id="line2d_5">
      <g>
       <use style="stroke:#000000;stroke-width:0.8;" x="216.818182" xlink:href="#mab329ebf14" y="384.48"/>
      </g>
     </g>
     <g id="text_5">
      <!-- 200 -->
      <g transform="translate(207.274432 399.078438)scale(0.1 -0.1)">
       <defs>
        <path d="M 19.1875 8.296875 
L 53.609375 8.296875 
L 53.609375 0 
L 7.328125 0 
L 7.328125 8.296875 
Q 12.9375 14.109375 22.625 23.890625 
Q 32.328125 33.6875 34.8125 36.53125 
Q 39.546875 41.84375 41.421875 45.53125 
Q 43.3125 49.21875 43.3125 52.78125 
Q 43.3125 58.59375 39.234375 62.25 
Q 35.15625 65.921875 28.609375 65.921875 
Q 23.96875 65.921875 18.8125 64.3125 
Q 13.671875 62.703125 7.8125 59.421875 
L 7.8125 69.390625 
Q 13.765625 71.78125 18.9375 73 
Q 24.125 74.21875 28.421875 74.21875 
Q 39.75 74.21875 46.484375 68.546875 
Q 53.21875 62.890625 53.21875 53.421875 
Q 53.21875 48.921875 51.53125 44.890625 
Q 49.859375 40.875 45.40625 35.40625 
Q 44.1875 33.984375 37.640625 27.21875 
Q 31.109375 20.453125 19.1875 8.296875 
z
" id="DejaVuSans-50"/>
       </defs>
       <use xlink:href="#DejaVuSans-50"/>
       <use x="63.623047" xlink:href="#DejaVuSans-48"/>
       <use x="127.246094" xlink:href="#DejaVuSans-48"/>
      </g>
     </g>
    </g>
    <g id="xtick_6">
     <g id="line2d_6">
      <g>
       <use style="stroke:#000000;stroke-width:0.8;" x="248.522727" xlink:href="#mab329ebf14" y="384.48"/>
      </g>
     </g>
     <g id="text_6">
      <!-- 250 -->
      <g transform="translate(238.978977 399.078438)scale(0.1 -0.1)">
       <use xlink:href="#DejaVuSans-50"/>
       <use x="63.623047" xlink:href="#DejaVuSans-53"/>
       <use x="127.246094" xlink:href="#DejaVuSans-48"/>
      </g>
     </g>
    </g>
    <g id="xtick_7">
     <g id="line2d_7">
      <g>
       <use style="stroke:#000000;stroke-width:0.8;" x="280.227273" xlink:href="#mab329ebf14" y="384.48"/>
      </g>
     </g>
     <g id="text_7">
      <!-- 300 -->
      <g transform="translate(270.683523 399.078438)scale(0.1 -0.1)">
       <defs>
        <path d="M 40.578125 39.3125 
Q 47.65625 37.796875 51.625 33 
Q 55.609375 28.21875 55.609375 21.1875 
Q 55.609375 10.40625 48.1875 4.484375 
Q 40.765625 -1.421875 27.09375 -1.421875 
Q 22.515625 -1.421875 17.65625 -0.515625 
Q 12.796875 0.390625 7.625 2.203125 
L 7.625 11.71875 
Q 11.71875 9.328125 16.59375 8.109375 
Q 21.484375 6.890625 26.8125 6.890625 
Q 36.078125 6.890625 40.9375 10.546875 
Q 45.796875 14.203125 45.796875 21.1875 
Q 45.796875 27.640625 41.28125 31.265625 
Q 36.765625 34.90625 28.71875 34.90625 
L 20.21875 34.90625 
L 20.21875 43.015625 
L 29.109375 43.015625 
Q 36.375 43.015625 40.234375 45.921875 
Q 44.09375 48.828125 44.09375 54.296875 
Q 44.09375 59.90625 40.109375 62.90625 
Q 36.140625 65.921875 28.71875 65.921875 
Q 24.65625 65.921875 20.015625 65.03125 
Q 15.375 64.15625 9.8125 62.3125 
L 9.8125 71.09375 
Q 15.4375 72.65625 20.34375 73.4375 
Q 25.25 74.21875 29.59375 74.21875 
Q 40.828125 74.21875 47.359375 69.109375 
Q 53.90625 64.015625 53.90625 55.328125 
Q 53.90625 49.265625 50.4375 45.09375 
Q 46.96875 40.921875 40.578125 39.3125 
z
" id="DejaVuSans-51"/>
       </defs>
       <use xlink:href="#DejaVuSans-51"/>
       <use x="63.623047" xlink:href="#DejaVuSans-48"/>
       <use x="127.246094" xlink:href="#DejaVuSans-48"/>
      </g>
     </g>
    </g>
    <g id="xtick_8">
     <g id="line2d_8">
      <g>
       <use style="stroke:#000000;stroke-width:0.8;" x="311.931818" xlink:href="#mab329ebf14" y="384.48"/>
      </g>
     </g>
     <g id="text_8">
      <!-- 350 -->
      <g transform="translate(302.388068 399.078438)scale(0.1 -0.1)">
       <use xlink:href="#DejaVuSans-51"/>
       <use x="63.623047" xlink:href="#DejaVuSans-53"/>
       <use x="127.246094" xlink:href="#DejaVuSans-48"/>
      </g>
     </g>
    </g>
    <g id="xtick_9">
     <g id="line2d_9">
      <g>
       <use style="stroke:#000000;stroke-width:0.8;" x="343.636364" xlink:href="#mab329ebf14" y="384.48"/>
      </g>
     </g>
     <g id="text_9">
      <!-- 400 -->
      <g transform="translate(334.092614 399.078438)scale(0.1 -0.1)">
       <defs>
        <path d="M 37.796875 64.3125 
L 12.890625 25.390625 
L 37.796875 25.390625 
z
M 35.203125 72.90625 
L 47.609375 72.90625 
L 47.609375 25.390625 
L 58.015625 25.390625 
L 58.015625 17.1875 
L 47.609375 17.1875 
L 47.609375 0 
L 37.796875 0 
L 37.796875 17.1875 
L 4.890625 17.1875 
L 4.890625 26.703125 
z
" id="DejaVuSans-52"/>
       </defs>
       <use xlink:href="#DejaVuSans-52"/>
       <use x="63.623047" xlink:href="#DejaVuSans-48"/>
       <use x="127.246094" xlink:href="#DejaVuSans-48"/>
      </g>
     </g>
    </g>
    <g id="text_10">
     <!-- Epoch -->
     <g transform="translate(201.507244 412.756563)scale(0.1 -0.1)">
      <defs>
       <path d="M 9.8125 72.90625 
L 55.90625 72.90625 
L 55.90625 64.59375 
L 19.671875 64.59375 
L 19.671875 43.015625 
L 54.390625 43.015625 
L 54.390625 34.71875 
L 19.671875 34.71875 
L 19.671875 8.296875 
L 56.78125 8.296875 
L 56.78125 0 
L 9.8125 0 
z
" id="DejaVuSans-69"/>
       <path d="M 18.109375 8.203125 
L 18.109375 -20.796875 
L 9.078125 -20.796875 
L 9.078125 54.6875 
L 18.109375 54.6875 
L 18.109375 46.390625 
Q 20.953125 51.265625 25.265625 53.625 
Q 29.59375 56 35.59375 56 
Q 45.5625 56 51.78125 48.09375 
Q 58.015625 40.1875 58.015625 27.296875 
Q 58.015625 14.40625 51.78125 6.484375 
Q 45.5625 -1.421875 35.59375 -1.421875 
Q 29.59375 -1.421875 25.265625 0.953125 
Q 20.953125 3.328125 18.109375 8.203125 
z
M 48.6875 27.296875 
Q 48.6875 37.203125 44.609375 42.84375 
Q 40.53125 48.484375 33.40625 48.484375 
Q 26.265625 48.484375 22.1875 42.84375 
Q 18.109375 37.203125 18.109375 27.296875 
Q 18.109375 17.390625 22.1875 11.75 
Q 26.265625 6.109375 33.40625 6.109375 
Q 40.53125 6.109375 44.609375 11.75 
Q 48.6875 17.390625 48.6875 27.296875 
z
" id="DejaVuSans-112"/>
       <path d="M 30.609375 48.390625 
Q 23.390625 48.390625 19.1875 42.75 
Q 14.984375 37.109375 14.984375 27.296875 
Q 14.984375 17.484375 19.15625 11.84375 
Q 23.34375 6.203125 30.609375 6.203125 
Q 37.796875 6.203125 41.984375 11.859375 
Q 46.1875 17.53125 46.1875 27.296875 
Q 46.1875 37.015625 41.984375 42.703125 
Q 37.796875 48.390625 30.609375 48.390625 
z
M 30.609375 56 
Q 42.328125 56 49.015625 48.375 
Q 55.71875 40.765625 55.71875 27.296875 
Q 55.71875 13.875 49.015625 6.21875 
Q 42.328125 -1.421875 30.609375 -1.421875 
Q 18.84375 -1.421875 12.171875 6.21875 
Q 5.515625 13.875 5.515625 27.296875 
Q 5.515625 40.765625 12.171875 48.375 
Q 18.84375 56 30.609375 56 
z
" id="DejaVuSans-111"/>
       <path d="M 48.78125 52.59375 
L 48.78125 44.1875 
Q 44.96875 46.296875 41.140625 47.34375 
Q 37.3125 48.390625 33.40625 48.390625 
Q 24.65625 48.390625 19.8125 42.84375 
Q 14.984375 37.3125 14.984375 27.296875 
Q 14.984375 17.28125 19.8125 11.734375 
Q 24.65625 6.203125 33.40625 6.203125 
Q 37.3125 6.203125 41.140625 7.25 
Q 44.96875 8.296875 48.78125 10.40625 
L 48.78125 2.09375 
Q 45.015625 0.34375 40.984375 -0.53125 
Q 36.96875 -1.421875 32.421875 -1.421875 
Q 20.0625 -1.421875 12.78125 6.34375 
Q 5.515625 14.109375 5.515625 27.296875 
Q 5.515625 40.671875 12.859375 48.328125 
Q 20.21875 56 33.015625 56 
Q 37.15625 56 41.109375 55.140625 
Q 45.0625 54.296875 48.78125 52.59375 
z
" id="DejaVuSans-99"/>
       <path d="M 54.890625 33.015625 
L 54.890625 0 
L 45.90625 0 
L 45.90625 32.71875 
Q 45.90625 40.484375 42.875 44.328125 
Q 39.84375 48.1875 33.796875 48.1875 
Q 26.515625 48.1875 22.3125 43.546875 
Q 18.109375 38.921875 18.109375 30.90625 
L 18.109375 0 
L 9.078125 0 
L 9.078125 75.984375 
L 18.109375 75.984375 
L 18.109375 46.1875 
Q 21.34375 51.125 25.703125 53.5625 
Q 30.078125 56 35.796875 56 
Q 45.21875 56 50.046875 50.171875 
Q 54.890625 44.34375 54.890625 33.015625 
z
" id="DejaVuSans-104"/>
      </defs>
      <use xlink:href="#DejaVuSans-69"/>
      <use x="63.183594" xlink:href="#DejaVuSans-112"/>
      <use x="126.660156" xlink:href="#DejaVuSans-111"/>
      <use x="187.841797" xlink:href="#DejaVuSans-99"/>
      <use x="242.822266" xlink:href="#DejaVuSans-104"/>
     </g>
    </g>
   </g>
   <g id="matplotlib.axis_2">
    <g id="ytick_1">
     <g id="line2d_10">
      <defs>
       <path d="M 0 0 
L -3.5 0 
" id="mefd9103ea5" style="stroke:#000000;stroke-width:0.8;"/>
      </defs>
      <g>
       <use style="stroke:#000000;stroke-width:0.8;" x="90" xlink:href="#mefd9103ea5" y="350.967532"/>
      </g>
     </g>
     <g id="text_11">
      <!-- 25 -->
      <g transform="translate(70.275 354.766751)scale(0.1 -0.1)">
       <use xlink:href="#DejaVuSans-50"/>
       <use x="63.623047" xlink:href="#DejaVuSans-53"/>
      </g>
     </g>
    </g>
    <g id="ytick_2">
     <g id="line2d_11">
      <g>
       <use style="stroke:#000000;stroke-width:0.8;" x="90" xlink:href="#mefd9103ea5" y="310.526749"/>
      </g>
     </g>
     <g id="text_12">
      <!-- 50 -->
      <g transform="translate(70.275 314.325967)scale(0.1 -0.1)">
       <use xlink:href="#DejaVuSans-53"/>
       <use x="63.623047" xlink:href="#DejaVuSans-48"/>
      </g>
     </g>
    </g>
    <g id="ytick_3">
     <g id="line2d_12">
      <g>
       <use style="stroke:#000000;stroke-width:0.8;" x="90" xlink:href="#mefd9103ea5" y="270.085966"/>
      </g>
     </g>
     <g id="text_13">
      <!-- 75 -->
      <g transform="translate(70.275 273.885184)scale(0.1 -0.1)">
       <defs>
        <path d="M 8.203125 72.90625 
L 55.078125 72.90625 
L 55.078125 68.703125 
L 28.609375 0 
L 18.3125 0 
L 43.21875 64.59375 
L 8.203125 64.59375 
z
" id="DejaVuSans-55"/>
       </defs>
       <use xlink:href="#DejaVuSans-55"/>
       <use x="63.623047" xlink:href="#DejaVuSans-53"/>
      </g>
     </g>
    </g>
    <g id="ytick_4">
     <g id="line2d_13">
      <g>
       <use style="stroke:#000000;stroke-width:0.8;" x="90" xlink:href="#mefd9103ea5" y="229.645182"/>
      </g>
     </g>
     <g id="text_14">
      <!-- 100 -->
      <g transform="translate(63.9125 233.444401)scale(0.1 -0.1)">
       <use xlink:href="#DejaVuSans-49"/>
       <use x="63.623047" xlink:href="#DejaVuSans-48"/>
       <use x="127.246094" xlink:href="#DejaVuSans-48"/>
      </g>
     </g>
    </g>
    <g id="ytick_5">
     <g id="line2d_14">
      <g>
       <use style="stroke:#000000;stroke-width:0.8;" x="90" xlink:href="#mefd9103ea5" y="189.204399"/>
      </g>
     </g>
     <g id="text_15">
      <!-- 125 -->
      <g transform="translate(63.9125 193.003618)scale(0.1 -0.1)">
       <use xlink:href="#DejaVuSans-49"/>
       <use x="63.623047" xlink:href="#DejaVuSans-50"/>
       <use x="127.246094" xlink:href="#DejaVuSans-53"/>
      </g>
     </g>
    </g>
    <g id="ytick_6">
     <g id="line2d_15">
      <g>
       <use style="stroke:#000000;stroke-width:0.8;" x="90" xlink:href="#mefd9103ea5" y="148.763616"/>
      </g>
     </g>
     <g id="text_16">
      <!-- 150 -->
      <g transform="translate(63.9125 152.562835)scale(0.1 -0.1)">
       <use xlink:href="#DejaVuSans-49"/>
       <use x="63.623047" xlink:href="#DejaVuSans-53"/>
       <use x="127.246094" xlink:href="#DejaVuSans-48"/>
      </g>
     </g>
    </g>
    <g id="ytick_7">
     <g id="line2d_16">
      <g>
       <use style="stroke:#000000;stroke-width:0.8;" x="90" xlink:href="#mefd9103ea5" y="108.322833"/>
      </g>
     </g>
     <g id="text_17">
      <!-- 175 -->
      <g transform="translate(63.9125 112.122052)scale(0.1 -0.1)">
       <use xlink:href="#DejaVuSans-49"/>
       <use x="63.623047" xlink:href="#DejaVuSans-55"/>
       <use x="127.246094" xlink:href="#DejaVuSans-53"/>
      </g>
     </g>
    </g>
    <g id="ytick_8">
     <g id="line2d_17">
      <g>
       <use style="stroke:#000000;stroke-width:0.8;" x="90" xlink:href="#mefd9103ea5" y="67.88205"/>
      </g>
     </g>
     <g id="text_18">
      <!-- 200 -->
      <g transform="translate(63.9125 71.681269)scale(0.1 -0.1)">
       <use xlink:href="#DejaVuSans-50"/>
       <use x="63.623047" xlink:href="#DejaVuSans-48"/>
       <use x="127.246094" xlink:href="#DejaVuSans-48"/>
      </g>
     </g>
    </g>
    <g id="text_19">
     <!-- MAE -->
     <g transform="translate(57.832812 229.05375)rotate(-90)scale(0.1 -0.1)">
      <defs>
       <path d="M 9.8125 72.90625 
L 24.515625 72.90625 
L 43.109375 23.296875 
L 61.8125 72.90625 
L 76.515625 72.90625 
L 76.515625 0 
L 66.890625 0 
L 66.890625 64.015625 
L 48.09375 14.015625 
L 38.1875 14.015625 
L 19.390625 64.015625 
L 19.390625 0 
L 9.8125 0 
z
" id="DejaVuSans-77"/>
       <path d="M 34.1875 63.1875 
L 20.796875 26.90625 
L 47.609375 26.90625 
z
M 28.609375 72.90625 
L 39.796875 72.90625 
L 67.578125 0 
L 57.328125 0 
L 50.6875 18.703125 
L 17.828125 18.703125 
L 11.1875 0 
L 0.78125 0 
z
" id="DejaVuSans-65"/>
      </defs>
      <use xlink:href="#DejaVuSans-77"/>
      <use x="86.279297" xlink:href="#DejaVuSans-65"/>
      <use x="154.6875" xlink:href="#DejaVuSans-69"/>
     </g>
    </g>
   </g>
   <g id="line2d_18">
    <path clip-path="url(#pa9bb93f626)" d="M 90 66.96 
L 90.634091 167.576668 
L 91.268182 216.461487 
L 91.902273 214.552682 
L 92.536364 197.729316 
L 93.170455 218.629113 
L 93.804545 260.962525 
L 94.438636 270.134494 
L 95.072727 221.217323 
L 95.706818 287.976968 
L 96.340909 245.174443 
L 97.609091 270.959486 
L 98.243182 281.797616 
L 98.877273 300.287142 
L 99.511364 262.062514 
L 100.145455 281.813793 
L 100.779545 282.121143 
L 101.413636 277.672656 
L 102.047727 298.620982 
L 103.315909 260.89782 
L 103.95 301.92095 
L 104.584091 297.294524 
L 105.218182 307.647365 
L 105.852273 285.340229 
L 106.486364 308.342946 
L 107.120455 318.161969 
L 107.754545 311.335564 
L 108.388636 291.648991 
L 109.656818 321.688405 
L 110.290909 294.204849 
L 110.925 319.051666 
L 111.559091 319.763424 
L 112.193182 318.873726 
L 112.827273 315.913461 
L 113.461364 308.213536 
L 114.095455 319.585484 
L 114.729545 303.959166 
L 115.997727 332.041245 
L 116.631818 312.225262 
L 117.265909 319.067842 
L 117.9 323.613386 
L 118.534091 306.013557 
L 119.168182 324.357497 
L 119.802273 314.037009 
L 120.436364 338.479418 
L 121.070455 321.073705 
L 121.704545 337.136784 
L 122.338636 344.982296 
L 122.972727 335.211803 
L 123.606818 342.847023 
L 124.240909 340.323518 
L 124.875 341.439683 
L 125.509091 335.955913 
L 126.143182 336.780905 
L 126.777273 331.426545 
L 127.411364 336.894139 
L 128.045455 337.201489 
L 129.313636 347.020511 
L 129.947727 344.626417 
L 130.581818 343.623486 
L 131.215909 343.494075 
L 131.85 343.639662 
L 132.484091 344.319067 
L 133.118182 335.227979 
L 133.752273 336.894139 
L 134.386364 341.552918 
L 135.020455 341.439683 
L 135.654545 337.994129 
L 136.288636 342.280852 
L 136.922727 342.394086 
L 137.556818 345.257293 
L 138.190909 337.702955 
L 138.825 348.104324 
L 139.459091 341.407331 
L 140.093182 345.176412 
L 140.727273 343.817601 
L 141.361364 341.795562 
L 141.995455 351.242529 
L 142.629545 338.835297 
L 143.263636 339.822052 
L 143.897727 318.534024 
L 144.531818 349.204314 
L 145.165909 344.707299 
L 145.8 345.58082 
L 146.434091 350.530771 
L 147.068182 337.379429 
L 147.702273 345.758759 
L 148.336364 347.06904 
L 148.970455 346.45434 
L 149.604545 344.011717 
L 150.238636 348.185206 
L 150.872727 342.151441 
L 151.506818 347.020511 
L 152.140909 345.548467 
L 152.775 348.249911 
L 153.409091 336.522084 
L 154.043182 344.238186 
L 154.677273 339.288234 
L 155.311364 349.058727 
L 155.945455 350.627829 
L 156.579545 344.949943 
L 157.213636 345.063177 
L 157.847727 343.235254 
L 158.481818 341.747033 
L 159.115909 350.174892 
L 159.75 348.460203 
L 160.384091 348.444027 
L 161.018182 347.845503 
L 161.652273 340.760278 
L 162.286364 340.517633 
L 162.920455 339.466173 
L 163.554545 342.749965 
L 164.188636 344.302891 
L 164.822727 347.198451 
L 165.456818 335.438271 
L 166.725 344.270538 
L 167.359091 352.11605 
L 167.993182 346.93963 
L 168.627273 337.897071 
L 169.261364 348.60579 
L 169.895455 348.314616 
L 170.529545 337.395605 
L 171.163636 343.542604 
L 171.797727 341.698504 
L 172.431818 345.871993 
L 173.065909 345.370527 
L 173.7 343.947012 
L 174.334091 349.269019 
L 174.968182 347.55433 
L 175.602273 346.664633 
L 176.236364 344.076422 
L 176.870455 345.661701 
L 177.504545 343.817601 
L 178.138636 354.121913 
L 178.772727 344.707299 
L 179.406818 352.002816 
L 180.040909 346.955806 
L 180.675 351.210177 
L 181.309091 347.505801 
L 181.943182 337.541192 
L 182.577273 347.344038 
L 183.211364 350.27195 
L 183.845455 352.407224 
L 184.479545 345.677877 
L 185.113636 348.152853 
L 185.747727 347.974914 
L 186.381818 346.45434 
L 187.015909 342.911728 
L 187.65 345.354351 
L 188.284091 339.013236 
L 188.918182 347.699917 
L 189.552273 346.001404 
L 190.186364 342.604378 
L 190.820455 342.005854 
L 192.088636 347.796974 
L 192.722727 345.807288 
L 193.356818 345.257293 
L 193.990909 347.37639 
L 194.625 346.76169 
L 195.259091 343.170549 
L 195.893182 347.020511 
L 196.527273 348.896964 
L 197.795455 343.494075 
L 198.429545 338.770592 
L 199.063636 348.330793 
L 199.697727 347.020511 
L 200.331818 345.40288 
L 200.965909 343.299959 
L 201.6 348.29844 
L 202.234091 351.954287 
L 202.868182 343.413194 
L 203.502273 347.360214 
L 204.770455 340.145578 
L 205.404545 342.005854 
L 206.038636 349.382253 
L 206.672727 341.795562 
L 207.306818 341.666152 
L 207.940909 354.849847 
L 208.575 344.885238 
L 209.209091 349.544016 
L 209.843182 350.724887 
L 210.477273 343.639662 
L 211.111364 337.994129 
L 211.745455 354.105737 
L 212.379545 349.673427 
L 213.013636 346.858748 
L 213.647727 355.01161 
L 214.281818 344.901414 
L 214.915909 345.354351 
L 215.55 339.757347 
L 216.184091 348.78373 
L 216.818182 344.804356 
L 217.452273 351.598408 
L 218.086364 350.126364 
L 218.720455 346.907277 
L 219.354545 345.144059 
L 219.988636 349.042551 
L 220.622727 342.766141 
L 221.256818 342.911728 
L 221.890909 350.88665 
L 222.525 348.621966 
L 223.159091 348.379322 
L 223.793182 340.744102 
L 224.427273 344.707299 
L 225.061364 345.354351 
L 225.695455 349.495487 
L 226.329545 341.666152 
L 226.963636 350.320479 
L 227.597727 346.810219 
L 228.231818 348.007267 
L 228.865909 344.141128 
L 229.5 344.17348 
L 230.134091 350.433713 
L 230.768182 350.320479 
L 231.402273 347.586682 
L 232.036364 346.502869 
L 232.670455 347.004335 
L 233.304545 347.958738 
L 233.938636 347.06904 
L 234.572727 343.348488 
L 235.206818 352.843984 
L 235.840909 342.086736 
L 236.475 346.179343 
L 237.109091 346.211696 
L 237.743182 348.977845 
L 238.377273 343.219078 
L 239.645455 349.495487 
L 240.913636 344.836709 
L 241.547727 351.776347 
L 242.181818 343.008786 
L 242.815909 345.435233 
L 243.45 344.222009 
L 244.084091 343.607309 
L 244.718182 353.571918 
L 245.352273 347.392567 
L 245.986364 349.349901 
L 246.620455 352.11605 
L 247.254545 344.141128 
L 247.888636 352.196932 
L 248.522727 344.124951 
L 249.790909 353.523389 
L 250.425 348.136677 
L 251.059091 345.742583 
L 251.693182 345.192588 
L 252.327273 348.816082 
L 252.961364 348.379322 
L 253.595455 345.936698 
L 254.229545 346.308754 
L 254.863636 350.013129 
L 255.497727 350.191069 
L 256.131818 347.894032 
L 256.765909 346.502869 
L 257.4 346.227872 
L 258.034091 349.867543 
L 258.668182 350.660182 
L 259.302273 344.739651 
L 259.936364 353.248392 
L 260.570455 347.942561 
L 261.204545 347.829327 
L 261.838636 352.358695 
L 262.472727 343.73672 
L 263.740909 346.486693 
L 264.375 349.204314 
L 265.009091 347.99109 
L 265.643182 340.22646 
L 266.277273 347.24698 
L 266.911364 345.160235 
L 268.179545 347.829327 
L 268.813636 348.864611 
L 269.447727 345.499938 
L 270.081818 346.858748 
L 270.715909 352.051345 
L 271.35 347.117569 
L 271.984091 345.079354 
L 272.618182 348.055795 
L 273.252273 343.720543 
L 273.886364 349.026374 
L 274.520455 348.799906 
L 275.154545 346.341106 
L 275.788636 346.535222 
L 276.422727 345.694054 
L 277.056818 350.27195 
L 277.690909 347.894032 
L 278.325 349.948424 
L 278.959091 353.539566 
L 279.593182 346.923454 
L 280.227273 347.586682 
L 280.861364 343.639662 
L 281.495455 345.354351 
L 282.129545 355.01161 
L 282.763636 342.604378 
L 283.397727 349.544016 
L 284.031818 354.105737 
L 284.665909 343.979365 
L 285.3 342.911728 
L 285.934091 340.145578 
L 286.568182 346.76169 
L 287.202273 344.901414 
L 287.836364 349.673427 
L 288.470455 346.45434 
L 289.104545 346.14699 
L 289.738636 339.013236 
L 290.372727 344.885238 
L 291.006818 347.37639 
L 291.640909 345.40288 
L 292.275 337.994129 
L 292.909091 345.807288 
L 293.543182 341.795562 
L 294.177273 342.005854 
L 294.811364 338.770592 
L 295.445455 349.382253 
L 296.079545 348.330793 
L 296.713636 343.494075 
L 297.347727 350.724887 
L 297.981818 343.413194 
L 298.615909 354.849847 
L 299.25 347.360214 
L 299.884091 348.78373 
L 300.518182 346.858748 
L 301.786364 339.757347 
L 302.420455 348.896964 
L 303.054545 345.354351 
L 303.688636 347.020511 
L 304.322727 345.257293 
L 304.956818 351.954287 
L 305.590909 343.299959 
L 306.225 341.666152 
L 306.859091 348.152853 
L 307.493182 348.29844 
L 308.127273 347.974914 
L 308.761364 347.020511 
L 309.395455 342.005854 
L 310.029545 345.030825 
L 310.663636 346.001404 
L 311.297727 347.699917 
L 311.931818 347.796974 
L 312.565909 339.013236 
L 313.2 343.639662 
L 313.834091 346.45434 
L 314.468182 338.770592 
L 315.102273 339.757347 
L 315.736364 346.14699 
L 316.370455 344.901414 
L 317.004545 344.885238 
L 317.638636 346.76169 
L 318.272727 345.030825 
L 318.906818 345.354351 
L 319.540909 343.979365 
L 320.175 348.330793 
L 320.809091 342.911728 
L 321.443182 347.360214 
L 322.077273 347.37639 
L 322.711364 350.724887 
L 323.345455 346.858748 
L 323.979545 341.666152 
L 324.613636 354.849847 
L 325.247727 347.699917 
L 325.881818 345.257293 
L 326.515909 348.896964 
L 327.15 337.994129 
L 327.784091 342.005854 
L 328.418182 347.796974 
L 329.052273 340.145578 
L 329.686364 348.152853 
L 330.320455 347.974914 
L 330.954545 351.954287 
L 331.588636 349.673427 
L 332.222727 341.795562 
L 332.856818 343.494075 
L 333.490909 347.020511 
L 334.125 349.382253 
L 334.759091 342.604378 
L 335.393182 347.020511 
L 336.027273 345.807288 
L 336.661364 349.544016 
L 337.295455 354.105737 
L 337.929545 343.170549 
L 338.563636 355.01161 
L 339.197727 342.005854 
L 339.831818 343.413194 
L 341.1 348.29844 
L 341.734091 345.40288 
L 342.368182 343.299959 
L 343.002273 345.354351 
L 343.002273 345.354351 
" style="fill:none;stroke:#1f77b4;stroke-linecap:square;stroke-width:1.5;"/>
   </g>
   <g id="line2d_19">
    <path clip-path="url(#pa9bb93f626)" d="M 90 182.00594 
L 90.634091 238.525978 
L 91.268182 259.943417 
L 91.902273 253.181718 
L 92.536364 237.183344 
L 93.170455 252.599371 
L 93.804545 280.503511 
L 94.438636 285.194642 
L 95.072727 245.886201 
L 95.706818 302.923881 
L 96.340909 282.169672 
L 96.975 287.44315 
L 97.609091 297.456288 
L 98.243182 296.000419 
L 98.877273 316.722277 
L 99.511364 284.353474 
L 100.145455 301.6136 
L 100.779545 298.038635 
L 101.413636 299.300387 
L 102.047727 322.173694 
L 102.681818 296.194535 
L 103.315909 255.430226 
L 103.95 314.085538 
L 104.584091 306.207673 
L 105.218182 315.056116 
L 105.852273 292.101928 
L 106.486364 320.992823 
L 107.120455 328.708925 
L 107.754545 320.636944 
L 108.388636 330.31038 
L 109.022727 326.913354 
L 109.656818 328.628043 
L 110.925 314.441416 
L 111.559091 330.844198 
L 112.193182 325.489838 
L 112.827273 331.572132 
L 113.461364 319.1649 
L 114.095455 314.214948 
L 115.363636 334.548574 
L 115.997727 331.086843 
L 116.631818 341.245568 
L 117.265909 330.989785 
L 117.9 337.072079 
L 118.534091 338.511771 
L 119.168182 343.86613 
L 119.802273 329.161862 
L 120.436364 323.273684 
L 121.070455 327.673641 
L 121.704545 346.373459 
L 122.338636 343.219078 
L 122.972727 305.560621 
L 123.606818 294.237201 
L 124.875 340.404399 
L 125.509091 339.045589 
L 126.143182 338.964707 
L 126.777273 269.5845 
L 127.411364 338.333831 
L 128.045455 331.879482 
L 128.679545 342.086736 
L 129.313636 335.405918 
L 129.947727 345.370527 
L 130.581818 342.135265 
L 131.215909 326.136891 
L 131.85 343.704367 
L 132.484091 343.623486 
L 133.118182 341.649975 
L 133.752273 342.701436 
L 134.386364 330.358909 
L 135.020455 331.410369 
L 135.654545 300.416553 
L 136.288636 334.241224 
L 136.922727 348.508732 
L 137.556818 333.82064 
L 138.190909 337.15296 
L 138.825 350.935179 
L 139.459091 341.957325 
L 140.093182 335.842679 
L 140.727273 349.883719 
L 141.361364 344.561712 
L 142.629545 352.051345 
L 143.263636 350.061658 
L 143.897727 231.651045 
L 144.531818 318.388437 
L 145.165909 300.594492 
L 145.8 332.429477 
L 146.434091 329.614798 
L 147.068182 321.494289 
L 147.702273 342.458791 
L 148.336364 336.700024 
L 148.970455 349.916071 
L 149.604545 344.545535 
L 150.238636 344.707299 
L 150.872727 337.46031 
L 151.506818 353.296921 
L 152.140909 347.505801 
L 152.775 345.208764 
L 153.409091 347.780798 
L 154.043182 354.364558 
L 154.677273 351.096942 
L 155.311364 360.414499 
L 155.945455 359.605683 
L 156.579545 351.37194 
L 157.213636 355.739544 
L 157.847727 356.354244 
L 158.481818 353.846916 
L 159.115909 360.463028 
L 159.75 356.564536 
L 160.384091 358.246873 
L 161.018182 360.899788 
L 161.652273 349.948424 
L 162.286364 351.921934 
L 162.920455 359.57333 
L 163.554545 354.736613 
L 164.188636 353.248392 
L 164.822727 358.748339 
L 165.456818 354.542497 
L 166.090909 359.961562 
L 166.725 350.336656 
L 167.359091 363.245354 
L 167.993182 357.59982 
L 168.627273 359.460096 
L 169.261364 357.195412 
L 171.163636 359.929209 
L 171.797727 358.602752 
L 172.431818 358.408636 
L 173.065909 357.324823 
L 173.7 360.592438 
L 174.334091 357.680702 
L 174.968182 354.105737 
L 175.602273 356.289539 
L 176.236364 360.560086 
L 176.870455 360.98067 
L 177.504545 362.857122 
L 178.138636 359.799799 
L 178.772727 358.538046 
L 179.406818 360.98067 
L 180.040909 354.914552 
L 180.675 357.648349 
L 181.309091 363.633585 
L 181.943182 359.524802 
L 182.577273 362.258598 
L 183.211364 366.335029 
L 184.479545 358.618928 
L 185.113636 362.614477 
L 185.747727 361.514488 
L 186.381818 356.791005 
L 187.015909 357.729231 
L 187.65 361.271843 
L 188.284091 360.398322 
L 188.918182 355.998365 
L 189.552273 360.446851 
L 190.186364 352.941042 
L 190.820455 355.238079 
L 191.454545 356.418949 
L 192.088636 359.460096 
L 192.722727 361.223314 
L 193.356818 362.533596 
L 193.990909 359.605683 
L 194.625 359.783623 
L 195.259091 355.62631 
L 195.893182 360.576262 
L 196.527273 362.970356 
L 197.161364 362.323304 
L 197.795455 358.052757 
L 198.429545 359.330686 
L 199.063636 318.873726 
L 199.697727 360.851259 
L 200.331818 359.524802 
L 200.965909 364.264461 
L 201.6 366.804143 
L 202.234091 363.035062 
L 202.868182 354.380734 
L 203.502273 360.236559 
L 204.136364 360.867436 
L 204.770455 364.151227 
L 205.404545 359.217452 
L 206.038636 363.164472 
L 207.306818 362.921827 
L 207.940909 364.215932 
L 208.575 360.511557 
L 209.209091 362.792417 
L 209.843182 363.213001 
L 210.477273 358.813044 
L 211.111364 359.848328 
L 211.745455 364.264461 
L 212.379545 363.229177 
L 213.013636 360.996846 
L 213.647727 367.742369 
L 214.281818 365.23504 
L 214.915909 363.762996 
L 215.55 360.252736 
L 216.184091 365.186511 
L 216.818182 363.87623 
L 218.086364 365.396803 
L 218.720455 364.070346 
L 219.354545 365.995327 
L 219.988636 361.498312 
L 220.622727 358.21452 
L 221.256818 361.740956 
L 221.890909 366.432087 
L 222.525 366.739437 
L 223.159091 363.908582 
L 223.793182 362.371833 
L 224.427273 362.663006 
L 225.061364 364.604164 
L 225.695455 365.801211 
L 226.329545 367.580606 
L 226.963636 366.885024 
L 228.231818 362.970356 
L 228.865909 364.135051 
L 229.5 367.645311 
L 230.134091 364.523282 
L 230.768182 365.736506 
L 231.402273 366.480616 
L 232.036364 365.380627 
L 232.670455 367.062964 
L 233.938636 363.358588 
L 234.572727 364.264461 
L 235.206818 363.26153 
L 235.840909 364.280638 
L 236.475 364.895338 
L 237.109091 364.571811 
L 237.743182 365.461509 
L 238.377273 361.918896 
L 239.011364 360.624791 
L 239.645455 360.915964 
L 240.279545 365.251216 
L 240.913636 365.461509 
L 241.547727 364.523282 
L 242.181818 364.604164 
L 242.815909 365.72033 
L 243.45 362.533596 
L 244.084091 365.283569 
L 244.718182 365.687977 
L 245.352273 366.270324 
L 245.986364 365.202687 
L 246.620455 365.558566 
L 247.254545 362.727712 
L 247.888636 363.26153 
L 248.522727 366.189443 
L 249.156818 363.843877 
L 249.790909 364.79828 
L 250.425 365.024748 
L 251.059091 366.383558 
L 252.327273 365.41298 
L 252.961364 361.983601 
L 253.595455 365.23504 
L 254.229545 365.299745 
L 254.863636 366.367382 
L 255.497727 360.511557 
L 256.131818 365.785035 
L 256.765909 365.040924 
L 257.4 364.895338 
L 258.034091 362.921827 
L 258.668182 362.33948 
L 259.302273 360.867436 
L 259.936364 367.532077 
L 260.570455 363.779172 
L 261.204545 361.854191 
L 261.838636 366.383558 
L 262.472727 363.843877 
L 263.106818 363.536527 
L 263.740909 366.335029 
L 264.375 364.846809 
L 265.009091 364.167403 
L 265.643182 361.013022 
L 266.277273 363.132119 
L 266.911364 364.749751 
L 267.545455 363.940935 
L 268.179545 366.318853 
L 268.813636 366.092385 
L 269.447727 362.307127 
L 270.081818 363.342411 
L 270.715909 365.315922 
L 271.35 363.940935 
L 271.984091 362.857122 
L 272.618182 363.067414 
L 273.252273 364.296814 
L 273.886364 362.242422 
L 274.520455 362.371833 
L 275.154545 367.629134 
L 275.788636 363.180648 
L 276.422727 365.493861 
L 277.056818 365.170335 
L 277.690909 361.029199 
L 278.325 363.148296 
L 278.959091 362.905651 
L 279.593182 364.426224 
L 280.227273 363.358588 
L 280.861364 365.008572 
L 281.495455 365.914445 
L 282.129545 365.089453 
L 283.397727 363.892406 
L 284.031818 362.95418 
L 284.665909 365.008572 
L 285.3 365.607095 
L 285.934091 365.801211 
L 286.568182 367.564429 
L 287.202273 364.151227 
L 287.836364 363.762996 
L 288.470455 360.414499 
L 289.104545 366.9012 
L 289.738636 368.179129 
L 290.372727 366.367382 
L 291.006818 363.730643 
L 291.640909 366.496793 
L 292.275 366.868848 
L 292.909091 363.779172 
L 293.543182 362.840946 
L 294.177273 364.765927 
L 294.811364 364.765927 
L 296.079545 367.887955 
L 296.713636 359.993915 
L 297.347727 362.03213 
L 297.981818 364.507106 
L 298.615909 363.132119 
L 299.25 364.393872 
L 299.884091 367.985013 
L 300.518182 366.415911 
L 301.152273 363.504175 
L 301.786364 365.121806 
L 302.420455 365.445332 
L 303.054545 363.08359 
L 303.688636 364.135051 
L 304.956818 365.396803 
L 305.590909 367.790898 
L 306.225 369.36 
L 306.859091 363.87623 
L 307.493182 367.758545 
L 308.127273 367.677663 
L 308.761364 364.668869 
L 309.395455 366.448264 
L 310.029545 365.493861 
L 310.663636 363.957111 
L 311.297727 362.857122 
L 311.931818 362.840946 
L 312.565909 366.949729 
L 313.2 364.587988 
L 313.834091 365.267393 
L 314.468182 367.580606 
L 315.102273 368.098248 
L 315.736364 362.938004 
L 316.370455 368.227658 
L 317.004545 364.733574 
L 317.638636 363.649761 
L 318.272727 359.735094 
L 318.906818 368.179129 
L 319.540909 363.487998 
L 320.175 366.480616 
L 320.809091 363.973288 
L 321.443182 363.374764 
L 322.077273 364.280638 
L 322.711364 364.232109 
L 323.345455 367.273256 
L 323.979545 365.170335 
L 324.613636 366.59385 
L 325.247727 362.727712 
L 325.881818 360.721849 
L 326.515909 361.449783 
L 327.15 366.205619 
L 327.784091 366.205619 
L 328.418182 367.402666 
L 329.052273 363.860053 
L 329.686364 363.423293 
L 330.320455 362.161541 
L 330.954545 366.011503 
L 331.588636 363.310059 
L 332.222727 367.435019 
L 332.856818 366.043856 
L 333.490909 363.326235 
L 334.125 367.710016 
L 334.759091 364.296814 
L 335.393182 365.995327 
L 336.027273 365.865916 
L 336.661364 364.911514 
L 337.295455 365.785035 
L 337.929545 365.801211 
L 338.563636 364.652693 
L 339.197727 362.679183 
L 339.831818 365.526214 
L 340.465909 367.20855 
L 341.1 367.726192 
L 341.734091 359.799799 
L 342.368182 367.030611 
L 343.002273 366.885024 
L 343.636364 362.03213 
L 343.636364 362.03213 
" style="fill:none;stroke:#ff7f0e;stroke-linecap:square;stroke-width:1.5;"/>
   </g>
   <g id="patch_3">
    <path d="M 90 384.48 
L 90 51.84 
" style="fill:none;stroke:#000000;stroke-linecap:square;stroke-linejoin:miter;stroke-width:0.8;"/>
   </g>
   <g id="patch_4">
    <path d="M 343.636364 384.48 
L 343.636364 51.84 
" style="fill:none;stroke:#000000;stroke-linecap:square;stroke-linejoin:miter;stroke-width:0.8;"/>
   </g>
   <g id="patch_5">
    <path d="M 90 384.48 
L 343.636364 384.48 
" style="fill:none;stroke:#000000;stroke-linecap:square;stroke-linejoin:miter;stroke-width:0.8;"/>
   </g>
   <g id="patch_6">
    <path d="M 90 51.84 
L 343.636364 51.84 
" style="fill:none;stroke:#000000;stroke-linecap:square;stroke-linejoin:miter;stroke-width:0.8;"/>
   </g>
   <g id="legend_1">
    <g id="patch_7">
     <path d="M 143.201989 89.19625 
L 336.636364 89.19625 
Q 338.636364 89.19625 338.636364 87.19625 
L 338.636364 58.84 
Q 338.636364 56.84 336.636364 56.84 
L 143.201989 56.84 
Q 141.201989 56.84 141.201989 58.84 
L 141.201989 87.19625 
Q 141.201989 89.19625 143.201989 89.19625 
z
" style="fill:#ffffff;opacity:0.8;stroke:#cccccc;stroke-linejoin:miter;"/>
    </g>
    <g id="line2d_20">
     <path d="M 145.201989 64.938437 
L 165.201989 64.938437 
" style="fill:none;stroke:#1f77b4;stroke-linecap:square;stroke-width:1.5;"/>
    </g>
    <g id="line2d_21"/>
    <g id="text_20">
     <!-- Train from ImageNet pre-trained -->
     <g transform="translate(173.201989 68.438437)scale(0.1 -0.1)">
      <defs>
       <path d="M -0.296875 72.90625 
L 61.375 72.90625 
L 61.375 64.59375 
L 35.5 64.59375 
L 35.5 0 
L 25.59375 0 
L 25.59375 64.59375 
L -0.296875 64.59375 
z
" id="DejaVuSans-84"/>
       <path d="M 41.109375 46.296875 
Q 39.59375 47.171875 37.8125 47.578125 
Q 36.03125 48 33.890625 48 
Q 26.265625 48 22.1875 43.046875 
Q 18.109375 38.09375 18.109375 28.8125 
L 18.109375 0 
L 9.078125 0 
L 9.078125 54.6875 
L 18.109375 54.6875 
L 18.109375 46.1875 
Q 20.953125 51.171875 25.484375 53.578125 
Q 30.03125 56 36.53125 56 
Q 37.453125 56 38.578125 55.875 
Q 39.703125 55.765625 41.0625 55.515625 
z
" id="DejaVuSans-114"/>
       <path d="M 34.28125 27.484375 
Q 23.390625 27.484375 19.1875 25 
Q 14.984375 22.515625 14.984375 16.5 
Q 14.984375 11.71875 18.140625 8.90625 
Q 21.296875 6.109375 26.703125 6.109375 
Q 34.1875 6.109375 38.703125 11.40625 
Q 43.21875 16.703125 43.21875 25.484375 
L 43.21875 27.484375 
z
M 52.203125 31.203125 
L 52.203125 0 
L 43.21875 0 
L 43.21875 8.296875 
Q 40.140625 3.328125 35.546875 0.953125 
Q 30.953125 -1.421875 24.3125 -1.421875 
Q 15.921875 -1.421875 10.953125 3.296875 
Q 6 8.015625 6 15.921875 
Q 6 25.140625 12.171875 29.828125 
Q 18.359375 34.515625 30.609375 34.515625 
L 43.21875 34.515625 
L 43.21875 35.40625 
Q 43.21875 41.609375 39.140625 45 
Q 35.0625 48.390625 27.6875 48.390625 
Q 23 48.390625 18.546875 47.265625 
Q 14.109375 46.140625 10.015625 43.890625 
L 10.015625 52.203125 
Q 14.9375 54.109375 19.578125 55.046875 
Q 24.21875 56 28.609375 56 
Q 40.484375 56 46.34375 49.84375 
Q 52.203125 43.703125 52.203125 31.203125 
z
" id="DejaVuSans-97"/>
       <path d="M 9.421875 54.6875 
L 18.40625 54.6875 
L 18.40625 0 
L 9.421875 0 
z
M 9.421875 75.984375 
L 18.40625 75.984375 
L 18.40625 64.59375 
L 9.421875 64.59375 
z
" id="DejaVuSans-105"/>
       <path d="M 54.890625 33.015625 
L 54.890625 0 
L 45.90625 0 
L 45.90625 32.71875 
Q 45.90625 40.484375 42.875 44.328125 
Q 39.84375 48.1875 33.796875 48.1875 
Q 26.515625 48.1875 22.3125 43.546875 
Q 18.109375 38.921875 18.109375 30.90625 
L 18.109375 0 
L 9.078125 0 
L 9.078125 54.6875 
L 18.109375 54.6875 
L 18.109375 46.1875 
Q 21.34375 51.125 25.703125 53.5625 
Q 30.078125 56 35.796875 56 
Q 45.21875 56 50.046875 50.171875 
Q 54.890625 44.34375 54.890625 33.015625 
z
" id="DejaVuSans-110"/>
       <path id="DejaVuSans-32"/>
       <path d="M 37.109375 75.984375 
L 37.109375 68.5 
L 28.515625 68.5 
Q 23.6875 68.5 21.796875 66.546875 
Q 19.921875 64.59375 19.921875 59.515625 
L 19.921875 54.6875 
L 34.71875 54.6875 
L 34.71875 47.703125 
L 19.921875 47.703125 
L 19.921875 0 
L 10.890625 0 
L 10.890625 47.703125 
L 2.296875 47.703125 
L 2.296875 54.6875 
L 10.890625 54.6875 
L 10.890625 58.5 
Q 10.890625 67.625 15.140625 71.796875 
Q 19.390625 75.984375 28.609375 75.984375 
z
" id="DejaVuSans-102"/>
       <path d="M 52 44.1875 
Q 55.375 50.25 60.0625 53.125 
Q 64.75 56 71.09375 56 
Q 79.640625 56 84.28125 50.015625 
Q 88.921875 44.046875 88.921875 33.015625 
L 88.921875 0 
L 79.890625 0 
L 79.890625 32.71875 
Q 79.890625 40.578125 77.09375 44.375 
Q 74.3125 48.1875 68.609375 48.1875 
Q 61.625 48.1875 57.5625 43.546875 
Q 53.515625 38.921875 53.515625 30.90625 
L 53.515625 0 
L 44.484375 0 
L 44.484375 32.71875 
Q 44.484375 40.625 41.703125 44.40625 
Q 38.921875 48.1875 33.109375 48.1875 
Q 26.21875 48.1875 22.15625 43.53125 
Q 18.109375 38.875 18.109375 30.90625 
L 18.109375 0 
L 9.078125 0 
L 9.078125 54.6875 
L 18.109375 54.6875 
L 18.109375 46.1875 
Q 21.1875 51.21875 25.484375 53.609375 
Q 29.78125 56 35.6875 56 
Q 41.65625 56 45.828125 52.96875 
Q 50 49.953125 52 44.1875 
z
" id="DejaVuSans-109"/>
       <path d="M 9.8125 72.90625 
L 19.671875 72.90625 
L 19.671875 0 
L 9.8125 0 
z
" id="DejaVuSans-73"/>
       <path d="M 45.40625 27.984375 
Q 45.40625 37.75 41.375 43.109375 
Q 37.359375 48.484375 30.078125 48.484375 
Q 22.859375 48.484375 18.828125 43.109375 
Q 14.796875 37.75 14.796875 27.984375 
Q 14.796875 18.265625 18.828125 12.890625 
Q 22.859375 7.515625 30.078125 7.515625 
Q 37.359375 7.515625 41.375 12.890625 
Q 45.40625 18.265625 45.40625 27.984375 
z
M 54.390625 6.78125 
Q 54.390625 -7.171875 48.1875 -13.984375 
Q 42 -20.796875 29.203125 -20.796875 
Q 24.46875 -20.796875 20.265625 -20.09375 
Q 16.0625 -19.390625 12.109375 -17.921875 
L 12.109375 -9.1875 
Q 16.0625 -11.328125 19.921875 -12.34375 
Q 23.78125 -13.375 27.78125 -13.375 
Q 36.625 -13.375 41.015625 -8.765625 
Q 45.40625 -4.15625 45.40625 5.171875 
L 45.40625 9.625 
Q 42.625 4.78125 38.28125 2.390625 
Q 33.9375 0 27.875 0 
Q 17.828125 0 11.671875 7.65625 
Q 5.515625 15.328125 5.515625 27.984375 
Q 5.515625 40.671875 11.671875 48.328125 
Q 17.828125 56 27.875 56 
Q 33.9375 56 38.28125 53.609375 
Q 42.625 51.21875 45.40625 46.390625 
L 45.40625 54.6875 
L 54.390625 54.6875 
z
" id="DejaVuSans-103"/>
       <path d="M 56.203125 29.59375 
L 56.203125 25.203125 
L 14.890625 25.203125 
Q 15.484375 15.921875 20.484375 11.0625 
Q 25.484375 6.203125 34.421875 6.203125 
Q 39.59375 6.203125 44.453125 7.46875 
Q 49.3125 8.734375 54.109375 11.28125 
L 54.109375 2.78125 
Q 49.265625 0.734375 44.1875 -0.34375 
Q 39.109375 -1.421875 33.890625 -1.421875 
Q 20.796875 -1.421875 13.15625 6.1875 
Q 5.515625 13.8125 5.515625 26.8125 
Q 5.515625 40.234375 12.765625 48.109375 
Q 20.015625 56 32.328125 56 
Q 43.359375 56 49.78125 48.890625 
Q 56.203125 41.796875 56.203125 29.59375 
z
M 47.21875 32.234375 
Q 47.125 39.59375 43.09375 43.984375 
Q 39.0625 48.390625 32.421875 48.390625 
Q 24.90625 48.390625 20.390625 44.140625 
Q 15.875 39.890625 15.1875 32.171875 
z
" id="DejaVuSans-101"/>
       <path d="M 9.8125 72.90625 
L 23.09375 72.90625 
L 55.421875 11.921875 
L 55.421875 72.90625 
L 64.984375 72.90625 
L 64.984375 0 
L 51.703125 0 
L 19.390625 60.984375 
L 19.390625 0 
L 9.8125 0 
z
" id="DejaVuSans-78"/>
       <path d="M 18.3125 70.21875 
L 18.3125 54.6875 
L 36.8125 54.6875 
L 36.8125 47.703125 
L 18.3125 47.703125 
L 18.3125 18.015625 
Q 18.3125 11.328125 20.140625 9.421875 
Q 21.96875 7.515625 27.59375 7.515625 
L 36.8125 7.515625 
L 36.8125 0 
L 27.59375 0 
Q 17.1875 0 13.234375 3.875 
Q 9.28125 7.765625 9.28125 18.015625 
L 9.28125 47.703125 
L 2.6875 47.703125 
L 2.6875 54.6875 
L 9.28125 54.6875 
L 9.28125 70.21875 
z
" id="DejaVuSans-116"/>
       <path d="M 4.890625 31.390625 
L 31.203125 31.390625 
L 31.203125 23.390625 
L 4.890625 23.390625 
z
" id="DejaVuSans-45"/>
       <path d="M 45.40625 46.390625 
L 45.40625 75.984375 
L 54.390625 75.984375 
L 54.390625 0 
L 45.40625 0 
L 45.40625 8.203125 
Q 42.578125 3.328125 38.25 0.953125 
Q 33.9375 -1.421875 27.875 -1.421875 
Q 17.96875 -1.421875 11.734375 6.484375 
Q 5.515625 14.40625 5.515625 27.296875 
Q 5.515625 40.1875 11.734375 48.09375 
Q 17.96875 56 27.875 56 
Q 33.9375 56 38.25 53.625 
Q 42.578125 51.265625 45.40625 46.390625 
z
M 14.796875 27.296875 
Q 14.796875 17.390625 18.875 11.75 
Q 22.953125 6.109375 30.078125 6.109375 
Q 37.203125 6.109375 41.296875 11.75 
Q 45.40625 17.390625 45.40625 27.296875 
Q 45.40625 37.203125 41.296875 42.84375 
Q 37.203125 48.484375 30.078125 48.484375 
Q 22.953125 48.484375 18.875 42.84375 
Q 14.796875 37.203125 14.796875 27.296875 
z
" id="DejaVuSans-100"/>
      </defs>
      <use xlink:href="#DejaVuSans-84"/>
      <use x="46.333984" xlink:href="#DejaVuSans-114"/>
      <use x="87.447266" xlink:href="#DejaVuSans-97"/>
      <use x="148.726562" xlink:href="#DejaVuSans-105"/>
      <use x="176.509766" xlink:href="#DejaVuSans-110"/>
      <use x="239.888672" xlink:href="#DejaVuSans-32"/>
      <use x="271.675781" xlink:href="#DejaVuSans-102"/>
      <use x="306.880859" xlink:href="#DejaVuSans-114"/>
      <use x="345.744141" xlink:href="#DejaVuSans-111"/>
      <use x="406.925781" xlink:href="#DejaVuSans-109"/>
      <use x="504.337891" xlink:href="#DejaVuSans-32"/>
      <use x="536.125" xlink:href="#DejaVuSans-73"/>
      <use x="565.617188" xlink:href="#DejaVuSans-109"/>
      <use x="663.029297" xlink:href="#DejaVuSans-97"/>
      <use x="724.308594" xlink:href="#DejaVuSans-103"/>
      <use x="787.785156" xlink:href="#DejaVuSans-101"/>
      <use x="849.308594" xlink:href="#DejaVuSans-78"/>
      <use x="924.113281" xlink:href="#DejaVuSans-101"/>
      <use x="985.636719" xlink:href="#DejaVuSans-116"/>
      <use x="1024.845703" xlink:href="#DejaVuSans-32"/>
      <use x="1056.632812" xlink:href="#DejaVuSans-112"/>
      <use x="1120.109375" xlink:href="#DejaVuSans-114"/>
      <use x="1158.972656" xlink:href="#DejaVuSans-101"/>
      <use x="1220.496094" xlink:href="#DejaVuSans-45"/>
      <use x="1256.580078" xlink:href="#DejaVuSans-116"/>
      <use x="1295.789062" xlink:href="#DejaVuSans-114"/>
      <use x="1336.902344" xlink:href="#DejaVuSans-97"/>
      <use x="1398.181641" xlink:href="#DejaVuSans-105"/>
      <use x="1425.964844" xlink:href="#DejaVuSans-110"/>
      <use x="1489.34375" xlink:href="#DejaVuSans-101"/>
      <use x="1550.867188" xlink:href="#DejaVuSans-100"/>
     </g>
    </g>
    <g id="line2d_22">
     <path d="M 145.201989 79.616562 
L 165.201989 79.616562 
" style="fill:none;stroke:#ff7f0e;stroke-linecap:square;stroke-width:1.5;"/>
    </g>
    <g id="line2d_23"/>
    <g id="text_21">
     <!-- Train from synthetic-3d-texture -->
     <g transform="translate(173.201989 83.116562)scale(0.1 -0.1)">
      <defs>
       <path d="M 44.28125 53.078125 
L 44.28125 44.578125 
Q 40.484375 46.53125 36.375 47.5 
Q 32.28125 48.484375 27.875 48.484375 
Q 21.1875 48.484375 17.84375 46.4375 
Q 14.5 44.390625 14.5 40.28125 
Q 14.5 37.15625 16.890625 35.375 
Q 19.28125 33.59375 26.515625 31.984375 
L 29.59375 31.296875 
Q 39.15625 29.25 43.1875 25.515625 
Q 47.21875 21.78125 47.21875 15.09375 
Q 47.21875 7.46875 41.1875 3.015625 
Q 35.15625 -1.421875 24.609375 -1.421875 
Q 20.21875 -1.421875 15.453125 -0.5625 
Q 10.6875 0.296875 5.421875 2 
L 5.421875 11.28125 
Q 10.40625 8.6875 15.234375 7.390625 
Q 20.0625 6.109375 24.8125 6.109375 
Q 31.15625 6.109375 34.5625 8.28125 
Q 37.984375 10.453125 37.984375 14.40625 
Q 37.984375 18.0625 35.515625 20.015625 
Q 33.0625 21.96875 24.703125 23.78125 
L 21.578125 24.515625 
Q 13.234375 26.265625 9.515625 29.90625 
Q 5.8125 33.546875 5.8125 39.890625 
Q 5.8125 47.609375 11.28125 51.796875 
Q 16.75 56 26.8125 56 
Q 31.78125 56 36.171875 55.265625 
Q 40.578125 54.546875 44.28125 53.078125 
z
" id="DejaVuSans-115"/>
       <path d="M 32.171875 -5.078125 
Q 28.375 -14.84375 24.75 -17.8125 
Q 21.140625 -20.796875 15.09375 -20.796875 
L 7.90625 -20.796875 
L 7.90625 -13.28125 
L 13.1875 -13.28125 
Q 16.890625 -13.28125 18.9375 -11.515625 
Q 21 -9.765625 23.484375 -3.21875 
L 25.09375 0.875 
L 2.984375 54.6875 
L 12.5 54.6875 
L 29.59375 11.921875 
L 46.6875 54.6875 
L 56.203125 54.6875 
z
" id="DejaVuSans-121"/>
       <path d="M 54.890625 54.6875 
L 35.109375 28.078125 
L 55.90625 0 
L 45.3125 0 
L 29.390625 21.484375 
L 13.484375 0 
L 2.875 0 
L 24.125 28.609375 
L 4.6875 54.6875 
L 15.28125 54.6875 
L 29.78125 35.203125 
L 44.28125 54.6875 
z
" id="DejaVuSans-120"/>
       <path d="M 8.5 21.578125 
L 8.5 54.6875 
L 17.484375 54.6875 
L 17.484375 21.921875 
Q 17.484375 14.15625 20.5 10.265625 
Q 23.53125 6.390625 29.59375 6.390625 
Q 36.859375 6.390625 41.078125 11.03125 
Q 45.3125 15.671875 45.3125 23.6875 
L 45.3125 54.6875 
L 54.296875 54.6875 
L 54.296875 0 
L 45.3125 0 
L 45.3125 8.40625 
Q 42.046875 3.421875 37.71875 1 
Q 33.40625 -1.421875 27.6875 -1.421875 
Q 18.265625 -1.421875 13.375 4.4375 
Q 8.5 10.296875 8.5 21.578125 
z
M 31.109375 56 
z
" id="DejaVuSans-117"/>
      </defs>
      <use xlink:href="#DejaVuSans-84"/>
      <use x="46.333984" xlink:href="#DejaVuSans-114"/>
      <use x="87.447266" xlink:href="#DejaVuSans-97"/>
      <use x="148.726562" xlink:href="#DejaVuSans-105"/>
      <use x="176.509766" xlink:href="#DejaVuSans-110"/>
      <use x="239.888672" xlink:href="#DejaVuSans-32"/>
      <use x="271.675781" xlink:href="#DejaVuSans-102"/>
      <use x="306.880859" xlink:href="#DejaVuSans-114"/>
      <use x="345.744141" xlink:href="#DejaVuSans-111"/>
      <use x="406.925781" xlink:href="#DejaVuSans-109"/>
      <use x="504.337891" xlink:href="#DejaVuSans-32"/>
      <use x="536.125" xlink:href="#DejaVuSans-115"/>
      <use x="588.224609" xlink:href="#DejaVuSans-121"/>
      <use x="647.404297" xlink:href="#DejaVuSans-110"/>
      <use x="710.783203" xlink:href="#DejaVuSans-116"/>
      <use x="749.992188" xlink:href="#DejaVuSans-104"/>
      <use x="813.371094" xlink:href="#DejaVuSans-101"/>
      <use x="874.894531" xlink:href="#DejaVuSans-116"/>
      <use x="914.103516" xlink:href="#DejaVuSans-105"/>
      <use x="941.886719" xlink:href="#DejaVuSans-99"/>
      <use x="996.867188" xlink:href="#DejaVuSans-45"/>
      <use x="1032.951172" xlink:href="#DejaVuSans-51"/>
      <use x="1096.574219" xlink:href="#DejaVuSans-100"/>
      <use x="1160.050781" xlink:href="#DejaVuSans-45"/>
      <use x="1196.134766" xlink:href="#DejaVuSans-116"/>
      <use x="1235.34375" xlink:href="#DejaVuSans-101"/>
      <use x="1295.117188" xlink:href="#DejaVuSans-120"/>
      <use x="1354.296875" xlink:href="#DejaVuSans-116"/>
      <use x="1393.505859" xlink:href="#DejaVuSans-117"/>
      <use x="1456.884766" xlink:href="#DejaVuSans-114"/>
      <use x="1495.748047" xlink:href="#DejaVuSans-101"/>
     </g>
    </g>
   </g>
  </g>
  <g id="axes_2">
   <g id="patch_8">
    <path d="M 394.363636 384.48 
L 648 384.48 
L 648 51.84 
L 394.363636 51.84 
z
" style="fill:#ffffff;"/>
   </g>
   <g id="matplotlib.axis_3">
    <g id="xtick_10">
     <g id="line2d_24">
      <g>
       <use style="stroke:#000000;stroke-width:0.8;" x="394.363636" xlink:href="#mab329ebf14" y="384.48"/>
      </g>
     </g>
     <g id="text_22">
      <!-- 0 -->
      <g transform="translate(391.182386 399.078438)scale(0.1 -0.1)">
       <use xlink:href="#DejaVuSans-48"/>
      </g>
     </g>
    </g>
    <g id="xtick_11">
     <g id="line2d_25">
      <g>
       <use style="stroke:#000000;stroke-width:0.8;" x="426.068182" xlink:href="#mab329ebf14" y="384.48"/>
      </g>
     </g>
     <g id="text_23">
      <!-- 50 -->
      <g transform="translate(419.705682 399.078438)scale(0.1 -0.1)">
       <use xlink:href="#DejaVuSans-53"/>
       <use x="63.623047" xlink:href="#DejaVuSans-48"/>
      </g>
     </g>
    </g>
    <g id="xtick_12">
     <g id="line2d_26">
      <g>
       <use style="stroke:#000000;stroke-width:0.8;" x="457.772727" xlink:href="#mab329ebf14" y="384.48"/>
      </g>
     </g>
     <g id="text_24">
      <!-- 100 -->
      <g transform="translate(448.228977 399.078438)scale(0.1 -0.1)">
       <use xlink:href="#DejaVuSans-49"/>
       <use x="63.623047" xlink:href="#DejaVuSans-48"/>
       <use x="127.246094" xlink:href="#DejaVuSans-48"/>
      </g>
     </g>
    </g>
    <g id="xtick_13">
     <g id="line2d_27">
      <g>
       <use style="stroke:#000000;stroke-width:0.8;" x="489.477273" xlink:href="#mab329ebf14" y="384.48"/>
      </g>
     </g>
     <g id="text_25">
      <!-- 150 -->
      <g transform="translate(479.933523 399.078438)scale(0.1 -0.1)">
       <use xlink:href="#DejaVuSans-49"/>
       <use x="63.623047" xlink:href="#DejaVuSans-53"/>
       <use x="127.246094" xlink:href="#DejaVuSans-48"/>
      </g>
     </g>
    </g>
    <g id="xtick_14">
     <g id="line2d_28">
      <g>
       <use style="stroke:#000000;stroke-width:0.8;" x="521.181818" xlink:href="#mab329ebf14" y="384.48"/>
      </g>
     </g>
     <g id="text_26">
      <!-- 200 -->
      <g transform="translate(511.638068 399.078438)scale(0.1 -0.1)">
       <use xlink:href="#DejaVuSans-50"/>
       <use x="63.623047" xlink:href="#DejaVuSans-48"/>
       <use x="127.246094" xlink:href="#DejaVuSans-48"/>
      </g>
     </g>
    </g>
    <g id="xtick_15">
     <g id="line2d_29">
      <g>
       <use style="stroke:#000000;stroke-width:0.8;" x="552.886364" xlink:href="#mab329ebf14" y="384.48"/>
      </g>
     </g>
     <g id="text_27">
      <!-- 250 -->
      <g transform="translate(543.342614 399.078438)scale(0.1 -0.1)">
       <use xlink:href="#DejaVuSans-50"/>
       <use x="63.623047" xlink:href="#DejaVuSans-53"/>
       <use x="127.246094" xlink:href="#DejaVuSans-48"/>
      </g>
     </g>
    </g>
    <g id="xtick_16">
     <g id="line2d_30">
      <g>
       <use style="stroke:#000000;stroke-width:0.8;" x="584.590909" xlink:href="#mab329ebf14" y="384.48"/>
      </g>
     </g>
     <g id="text_28">
      <!-- 300 -->
      <g transform="translate(575.047159 399.078438)scale(0.1 -0.1)">
       <use xlink:href="#DejaVuSans-51"/>
       <use x="63.623047" xlink:href="#DejaVuSans-48"/>
       <use x="127.246094" xlink:href="#DejaVuSans-48"/>
      </g>
     </g>
    </g>
    <g id="xtick_17">
     <g id="line2d_31">
      <g>
       <use style="stroke:#000000;stroke-width:0.8;" x="616.295455" xlink:href="#mab329ebf14" y="384.48"/>
      </g>
     </g>
     <g id="text_29">
      <!-- 350 -->
      <g transform="translate(606.751705 399.078438)scale(0.1 -0.1)">
       <use xlink:href="#DejaVuSans-51"/>
       <use x="63.623047" xlink:href="#DejaVuSans-53"/>
       <use x="127.246094" xlink:href="#DejaVuSans-48"/>
      </g>
     </g>
    </g>
    <g id="xtick_18">
     <g id="line2d_32">
      <g>
       <use style="stroke:#000000;stroke-width:0.8;" x="648" xlink:href="#mab329ebf14" y="384.48"/>
      </g>
     </g>
     <g id="text_30">
      <!-- 400 -->
      <g transform="translate(638.45625 399.078438)scale(0.1 -0.1)">
       <use xlink:href="#DejaVuSans-52"/>
       <use x="63.623047" xlink:href="#DejaVuSans-48"/>
       <use x="127.246094" xlink:href="#DejaVuSans-48"/>
      </g>
     </g>
    </g>
    <g id="text_31">
     <!-- Epoch -->
     <g transform="translate(505.870881 412.756563)scale(0.1 -0.1)">
      <use xlink:href="#DejaVuSans-69"/>
      <use x="63.183594" xlink:href="#DejaVuSans-112"/>
      <use x="126.660156" xlink:href="#DejaVuSans-111"/>
      <use x="187.841797" xlink:href="#DejaVuSans-99"/>
      <use x="242.822266" xlink:href="#DejaVuSans-104"/>
     </g>
    </g>
   </g>
   <g id="matplotlib.axis_4">
    <g id="ytick_9">
     <g id="line2d_33">
      <g>
       <use style="stroke:#000000;stroke-width:0.8;" x="394.363636" xlink:href="#mefd9103ea5" y="334.232181"/>
      </g>
     </g>
     <g id="text_32">
      <!-- 50 -->
      <g transform="translate(374.638636 338.0314)scale(0.1 -0.1)">
       <use xlink:href="#DejaVuSans-53"/>
       <use x="63.623047" xlink:href="#DejaVuSans-48"/>
      </g>
     </g>
    </g>
    <g id="ytick_10">
     <g id="line2d_34">
      <g>
       <use style="stroke:#000000;stroke-width:0.8;" x="394.363636" xlink:href="#mefd9103ea5" y="280.13945"/>
      </g>
     </g>
     <g id="text_33">
      <!-- 100 -->
      <g transform="translate(368.276136 283.938669)scale(0.1 -0.1)">
       <use xlink:href="#DejaVuSans-49"/>
       <use x="63.623047" xlink:href="#DejaVuSans-48"/>
       <use x="127.246094" xlink:href="#DejaVuSans-48"/>
      </g>
     </g>
    </g>
    <g id="ytick_11">
     <g id="line2d_35">
      <g>
       <use style="stroke:#000000;stroke-width:0.8;" x="394.363636" xlink:href="#mefd9103ea5" y="226.04672"/>
      </g>
     </g>
     <g id="text_34">
      <!-- 150 -->
      <g transform="translate(368.276136 229.845939)scale(0.1 -0.1)">
       <use xlink:href="#DejaVuSans-49"/>
       <use x="63.623047" xlink:href="#DejaVuSans-53"/>
       <use x="127.246094" xlink:href="#DejaVuSans-48"/>
      </g>
     </g>
    </g>
    <g id="ytick_12">
     <g id="line2d_36">
      <g>
       <use style="stroke:#000000;stroke-width:0.8;" x="394.363636" xlink:href="#mefd9103ea5" y="171.95399"/>
      </g>
     </g>
     <g id="text_35">
      <!-- 200 -->
      <g transform="translate(368.276136 175.753208)scale(0.1 -0.1)">
       <use xlink:href="#DejaVuSans-50"/>
       <use x="63.623047" xlink:href="#DejaVuSans-48"/>
       <use x="127.246094" xlink:href="#DejaVuSans-48"/>
      </g>
     </g>
    </g>
    <g id="ytick_13">
     <g id="line2d_37">
      <g>
       <use style="stroke:#000000;stroke-width:0.8;" x="394.363636" xlink:href="#mefd9103ea5" y="117.861259"/>
      </g>
     </g>
     <g id="text_36">
      <!-- 250 -->
      <g transform="translate(368.276136 121.660478)scale(0.1 -0.1)">
       <use xlink:href="#DejaVuSans-50"/>
       <use x="63.623047" xlink:href="#DejaVuSans-53"/>
       <use x="127.246094" xlink:href="#DejaVuSans-48"/>
      </g>
     </g>
    </g>
    <g id="ytick_14">
     <g id="line2d_38">
      <g>
       <use style="stroke:#000000;stroke-width:0.8;" x="394.363636" xlink:href="#mefd9103ea5" y="63.768529"/>
      </g>
     </g>
     <g id="text_37">
      <!-- 300 -->
      <g transform="translate(368.276136 67.567748)scale(0.1 -0.1)">
       <use xlink:href="#DejaVuSans-51"/>
       <use x="63.623047" xlink:href="#DejaVuSans-48"/>
       <use x="127.246094" xlink:href="#DejaVuSans-48"/>
      </g>
     </g>
    </g>
    <g id="text_38">
     <!-- MSE -->
     <g transform="translate(362.196449 228.807656)rotate(-90)scale(0.1 -0.1)">
      <defs>
       <path d="M 53.515625 70.515625 
L 53.515625 60.890625 
Q 47.90625 63.578125 42.921875 64.890625 
Q 37.9375 66.21875 33.296875 66.21875 
Q 25.25 66.21875 20.875 63.09375 
Q 16.5 59.96875 16.5 54.203125 
Q 16.5 49.359375 19.40625 46.890625 
Q 22.3125 44.4375 30.421875 42.921875 
L 36.375 41.703125 
Q 47.40625 39.59375 52.65625 34.296875 
Q 57.90625 29 57.90625 20.125 
Q 57.90625 9.515625 50.796875 4.046875 
Q 43.703125 -1.421875 29.984375 -1.421875 
Q 24.8125 -1.421875 18.96875 -0.25 
Q 13.140625 0.921875 6.890625 3.21875 
L 6.890625 13.375 
Q 12.890625 10.015625 18.65625 8.296875 
Q 24.421875 6.59375 29.984375 6.59375 
Q 38.421875 6.59375 43.015625 9.90625 
Q 47.609375 13.234375 47.609375 19.390625 
Q 47.609375 24.75 44.3125 27.78125 
Q 41.015625 30.8125 33.5 32.328125 
L 27.484375 33.5 
Q 16.453125 35.6875 11.515625 40.375 
Q 6.59375 45.0625 6.59375 53.421875 
Q 6.59375 63.09375 13.40625 68.65625 
Q 20.21875 74.21875 32.171875 74.21875 
Q 37.3125 74.21875 42.625 73.28125 
Q 47.953125 72.359375 53.515625 70.515625 
z
" id="DejaVuSans-83"/>
      </defs>
      <use xlink:href="#DejaVuSans-77"/>
      <use x="86.279297" xlink:href="#DejaVuSans-83"/>
      <use x="149.755859" xlink:href="#DejaVuSans-69"/>
     </g>
    </g>
   </g>
   <g id="line2d_39">
    <path clip-path="url(#pb5966c3e50)" d="M 394.363636 66.96 
L 394.997727 192.974425 
L 395.631818 229.930578 
L 396.265909 210.71684 
L 396.9 202.494745 
L 397.534091 215.563549 
L 398.168182 265.328861 
L 398.802273 267.990223 
L 399.436364 219.025484 
L 400.070455 285.299897 
L 400.704545 240.889765 
L 401.338636 258.523995 
L 401.972727 268.477058 
L 402.606818 281.069845 
L 403.240909 300.132124 
L 403.875 261.888563 
L 404.509091 285.927373 
L 405.143182 281.589136 
L 405.777273 278.797951 
L 406.411364 303.35605 
L 407.045455 274.254161 
L 407.679545 265.004305 
L 408.313636 307.196634 
L 408.947727 305.357481 
L 409.581818 314.769616 
L 410.215909 280.766926 
L 411.484091 323.997836 
L 412.118182 313.579576 
L 412.752273 295.523423 
L 413.386364 310.701843 
L 414.020455 320.481809 
L 414.654545 298.704076 
L 415.288636 318.220733 
L 415.922727 321.509571 
L 416.556818 321.953131 
L 417.190909 319.032124 
L 417.825 310.550384 
L 418.459091 320.979462 
L 419.093182 302.858397 
L 420.361364 331.624911 
L 420.995455 304.827373 
L 421.629545 317.874539 
L 422.263636 322.266869 
L 422.897727 309.749811 
L 423.531818 321.423022 
L 424.165909 317.030693 
L 424.8 337.5102 
L 425.434091 317.560801 
L 426.068182 337.423652 
L 426.702273 346.532868 
L 427.336364 333.94008 
L 427.970455 340.928861 
L 428.604545 340.1932 
L 429.238636 343.438764 
L 429.872727 336.287705 
L 430.506818 320.665724 
L 431.140909 334.004991 
L 431.775 339.771276 
L 432.409091 335.930693 
L 433.043182 339.306079 
L 433.677273 348.815581 
L 434.311364 341.588792 
L 434.945455 344.28261 
L 435.579545 343.893143 
L 436.213636 343.179118 
L 436.847727 346.29486 
L 437.481818 337.553475 
L 438.115909 341.101958 
L 438.75 341.891712 
L 439.384091 342.12972 
L 440.018182 338.959886 
L 440.652273 343.676772 
L 441.286364 346.522049 
L 441.920455 346.911517 
L 442.554545 334.578374 
L 443.188636 348.263835 
L 443.822727 340.539393 
L 444.456818 347.008884 
L 445.090909 345.634928 
L 445.725 341.426514 
L 446.359091 352.374883 
L 446.993182 340.885587 
L 447.627273 314.196234 
L 448.261364 326.421191 
L 448.895455 350.092169 
L 449.529545 342.205449 
L 450.163636 347.777001 
L 450.797727 351.401214 
L 451.431818 331.776371 
L 452.065909 345.786388 
L 452.7 345.602473 
L 453.334091 349.832524 
L 453.968182 342.227086 
L 454.602273 348.956222 
L 455.236364 345.234642 
L 455.870455 348.101557 
L 456.504545 345.440195 
L 457.138636 348.815581 
L 457.772727 335.595318 
L 458.406818 338.33241 
L 459.040909 332.014379 
L 459.675 348.783125 
L 460.309091 348.372021 
L 460.943182 345.732295 
L 461.577273 345.137275 
L 462.211364 346.262404 
L 462.845455 343.330578 
L 463.479545 350.676371 
L 464.113636 347.657997 
L 464.747727 349.605335 
L 465.381818 340.04174 
L 466.015909 344.531437 
L 466.65 341.75107 
L 467.284091 334.362003 
L 467.918182 338.418958 
L 468.552273 346.381408 
L 469.186364 348.415295 
L 469.820455 338.970704 
L 470.454545 343.655135 
L 471.088636 344.758626 
L 471.722727 353.402645 
L 472.356818 347.874367 
L 472.990909 340.074196 
L 473.625 349.150956 
L 474.259091 351.098294 
L 474.893182 338.289136 
L 475.527273 347.041339 
L 476.161364 341.588792 
L 476.795455 347.950097 
L 477.429545 346.251586 
L 478.063636 344.012147 
L 478.697727 351.531036 
L 479.331818 346.705965 
L 479.965909 347.614722 
L 480.6 343.730864 
L 481.234091 346.933154 
L 481.868182 344.271792 
L 482.502273 355.652902 
L 483.136364 343.492856 
L 483.770455 352.288334 
L 484.404545 347.517355 
L 485.038636 353.316096 
L 485.672727 349.648609 
L 486.306818 337.456108 
L 486.940909 347.593085 
L 487.575 349.064408 
L 488.209091 354.711689 
L 488.843182 346.565323 
L 489.477273 349.356508 
L 490.111364 349.302416 
L 490.745455 339.219531 
L 491.379545 345.667384 
L 492.013636 347.441626 
L 492.647727 338.548781 
L 493.281818 349.432238 
L 493.915909 347.25771 
L 495.184091 341.805163 
L 496.452273 348.361202 
L 497.720455 348.555936 
L 498.354545 349.1185 
L 498.988636 345.656566 
L 499.622727 343.979691 
L 500.256818 348.718214 
L 500.890909 350.741282 
L 501.525 345.559199 
L 502.159091 342.291998 
L 502.793182 317.138878 
L 503.427273 342.302816 
L 504.061364 345.753932 
L 504.695455 347.85273 
L 505.329545 346.132582 
L 505.963636 348.902129 
L 506.597727 350.838649 
L 507.231818 346.024396 
L 507.865909 349.356508 
L 508.5 342.897836 
L 509.134091 338.051128 
L 510.402273 350.97929 
L 511.036364 339.587361 
L 511.670455 341.037046 
L 512.304545 353.197092 
L 512.938636 343.060114 
L 513.572727 351.174024 
L 514.206818 350.395089 
L 514.840909 347.225255 
L 515.475 334.838019 
L 516.109091 354.333039 
L 516.743182 351.942141 
L 517.377273 347.971734 
L 518.011364 356.269559 
L 518.645455 345.126457 
L 519.279545 341.394058 
L 519.913636 342.519187 
L 520.547727 350.167899 
L 521.181818 346.641053 
L 521.815909 351.617584 
L 522.45 351.336302 
L 523.084091 349.583698 
L 523.718182 344.455707 
L 524.352273 349.086045 
L 524.986364 343.871505 
L 525.620455 344.315066 
L 526.254545 352.017871 
L 526.888636 343.200756 
L 527.522727 348.123194 
L 528.156818 341.329147 
L 528.790909 347.906823 
L 529.425 345.678203 
L 530.059091 352.537161 
L 530.693182 342.313635 
L 531.327273 351.087476 
L 531.961364 349.378145 
L 532.595455 350.373452 
L 533.863636 343.352215 
L 534.497727 347.831093 
L 535.131818 350.990109 
L 535.765909 347.474081 
L 536.4 348.729033 
L 537.034091 348.015009 
L 537.668182 351.65004 
L 538.302273 350.124625 
L 538.936364 344.174425 
L 539.570455 353.683927 
L 540.204545 331.830464 
L 540.838636 346.500412 
L 542.106818 350.589823 
L 542.740909 318.653475 
L 543.375 348.512662 
L 544.009091 350.30854 
L 544.643182 350.784556 
L 545.277273 347.311803 
L 545.911364 350.773738 
L 546.545455 343.557768 
L 547.179545 347.311803 
L 547.813636 345.310372 
L 548.447727 345.158912 
L 549.081818 354.170761 
L 549.715909 348.793944 
L 550.35 350.048895 
L 550.984091 352.223423 
L 551.618182 342.973566 
L 552.252273 353.467556 
L 552.886364 345.256279 
L 553.520455 348.729033 
L 554.154545 354.646777 
L 554.788636 350.048895 
L 555.422727 347.268529 
L 556.056818 348.923766 
L 556.690909 351.000927 
L 557.325 350.568185 
L 557.959091 347.030521 
L 559.227273 352.147693 
L 560.495455 350.265266 
L 561.129545 346.954791 
L 561.763636 348.101557 
L 562.397727 350.795375 
L 563.031818 354.138306 
L 563.665909 346.262404 
L 564.3 353.153818 
L 564.934091 350.362633 
L 565.568182 350.102988 
L 566.202273 353.727201 
L 566.836364 342.854562 
L 567.470455 345.851299 
L 568.104545 347.192799 
L 568.738636 349.302416 
L 569.372727 349.19423 
L 570.006818 337.347922 
L 570.640909 349.486331 
L 571.275 343.849868 
L 571.909091 347.236073 
L 572.543182 349.399782 
L 573.177273 349.140137 
L 573.811364 348.512662 
L 574.445455 347.40917 
L 575.079545 352.84008 
L 575.713636 345.342828 
L 576.347727 345.69984 
L 576.981818 348.00419 
L 577.615909 347.430807 
L 578.25 350.676371 
L 578.884091 352.493887 
L 579.518182 344.812719 
L 580.152273 347.582267 
L 580.786364 347.430807 
L 581.420455 353.424282 
L 582.054545 321.001099 
L 582.688636 348.793944 
L 583.322727 355.945003 
L 583.956818 347.365896 
L 584.590909 347.831093 
L 585.225 334.838019 
L 585.859091 342.897836 
L 586.493182 339.219531 
L 587.127273 347.971734 
L 587.761364 346.132582 
L 588.395455 348.555936 
L 589.029545 317.138878 
L 589.663636 348.512662 
L 590.297727 349.432238 
L 590.931818 350.741282 
L 591.565909 341.037046 
L 592.2 349.1185 
L 592.834091 342.291998 
L 593.468182 347.441626 
L 594.102273 342.302816 
L 594.736364 345.353646 
L 595.370455 356.269559 
L 596.004545 341.805163 
L 596.638636 342.519187 
L 597.272727 344.553074 
L 597.906818 353.197092 
L 598.540909 343.979691 
L 599.175 350.395089 
L 599.809091 347.25771 
L 600.443182 345.126457 
L 601.077273 354.333039 
L 601.711364 343.060114 
L 602.345455 350.838649 
L 602.979545 348.902129 
L 603.613636 349.302416 
L 604.247727 347.85273 
L 604.881818 338.051128 
L 605.515909 348.718214 
L 606.15 345.656566 
L 606.784091 345.667384 
L 607.418182 347.225255 
L 608.052273 341.394058 
L 608.686364 344.769445 
L 609.320455 351.942141 
L 609.954545 349.356508 
L 610.588636 338.548781 
L 611.222727 350.97929 
L 611.856818 351.174024 
L 612.490909 339.587361 
L 613.125 348.361202 
L 613.759091 345.559199 
L 614.393182 349.356508 
L 615.027273 350.167899 
L 615.661364 346.024396 
L 616.295455 345.753932 
L 616.929545 349.432238 
L 617.563636 342.302816 
L 618.197727 347.441626 
L 618.831818 341.394058 
L 619.465909 345.656566 
L 620.1 343.979691 
L 620.734091 338.051128 
L 621.368182 349.1185 
L 622.002273 339.219531 
L 622.636364 349.356508 
L 623.270455 349.302416 
L 623.904545 342.291998 
L 624.538636 347.85273 
L 625.172727 350.741282 
L 625.806818 351.942141 
L 626.440909 341.037046 
L 627.075 354.333039 
L 627.709091 317.138878 
L 628.343182 345.353646 
L 628.977273 346.024396 
L 629.611364 348.512662 
L 630.245455 345.667384 
L 630.879545 347.225255 
L 631.513636 356.269559 
L 632.147727 345.126457 
L 632.781818 342.519187 
L 633.415909 345.559199 
L 634.05 343.060114 
L 634.684091 350.97929 
L 635.318182 344.553074 
L 635.952273 345.753932 
L 636.586364 338.548781 
L 637.220455 347.971734 
L 637.854545 349.356508 
L 638.488636 350.395089 
L 639.122727 353.197092 
L 639.756818 334.838019 
L 640.390909 342.897836 
L 641.025 348.361202 
L 641.659091 351.174024 
L 642.293182 347.25771 
L 642.927273 350.838649 
L 643.561364 348.902129 
L 644.195455 348.555936 
L 644.829545 344.769445 
L 645.463636 348.718214 
L 646.097727 341.805163 
L 646.731818 339.587361 
L 647.365909 346.132582 
L 647.365909 346.132582 
" style="fill:none;stroke:#1f77b4;stroke-linecap:square;stroke-width:1.5;"/>
   </g>
   <g id="line2d_40">
    <path clip-path="url(#pb5966c3e50)" d="M 394.363636 157.66269 
L 394.997727 233.944259 
L 395.631818 257.344774 
L 396.265909 241.214322 
L 396.9 231.03407 
L 397.534091 251.610944 
L 398.168182 286.598122 
L 398.802273 280.734471 
L 399.436364 233.814436 
L 400.070455 303.886159 
L 400.704545 278.094745 
L 401.338636 283.655478 
L 401.972727 299.180092 
L 402.606818 298.217241 
L 403.240909 319.464865 
L 403.875 282.259886 
L 404.509091 305.606308 
L 405.143182 296.854104 
L 405.777273 302.858397 
L 406.411364 322.245232 
L 407.045455 296.507911 
L 407.679545 251.448666 
L 408.313636 315.19154 
L 408.947727 311.156222 
L 409.581818 320.676543 
L 410.215909 282.476256 
L 411.484091 333.388334 
L 412.118182 324.019473 
L 412.752273 330.478145 
L 413.386364 329.342198 
L 414.020455 329.645117 
L 414.654545 322.580607 
L 415.288636 310.636932 
L 415.922727 329.69921 
L 416.556818 323.208082 
L 417.190909 333.128689 
L 418.459091 310.810029 
L 419.093182 325.469159 
L 419.727273 329.082553 
L 420.361364 330.456508 
L 420.995455 338.191769 
L 421.629545 328.098065 
L 422.263636 336.190338 
L 422.897727 339.360172 
L 423.531818 345.959485 
L 424.165909 331.603274 
L 424.8 320.384442 
L 425.434091 324.71186 
L 426.068182 347.495718 
L 426.702273 347.160343 
L 427.336364 311.156222 
L 427.970455 292.4185 
L 428.604545 324.93905 
L 429.238636 341.913349 
L 429.872727 341.632066 
L 430.506818 324.452215 
L 431.140909 266.497264 
L 431.775 336.850269 
L 432.409091 327.935787 
L 433.043182 342.57328 
L 433.677273 336.850269 
L 434.311364 339.96601 
L 434.945455 341.220962 
L 435.579545 325.144602 
L 436.213636 343.936417 
L 436.847727 339.414264 
L 437.481818 339.327716 
L 438.115909 343.698409 
L 438.75 330.337504 
L 439.384091 329.536932 
L 440.018182 307.012719 
L 440.652273 333.745346 
L 441.286364 349.507968 
L 441.920455 335.259943 
L 442.554545 336.39589 
L 443.188636 351.195661 
L 443.822727 340.571849 
L 444.456818 339.879462 
L 445.090909 347.831093 
L 445.725 344.531437 
L 446.359091 347.636359 
L 446.993182 352.515524 
L 447.627273 325.912719 
L 448.261364 226.144087 
L 448.895455 315.6351 
L 449.529545 297.113749 
L 450.163636 329.244831 
L 450.797727 325.122965 
L 451.431818 319.053761 
L 452.065909 340.506938 
L 452.7 340.290567 
L 453.334091 351.606766 
L 453.968182 346.305678 
L 454.602273 344.855993 
L 455.236364 338.289136 
L 455.870455 350.665552 
L 456.504545 347.311803 
L 457.138636 344.585529 
L 457.772727 346.879061 
L 458.406818 353.153818 
L 459.040909 346.37059 
L 459.675 358.595547 
L 460.309091 358.032982 
L 460.943182 353.413463 
L 462.211364 357.708426 
L 462.845455 355.317527 
L 463.479545 360.564522 
L 464.113636 357.870704 
L 464.747727 359.071563 
L 465.381818 355.73945 
L 466.015909 348.772307 
L 466.65 351.563492 
L 467.284091 358.519817 
L 467.918182 350.427544 
L 468.552273 352.76435 
L 469.186364 357.892341 
L 469.820455 354.506136 
L 470.454545 358.876829 
L 471.088636 348.285472 
L 471.722727 362.501042 
L 472.356818 358.887647 
L 472.990909 361.743744 
L 473.625 357.199954 
L 474.259091 358.563091 
L 474.893182 359.01747 
L 475.527273 360.542885 
L 476.161364 358.097894 
L 477.429545 357.611059 
L 478.063636 360.737619 
L 478.697727 355.44735 
L 479.331818 352.082782 
L 479.965909 356.886216 
L 480.6 360.218329 
L 481.234091 362.371219 
L 481.868182 363.041969 
L 482.502273 360.640252 
L 483.136364 360.05605 
L 483.770455 362.295489 
L 484.404545 355.761088 
L 485.038636 358.141168 
L 485.672727 363.215066 
L 486.306818 358.811918 
L 486.940909 362.81478 
L 487.575 365.551872 
L 488.209091 362.241397 
L 488.843182 358.141168 
L 489.477273 362.025026 
L 490.111364 362.912147 
L 490.745455 349.854161 
L 491.379545 359.439393 
L 492.013636 359.558397 
L 492.647727 360.099325 
L 493.281818 353.911116 
L 493.915909 360.001958 
L 494.55 351.563492 
L 495.184091 354.54941 
L 495.818182 356.215467 
L 496.452273 357.318958 
L 497.086364 361.484098 
L 497.720455 362.014207 
L 498.354545 361.256909 
L 498.988636 358.238535 
L 499.622727 358.49818 
L 500.890909 363.355707 
L 501.525 362.014207 
L 502.159091 356.258741 
L 502.793182 329.277287 
L 503.427273 324.34403 
L 504.061364 360.694345 
L 504.695455 360.196691 
L 505.329545 364.653932 
L 505.963636 366.82846 
L 506.597727 362.998695 
L 507.231818 354.917241 
L 507.865909 360.045232 
L 508.5 359.450212 
L 509.134091 362.760687 
L 509.768182 358.747006 
L 510.402273 363.398981 
L 511.036364 362.403675 
L 511.670455 362.21976 
L 512.304545 363.052788 
L 512.938636 359.547579 
L 513.572727 362.598409 
L 514.206818 361.148724 
L 514.840909 360.672707 
L 515.475 354.85233 
L 516.109091 363.398981 
L 516.743182 362.306308 
L 517.377273 361.873566 
L 518.011364 367.358569 
L 518.645455 365.389594 
L 519.279545 360.694345 
L 519.913636 361.873566 
L 520.547727 364.437562 
L 521.181818 363.041969 
L 521.815909 364.827029 
L 522.45 364.52411 
L 523.084091 362.803961 
L 523.718182 363.528804 
L 524.352273 360.715982 
L 524.986364 359.104018 
L 525.620455 361.39755 
L 526.254545 365.952158 
L 526.888636 363.431437 
L 527.522727 363.485529 
L 528.156818 362.933784 
L 528.790909 363.074425 
L 529.425 364.740481 
L 530.693182 367.207109 
L 531.327273 365.71415 
L 531.961364 364.859485 
L 532.595455 362.371219 
L 533.229545 363.10688 
L 533.863636 367.250384 
L 534.497727 361.365094 
L 535.765909 366.493085 
L 536.4 364.816211 
L 537.034091 366.75273 
L 537.668182 365.616783 
L 538.302273 362.998695 
L 538.936364 362.122393 
L 539.570455 363.539622 
L 540.204545 361.365094 
L 540.838636 364.902759 
L 541.472727 364.621477 
L 542.106818 365.995432 
L 542.740909 336.287705 
L 543.375 359.785587 
L 544.009091 359.158111 
L 544.643182 365.919702 
L 545.277273 365.616783 
L 545.911364 362.468586 
L 547.179545 365.0434 
L 547.813636 363.18261 
L 548.447727 365.541053 
L 549.715909 365.876428 
L 550.35 364.188735 
L 550.984091 365.746606 
L 551.618182 356.518386 
L 552.252273 362.338764 
L 552.886364 364.621477 
L 553.520455 363.582896 
L 555.422727 365.854791 
L 556.056818 365.660057 
L 556.690909 366.092799 
L 557.325 363.193429 
L 557.959091 363.604533 
L 558.593182 362.987876 
L 559.227273 364.545747 
L 559.861364 360.964808 
L 560.495455 366.038706 
L 561.129545 365.854791 
L 561.763636 365.281408 
L 562.397727 362.858054 
L 563.031818 362.100756 
L 563.665909 360.694345 
L 564.3 367.153017 
L 564.934091 364.383469 
L 565.568182 362.501042 
L 566.202273 365.649239 
L 566.836364 364.470017 
L 567.470455 362.912147 
L 568.104545 366.363263 
L 568.738636 364.437562 
L 569.372727 364.253646 
L 570.006818 359.493486 
L 570.640909 364.534928 
L 571.275 363.085243 
L 571.909091 364.286102 
L 572.543182 365.800698 
L 573.811364 360.899897 
L 574.445455 364.221191 
L 575.079545 366.265896 
L 575.713636 362.21976 
L 576.347727 362.858054 
L 576.981818 363.918271 
L 577.615909 364.232009 
L 578.25 362.717413 
L 578.884091 363.215066 
L 579.518182 366.731093 
L 580.152273 363.074425 
L 580.786364 365.140767 
L 581.420455 364.545747 
L 582.054545 342.962748 
L 582.688636 363.171792 
L 583.322727 363.496348 
L 583.956818 362.414493 
L 584.590909 361.895203 
L 585.225 365.248952 
L 585.859091 366.731093 
L 586.493182 364.870303 
L 587.127273 364.762118 
L 587.761364 363.150155 
L 588.395455 362.922965 
L 589.029545 365.010944 
L 589.663636 365.292227 
L 590.297727 364.426743 
L 590.931818 367.401843 
L 591.565909 364.480836 
L 592.2 363.442255 
L 592.834091 334.76229 
L 593.468182 365.800698 
L 594.102273 367.34775 
L 594.736364 366.352444 
L 595.370455 363.582896 
L 596.638636 367.109742 
L 597.272727 365.530235 
L 597.906818 363.128517 
L 598.540909 361.927659 
L 599.809091 366.46063 
L 600.443182 367.7264 
L 601.077273 352.418157 
L 601.711364 340.820675 
L 602.345455 363.485529 
L 602.979545 362.652501 
L 603.613636 364.037275 
L 604.247727 367.531666 
L 604.881818 364.653932 
L 605.515909 363.301614 
L 606.15 364.394287 
L 606.784091 363.896634 
L 607.418182 362.111574 
L 608.052273 363.950727 
L 608.686364 363.712719 
L 609.320455 363.312433 
L 609.954545 365.703331 
L 610.588636 369.36 
L 611.222727 363.517985 
L 611.856818 366.503904 
L 612.490909 367.65067 
L 613.125 364.188735 
L 613.759091 366.298351 
L 614.393182 363.020332 
L 615.027273 363.92909 
L 615.661364 362.555135 
L 616.295455 362.263034 
L 616.929545 366.438993 
L 617.563636 364.437562 
L 618.197727 365.324682 
L 618.831818 367.780492 
L 619.465909 367.931952 
L 620.1 361.47328 
L 620.734091 365.876428 
L 621.368182 364.632295 
L 622.002273 362.717413 
L 622.636364 359.861317 
L 623.270455 367.975226 
L 623.904545 363.864179 
L 624.538636 366.590452 
L 625.172727 363.885816 
L 625.806818 362.230578 
L 626.440909 364.340195 
L 627.075 362.706594 
L 627.709091 367.023194 
L 628.343182 364.048094 
L 628.977273 365.78988 
L 629.611364 361.267728 
L 630.245455 361.354276 
L 630.879545 362.728231 
L 631.513636 366.417355 
L 632.147727 365.811517 
L 632.781818 367.217928 
L 633.415909 360.759256 
L 634.05 362.468586 
L 634.684091 361.732925 
L 635.318182 365.551872 
L 635.952273 363.691082 
L 636.586364 367.120561 
L 637.220455 365.78988 
L 637.854545 363.874997 
L 638.488636 367.336932 
L 639.122727 364.632295 
L 639.756818 365.422049 
L 640.390909 365.71415 
L 641.025 364.881122 
L 641.659091 363.139336 
L 642.293182 365.335501 
L 642.927273 364.426743 
L 643.561364 362.403675 
L 644.195455 365.508598 
L 644.829545 365.422049 
L 645.463636 367.358569 
L 646.097727 358.119531 
L 646.731818 366.438993 
L 647.365909 364.978489 
L 648 361.808655 
L 648 361.808655 
" style="fill:none;stroke:#ff7f0e;stroke-linecap:square;stroke-width:1.5;"/>
   </g>
   <g id="patch_9">
    <path d="M 394.363636 384.48 
L 394.363636 51.84 
" style="fill:none;stroke:#000000;stroke-linecap:square;stroke-linejoin:miter;stroke-width:0.8;"/>
   </g>
   <g id="patch_10">
    <path d="M 648 384.48 
L 648 51.84 
" style="fill:none;stroke:#000000;stroke-linecap:square;stroke-linejoin:miter;stroke-width:0.8;"/>
   </g>
   <g id="patch_11">
    <path d="M 394.363636 384.48 
L 648 384.48 
" style="fill:none;stroke:#000000;stroke-linecap:square;stroke-linejoin:miter;stroke-width:0.8;"/>
   </g>
   <g id="patch_12">
    <path d="M 394.363636 51.84 
L 648 51.84 
" style="fill:none;stroke:#000000;stroke-linecap:square;stroke-linejoin:miter;stroke-width:0.8;"/>
   </g>
   <g id="legend_2">
    <g id="patch_13">
     <path d="M 447.565625 89.19625 
L 641 89.19625 
Q 643 89.19625 643 87.19625 
L 643 58.84 
Q 643 56.84 641 56.84 
L 447.565625 56.84 
Q 445.565625 56.84 445.565625 58.84 
L 445.565625 87.19625 
Q 445.565625 89.19625 447.565625 89.19625 
z
" style="fill:#ffffff;opacity:0.8;stroke:#cccccc;stroke-linejoin:miter;"/>
    </g>
    <g id="line2d_41">
     <path d="M 449.565625 64.938437 
L 469.565625 64.938437 
" style="fill:none;stroke:#1f77b4;stroke-linecap:square;stroke-width:1.5;"/>
    </g>
    <g id="line2d_42"/>
    <g id="text_39">
     <!-- Train from ImageNet pre-trained -->
     <g transform="translate(477.565625 68.438437)scale(0.1 -0.1)">
      <use xlink:href="#DejaVuSans-84"/>
      <use x="46.333984" xlink:href="#DejaVuSans-114"/>
      <use x="87.447266" xlink:href="#DejaVuSans-97"/>
      <use x="148.726562" xlink:href="#DejaVuSans-105"/>
      <use x="176.509766" xlink:href="#DejaVuSans-110"/>
      <use x="239.888672" xlink:href="#DejaVuSans-32"/>
      <use x="271.675781" xlink:href="#DejaVuSans-102"/>
      <use x="306.880859" xlink:href="#DejaVuSans-114"/>
      <use x="345.744141" xlink:href="#DejaVuSans-111"/>
      <use x="406.925781" xlink:href="#DejaVuSans-109"/>
      <use x="504.337891" xlink:href="#DejaVuSans-32"/>
      <use x="536.125" xlink:href="#DejaVuSans-73"/>
      <use x="565.617188" xlink:href="#DejaVuSans-109"/>
      <use x="663.029297" xlink:href="#DejaVuSans-97"/>
      <use x="724.308594" xlink:href="#DejaVuSans-103"/>
      <use x="787.785156" xlink:href="#DejaVuSans-101"/>
      <use x="849.308594" xlink:href="#DejaVuSans-78"/>
      <use x="924.113281" xlink:href="#DejaVuSans-101"/>
      <use x="985.636719" xlink:href="#DejaVuSans-116"/>
      <use x="1024.845703" xlink:href="#DejaVuSans-32"/>
      <use x="1056.632812" xlink:href="#DejaVuSans-112"/>
      <use x="1120.109375" xlink:href="#DejaVuSans-114"/>
      <use x="1158.972656" xlink:href="#DejaVuSans-101"/>
      <use x="1220.496094" xlink:href="#DejaVuSans-45"/>
      <use x="1256.580078" xlink:href="#DejaVuSans-116"/>
      <use x="1295.789062" xlink:href="#DejaVuSans-114"/>
      <use x="1336.902344" xlink:href="#DejaVuSans-97"/>
      <use x="1398.181641" xlink:href="#DejaVuSans-105"/>
      <use x="1425.964844" xlink:href="#DejaVuSans-110"/>
      <use x="1489.34375" xlink:href="#DejaVuSans-101"/>
      <use x="1550.867188" xlink:href="#DejaVuSans-100"/>
     </g>
    </g>
    <g id="line2d_43">
     <path d="M 449.565625 79.616562 
L 469.565625 79.616562 
" style="fill:none;stroke:#ff7f0e;stroke-linecap:square;stroke-width:1.5;"/>
    </g>
    <g id="line2d_44"/>
    <g id="text_40">
     <!-- Train from synthetic-3d-texture -->
     <g transform="translate(477.565625 83.116562)scale(0.1 -0.1)">
      <use xlink:href="#DejaVuSans-84"/>
      <use x="46.333984" xlink:href="#DejaVuSans-114"/>
      <use x="87.447266" xlink:href="#DejaVuSans-97"/>
      <use x="148.726562" xlink:href="#DejaVuSans-105"/>
      <use x="176.509766" xlink:href="#DejaVuSans-110"/>
      <use x="239.888672" xlink:href="#DejaVuSans-32"/>
      <use x="271.675781" xlink:href="#DejaVuSans-102"/>
      <use x="306.880859" xlink:href="#DejaVuSans-114"/>
      <use x="345.744141" xlink:href="#DejaVuSans-111"/>
      <use x="406.925781" xlink:href="#DejaVuSans-109"/>
      <use x="504.337891" xlink:href="#DejaVuSans-32"/>
      <use x="536.125" xlink:href="#DejaVuSans-115"/>
      <use x="588.224609" xlink:href="#DejaVuSans-121"/>
      <use x="647.404297" xlink:href="#DejaVuSans-110"/>
      <use x="710.783203" xlink:href="#DejaVuSans-116"/>
      <use x="749.992188" xlink:href="#DejaVuSans-104"/>
      <use x="813.371094" xlink:href="#DejaVuSans-101"/>
      <use x="874.894531" xlink:href="#DejaVuSans-116"/>
      <use x="914.103516" xlink:href="#DejaVuSans-105"/>
      <use x="941.886719" xlink:href="#DejaVuSans-99"/>
      <use x="996.867188" xlink:href="#DejaVuSans-45"/>
      <use x="1032.951172" xlink:href="#DejaVuSans-51"/>
      <use x="1096.574219" xlink:href="#DejaVuSans-100"/>
      <use x="1160.050781" xlink:href="#DejaVuSans-45"/>
      <use x="1196.134766" xlink:href="#DejaVuSans-116"/>
      <use x="1235.34375" xlink:href="#DejaVuSans-101"/>
      <use x="1295.117188" xlink:href="#DejaVuSans-120"/>
      <use x="1354.296875" xlink:href="#DejaVuSans-116"/>
      <use x="1393.505859" xlink:href="#DejaVuSans-117"/>
      <use x="1456.884766" xlink:href="#DejaVuSans-114"/>
      <use x="1495.748047" xlink:href="#DejaVuSans-101"/>
     </g>
    </g>
   </g>
  </g>
  <g id="text_41">
   <!-- ShanghaiTech PartA -->
   <g transform="translate(300.660937 17.758125)scale(0.12 -0.12)">
    <defs>
     <path d="M 19.671875 64.796875 
L 19.671875 37.40625 
L 32.078125 37.40625 
Q 38.96875 37.40625 42.71875 40.96875 
Q 46.484375 44.53125 46.484375 51.125 
Q 46.484375 57.671875 42.71875 61.234375 
Q 38.96875 64.796875 32.078125 64.796875 
z
M 9.8125 72.90625 
L 32.078125 72.90625 
Q 44.34375 72.90625 50.609375 67.359375 
Q 56.890625 61.8125 56.890625 51.125 
Q 56.890625 40.328125 50.609375 34.8125 
Q 44.34375 29.296875 32.078125 29.296875 
L 19.671875 29.296875 
L 19.671875 0 
L 9.8125 0 
z
" id="DejaVuSans-80"/>
    </defs>
    <use xlink:href="#DejaVuSans-83"/>
    <use x="63.476562" xlink:href="#DejaVuSans-104"/>
    <use x="126.855469" xlink:href="#DejaVuSans-97"/>
    <use x="188.134766" xlink:href="#DejaVuSans-110"/>
    <use x="251.513672" xlink:href="#DejaVuSans-103"/>
    <use x="314.990234" xlink:href="#DejaVuSans-104"/>
    <use x="378.369141" xlink:href="#DejaVuSans-97"/>
    <use x="439.648438" xlink:href="#DejaVuSans-105"/>
    <use x="467.431641" xlink:href="#DejaVuSans-84"/>
    <use x="511.515625" xlink:href="#DejaVuSans-101"/>
    <use x="573.039062" xlink:href="#DejaVuSans-99"/>
    <use x="628.019531" xlink:href="#DejaVuSans-104"/>
    <use x="691.398438" xlink:href="#DejaVuSans-32"/>
    <use x="723.185547" xlink:href="#DejaVuSans-80"/>
    <use x="778.988281" xlink:href="#DejaVuSans-97"/>
    <use x="840.267578" xlink:href="#DejaVuSans-114"/>
    <use x="881.380859" xlink:href="#DejaVuSans-116"/>
    <use x="920.589844" xlink:href="#DejaVuSans-65"/>
   </g>
  </g>
 </g>
 <defs>
  <clipPath id="pa9bb93f626">
   <rect height="332.64" width="253.636364" x="90" y="51.84"/>
  </clipPath>
  <clipPath id="pb5966c3e50">
   <rect height="332.64" width="253.636364" x="394.363636" y="51.84"/>
  </clipPath>
 </defs>
</svg>
