<?xml version="1.0" encoding="utf-8" standalone="no"?>
<!DOCTYPE svg PUBLIC "-//W3C//DTD SVG 1.1//EN"
  "http://www.w3.org/Graphics/SVG/1.1/DTD/svg11.dtd">
<!-- Created with matplotlib (https://matplotlib.org/) -->
<svg height="432pt" version="1.1" viewBox="0 0 720 432" width="720pt" xmlns="http://www.w3.org/2000/svg" xmlns:xlink="http://www.w3.org/1999/xlink">
 <metadata>
  <rdf:RDF xmlns:cc="http://creativecommons.org/ns#" xmlns:dc="http://purl.org/dc/elements/1.1/" xmlns:rdf="http://www.w3.org/1999/02/22-rdf-syntax-ns#">
   <cc:Work>
    <dc:type rdf:resource="http://purl.org/dc/dcmitype/StillImage"/>
    <dc:date>2022-01-11T17:12:22.422109</dc:date>
    <dc:format>image/svg+xml</dc:format>
    <dc:creator>
     <cc:Agent>
      <dc:title>Matplotlib v3.3.1, https://matplotlib.org/</dc:title>
     </cc:Agent>
    </dc:creator>
   </cc:Work>
  </rdf:RDF>
 </metadata>
 <defs>
  <style type="text/css">*{stroke-linecap:butt;stroke-linejoin:round;}</style>
 </defs>
 <g id="figure_1">
  <g id="patch_1">
   <path d="M 0 432 
L 720 432 
L 720 0 
L 0 0 
z
" style="fill:#ffffff;"/>
  </g>
  <g id="axes_1">
   <g id="patch_2">
    <path d="M 90 384.48 
L 343.636364 384.48 
L 343.636364 51.84 
L 90 51.84 
z
" style="fill:#ffffff;"/>
   </g>
   <g id="matplotlib.axis_1">
    <g id="xtick_1">
     <g id="line2d_1">
      <defs>
       <path d="M 0 0 
L 0 3.5 
" id="mff89ecb9f2" style="stroke:#000000;stroke-width:0.8;"/>
      </defs>
      <g>
       <use style="stroke:#000000;stroke-width:0.8;" x="90" xlink:href="#mff89ecb9f2" y="384.48"/>
      </g>
     </g>
     <g id="text_1">
      <!-- 0 -->
      <g transform="translate(86.81875 399.078438)scale(0.1 -0.1)">
       <defs>
        <path d="M 31.78125 66.40625 
Q 24.171875 66.40625 20.328125 58.90625 
Q 16.5 51.421875 16.5 36.375 
Q 16.5 21.390625 20.328125 13.890625 
Q 24.171875 6.390625 31.78125 6.390625 
Q 39.453125 6.390625 43.28125 13.890625 
Q 47.125 21.390625 47.125 36.375 
Q 47.125 51.421875 43.28125 58.90625 
Q 39.453125 66.40625 31.78125 66.40625 
z
M 31.78125 74.21875 
Q 44.046875 74.21875 50.515625 64.515625 
Q 56.984375 54.828125 56.984375 36.375 
Q 56.984375 17.96875 50.515625 8.265625 
Q 44.046875 -1.421875 31.78125 -1.421875 
Q 19.53125 -1.421875 13.0625 8.265625 
Q 6.59375 17.96875 6.59375 36.375 
Q 6.59375 54.828125 13.0625 64.515625 
Q 19.53125 74.21875 31.78125 74.21875 
z
" id="DejaVuSans-48"/>
       </defs>
       <use xlink:href="#DejaVuSans-48"/>
      </g>
     </g>
    </g>
    <g id="xtick_2">
     <g id="line2d_2">
      <g>
       <use style="stroke:#000000;stroke-width:0.8;" x="121.704545" xlink:href="#mff89ecb9f2" y="384.48"/>
      </g>
     </g>
     <g id="text_2">
      <!-- 50 -->
      <g transform="translate(115.342045 399.078438)scale(0.1 -0.1)">
       <defs>
        <path d="M 10.796875 72.90625 
L 49.515625 72.90625 
L 49.515625 64.59375 
L 19.828125 64.59375 
L 19.828125 46.734375 
Q 21.96875 47.46875 24.109375 47.828125 
Q 26.265625 48.1875 28.421875 48.1875 
Q 40.625 48.1875 47.75 41.5 
Q 54.890625 34.8125 54.890625 23.390625 
Q 54.890625 11.625 47.5625 5.09375 
Q 40.234375 -1.421875 26.90625 -1.421875 
Q 22.3125 -1.421875 17.546875 -0.640625 
Q 12.796875 0.140625 7.71875 1.703125 
L 7.71875 11.625 
Q 12.109375 9.234375 16.796875 8.0625 
Q 21.484375 6.890625 26.703125 6.890625 
Q 35.15625 6.890625 40.078125 11.328125 
Q 45.015625 15.765625 45.015625 23.390625 
Q 45.015625 31 40.078125 35.4375 
Q 35.15625 39.890625 26.703125 39.890625 
Q 22.75 39.890625 18.8125 39.015625 
Q 14.890625 38.140625 10.796875 36.28125 
z
" id="DejaVuSans-53"/>
       </defs>
       <use xlink:href="#DejaVuSans-53"/>
       <use x="63.623047" xlink:href="#DejaVuSans-48"/>
      </g>
     </g>
    </g>
    <g id="xtick_3">
     <g id="line2d_3">
      <g>
       <use style="stroke:#000000;stroke-width:0.8;" x="153.409091" xlink:href="#mff89ecb9f2" y="384.48"/>
      </g>
     </g>
     <g id="text_3">
      <!-- 100 -->
      <g transform="translate(143.865341 399.078438)scale(0.1 -0.1)">
       <defs>
        <path d="M 12.40625 8.296875 
L 28.515625 8.296875 
L 28.515625 63.921875 
L 10.984375 60.40625 
L 10.984375 69.390625 
L 28.421875 72.90625 
L 38.28125 72.90625 
L 38.28125 8.296875 
L 54.390625 8.296875 
L 54.390625 0 
L 12.40625 0 
z
" id="DejaVuSans-49"/>
       </defs>
       <use xlink:href="#DejaVuSans-49"/>
       <use x="63.623047" xlink:href="#DejaVuSans-48"/>
       <use x="127.246094" xlink:href="#DejaVuSans-48"/>
      </g>
     </g>
    </g>
    <g id="xtick_4">
     <g id="line2d_4">
      <g>
       <use style="stroke:#000000;stroke-width:0.8;" x="185.113636" xlink:href="#mff89ecb9f2" y="384.48"/>
      </g>
     </g>
     <g id="text_4">
      <!-- 150 -->
      <g transform="translate(175.569886 399.078438)scale(0.1 -0.1)">
       <use xlink:href="#DejaVuSans-49"/>
       <use x="63.623047" xlink:href="#DejaVuSans-53"/>
       <use x="127.246094" xlink:href="#DejaVuSans-48"/>
      </g>
     </g>
    </g>
    <g id="xtick_5">
     <g id="line2d_5">
      <g>
       <use style="stroke:#000000;stroke-width:0.8;" x="216.818182" xlink:href="#mff89ecb9f2" y="384.48"/>
      </g>
     </g>
     <g id="text_5">
      <!-- 200 -->
      <g transform="translate(207.274432 399.078438)scale(0.1 -0.1)">
       <defs>
        <path d="M 19.1875 8.296875 
L 53.609375 8.296875 
L 53.609375 0 
L 7.328125 0 
L 7.328125 8.296875 
Q 12.9375 14.109375 22.625 23.890625 
Q 32.328125 33.6875 34.8125 36.53125 
Q 39.546875 41.84375 41.421875 45.53125 
Q 43.3125 49.21875 43.3125 52.78125 
Q 43.3125 58.59375 39.234375 62.25 
Q 35.15625 65.921875 28.609375 65.921875 
Q 23.96875 65.921875 18.8125 64.3125 
Q 13.671875 62.703125 7.8125 59.421875 
L 7.8125 69.390625 
Q 13.765625 71.78125 18.9375 73 
Q 24.125 74.21875 28.421875 74.21875 
Q 39.75 74.21875 46.484375 68.546875 
Q 53.21875 62.890625 53.21875 53.421875 
Q 53.21875 48.921875 51.53125 44.890625 
Q 49.859375 40.875 45.40625 35.40625 
Q 44.1875 33.984375 37.640625 27.21875 
Q 31.109375 20.453125 19.1875 8.296875 
z
" id="DejaVuSans-50"/>
       </defs>
       <use xlink:href="#DejaVuSans-50"/>
       <use x="63.623047" xlink:href="#DejaVuSans-48"/>
       <use x="127.246094" xlink:href="#DejaVuSans-48"/>
      </g>
     </g>
    </g>
    <g id="xtick_6">
     <g id="line2d_6">
      <g>
       <use style="stroke:#000000;stroke-width:0.8;" x="248.522727" xlink:href="#mff89ecb9f2" y="384.48"/>
      </g>
     </g>
     <g id="text_6">
      <!-- 250 -->
      <g transform="translate(238.978977 399.078438)scale(0.1 -0.1)">
       <use xlink:href="#DejaVuSans-50"/>
       <use x="63.623047" xlink:href="#DejaVuSans-53"/>
       <use x="127.246094" xlink:href="#DejaVuSans-48"/>
      </g>
     </g>
    </g>
    <g id="xtick_7">
     <g id="line2d_7">
      <g>
       <use style="stroke:#000000;stroke-width:0.8;" x="280.227273" xlink:href="#mff89ecb9f2" y="384.48"/>
      </g>
     </g>
     <g id="text_7">
      <!-- 300 -->
      <g transform="translate(270.683523 399.078438)scale(0.1 -0.1)">
       <defs>
        <path d="M 40.578125 39.3125 
Q 47.65625 37.796875 51.625 33 
Q 55.609375 28.21875 55.609375 21.1875 
Q 55.609375 10.40625 48.1875 4.484375 
Q 40.765625 -1.421875 27.09375 -1.421875 
Q 22.515625 -1.421875 17.65625 -0.515625 
Q 12.796875 0.390625 7.625 2.203125 
L 7.625 11.71875 
Q 11.71875 9.328125 16.59375 8.109375 
Q 21.484375 6.890625 26.8125 6.890625 
Q 36.078125 6.890625 40.9375 10.546875 
Q 45.796875 14.203125 45.796875 21.1875 
Q 45.796875 27.640625 41.28125 31.265625 
Q 36.765625 34.90625 28.71875 34.90625 
L 20.21875 34.90625 
L 20.21875 43.015625 
L 29.109375 43.015625 
Q 36.375 43.015625 40.234375 45.921875 
Q 44.09375 48.828125 44.09375 54.296875 
Q 44.09375 59.90625 40.109375 62.90625 
Q 36.140625 65.921875 28.71875 65.921875 
Q 24.65625 65.921875 20.015625 65.03125 
Q 15.375 64.15625 9.8125 62.3125 
L 9.8125 71.09375 
Q 15.4375 72.65625 20.34375 73.4375 
Q 25.25 74.21875 29.59375 74.21875 
Q 40.828125 74.21875 47.359375 69.109375 
Q 53.90625 64.015625 53.90625 55.328125 
Q 53.90625 49.265625 50.4375 45.09375 
Q 46.96875 40.921875 40.578125 39.3125 
z
" id="DejaVuSans-51"/>
       </defs>
       <use xlink:href="#DejaVuSans-51"/>
       <use x="63.623047" xlink:href="#DejaVuSans-48"/>
       <use x="127.246094" xlink:href="#DejaVuSans-48"/>
      </g>
     </g>
    </g>
    <g id="xtick_8">
     <g id="line2d_8">
      <g>
       <use style="stroke:#000000;stroke-width:0.8;" x="311.931818" xlink:href="#mff89ecb9f2" y="384.48"/>
      </g>
     </g>
     <g id="text_8">
      <!-- 350 -->
      <g transform="translate(302.388068 399.078438)scale(0.1 -0.1)">
       <use xlink:href="#DejaVuSans-51"/>
       <use x="63.623047" xlink:href="#DejaVuSans-53"/>
       <use x="127.246094" xlink:href="#DejaVuSans-48"/>
      </g>
     </g>
    </g>
    <g id="xtick_9">
     <g id="line2d_9">
      <g>
       <use style="stroke:#000000;stroke-width:0.8;" x="343.636364" xlink:href="#mff89ecb9f2" y="384.48"/>
      </g>
     </g>
     <g id="text_9">
      <!-- 400 -->
      <g transform="translate(334.092614 399.078438)scale(0.1 -0.1)">
       <defs>
        <path d="M 37.796875 64.3125 
L 12.890625 25.390625 
L 37.796875 25.390625 
z
M 35.203125 72.90625 
L 47.609375 72.90625 
L 47.609375 25.390625 
L 58.015625 25.390625 
L 58.015625 17.1875 
L 47.609375 17.1875 
L 47.609375 0 
L 37.796875 0 
L 37.796875 17.1875 
L 4.890625 17.1875 
L 4.890625 26.703125 
z
" id="DejaVuSans-52"/>
       </defs>
       <use xlink:href="#DejaVuSans-52"/>
       <use x="63.623047" xlink:href="#DejaVuSans-48"/>
       <use x="127.246094" xlink:href="#DejaVuSans-48"/>
      </g>
     </g>
    </g>
    <g id="text_10">
     <!-- Epoch -->
     <g transform="translate(201.507244 412.756563)scale(0.1 -0.1)">
      <defs>
       <path d="M 9.8125 72.90625 
L 55.90625 72.90625 
L 55.90625 64.59375 
L 19.671875 64.59375 
L 19.671875 43.015625 
L 54.390625 43.015625 
L 54.390625 34.71875 
L 19.671875 34.71875 
L 19.671875 8.296875 
L 56.78125 8.296875 
L 56.78125 0 
L 9.8125 0 
z
" id="DejaVuSans-69"/>
       <path d="M 18.109375 8.203125 
L 18.109375 -20.796875 
L 9.078125 -20.796875 
L 9.078125 54.6875 
L 18.109375 54.6875 
L 18.109375 46.390625 
Q 20.953125 51.265625 25.265625 53.625 
Q 29.59375 56 35.59375 56 
Q 45.5625 56 51.78125 48.09375 
Q 58.015625 40.1875 58.015625 27.296875 
Q 58.015625 14.40625 51.78125 6.484375 
Q 45.5625 -1.421875 35.59375 -1.421875 
Q 29.59375 -1.421875 25.265625 0.953125 
Q 20.953125 3.328125 18.109375 8.203125 
z
M 48.6875 27.296875 
Q 48.6875 37.203125 44.609375 42.84375 
Q 40.53125 48.484375 33.40625 48.484375 
Q 26.265625 48.484375 22.1875 42.84375 
Q 18.109375 37.203125 18.109375 27.296875 
Q 18.109375 17.390625 22.1875 11.75 
Q 26.265625 6.109375 33.40625 6.109375 
Q 40.53125 6.109375 44.609375 11.75 
Q 48.6875 17.390625 48.6875 27.296875 
z
" id="DejaVuSans-112"/>
       <path d="M 30.609375 48.390625 
Q 23.390625 48.390625 19.1875 42.75 
Q 14.984375 37.109375 14.984375 27.296875 
Q 14.984375 17.484375 19.15625 11.84375 
Q 23.34375 6.203125 30.609375 6.203125 
Q 37.796875 6.203125 41.984375 11.859375 
Q 46.1875 17.53125 46.1875 27.296875 
Q 46.1875 37.015625 41.984375 42.703125 
Q 37.796875 48.390625 30.609375 48.390625 
z
M 30.609375 56 
Q 42.328125 56 49.015625 48.375 
Q 55.71875 40.765625 55.71875 27.296875 
Q 55.71875 13.875 49.015625 6.21875 
Q 42.328125 -1.421875 30.609375 -1.421875 
Q 18.84375 -1.421875 12.171875 6.21875 
Q 5.515625 13.875 5.515625 27.296875 
Q 5.515625 40.765625 12.171875 48.375 
Q 18.84375 56 30.609375 56 
z
" id="DejaVuSans-111"/>
       <path d="M 48.78125 52.59375 
L 48.78125 44.1875 
Q 44.96875 46.296875 41.140625 47.34375 
Q 37.3125 48.390625 33.40625 48.390625 
Q 24.65625 48.390625 19.8125 42.84375 
Q 14.984375 37.3125 14.984375 27.296875 
Q 14.984375 17.28125 19.8125 11.734375 
Q 24.65625 6.203125 33.40625 6.203125 
Q 37.3125 6.203125 41.140625 7.25 
Q 44.96875 8.296875 48.78125 10.40625 
L 48.78125 2.09375 
Q 45.015625 0.34375 40.984375 -0.53125 
Q 36.96875 -1.421875 32.421875 -1.421875 
Q 20.0625 -1.421875 12.78125 6.34375 
Q 5.515625 14.109375 5.515625 27.296875 
Q 5.515625 40.671875 12.859375 48.328125 
Q 20.21875 56 33.015625 56 
Q 37.15625 56 41.109375 55.140625 
Q 45.0625 54.296875 48.78125 52.59375 
z
" id="DejaVuSans-99"/>
       <path d="M 54.890625 33.015625 
L 54.890625 0 
L 45.90625 0 
L 45.90625 32.71875 
Q 45.90625 40.484375 42.875 44.328125 
Q 39.84375 48.1875 33.796875 48.1875 
Q 26.515625 48.1875 22.3125 43.546875 
Q 18.109375 38.921875 18.109375 30.90625 
L 18.109375 0 
L 9.078125 0 
L 9.078125 75.984375 
L 18.109375 75.984375 
L 18.109375 46.1875 
Q 21.34375 51.125 25.703125 53.5625 
Q 30.078125 56 35.796875 56 
Q 45.21875 56 50.046875 50.171875 
Q 54.890625 44.34375 54.890625 33.015625 
z
" id="DejaVuSans-104"/>
      </defs>
      <use xlink:href="#DejaVuSans-69"/>
      <use x="63.183594" xlink:href="#DejaVuSans-112"/>
      <use x="126.660156" xlink:href="#DejaVuSans-111"/>
      <use x="187.841797" xlink:href="#DejaVuSans-99"/>
      <use x="242.822266" xlink:href="#DejaVuSans-104"/>
     </g>
    </g>
   </g>
   <g id="matplotlib.axis_2">
    <g id="ytick_1">
     <g id="line2d_10">
      <defs>
       <path d="M 0 0 
L -3.5 0 
" id="mcf9b18e4ad" style="stroke:#000000;stroke-width:0.8;"/>
      </defs>
      <g>
       <use style="stroke:#000000;stroke-width:0.8;" x="90" xlink:href="#mcf9b18e4ad" y="352.795236"/>
      </g>
     </g>
     <g id="text_11">
      <!-- 10 -->
      <g transform="translate(70.275 356.594455)scale(0.1 -0.1)">
       <use xlink:href="#DejaVuSans-49"/>
       <use x="63.623047" xlink:href="#DejaVuSans-48"/>
      </g>
     </g>
    </g>
    <g id="ytick_2">
     <g id="line2d_11">
      <g>
       <use style="stroke:#000000;stroke-width:0.8;" x="90" xlink:href="#mcf9b18e4ad" y="306.265001"/>
      </g>
     </g>
     <g id="text_12">
      <!-- 20 -->
      <g transform="translate(70.275 310.06422)scale(0.1 -0.1)">
       <use xlink:href="#DejaVuSans-50"/>
       <use x="63.623047" xlink:href="#DejaVuSans-48"/>
      </g>
     </g>
    </g>
    <g id="ytick_3">
     <g id="line2d_12">
      <g>
       <use style="stroke:#000000;stroke-width:0.8;" x="90" xlink:href="#mcf9b18e4ad" y="259.734765"/>
      </g>
     </g>
     <g id="text_13">
      <!-- 30 -->
      <g transform="translate(70.275 263.533984)scale(0.1 -0.1)">
       <use xlink:href="#DejaVuSans-51"/>
       <use x="63.623047" xlink:href="#DejaVuSans-48"/>
      </g>
     </g>
    </g>
    <g id="ytick_4">
     <g id="line2d_13">
      <g>
       <use style="stroke:#000000;stroke-width:0.8;" x="90" xlink:href="#mcf9b18e4ad" y="213.20453"/>
      </g>
     </g>
     <g id="text_14">
      <!-- 40 -->
      <g transform="translate(70.275 217.003749)scale(0.1 -0.1)">
       <use xlink:href="#DejaVuSans-52"/>
       <use x="63.623047" xlink:href="#DejaVuSans-48"/>
      </g>
     </g>
    </g>
    <g id="ytick_5">
     <g id="line2d_14">
      <g>
       <use style="stroke:#000000;stroke-width:0.8;" x="90" xlink:href="#mcf9b18e4ad" y="166.674295"/>
      </g>
     </g>
     <g id="text_15">
      <!-- 50 -->
      <g transform="translate(70.275 170.473513)scale(0.1 -0.1)">
       <use xlink:href="#DejaVuSans-53"/>
       <use x="63.623047" xlink:href="#DejaVuSans-48"/>
      </g>
     </g>
    </g>
    <g id="ytick_6">
     <g id="line2d_15">
      <g>
       <use style="stroke:#000000;stroke-width:0.8;" x="90" xlink:href="#mcf9b18e4ad" y="120.144059"/>
      </g>
     </g>
     <g id="text_16">
      <!-- 60 -->
      <g transform="translate(70.275 123.943278)scale(0.1 -0.1)">
       <defs>
        <path d="M 33.015625 40.375 
Q 26.375 40.375 22.484375 35.828125 
Q 18.609375 31.296875 18.609375 23.390625 
Q 18.609375 15.53125 22.484375 10.953125 
Q 26.375 6.390625 33.015625 6.390625 
Q 39.65625 6.390625 43.53125 10.953125 
Q 47.40625 15.53125 47.40625 23.390625 
Q 47.40625 31.296875 43.53125 35.828125 
Q 39.65625 40.375 33.015625 40.375 
z
M 52.59375 71.296875 
L 52.59375 62.3125 
Q 48.875 64.0625 45.09375 64.984375 
Q 41.3125 65.921875 37.59375 65.921875 
Q 27.828125 65.921875 22.671875 59.328125 
Q 17.53125 52.734375 16.796875 39.40625 
Q 19.671875 43.65625 24.015625 45.921875 
Q 28.375 48.1875 33.59375 48.1875 
Q 44.578125 48.1875 50.953125 41.515625 
Q 57.328125 34.859375 57.328125 23.390625 
Q 57.328125 12.15625 50.6875 5.359375 
Q 44.046875 -1.421875 33.015625 -1.421875 
Q 20.359375 -1.421875 13.671875 8.265625 
Q 6.984375 17.96875 6.984375 36.375 
Q 6.984375 53.65625 15.1875 63.9375 
Q 23.390625 74.21875 37.203125 74.21875 
Q 40.921875 74.21875 44.703125 73.484375 
Q 48.484375 72.75 52.59375 71.296875 
z
" id="DejaVuSans-54"/>
       </defs>
       <use xlink:href="#DejaVuSans-54"/>
       <use x="63.623047" xlink:href="#DejaVuSans-48"/>
      </g>
     </g>
    </g>
    <g id="ytick_7">
     <g id="line2d_16">
      <g>
       <use style="stroke:#000000;stroke-width:0.8;" x="90" xlink:href="#mcf9b18e4ad" y="73.613824"/>
      </g>
     </g>
     <g id="text_17">
      <!-- 70 -->
      <g transform="translate(70.275 77.413042)scale(0.1 -0.1)">
       <defs>
        <path d="M 8.203125 72.90625 
L 55.078125 72.90625 
L 55.078125 68.703125 
L 28.609375 0 
L 18.3125 0 
L 43.21875 64.59375 
L 8.203125 64.59375 
z
" id="DejaVuSans-55"/>
       </defs>
       <use xlink:href="#DejaVuSans-55"/>
       <use x="63.623047" xlink:href="#DejaVuSans-48"/>
      </g>
     </g>
    </g>
    <g id="text_18">
     <!-- MAE -->
     <g transform="translate(64.195312 229.05375)rotate(-90)scale(0.1 -0.1)">
      <defs>
       <path d="M 9.8125 72.90625 
L 24.515625 72.90625 
L 43.109375 23.296875 
L 61.8125 72.90625 
L 76.515625 72.90625 
L 76.515625 0 
L 66.890625 0 
L 66.890625 64.015625 
L 48.09375 14.015625 
L 38.1875 14.015625 
L 19.390625 64.015625 
L 19.390625 0 
L 9.8125 0 
z
" id="DejaVuSans-77"/>
       <path d="M 34.1875 63.1875 
L 20.796875 26.90625 
L 47.609375 26.90625 
z
M 28.609375 72.90625 
L 39.796875 72.90625 
L 67.578125 0 
L 57.328125 0 
L 50.6875 18.703125 
L 17.828125 18.703125 
L 11.1875 0 
L 0.78125 0 
z
" id="DejaVuSans-65"/>
      </defs>
      <use xlink:href="#DejaVuSans-77"/>
      <use x="86.279297" xlink:href="#DejaVuSans-65"/>
      <use x="154.6875" xlink:href="#DejaVuSans-69"/>
     </g>
    </g>
   </g>
   <g id="line2d_17">
    <path clip-path="url(#p9570472065)" d="M 90 66.96 
L 90.634091 73.055461 
L 91.268182 99.856876 
L 91.902273 98.972802 
L 92.536364 131.218255 
L 93.170455 140.291651 
L 93.804545 155.227857 
L 95.072727 177.888081 
L 95.706818 153.83195 
L 97.609091 210.366186 
L 98.243182 204.317255 
L 98.877273 220.509777 
L 99.511364 200.455245 
L 100.145455 228.652568 
L 100.779545 239.121871 
L 101.413636 217.904084 
L 102.047727 187.101068 
L 102.681818 230.001945 
L 103.315909 226.000345 
L 103.95 232.514578 
L 104.584091 226.512177 
L 105.218182 229.676233 
L 105.852273 217.066539 
L 106.486364 216.042874 
L 107.754545 243.914485 
L 108.388636 241.215732 
L 109.022727 251.405853 
L 109.656818 241.494913 
L 110.290909 250.475248 
L 110.925 241.169201 
L 111.559091 234.794559 
L 112.193182 233.631303 
L 112.827273 259.176403 
L 113.461364 239.773294 
L 114.095455 249.125872 
L 114.729545 260.758431 
L 115.363636 250.614839 
L 115.997727 272.065278 
L 116.631818 245.170802 
L 117.265909 265.876756 
L 117.9 263.596775 
L 118.534091 270.715901 
L 119.168182 258.478449 
L 119.802273 275.787697 
L 121.070455 242.518578 
L 122.338636 276.48565 
L 122.972727 278.021148 
L 123.606818 267.272663 
L 124.240909 274.019548 
L 124.875 273.786896 
L 125.509091 276.159938 
L 126.143182 285.745167 
L 126.777273 269.738766 
L 127.411364 270.250599 
L 128.045455 279.230934 
L 128.679545 273.088943 
L 129.313636 282.999883 
L 129.947727 272.204868 
L 130.581818 239.354522 
L 131.215909 264.434319 
L 131.85 280.301129 
L 132.484091 287.001483 
L 133.118182 286.536181 
L 133.752273 283.232534 
L 134.386364 281.045613 
L 135.020455 289.281465 
L 135.654545 289.048814 
L 136.288636 285.977818 
L 136.922727 286.629241 
L 137.556818 278.114208 
L 138.190909 275.136273 
L 138.825 302.263401 
L 139.459091 275.043213 
L 140.093182 286.768832 
L 140.727273 282.34846 
L 141.361364 264.853091 
L 141.995455 280.999083 
L 142.629545 287.932088 
L 143.263636 296.354061 
L 143.897727 288.2578 
L 144.531818 293.096944 
L 145.165909 294.632442 
L 145.8 274.996683 
L 147.068182 300.16954 
L 147.702273 292.398991 
L 148.336364 275.555045 
L 149.604545 310.359661 
L 150.238636 298.587512 
L 150.872727 298.587512 
L 151.506818 295.423456 
L 152.140909 277.788497 
L 152.775 294.16714 
L 153.409091 303.287066 
L 154.043182 314.919625 
L 154.677273 309.940889 
L 155.311364 312.732703 
L 155.945455 307.847029 
L 156.579545 313.430657 
L 157.213636 310.359661 
L 157.847727 312.174341 
L 158.481818 315.105745 
L 159.115909 315.617578 
L 159.75 311.848629 
L 160.384091 311.336796 
L 161.018182 314.780034 
L 161.652273 308.777633 
L 162.286364 323.8069 
L 162.920455 315.803699 
L 163.554545 319.433057 
L 164.188636 316.408592 
L 164.822727 316.920425 
L 165.456818 314.966155 
L 166.090909 316.780834 
L 167.359091 313.663308 
L 167.993182 319.89836 
L 168.627273 324.784034 
L 169.261364 314.686973 
L 170.529545 326.133411 
L 171.163636 313.94249 
L 171.797727 315.245336 
L 172.431818 311.709038 
L 173.065909 320.596313 
L 173.7 317.664908 
L 174.334091 328.134211 
L 174.968182 321.85263 
L 175.602273 317.94409 
L 176.236364 319.758769 
L 176.870455 322.643644 
L 177.504545 329.018286 
L 178.138636 314.407792 
L 178.772727 321.526918 
L 179.406818 317.292667 
L 180.040909 322.829765 
L 180.675 317.664908 
L 181.309091 316.175941 
L 181.943182 325.668109 
L 182.577273 325.202807 
L 183.211364 325.993821 
L 184.479545 319.433057 
L 185.113636 323.155476 
L 185.747727 321.294267 
L 186.381818 329.297467 
L 187.015909 318.176741 
L 187.65 318.362862 
L 188.284091 314.454322 
L 188.918182 325.342397 
L 189.552273 322.038751 
L 190.186364 323.062416 
L 190.820455 319.89836 
L 191.454545 323.574248 
L 192.088636 319.339997 
L 192.722727 329.948891 
L 193.356818 319.200406 
L 193.990909 324.597914 
L 194.625 323.295067 
L 195.259091 318.921225 
L 195.893182 322.550583 
L 196.527273 319.200406 
L 197.161364 327.90156 
L 197.795455 320.642844 
L 198.429545 324.504853 
L 199.063636 329.204407 
L 199.697727 326.412593 
L 200.331818 323.015886 
L 200.965909 327.017486 
L 201.6 332.554584 
L 202.234091 317.525318 
L 202.868182 331.112146 
L 203.502273 322.969355 
L 204.136364 328.785635 
L 204.770455 325.249337 
L 205.404545 331.949691 
L 206.038636 324.132611 
L 206.672727 326.086881 
L 207.306818 330.041951 
L 207.940909 323.062416 
L 208.575 329.76277 
L 209.209091 332.461523 
L 209.843182 326.831365 
L 210.477273 328.552984 
L 211.111364 330.600314 
L 211.745455 331.623979 
L 212.379545 325.714639 
L 213.013636 332.228872 
L 213.647727 319.107346 
L 214.281818 327.715439 
L 214.915909 327.250137 
L 215.55 324.318732 
L 216.184091 324.365262 
L 216.818182 332.508054 
L 217.452273 332.414993 
L 218.086364 327.389728 
L 219.354545 335.997821 
L 219.988636 334.741505 
L 220.622727 331.90316 
L 221.256818 333.299068 
L 221.890909 330.879495 
L 222.525 327.575849 
L 223.159091 332.089281 
L 223.793182 333.76437 
L 224.427273 333.345598 
L 225.061364 332.414993 
L 225.695455 332.554584 
L 226.329545 329.623179 
L 226.963636 335.299868 
L 227.597727 332.554584 
L 228.231818 335.625579 
L 228.865909 333.066416 
L 229.5 332.135812 
L 230.134091 331.484388 
L 230.768182 335.997821 
L 231.402273 334.974156 
L 232.036364 328.180742 
L 232.670455 331.949691 
L 233.304545 333.485188 
L 233.938636 329.85583 
L 234.572727 335.392928 
L 235.206818 334.601914 
L 235.840909 333.299068 
L 236.475 330.879495 
L 237.109091 336.137412 
L 237.743182 329.90236 
L 238.377273 332.228872 
L 239.011364 337.347198 
L 239.645455 337.393728 
L 240.279545 328.227272 
L 240.913636 337.998621 
L 241.547727 329.250937 
L 242.181818 335.439458 
L 242.815909 325.575048 
L 243.45 331.76357 
L 244.084091 330.739905 
L 244.718182 328.971756 
L 245.352273 334.462323 
L 245.986364 323.108946 
L 246.620455 330.693374 
L 247.254545 330.135012 
L 247.888636 331.949691 
L 248.522727 331.019086 
L 249.156818 329.716239 
L 250.425 325.714639 
L 251.059091 331.71704 
L 251.693182 331.065616 
L 252.327273 336.230472 
L 252.961364 338.045152 
L 253.595455 336.974956 
L 254.229545 336.463124 
L 254.863636 328.832165 
L 255.497727 329.948891 
L 256.131818 329.8093 
L 256.765909 339.72024 
L 257.4 334.788035 
L 258.034091 330.879495 
L 259.302273 324.923625 
L 259.936364 336.974956 
L 260.570455 326.924425 
L 261.204545 331.158677 
L 261.838636 332.182342 
L 262.472727 333.76437 
L 263.106818 336.463124 
L 263.740909 328.878695 
L 264.375 333.066416 
L 265.009091 326.924425 
L 265.643182 333.019886 
L 266.277273 333.903961 
L 266.911364 328.646044 
L 267.545455 333.345598 
L 268.179545 332.414993 
L 268.813636 336.649244 
L 269.447727 332.135812 
L 270.081818 323.574248 
L 270.715909 333.8109 
L 271.35 327.76197 
L 271.984091 332.135812 
L 272.618182 337.347198 
L 273.252273 330.739905 
L 273.886364 336.742305 
L 275.154545 332.601114 
L 275.788636 328.925225 
L 276.422727 334.508854 
L 277.056818 329.157877 
L 277.690909 334.462323 
L 278.325 330.228072 
L 278.959091 333.950491 
L 279.593182 333.85743 
L 280.227273 332.228872 
L 280.861364 335.76517 
L 281.495455 331.8101 
L 282.129545 337.161077 
L 282.763636 326.366062 
L 283.397727 337.579849 
L 284.031818 336.463124 
L 284.665909 331.251737 
L 285.3 331.065616 
L 285.934091 338.882696 
L 287.202273 332.647644 
L 287.836364 336.649244 
L 288.470455 336.137412 
L 289.104545 334.043551 
L 289.738636 333.066416 
L 290.372727 333.671309 
L 291.006818 338.231273 
L 292.275 329.437058 
L 292.909091 331.85663 
L 293.543182 333.066416 
L 294.177273 327.529318 
L 294.811364 329.85583 
L 295.445455 333.671309 
L 296.079545 330.786435 
L 296.713636 332.833765 
L 297.347727 323.434658 
L 297.981818 334.741505 
L 298.615909 325.295867 
L 299.25 330.367663 
L 299.884091 332.228872 
L 300.518182 333.671309 
L 301.152273 336.556184 
L 301.786364 327.064016 
L 302.420455 333.71784 
L 303.054545 334.415793 
L 303.688636 335.346398 
L 304.322727 329.623179 
L 304.956818 337.068017 
L 305.590909 333.531719 
L 306.225 331.996221 
L 306.859091 333.903961 
L 307.493182 329.90236 
L 308.127273 334.136612 
L 308.761364 335.532519 
L 309.395455 336.090882 
L 310.029545 327.017486 
L 310.663636 337.393728 
L 311.297727 334.322733 
L 311.931818 332.368463 
L 312.565909 325.249337 
L 313.2 332.321933 
L 313.834091 329.064816 
L 314.468182 330.088481 
L 315.102273 334.741505 
L 315.736364 334.415793 
L 316.370455 333.392128 
L 317.004545 326.598714 
L 317.638636 332.275402 
L 318.272727 336.323533 
L 318.906818 331.90316 
L 319.540909 336.277003 
L 320.175 334.183142 
L 320.809091 333.112947 
L 321.443182 332.740705 
L 322.077273 336.649244 
L 322.711364 329.483588 
L 323.345455 331.623979 
L 323.979545 333.066416 
L 324.613636 334.183142 
L 325.247727 326.738304 
L 325.881818 334.834565 
L 326.515909 328.413393 
L 327.15 330.600314 
L 327.784091 332.089281 
L 328.418182 330.135012 
L 329.052273 329.018286 
L 329.686364 328.366863 
L 330.320455 335.020686 
L 330.954545 332.368463 
L 331.588636 333.671309 
L 332.222727 333.76437 
L 332.856818 331.251737 
L 333.490909 331.484388 
L 334.125 333.903961 
L 334.759091 333.950491 
L 335.393182 334.555384 
L 336.027273 335.485989 
L 336.661364 334.276202 
L 337.295455 329.204407 
L 337.929545 332.508054 
L 338.563636 334.229672 
L 339.197727 331.85663 
L 339.831818 335.392928 
L 340.465909 332.182342 
L 341.1 330.739905 
L 341.734091 334.974156 
L 342.368182 329.064816 
L 343.002273 335.997821 
L 343.636364 324.597914 
L 343.636364 324.597914 
" style="fill:none;stroke:#1f77b4;stroke-linecap:square;stroke-width:1.5;"/>
   </g>
   <g id="line2d_18">
    <path clip-path="url(#p9570472065)" d="M 90 145.735689 
L 91.268182 191.056138 
L 91.902273 194.685496 
L 92.536364 205.061739 
L 93.170455 204.363785 
L 93.804545 215.763693 
L 94.438636 231.304792 
L 95.072727 234.189666 
L 95.706818 230.281126 
L 96.340909 235.771694 
L 96.975 248.148737 
L 97.609091 257.873556 
L 98.243182 261.177203 
L 98.877273 260.107007 
L 99.511364 238.703099 
L 100.145455 273.368124 
L 100.779545 284.256199 
L 101.413636 268.52898 
L 102.047727 257.594375 
L 102.681818 273.507715 
L 103.315909 266.016347 
L 103.95 267.458784 
L 104.584091 283.139474 
L 105.218182 257.501314 
L 105.852273 266.435119 
L 106.486364 280.254599 
L 107.120455 287.234134 
L 107.754545 299.611177 
L 108.388636 284.721502 
L 109.022727 289.421056 
L 109.656818 301.984219 
L 110.290909 291.654507 
L 110.925 273.693836 
L 111.559091 278.48645 
L 112.193182 272.344459 
L 112.827273 296.074879 
L 113.461364 267.505315 
L 114.729545 304.682973 
L 115.363636 289.560646 
L 115.997727 297.796498 
L 116.631818 291.421856 
L 117.265909 294.725502 
L 117.9 284.30273 
L 118.534091 297.982619 
L 119.168182 302.12381 
L 119.802273 314.547383 
L 121.070455 288.35086 
L 121.704545 296.633242 
L 122.338636 313.802899 
L 122.972727 323.85343 
L 123.606818 292.538581 
L 124.240909 304.915624 
L 124.875 300.727903 
L 125.509091 314.780034 
L 126.143182 318.874695 
L 126.777273 318.455922 
L 127.411364 309.429057 
L 128.045455 312.267401 
L 128.679545 324.039551 
L 129.313636 324.132611 
L 129.947727 316.920425 
L 130.581818 308.07968 
L 131.85 317.525318 
L 132.484091 323.8069 
L 133.118182 325.295867 
L 133.752273 305.939289 
L 134.386364 325.528518 
L 135.020455 301.891159 
L 135.654545 323.8069 
L 136.288636 326.412593 
L 136.922727 330.460723 
L 137.556818 309.754768 
L 138.825 324.132611 
L 139.459091 315.012685 
L 140.093182 327.575849 
L 140.727273 324.644444 
L 141.361364 313.198006 
L 141.995455 327.064016 
L 142.629545 327.94809 
L 143.263636 314.780034 
L 144.531818 326.784835 
L 145.165909 336.509654 
L 145.8 316.827364 
L 146.434091 314.686973 
L 147.068182 313.477187 
L 147.702273 311.522917 
L 148.336364 313.616778 
L 148.970455 318.688574 
L 149.604545 338.091682 
L 150.238636 324.597914 
L 150.872727 333.206007 
L 151.506818 339.068817 
L 152.775 318.642043 
L 153.409091 338.882696 
L 154.043182 344.605915 
L 154.677273 345.164278 
L 155.311364 350.794436 
L 155.945455 347.909561 
L 156.579545 351.58545 
L 157.213636 350.049952 
L 157.847727 350.189543 
L 158.481818 353.958492 
L 159.115909 349.398529 
L 159.75 349.491589 
L 160.384091 348.188743 
L 161.018182 354.982157 
L 161.652273 351.352799 
L 162.286364 355.819701 
L 162.920455 349.910362 
L 163.554545 357.262139 
L 164.188636 352.562585 
L 164.822727 356.052353 
L 165.456818 353.400129 
L 166.090909 351.957692 
L 166.725 353.58625 
L 167.359091 351.259738 
L 167.993182 350.934027 
L 168.627273 354.330734 
L 169.261364 352.143813 
L 169.895455 356.005822 
L 170.529545 354.702976 
L 171.797727 349.119348 
L 172.431818 356.517655 
L 173.065909 356.285004 
L 173.7 355.773171 
L 174.334091 354.982157 
L 174.968182 356.191943 
L 175.602273 353.307069 
L 176.236364 356.796836 
L 176.870455 357.169078 
L 177.504545 357.262139 
L 178.138636 352.655645 
L 178.772727 356.657246 
L 179.406818 355.959292 
L 180.040909 357.634381 
L 180.675 357.029488 
L 181.309091 356.982957 
L 181.943182 356.610715 
L 182.577273 358.564985 
L 183.211364 359.49559 
L 183.845455 356.424595 
L 184.479545 353.911962 
L 185.113636 360.333134 
L 185.747727 354.796036 
L 186.381818 360.426195 
L 187.015909 359.076818 
L 187.65 359.262939 
L 188.284091 356.889897 
L 188.918182 356.889897 
L 189.552273 355.028687 
L 190.186364 358.751106 
L 190.820455 359.216409 
L 191.454545 355.354399 
L 192.088636 360.007423 
L 192.722727 362.008223 
L 193.356818 358.146213 
L 193.990909 358.844167 
L 194.625 356.517655 
L 195.259091 360.472725 
L 195.893182 358.890697 
L 196.527273 358.518455 
L 197.161364 356.191943 
L 198.429545 359.635181 
L 199.063636 356.238474 
L 199.697727 359.774772 
L 200.331818 354.144613 
L 200.965909 356.564185 
L 201.6 362.473525 
L 202.234091 356.703776 
L 202.868182 362.101283 
L 203.502273 358.937227 
L 204.136364 362.566586 
L 204.770455 363.031888 
L 205.404545 363.078418 
L 206.672727 356.471125 
L 207.306818 357.634381 
L 207.940909 356.145413 
L 208.575 359.960892 
L 209.209091 358.285804 
L 209.843182 354.702976 
L 210.477273 363.45066 
L 211.111364 359.914362 
L 211.745455 361.310269 
L 212.379545 354.563385 
L 213.013636 360.519255 
L 213.647727 357.215609 
L 214.281818 358.378864 
L 214.915909 359.216409 
L 215.55 354.656446 
L 216.184091 360.426195 
L 216.818182 361.170679 
L 217.452273 363.962493 
L 218.086364 361.031088 
L 218.720455 363.171479 
L 219.354545 367.173079 
L 219.988636 365.3584 
L 220.622727 365.730642 
L 221.256818 358.564985 
L 223.159091 363.078418 
L 224.427273 364.753507 
L 225.061364 366.661246 
L 225.695455 365.637581 
L 226.329545 363.311069 
L 226.963636 363.729842 
L 227.597727 363.776372 
L 228.231818 366.707777 
L 228.865909 366.195944 
L 229.5 364.893097 
L 230.134091 361.40333 
L 230.768182 366.289004 
L 231.402273 360.844967 
L 232.036364 360.286604 
L 232.670455 364.800037 
L 233.304545 366.568186 
L 233.938636 360.519255 
L 234.572727 363.822902 
L 235.206818 365.684111 
L 235.840909 364.893097 
L 236.475 364.334735 
L 237.109091 366.940428 
L 237.743182 361.589451 
L 238.377273 367.3592 
L 239.011364 363.264539 
L 239.645455 364.893097 
L 240.279545 361.682511 
L 240.913636 365.079218 
L 241.547727 364.427795 
L 242.181818 365.079218 
L 242.815909 360.658846 
L 243.45 361.915162 
L 244.084091 361.961693 
L 244.718182 363.962493 
L 245.352273 363.729842 
L 245.986364 360.333134 
L 247.254545 365.31187 
L 247.888636 364.893097 
L 248.522727 364.195144 
L 249.156818 362.054753 
L 249.790909 363.031888 
L 250.425 363.3576 
L 251.059091 362.240874 
L 251.693182 364.009023 
L 252.327273 364.102083 
L 253.595455 366.475125 
L 254.229545 366.009823 
L 255.497727 360.240074 
L 256.765909 367.033488 
L 258.034091 364.893097 
L 258.668182 365.3584 
L 259.302273 360.984558 
L 259.936364 364.381265 
L 260.570455 360.007423 
L 261.204545 365.125749 
L 261.838636 364.288204 
L 262.472727 362.240874 
L 263.106818 364.706976 
L 263.740909 362.566586 
L 264.375 363.124948 
L 265.009091 362.426995 
L 265.643182 364.567386 
L 266.277273 364.893097 
L 266.911364 363.590251 
L 267.545455 361.124148 
L 268.179545 363.171479 
L 268.813636 366.661246 
L 269.447727 364.102083 
L 270.715909 363.636781 
L 271.35 360.938027 
L 271.984091 364.009023 
L 272.618182 368.755107 
L 273.252273 365.637581 
L 273.886364 366.149414 
L 274.520455 363.3576 
L 275.154545 365.591051 
L 275.788636 362.892297 
L 276.422727 365.870232 
L 277.056818 364.427795 
L 277.690909 365.218809 
L 278.325 362.892297 
L 278.959091 363.962493 
L 279.593182 364.288204 
L 280.227273 363.543721 
L 281.495455 363.171479 
L 282.129545 364.706976 
L 283.397727 366.195944 
L 284.031818 366.475125 
L 284.665909 365.265339 
L 285.3 366.614716 
L 285.934091 368.429395 
L 286.568182 362.520055 
L 287.202273 362.566586 
L 287.836364 365.218809 
L 288.470455 364.241674 
L 289.104545 366.289004 
L 289.738636 364.939628 
L 290.372727 363.031888 
L 291.006818 364.148614 
L 291.640909 365.963293 
L 292.909091 363.40413 
L 293.543182 366.335535 
L 294.177273 362.520055 
L 294.811364 365.125749 
L 295.445455 364.613916 
L 296.079545 367.266139 
L 296.713636 365.265339 
L 297.347727 360.379665 
L 297.981818 363.869432 
L 298.615909 363.822902 
L 299.884091 364.241674 
L 300.518182 364.102083 
L 301.152273 364.148614 
L 301.786364 363.729842 
L 302.420455 364.893097 
L 303.054545 365.3584 
L 303.688636 365.31187 
L 304.322727 366.614716 
L 304.956818 366.893898 
L 305.590909 363.915962 
L 306.225 363.45066 
L 306.859091 365.218809 
L 307.493182 361.310269 
L 308.127273 366.335535 
L 308.761364 366.428595 
L 309.395455 365.637581 
L 310.029545 362.054753 
L 310.663636 365.637581 
L 311.297727 365.032688 
L 311.931818 366.382065 
L 312.565909 360.705376 
L 313.2 364.195144 
L 313.834091 364.706976 
L 314.468182 362.473525 
L 315.102273 362.892297 
L 315.736364 364.288204 
L 316.370455 364.009023 
L 317.004545 362.706176 
L 317.638636 365.032688 
L 318.272727 369.36 
L 318.906818 363.218009 
L 319.540909 365.032688 
L 320.175 364.427795 
L 320.809091 362.892297 
L 321.443182 364.939628 
L 322.077273 368.010623 
L 322.711364 361.031088 
L 323.345455 362.008223 
L 323.979545 363.683311 
L 324.613636 364.148614 
L 325.247727 362.380465 
L 325.881818 365.777172 
L 326.515909 366.382065 
L 327.15 365.591051 
L 327.784091 367.498791 
L 328.418182 362.101283 
L 329.052273 364.846567 
L 329.686364 364.893097 
L 330.320455 362.845767 
L 330.954545 363.311069 
L 331.588636 366.940428 
L 332.222727 364.009023 
L 332.856818 364.381265 
L 333.490909 361.775572 
L 334.125 366.614716 
L 334.759091 365.3584 
L 335.393182 366.707777 
L 336.027273 364.613916 
L 336.661364 366.568186 
L 337.295455 364.567386 
L 337.929545 367.266139 
L 338.563636 365.870232 
L 339.197727 362.985358 
L 339.831818 364.427795 
L 340.465909 363.031888 
L 341.1 363.962493 
L 341.734091 366.893898 
L 342.368182 359.169878 
L 343.002273 365.265339 
L 343.636364 362.147814 
L 343.636364 362.147814 
" style="fill:none;stroke:#ff7f0e;stroke-linecap:square;stroke-width:1.5;"/>
   </g>
   <g id="patch_3">
    <path d="M 90 384.48 
L 90 51.84 
" style="fill:none;stroke:#000000;stroke-linecap:square;stroke-linejoin:miter;stroke-width:0.8;"/>
   </g>
   <g id="patch_4">
    <path d="M 343.636364 384.48 
L 343.636364 51.84 
" style="fill:none;stroke:#000000;stroke-linecap:square;stroke-linejoin:miter;stroke-width:0.8;"/>
   </g>
   <g id="patch_5">
    <path d="M 90 384.48 
L 343.636364 384.48 
" style="fill:none;stroke:#000000;stroke-linecap:square;stroke-linejoin:miter;stroke-width:0.8;"/>
   </g>
   <g id="patch_6">
    <path d="M 90 51.84 
L 343.636364 51.84 
" style="fill:none;stroke:#000000;stroke-linecap:square;stroke-linejoin:miter;stroke-width:0.8;"/>
   </g>
   <g id="legend_1">
    <g id="patch_7">
     <path d="M 148.912926 89.19625 
L 336.636364 89.19625 
Q 338.636364 89.19625 338.636364 87.19625 
L 338.636364 58.84 
Q 338.636364 56.84 336.636364 56.84 
L 148.912926 56.84 
Q 146.912926 56.84 146.912926 58.84 
L 146.912926 87.19625 
Q 146.912926 89.19625 148.912926 89.19625 
z
" style="fill:#ffffff;opacity:0.8;stroke:#cccccc;stroke-linejoin:miter;"/>
    </g>
    <g id="line2d_19">
     <path d="M 150.912926 64.938437 
L 170.912926 64.938437 
" style="fill:none;stroke:#1f77b4;stroke-linecap:square;stroke-width:1.5;"/>
    </g>
    <g id="line2d_20"/>
    <g id="text_19">
     <!-- Train from scratch -->
     <g transform="translate(178.912926 68.438437)scale(0.1 -0.1)">
      <defs>
       <path d="M -0.296875 72.90625 
L 61.375 72.90625 
L 61.375 64.59375 
L 35.5 64.59375 
L 35.5 0 
L 25.59375 0 
L 25.59375 64.59375 
L -0.296875 64.59375 
z
" id="DejaVuSans-84"/>
       <path d="M 41.109375 46.296875 
Q 39.59375 47.171875 37.8125 47.578125 
Q 36.03125 48 33.890625 48 
Q 26.265625 48 22.1875 43.046875 
Q 18.109375 38.09375 18.109375 28.8125 
L 18.109375 0 
L 9.078125 0 
L 9.078125 54.6875 
L 18.109375 54.6875 
L 18.109375 46.1875 
Q 20.953125 51.171875 25.484375 53.578125 
Q 30.03125 56 36.53125 56 
Q 37.453125 56 38.578125 55.875 
Q 39.703125 55.765625 41.0625 55.515625 
z
" id="DejaVuSans-114"/>
       <path d="M 34.28125 27.484375 
Q 23.390625 27.484375 19.1875 25 
Q 14.984375 22.515625 14.984375 16.5 
Q 14.984375 11.71875 18.140625 8.90625 
Q 21.296875 6.109375 26.703125 6.109375 
Q 34.1875 6.109375 38.703125 11.40625 
Q 43.21875 16.703125 43.21875 25.484375 
L 43.21875 27.484375 
z
M 52.203125 31.203125 
L 52.203125 0 
L 43.21875 0 
L 43.21875 8.296875 
Q 40.140625 3.328125 35.546875 0.953125 
Q 30.953125 -1.421875 24.3125 -1.421875 
Q 15.921875 -1.421875 10.953125 3.296875 
Q 6 8.015625 6 15.921875 
Q 6 25.140625 12.171875 29.828125 
Q 18.359375 34.515625 30.609375 34.515625 
L 43.21875 34.515625 
L 43.21875 35.40625 
Q 43.21875 41.609375 39.140625 45 
Q 35.0625 48.390625 27.6875 48.390625 
Q 23 48.390625 18.546875 47.265625 
Q 14.109375 46.140625 10.015625 43.890625 
L 10.015625 52.203125 
Q 14.9375 54.109375 19.578125 55.046875 
Q 24.21875 56 28.609375 56 
Q 40.484375 56 46.34375 49.84375 
Q 52.203125 43.703125 52.203125 31.203125 
z
" id="DejaVuSans-97"/>
       <path d="M 9.421875 54.6875 
L 18.40625 54.6875 
L 18.40625 0 
L 9.421875 0 
z
M 9.421875 75.984375 
L 18.40625 75.984375 
L 18.40625 64.59375 
L 9.421875 64.59375 
z
" id="DejaVuSans-105"/>
       <path d="M 54.890625 33.015625 
L 54.890625 0 
L 45.90625 0 
L 45.90625 32.71875 
Q 45.90625 40.484375 42.875 44.328125 
Q 39.84375 48.1875 33.796875 48.1875 
Q 26.515625 48.1875 22.3125 43.546875 
Q 18.109375 38.921875 18.109375 30.90625 
L 18.109375 0 
L 9.078125 0 
L 9.078125 54.6875 
L 18.109375 54.6875 
L 18.109375 46.1875 
Q 21.34375 51.125 25.703125 53.5625 
Q 30.078125 56 35.796875 56 
Q 45.21875 56 50.046875 50.171875 
Q 54.890625 44.34375 54.890625 33.015625 
z
" id="DejaVuSans-110"/>
       <path id="DejaVuSans-32"/>
       <path d="M 37.109375 75.984375 
L 37.109375 68.5 
L 28.515625 68.5 
Q 23.6875 68.5 21.796875 66.546875 
Q 19.921875 64.59375 19.921875 59.515625 
L 19.921875 54.6875 
L 34.71875 54.6875 
L 34.71875 47.703125 
L 19.921875 47.703125 
L 19.921875 0 
L 10.890625 0 
L 10.890625 47.703125 
L 2.296875 47.703125 
L 2.296875 54.6875 
L 10.890625 54.6875 
L 10.890625 58.5 
Q 10.890625 67.625 15.140625 71.796875 
Q 19.390625 75.984375 28.609375 75.984375 
z
" id="DejaVuSans-102"/>
       <path d="M 52 44.1875 
Q 55.375 50.25 60.0625 53.125 
Q 64.75 56 71.09375 56 
Q 79.640625 56 84.28125 50.015625 
Q 88.921875 44.046875 88.921875 33.015625 
L 88.921875 0 
L 79.890625 0 
L 79.890625 32.71875 
Q 79.890625 40.578125 77.09375 44.375 
Q 74.3125 48.1875 68.609375 48.1875 
Q 61.625 48.1875 57.5625 43.546875 
Q 53.515625 38.921875 53.515625 30.90625 
L 53.515625 0 
L 44.484375 0 
L 44.484375 32.71875 
Q 44.484375 40.625 41.703125 44.40625 
Q 38.921875 48.1875 33.109375 48.1875 
Q 26.21875 48.1875 22.15625 43.53125 
Q 18.109375 38.875 18.109375 30.90625 
L 18.109375 0 
L 9.078125 0 
L 9.078125 54.6875 
L 18.109375 54.6875 
L 18.109375 46.1875 
Q 21.1875 51.21875 25.484375 53.609375 
Q 29.78125 56 35.6875 56 
Q 41.65625 56 45.828125 52.96875 
Q 50 49.953125 52 44.1875 
z
" id="DejaVuSans-109"/>
       <path d="M 44.28125 53.078125 
L 44.28125 44.578125 
Q 40.484375 46.53125 36.375 47.5 
Q 32.28125 48.484375 27.875 48.484375 
Q 21.1875 48.484375 17.84375 46.4375 
Q 14.5 44.390625 14.5 40.28125 
Q 14.5 37.15625 16.890625 35.375 
Q 19.28125 33.59375 26.515625 31.984375 
L 29.59375 31.296875 
Q 39.15625 29.25 43.1875 25.515625 
Q 47.21875 21.78125 47.21875 15.09375 
Q 47.21875 7.46875 41.1875 3.015625 
Q 35.15625 -1.421875 24.609375 -1.421875 
Q 20.21875 -1.421875 15.453125 -0.5625 
Q 10.6875 0.296875 5.421875 2 
L 5.421875 11.28125 
Q 10.40625 8.6875 15.234375 7.390625 
Q 20.0625 6.109375 24.8125 6.109375 
Q 31.15625 6.109375 34.5625 8.28125 
Q 37.984375 10.453125 37.984375 14.40625 
Q 37.984375 18.0625 35.515625 20.015625 
Q 33.0625 21.96875 24.703125 23.78125 
L 21.578125 24.515625 
Q 13.234375 26.265625 9.515625 29.90625 
Q 5.8125 33.546875 5.8125 39.890625 
Q 5.8125 47.609375 11.28125 51.796875 
Q 16.75 56 26.8125 56 
Q 31.78125 56 36.171875 55.265625 
Q 40.578125 54.546875 44.28125 53.078125 
z
" id="DejaVuSans-115"/>
       <path d="M 18.3125 70.21875 
L 18.3125 54.6875 
L 36.8125 54.6875 
L 36.8125 47.703125 
L 18.3125 47.703125 
L 18.3125 18.015625 
Q 18.3125 11.328125 20.140625 9.421875 
Q 21.96875 7.515625 27.59375 7.515625 
L 36.8125 7.515625 
L 36.8125 0 
L 27.59375 0 
Q 17.1875 0 13.234375 3.875 
Q 9.28125 7.765625 9.28125 18.015625 
L 9.28125 47.703125 
L 2.6875 47.703125 
L 2.6875 54.6875 
L 9.28125 54.6875 
L 9.28125 70.21875 
z
" id="DejaVuSans-116"/>
      </defs>
      <use xlink:href="#DejaVuSans-84"/>
      <use x="46.333984" xlink:href="#DejaVuSans-114"/>
      <use x="87.447266" xlink:href="#DejaVuSans-97"/>
      <use x="148.726562" xlink:href="#DejaVuSans-105"/>
      <use x="176.509766" xlink:href="#DejaVuSans-110"/>
      <use x="239.888672" xlink:href="#DejaVuSans-32"/>
      <use x="271.675781" xlink:href="#DejaVuSans-102"/>
      <use x="306.880859" xlink:href="#DejaVuSans-114"/>
      <use x="345.744141" xlink:href="#DejaVuSans-111"/>
      <use x="406.925781" xlink:href="#DejaVuSans-109"/>
      <use x="504.337891" xlink:href="#DejaVuSans-32"/>
      <use x="536.125" xlink:href="#DejaVuSans-115"/>
      <use x="588.224609" xlink:href="#DejaVuSans-99"/>
      <use x="643.205078" xlink:href="#DejaVuSans-114"/>
      <use x="684.318359" xlink:href="#DejaVuSans-97"/>
      <use x="745.597656" xlink:href="#DejaVuSans-116"/>
      <use x="784.806641" xlink:href="#DejaVuSans-99"/>
      <use x="839.787109" xlink:href="#DejaVuSans-104"/>
     </g>
    </g>
    <g id="line2d_21">
     <path d="M 150.912926 79.616562 
L 170.912926 79.616562 
" style="fill:none;stroke:#ff7f0e;stroke-linecap:square;stroke-width:1.5;"/>
    </g>
    <g id="line2d_22"/>
    <g id="text_20">
     <!-- Train from synthetic-3d-texture -->
     <g transform="translate(178.912926 83.116562)scale(0.1 -0.1)">
      <defs>
       <path d="M 32.171875 -5.078125 
Q 28.375 -14.84375 24.75 -17.8125 
Q 21.140625 -20.796875 15.09375 -20.796875 
L 7.90625 -20.796875 
L 7.90625 -13.28125 
L 13.1875 -13.28125 
Q 16.890625 -13.28125 18.9375 -11.515625 
Q 21 -9.765625 23.484375 -3.21875 
L 25.09375 0.875 
L 2.984375 54.6875 
L 12.5 54.6875 
L 29.59375 11.921875 
L 46.6875 54.6875 
L 56.203125 54.6875 
z
" id="DejaVuSans-121"/>
       <path d="M 56.203125 29.59375 
L 56.203125 25.203125 
L 14.890625 25.203125 
Q 15.484375 15.921875 20.484375 11.0625 
Q 25.484375 6.203125 34.421875 6.203125 
Q 39.59375 6.203125 44.453125 7.46875 
Q 49.3125 8.734375 54.109375 11.28125 
L 54.109375 2.78125 
Q 49.265625 0.734375 44.1875 -0.34375 
Q 39.109375 -1.421875 33.890625 -1.421875 
Q 20.796875 -1.421875 13.15625 6.1875 
Q 5.515625 13.8125 5.515625 26.8125 
Q 5.515625 40.234375 12.765625 48.109375 
Q 20.015625 56 32.328125 56 
Q 43.359375 56 49.78125 48.890625 
Q 56.203125 41.796875 56.203125 29.59375 
z
M 47.21875 32.234375 
Q 47.125 39.59375 43.09375 43.984375 
Q 39.0625 48.390625 32.421875 48.390625 
Q 24.90625 48.390625 20.390625 44.140625 
Q 15.875 39.890625 15.1875 32.171875 
z
" id="DejaVuSans-101"/>
       <path d="M 4.890625 31.390625 
L 31.203125 31.390625 
L 31.203125 23.390625 
L 4.890625 23.390625 
z
" id="DejaVuSans-45"/>
       <path d="M 45.40625 46.390625 
L 45.40625 75.984375 
L 54.390625 75.984375 
L 54.390625 0 
L 45.40625 0 
L 45.40625 8.203125 
Q 42.578125 3.328125 38.25 0.953125 
Q 33.9375 -1.421875 27.875 -1.421875 
Q 17.96875 -1.421875 11.734375 6.484375 
Q 5.515625 14.40625 5.515625 27.296875 
Q 5.515625 40.1875 11.734375 48.09375 
Q 17.96875 56 27.875 56 
Q 33.9375 56 38.25 53.625 
Q 42.578125 51.265625 45.40625 46.390625 
z
M 14.796875 27.296875 
Q 14.796875 17.390625 18.875 11.75 
Q 22.953125 6.109375 30.078125 6.109375 
Q 37.203125 6.109375 41.296875 11.75 
Q 45.40625 17.390625 45.40625 27.296875 
Q 45.40625 37.203125 41.296875 42.84375 
Q 37.203125 48.484375 30.078125 48.484375 
Q 22.953125 48.484375 18.875 42.84375 
Q 14.796875 37.203125 14.796875 27.296875 
z
" id="DejaVuSans-100"/>
       <path d="M 54.890625 54.6875 
L 35.109375 28.078125 
L 55.90625 0 
L 45.3125 0 
L 29.390625 21.484375 
L 13.484375 0 
L 2.875 0 
L 24.125 28.609375 
L 4.6875 54.6875 
L 15.28125 54.6875 
L 29.78125 35.203125 
L 44.28125 54.6875 
z
" id="DejaVuSans-120"/>
       <path d="M 8.5 21.578125 
L 8.5 54.6875 
L 17.484375 54.6875 
L 17.484375 21.921875 
Q 17.484375 14.15625 20.5 10.265625 
Q 23.53125 6.390625 29.59375 6.390625 
Q 36.859375 6.390625 41.078125 11.03125 
Q 45.3125 15.671875 45.3125 23.6875 
L 45.3125 54.6875 
L 54.296875 54.6875 
L 54.296875 0 
L 45.3125 0 
L 45.3125 8.40625 
Q 42.046875 3.421875 37.71875 1 
Q 33.40625 -1.421875 27.6875 -1.421875 
Q 18.265625 -1.421875 13.375 4.4375 
Q 8.5 10.296875 8.5 21.578125 
z
M 31.109375 56 
z
" id="DejaVuSans-117"/>
      </defs>
      <use xlink:href="#DejaVuSans-84"/>
      <use x="46.333984" xlink:href="#DejaVuSans-114"/>
      <use x="87.447266" xlink:href="#DejaVuSans-97"/>
      <use x="148.726562" xlink:href="#DejaVuSans-105"/>
      <use x="176.509766" xlink:href="#DejaVuSans-110"/>
      <use x="239.888672" xlink:href="#DejaVuSans-32"/>
      <use x="271.675781" xlink:href="#DejaVuSans-102"/>
      <use x="306.880859" xlink:href="#DejaVuSans-114"/>
      <use x="345.744141" xlink:href="#DejaVuSans-111"/>
      <use x="406.925781" xlink:href="#DejaVuSans-109"/>
      <use x="504.337891" xlink:href="#DejaVuSans-32"/>
      <use x="536.125" xlink:href="#DejaVuSans-115"/>
      <use x="588.224609" xlink:href="#DejaVuSans-121"/>
      <use x="647.404297" xlink:href="#DejaVuSans-110"/>
      <use x="710.783203" xlink:href="#DejaVuSans-116"/>
      <use x="749.992188" xlink:href="#DejaVuSans-104"/>
      <use x="813.371094" xlink:href="#DejaVuSans-101"/>
      <use x="874.894531" xlink:href="#DejaVuSans-116"/>
      <use x="914.103516" xlink:href="#DejaVuSans-105"/>
      <use x="941.886719" xlink:href="#DejaVuSans-99"/>
      <use x="996.867188" xlink:href="#DejaVuSans-45"/>
      <use x="1032.951172" xlink:href="#DejaVuSans-51"/>
      <use x="1096.574219" xlink:href="#DejaVuSans-100"/>
      <use x="1160.050781" xlink:href="#DejaVuSans-45"/>
      <use x="1196.134766" xlink:href="#DejaVuSans-116"/>
      <use x="1235.34375" xlink:href="#DejaVuSans-101"/>
      <use x="1295.117188" xlink:href="#DejaVuSans-120"/>
      <use x="1354.296875" xlink:href="#DejaVuSans-116"/>
      <use x="1393.505859" xlink:href="#DejaVuSans-117"/>
      <use x="1456.884766" xlink:href="#DejaVuSans-114"/>
      <use x="1495.748047" xlink:href="#DejaVuSans-101"/>
     </g>
    </g>
   </g>
  </g>
  <g id="axes_2">
   <g id="patch_8">
    <path d="M 394.363636 384.48 
L 648 384.48 
L 648 51.84 
L 394.363636 51.84 
z
" style="fill:#ffffff;"/>
   </g>
   <g id="matplotlib.axis_3">
    <g id="xtick_10">
     <g id="line2d_23">
      <g>
       <use style="stroke:#000000;stroke-width:0.8;" x="394.363636" xlink:href="#mff89ecb9f2" y="384.48"/>
      </g>
     </g>
     <g id="text_21">
      <!-- 0 -->
      <g transform="translate(391.182386 399.078438)scale(0.1 -0.1)">
       <use xlink:href="#DejaVuSans-48"/>
      </g>
     </g>
    </g>
    <g id="xtick_11">
     <g id="line2d_24">
      <g>
       <use style="stroke:#000000;stroke-width:0.8;" x="426.068182" xlink:href="#mff89ecb9f2" y="384.48"/>
      </g>
     </g>
     <g id="text_22">
      <!-- 50 -->
      <g transform="translate(419.705682 399.078438)scale(0.1 -0.1)">
       <use xlink:href="#DejaVuSans-53"/>
       <use x="63.623047" xlink:href="#DejaVuSans-48"/>
      </g>
     </g>
    </g>
    <g id="xtick_12">
     <g id="line2d_25">
      <g>
       <use style="stroke:#000000;stroke-width:0.8;" x="457.772727" xlink:href="#mff89ecb9f2" y="384.48"/>
      </g>
     </g>
     <g id="text_23">
      <!-- 100 -->
      <g transform="translate(448.228977 399.078438)scale(0.1 -0.1)">
       <use xlink:href="#DejaVuSans-49"/>
       <use x="63.623047" xlink:href="#DejaVuSans-48"/>
       <use x="127.246094" xlink:href="#DejaVuSans-48"/>
      </g>
     </g>
    </g>
    <g id="xtick_13">
     <g id="line2d_26">
      <g>
       <use style="stroke:#000000;stroke-width:0.8;" x="489.477273" xlink:href="#mff89ecb9f2" y="384.48"/>
      </g>
     </g>
     <g id="text_24">
      <!-- 150 -->
      <g transform="translate(479.933523 399.078438)scale(0.1 -0.1)">
       <use xlink:href="#DejaVuSans-49"/>
       <use x="63.623047" xlink:href="#DejaVuSans-53"/>
       <use x="127.246094" xlink:href="#DejaVuSans-48"/>
      </g>
     </g>
    </g>
    <g id="xtick_14">
     <g id="line2d_27">
      <g>
       <use style="stroke:#000000;stroke-width:0.8;" x="521.181818" xlink:href="#mff89ecb9f2" y="384.48"/>
      </g>
     </g>
     <g id="text_25">
      <!-- 200 -->
      <g transform="translate(511.638068 399.078438)scale(0.1 -0.1)">
       <use xlink:href="#DejaVuSans-50"/>
       <use x="63.623047" xlink:href="#DejaVuSans-48"/>
       <use x="127.246094" xlink:href="#DejaVuSans-48"/>
      </g>
     </g>
    </g>
    <g id="xtick_15">
     <g id="line2d_28">
      <g>
       <use style="stroke:#000000;stroke-width:0.8;" x="552.886364" xlink:href="#mff89ecb9f2" y="384.48"/>
      </g>
     </g>
     <g id="text_26">
      <!-- 250 -->
      <g transform="translate(543.342614 399.078438)scale(0.1 -0.1)">
       <use xlink:href="#DejaVuSans-50"/>
       <use x="63.623047" xlink:href="#DejaVuSans-53"/>
       <use x="127.246094" xlink:href="#DejaVuSans-48"/>
      </g>
     </g>
    </g>
    <g id="xtick_16">
     <g id="line2d_29">
      <g>
       <use style="stroke:#000000;stroke-width:0.8;" x="584.590909" xlink:href="#mff89ecb9f2" y="384.48"/>
      </g>
     </g>
     <g id="text_27">
      <!-- 300 -->
      <g transform="translate(575.047159 399.078438)scale(0.1 -0.1)">
       <use xlink:href="#DejaVuSans-51"/>
       <use x="63.623047" xlink:href="#DejaVuSans-48"/>
       <use x="127.246094" xlink:href="#DejaVuSans-48"/>
      </g>
     </g>
    </g>
    <g id="xtick_17">
     <g id="line2d_30">
      <g>
       <use style="stroke:#000000;stroke-width:0.8;" x="616.295455" xlink:href="#mff89ecb9f2" y="384.48"/>
      </g>
     </g>
     <g id="text_28">
      <!-- 350 -->
      <g transform="translate(606.751705 399.078438)scale(0.1 -0.1)">
       <use xlink:href="#DejaVuSans-51"/>
       <use x="63.623047" xlink:href="#DejaVuSans-53"/>
       <use x="127.246094" xlink:href="#DejaVuSans-48"/>
      </g>
     </g>
    </g>
    <g id="xtick_18">
     <g id="line2d_31">
      <g>
       <use style="stroke:#000000;stroke-width:0.8;" x="648" xlink:href="#mff89ecb9f2" y="384.48"/>
      </g>
     </g>
     <g id="text_29">
      <!-- 400 -->
      <g transform="translate(638.45625 399.078438)scale(0.1 -0.1)">
       <use xlink:href="#DejaVuSans-52"/>
       <use x="63.623047" xlink:href="#DejaVuSans-48"/>
       <use x="127.246094" xlink:href="#DejaVuSans-48"/>
      </g>
     </g>
    </g>
    <g id="text_30">
     <!-- Epoch -->
     <g transform="translate(505.870881 412.756563)scale(0.1 -0.1)">
      <use xlink:href="#DejaVuSans-69"/>
      <use x="63.183594" xlink:href="#DejaVuSans-112"/>
      <use x="126.660156" xlink:href="#DejaVuSans-111"/>
      <use x="187.841797" xlink:href="#DejaVuSans-99"/>
      <use x="242.822266" xlink:href="#DejaVuSans-104"/>
     </g>
    </g>
   </g>
   <g id="matplotlib.axis_4">
    <g id="ytick_8">
     <g id="line2d_32">
      <g>
       <use style="stroke:#000000;stroke-width:0.8;" x="394.363636" xlink:href="#mcf9b18e4ad" y="327.087498"/>
      </g>
     </g>
     <g id="text_31">
      <!-- 20 -->
      <g transform="translate(374.638636 330.886717)scale(0.1 -0.1)">
       <use xlink:href="#DejaVuSans-50"/>
       <use x="63.623047" xlink:href="#DejaVuSans-48"/>
      </g>
     </g>
    </g>
    <g id="ytick_9">
     <g id="line2d_33">
      <g>
       <use style="stroke:#000000;stroke-width:0.8;" x="394.363636" xlink:href="#mcf9b18e4ad" y="255.741503"/>
      </g>
     </g>
     <g id="text_32">
      <!-- 40 -->
      <g transform="translate(374.638636 259.540722)scale(0.1 -0.1)">
       <use xlink:href="#DejaVuSans-52"/>
       <use x="63.623047" xlink:href="#DejaVuSans-48"/>
      </g>
     </g>
    </g>
    <g id="ytick_10">
     <g id="line2d_34">
      <g>
       <use style="stroke:#000000;stroke-width:0.8;" x="394.363636" xlink:href="#mcf9b18e4ad" y="184.395508"/>
      </g>
     </g>
     <g id="text_33">
      <!-- 60 -->
      <g transform="translate(374.638636 188.194727)scale(0.1 -0.1)">
       <use xlink:href="#DejaVuSans-54"/>
       <use x="63.623047" xlink:href="#DejaVuSans-48"/>
      </g>
     </g>
    </g>
    <g id="ytick_11">
     <g id="line2d_35">
      <g>
       <use style="stroke:#000000;stroke-width:0.8;" x="394.363636" xlink:href="#mcf9b18e4ad" y="113.049513"/>
      </g>
     </g>
     <g id="text_34">
      <!-- 80 -->
      <g transform="translate(374.638636 116.848732)scale(0.1 -0.1)">
       <defs>
        <path d="M 31.78125 34.625 
Q 24.75 34.625 20.71875 30.859375 
Q 16.703125 27.09375 16.703125 20.515625 
Q 16.703125 13.921875 20.71875 10.15625 
Q 24.75 6.390625 31.78125 6.390625 
Q 38.8125 6.390625 42.859375 10.171875 
Q 46.921875 13.96875 46.921875 20.515625 
Q 46.921875 27.09375 42.890625 30.859375 
Q 38.875 34.625 31.78125 34.625 
z
M 21.921875 38.8125 
Q 15.578125 40.375 12.03125 44.71875 
Q 8.5 49.078125 8.5 55.328125 
Q 8.5 64.0625 14.71875 69.140625 
Q 20.953125 74.21875 31.78125 74.21875 
Q 42.671875 74.21875 48.875 69.140625 
Q 55.078125 64.0625 55.078125 55.328125 
Q 55.078125 49.078125 51.53125 44.71875 
Q 48 40.375 41.703125 38.8125 
Q 48.828125 37.15625 52.796875 32.3125 
Q 56.78125 27.484375 56.78125 20.515625 
Q 56.78125 9.90625 50.3125 4.234375 
Q 43.84375 -1.421875 31.78125 -1.421875 
Q 19.734375 -1.421875 13.25 4.234375 
Q 6.78125 9.90625 6.78125 20.515625 
Q 6.78125 27.484375 10.78125 32.3125 
Q 14.796875 37.15625 21.921875 38.8125 
z
M 18.3125 54.390625 
Q 18.3125 48.734375 21.84375 45.5625 
Q 25.390625 42.390625 31.78125 42.390625 
Q 38.140625 42.390625 41.71875 45.5625 
Q 45.3125 48.734375 45.3125 54.390625 
Q 45.3125 60.0625 41.71875 63.234375 
Q 38.140625 66.40625 31.78125 66.40625 
Q 25.390625 66.40625 21.84375 63.234375 
Q 18.3125 60.0625 18.3125 54.390625 
z
" id="DejaVuSans-56"/>
       </defs>
       <use xlink:href="#DejaVuSans-56"/>
       <use x="63.623047" xlink:href="#DejaVuSans-48"/>
      </g>
     </g>
    </g>
    <g id="text_35">
     <!-- MSE -->
     <g transform="translate(368.558949 228.807656)rotate(-90)scale(0.1 -0.1)">
      <defs>
       <path d="M 53.515625 70.515625 
L 53.515625 60.890625 
Q 47.90625 63.578125 42.921875 64.890625 
Q 37.9375 66.21875 33.296875 66.21875 
Q 25.25 66.21875 20.875 63.09375 
Q 16.5 59.96875 16.5 54.203125 
Q 16.5 49.359375 19.40625 46.890625 
Q 22.3125 44.4375 30.421875 42.921875 
L 36.375 41.703125 
Q 47.40625 39.59375 52.65625 34.296875 
Q 57.90625 29 57.90625 20.125 
Q 57.90625 9.515625 50.796875 4.046875 
Q 43.703125 -1.421875 29.984375 -1.421875 
Q 24.8125 -1.421875 18.96875 -0.25 
Q 13.140625 0.921875 6.890625 3.21875 
L 6.890625 13.375 
Q 12.890625 10.015625 18.65625 8.296875 
Q 24.421875 6.59375 29.984375 6.59375 
Q 38.421875 6.59375 43.015625 9.90625 
Q 47.609375 13.234375 47.609375 19.390625 
Q 47.609375 24.75 44.3125 27.78125 
Q 41.015625 30.8125 33.5 32.328125 
L 27.484375 33.5 
Q 16.453125 35.6875 11.515625 40.375 
Q 6.59375 45.0625 6.59375 53.421875 
Q 6.59375 63.09375 13.40625 68.65625 
Q 20.21875 74.21875 32.171875 74.21875 
Q 37.3125 74.21875 42.625 73.28125 
Q 47.953125 72.359375 53.515625 70.515625 
z
" id="DejaVuSans-83"/>
      </defs>
      <use xlink:href="#DejaVuSans-77"/>
      <use x="86.279297" xlink:href="#DejaVuSans-83"/>
      <use x="149.755859" xlink:href="#DejaVuSans-69"/>
     </g>
    </g>
   </g>
   <g id="line2d_36">
    <path clip-path="url(#p91d8da2e36)" d="M 394.363636 66.96 
L 394.997727 67.816152 
L 395.631818 99.600793 
L 396.265909 96.996664 
L 396.9 125.321024 
L 397.534091 130.74332 
L 398.802273 161.029694 
L 399.436364 164.596994 
L 400.070455 150.50616 
L 400.704545 163.098728 
L 401.338636 182.932915 
L 401.972727 207.689975 
L 402.606818 200.876433 
L 403.240909 218.605912 
L 403.875 188.390884 
L 404.509091 225.312436 
L 405.143182 230.59204 
L 405.777273 219.033988 
L 406.411364 178.973212 
L 407.045455 225.811858 
L 407.679545 219.89014 
L 408.313636 231.697903 
L 408.947727 229.52185 
L 409.581818 225.419455 
L 410.215909 215.109959 
L 410.85 211.756697 
L 411.484091 224.634649 
L 412.118182 249.463055 
L 412.752273 236.799141 
L 413.386364 248.535557 
L 414.020455 239.831346 
L 414.654545 243.862395 
L 415.288636 241.18692 
L 415.922727 235.158183 
L 416.556818 223.279075 
L 417.190909 259.059092 
L 417.825 237.97635 
L 418.459091 242.114418 
L 419.093182 258.167267 
L 419.727273 239.510289 
L 420.361364 272.472139 
L 420.995455 246.573543 
L 421.629545 261.66322 
L 422.263636 261.912931 
L 422.897727 269.903683 
L 423.531818 255.634484 
L 424.165909 272.186755 
L 424.8 260.70005 
L 425.434091 237.655293 
L 426.702273 275.290306 
L 427.336364 276.217803 
L 427.970455 266.871478 
L 428.604545 271.259257 
L 429.238636 271.259257 
L 429.872727 270.438778 
L 430.506818 285.350091 
L 431.140909 270.296086 
L 431.775 270.652816 
L 432.409091 280.284525 
L 433.043182 268.476763 
L 433.677273 276.253476 
L 434.311364 273.506656 
L 434.945455 238.154715 
L 436.213636 277.25232 
L 436.847727 285.778167 
L 437.481818 286.741338 
L 438.115909 281.247696 
L 439.384091 285.956532 
L 440.018182 285.45711 
L 440.652273 286.063551 
L 441.286364 284.422593 
L 442.554545 268.08436 
L 443.188636 302.437457 
L 443.822727 276.467514 
L 444.456818 284.244228 
L 445.090909 282.531924 
L 445.725 267.513592 
L 446.359091 278.67924 
L 447.627273 296.016317 
L 448.261364 285.45711 
L 448.895455 290.34431 
L 449.529545 293.697572 
L 450.163636 270.545797 
L 450.797727 287.205087 
L 451.431818 299.084195 
L 452.065909 286.777011 
L 452.7 267.834649 
L 453.334091 293.697572 
L 453.968182 310.677919 
L 454.602273 297.157853 
L 455.236364 296.908142 
L 455.870455 290.558348 
L 456.504545 276.717225 
L 457.138636 293.091131 
L 457.772727 301.331594 
L 458.406818 313.210702 
L 459.040909 311.569744 
L 459.675 310.749265 
L 460.309091 305.57668 
L 460.943182 311.99782 
L 461.577273 307.36033 
L 462.211364 309.036961 
L 462.845455 314.387911 
L 463.479545 316.064542 
L 464.113636 311.890801 
L 464.747727 311.890801 
L 465.381818 314.280892 
L 466.015909 309.358018 
L 466.65 323.199141 
L 467.284091 315.92185 
L 467.918182 319.774533 
L 468.552273 314.173873 
L 469.186364 317.027713 
L 469.820455 317.990884 
L 470.454545 318.204922 
L 471.088636 313.531759 
L 471.722727 314.423584 
L 472.356818 318.704344 
L 472.990909 324.590388 
L 473.625 312.283204 
L 474.259091 320.951742 
L 474.893182 325.44654 
L 475.527273 312.71128 
L 476.161364 312.033493 
L 476.795455 311.748109 
L 477.429545 320.844723 
L 478.063636 314.459257 
L 478.697727 328.764129 
L 479.331818 324.090966 
L 479.965909 317.527135 
L 480.6 320.666358 
L 481.234091 320.987415 
L 481.868182 329.655954 
L 482.502273 313.175029 
L 483.136364 321.094434 
L 483.770455 315.779158 
L 484.404545 322.628373 
L 485.038636 316.171561 
L 485.672727 316.706656 
L 486.306818 326.481057 
L 486.940909 324.37635 
L 487.575 325.981635 
L 488.209091 323.163468 
L 488.843182 317.170405 
L 489.477273 323.983947 
L 490.111364 322.485681 
L 490.745455 326.87346 
L 491.379545 317.669827 
L 492.013636 319.417803 
L 492.647727 314.85166 
L 493.281818 325.731924 
L 493.915909 321.058761 
L 494.55 324.340677 
L 495.184091 317.491462 
L 495.818182 321.736548 
L 496.452273 321.308472 
L 497.086364 330.048357 
L 497.720455 319.310784 
L 498.354545 325.517886 
L 498.988636 324.162312 
L 499.622727 316.492618 
L 500.256818 322.878084 
L 500.890909 320.024244 
L 501.525 325.44654 
L 502.159091 321.700875 
L 502.793182 323.020776 
L 503.427273 329.192205 
L 504.061364 327.158844 
L 504.695455 323.234814 
L 505.329545 324.911445 
L 505.963636 331.939026 
L 506.597727 318.097903 
L 507.231818 330.690471 
L 507.865909 322.128951 
L 508.5 328.835475 
L 509.134091 324.126639 
L 509.768182 330.761817 
L 510.402273 325.08981 
L 511.036364 325.910289 
L 511.670455 330.262395 
L 512.304545 321.52251 
L 512.938636 330.048357 
L 513.572727 329.441916 
L 514.206818 325.981635 
L 514.840909 327.765285 
L 515.475 331.15422 
L 516.109091 330.298068 
L 516.743182 325.339521 
L 517.377273 334.079405 
L 518.011364 317.7055 
L 518.645455 328.122015 
L 519.913636 323.30616 
L 520.547727 316.778002 
L 521.181818 329.941338 
L 521.815909 331.261239 
L 522.45 326.231346 
L 523.718182 335.756036 
L 524.352273 333.223254 
L 524.986364 333.722675 
L 525.620455 332.723832 
L 526.254545 331.047201 
L 526.888636 327.194517 
L 527.522727 333.651329 
L 528.156818 334.864211 
L 529.425 331.760661 
L 530.059091 333.651329 
L 530.693182 330.868836 
L 531.327273 334.115078 
L 531.961364 332.188737 
L 532.595455 334.079405 
L 533.229545 333.223254 
L 533.863636 332.795178 
L 534.497727 331.796334 
L 535.131818 334.329116 
L 535.765909 335.756036 
L 536.4 325.874616 
L 537.034091 332.367102 
L 537.668182 332.759505 
L 538.302273 327.658266 
L 538.936364 333.579983 
L 539.570455 335.006903 
L 540.838636 330.226722 
L 541.472727 336.112766 
L 542.106818 329.869992 
L 542.740909 333.508637 
L 543.375 336.291131 
L 544.009091 335.399306 
L 544.643182 328.443072 
L 545.277273 335.577671 
L 545.911364 330.761817 
L 546.545455 333.615656 
L 547.179545 324.697407 
L 547.813636 330.833163 
L 548.447727 329.691627 
L 549.081818 329.477589 
L 549.715909 333.54431 
L 550.35 321.094434 
L 550.984091 331.189893 
L 551.618182 331.261239 
L 552.252273 332.046045 
L 552.886364 332.58114 
L 553.520455 331.368258 
L 554.154545 327.23019 
L 554.788636 324.090966 
L 555.422727 331.582296 
L 556.056818 329.192205 
L 556.690909 335.970074 
L 557.325 337.789397 
L 558.593182 334.792865 
L 559.227273 327.551247 
L 559.861364 329.263551 
L 560.495455 328.764129 
L 561.129545 339.96545 
L 563.031818 326.16 
L 563.665909 322.842411 
L 564.3 337.325648 
L 564.934091 322.806738 
L 565.568182 330.761817 
L 566.836364 334.008059 
L 567.470455 334.150751 
L 568.104545 329.334897 
L 568.738636 334.471808 
L 569.372727 329.584608 
L 570.006818 332.902197 
L 570.640909 334.6145 
L 571.275 326.623749 
L 571.909091 332.081718 
L 572.543182 332.93787 
L 573.177273 335.042576 
L 573.811364 331.689315 
L 574.445455 324.519042 
L 575.079545 334.899884 
L 575.713636 327.051825 
L 576.347727 330.79749 
L 576.981818 335.68469 
L 577.615909 329.977011 
L 578.25 336.968918 
L 579.518182 332.795178 
L 580.152273 327.800958 
L 580.786364 336.469496 
L 581.420455 330.08403 
L 582.054545 333.151908 
L 582.688636 330.583452 
L 583.322727 332.759505 
L 583.956818 332.509794 
L 584.590909 331.724988 
L 585.225 335.613344 
L 585.859091 332.331429 
L 586.493182 336.540842 
L 587.127273 325.910289 
L 587.761364 337.932089 
L 589.029545 331.582296 
L 589.663636 332.438448 
L 590.297727 337.432667 
L 590.931818 335.649017 
L 591.565909 331.582296 
L 592.2 334.6145 
L 592.834091 333.116235 
L 593.468182 336.505169 
L 594.102273 332.081718 
L 594.736364 332.22441 
L 595.370455 338.859587 
L 596.004545 331.689315 
L 596.638636 328.621437 
L 597.272727 333.080562 
L 597.906818 334.25777 
L 598.540909 326.088654 
L 599.175 331.86768 
L 599.809091 332.616813 
L 600.443182 331.546623 
L 601.077273 336.291131 
L 601.711364 319.703187 
L 602.345455 335.042576 
L 602.979545 326.16 
L 603.613636 326.231346 
L 604.247727 331.225566 
L 604.881818 332.830851 
L 605.515909 337.218629 
L 606.15 326.730768 
L 606.784091 333.2946 
L 607.418182 335.32796 
L 608.052273 335.006903 
L 608.686364 332.688159 
L 609.320455 337.289975 
L 609.954545 333.472964 
L 610.588636 332.545467 
L 611.222727 333.90104 
L 611.856818 328.371726 
L 612.490909 333.151908 
L 613.125 336.647861 
L 613.759091 335.649017 
L 614.393182 325.553559 
L 615.027273 337.361321 
L 615.661364 334.364789 
L 616.295455 334.008059 
L 616.929545 323.805582 
L 617.563636 332.93787 
L 618.197727 328.050669 
L 618.831818 328.728456 
L 619.465909 334.329116 
L 620.1 333.151908 
L 620.734091 332.866524 
L 621.368182 327.194517 
L 622.002273 329.01384 
L 622.636364 337.075937 
L 623.270455 331.368258 
L 623.904545 335.791709 
L 625.172727 329.334897 
L 625.806818 330.44076 
L 626.440909 335.577671 
L 627.075 327.016152 
L 627.709091 330.726144 
L 628.343182 332.866524 
L 628.977273 333.187581 
L 629.611364 326.944806 
L 630.245455 335.68469 
L 630.879545 323.769909 
L 631.513636 330.940182 
L 632.147727 331.403931 
L 632.781818 331.475277 
L 633.415909 330.191049 
L 634.05 327.58692 
L 634.684091 334.222097 
L 635.318182 331.047201 
L 635.952273 332.759505 
L 636.586364 333.651329 
L 637.220455 331.939026 
L 637.854545 328.906821 
L 638.488636 334.150751 
L 639.122727 336.291131 
L 639.756818 332.58114 
L 640.390909 336.576515 
L 641.025 334.578827 
L 641.659091 328.942494 
L 642.293182 330.298068 
L 642.927273 335.541998 
L 643.561364 332.046045 
L 644.195455 335.006903 
L 644.829545 331.974699 
L 645.463636 331.082874 
L 646.097727 336.469496 
L 646.731818 327.515574 
L 647.365909 339.430355 
L 648 322.557027 
L 648 322.557027 
" style="fill:none;stroke:#1f77b4;stroke-linecap:square;stroke-width:1.5;"/>
   </g>
   <g id="line2d_37">
    <path clip-path="url(#p91d8da2e36)" d="M 394.363636 128.852651 
L 395.631818 171.874286 
L 396.265909 181.613014 
L 396.9 200.912106 
L 397.534091 195.026061 
L 398.802273 229.200793 
L 399.436364 234.230685 
L 400.070455 223.493113 
L 400.704545 235.051164 
L 401.338636 242.506821 
L 401.972727 254.385929 
L 402.606818 259.166111 
L 403.240909 254.457275 
L 403.875 235.871643 
L 404.509091 269.083204 
L 405.143182 284.065863 
L 405.777273 266.764459 
L 406.411364 257.346788 
L 407.045455 268.44109 
L 407.679545 262.198315 
L 408.313636 267.977341 
L 408.947727 284.493939 
L 409.581818 250.747283 
L 410.215909 262.697737 
L 410.85 280.46289 
L 411.484091 286.491627 
L 412.118182 296.979488 
L 412.752273 281.711445 
L 413.386364 287.312106 
L 414.020455 296.836796 
L 415.288636 274.897903 
L 415.922727 279.3927 
L 416.556818 263.375524 
L 417.190909 295.980644 
L 417.825 270.795508 
L 418.459091 284.993361 
L 419.093182 302.651495 
L 419.727273 288.810372 
L 420.361364 299.191214 
L 420.995455 289.916235 
L 421.629545 291.307481 
L 422.263636 283.744806 
L 422.897727 293.269496 
L 423.531818 299.690636 
L 424.165909 314.815987 
L 425.434091 285.45711 
L 426.068182 293.269496 
L 427.336364 324.126639 
L 427.970455 292.805747 
L 428.604545 303.115244 
L 429.238636 298.941503 
L 429.872727 310.142824 
L 430.506818 318.06223 
L 431.140909 317.990884 
L 431.775 305.897737 
L 432.409091 310.856284 
L 433.043182 324.055293 
L 433.677273 323.234814 
L 434.311364 317.134732 
L 434.945455 307.824079 
L 436.847727 320.416647 
L 437.481818 322.521354 
L 438.115909 303.115244 
L 438.75 324.162312 
L 439.384091 298.335062 
L 440.018182 320.345301 
L 440.652273 324.305004 
L 441.286364 326.766441 
L 441.920455 309.572056 
L 442.554545 317.491462 
L 443.188636 322.307316 
L 443.822727 310.107151 
L 444.456818 324.840099 
L 445.090909 322.521354 
L 445.725 312.033493 
L 446.359091 327.265863 
L 446.993182 328.443072 
L 447.627273 313.389067 
L 448.261364 320.80905 
L 448.895455 322.842411 
L 449.529545 335.434979 
L 450.163636 310.535227 
L 450.797727 306.504178 
L 451.431818 310.107151 
L 452.065909 305.469661 
L 452.7 313.531759 
L 453.334091 319.952898 
L 453.968182 335.399306 
L 454.602273 323.270487 
L 455.236364 331.546623 
L 455.870455 338.360165 
L 456.504545 327.800958 
L 457.138636 314.780314 
L 457.772727 333.90104 
L 458.406818 343.247366 
L 459.040909 346.243898 
L 459.675 351.559174 
L 460.309091 346.778993 
L 460.943182 350.881387 
L 461.577273 349.597159 
L 462.211364 349.454467 
L 462.845455 352.879075 
L 463.479545 348.669661 
L 464.113636 348.241585 
L 464.747727 347.528126 
L 465.381818 354.056284 
L 466.015909 350.381965 
L 466.65 354.448687 
L 467.284091 349.026391 
L 467.918182 355.768588 
L 468.552273 351.844558 
L 469.186364 356.660413 
L 469.820455 353.200132 
L 470.454545 352.165615 
L 471.088636 351.701866 
L 472.356818 351.059752 
L 472.990909 355.411858 
L 473.625 352.236961 
L 474.259091 355.376185 
L 475.527273 350.738695 
L 476.161364 347.421107 
L 476.795455 355.518877 
L 477.429545 357.3382 
L 478.063636 354.270322 
L 478.697727 354.912436 
L 479.331818 356.696086 
L 479.965909 354.48436 
L 480.6 357.908968 
L 481.234091 356.482048 
L 481.868182 357.552238 
L 482.502273 352.665037 
L 483.136364 355.625896 
L 483.770455 354.591379 
L 484.404545 357.480892 
L 485.038636 356.62474 
L 485.672727 356.98147 
L 486.306818 355.946953 
L 486.940909 357.837622 
L 487.575 358.479736 
L 488.209091 355.483204 
L 488.843182 353.342824 
L 489.477273 359.942329 
L 490.111364 353.806573 
L 490.745455 360.19204 
L 491.379545 358.05166 
L 492.013636 357.69493 
L 492.647727 355.269166 
L 493.281818 356.482048 
L 493.915909 354.377341 
L 494.55 358.907812 
L 495.184091 358.586755 
L 495.818182 354.020611 
L 496.452273 359.906656 
L 497.086364 362.261073 
L 497.720455 359.442907 
L 498.354545 358.622428 
L 498.988636 356.482048 
L 499.622727 359.335888 
L 500.256818 357.124162 
L 500.890909 359.621272 
L 501.525 353.984938 
L 502.159091 358.479736 
L 502.793182 359.656945 
L 503.427273 356.053972 
L 504.061364 358.76512 
L 504.695455 354.662725 
L 505.329545 357.124162 
L 505.963636 363.010206 
L 506.597727 355.304839 
L 507.231818 361.940017 
L 507.865909 358.872139 
L 509.134091 363.438282 
L 509.768182 363.473955 
L 510.402273 359.264542 
L 511.670455 356.232337 
L 512.304545 357.017143 
L 512.938636 360.941173 
L 513.572727 358.76512 
L 514.206818 355.019455 
L 514.840909 362.689149 
L 515.475 359.942329 
L 516.109091 361.511941 
L 516.743182 353.592535 
L 517.377273 362.261073 
L 518.011364 356.945797 
L 518.645455 358.015987 
L 519.279545 359.621272 
L 519.913636 353.806573 
L 520.547727 358.479736 
L 521.181818 361.832998 
L 521.815909 364.223088 
L 522.45 360.54877 
L 523.084091 362.653476 
L 523.718182 366.256449 
L 524.352273 365.507316 
L 524.986364 366.470487 
L 525.620455 359.371561 
L 526.254545 359.799637 
L 526.888636 361.012519 
L 527.522727 362.903187 
L 528.156818 363.973377 
L 528.790909 364.437126 
L 529.425 367.719042 
L 530.059091 366.541833 
L 530.693182 364.00905 
L 531.327273 362.403765 
L 531.961364 363.795012 
L 532.595455 366.613179 
L 533.229545 365.114913 
L 533.863636 364.686837 
L 534.497727 361.690306 
L 535.131818 365.43597 
L 536.4 358.836466 
L 537.034091 364.936548 
L 537.668182 366.434814 
L 538.302273 360.513097 
L 538.936364 364.151742 
L 539.570455 365.899719 
L 540.204545 365.221932 
L 540.838636 363.65232 
L 541.472727 366.86289 
L 542.106818 362.617803 
L 542.740909 367.897407 
L 543.375 363.010206 
L 544.009091 364.544145 
L 544.643182 361.940017 
L 545.277273 364.187415 
L 545.911364 365.221932 
L 546.545455 364.080396 
L 547.179545 359.870983 
L 547.813636 362.93886 
L 548.447727 360.727135 
L 549.081818 363.687993 
L 549.715909 363.723666 
L 550.35 360.156367 
L 550.984091 362.011363 
L 551.618182 365.364624 
L 552.252273 365.471643 
L 553.520455 362.653476 
L 554.788636 361.868671 
L 555.422727 360.54877 
L 556.056818 363.973377 
L 556.690909 363.117225 
L 557.959091 366.648852 
L 558.593182 366.827217 
L 559.227273 363.366936 
L 559.861364 360.655789 
L 560.495455 362.58213 
L 561.129545 367.433658 
L 561.763636 365.7927 
L 562.397727 364.758183 
L 563.031818 364.900875 
L 563.665909 360.299059 
L 564.3 365.114913 
L 564.934091 358.372717 
L 565.568182 364.686837 
L 566.202273 364.472799 
L 566.836364 362.296746 
L 567.470455 363.866358 
L 568.104545 362.439438 
L 568.738636 364.080396 
L 569.372727 363.188571 
L 570.640909 364.187415 
L 571.275 361.226557 
L 571.909091 362.58213 
L 572.543182 362.796168 
L 573.177273 365.364624 
L 573.811364 364.829529 
L 574.445455 361.97569 
L 575.079545 363.29559 
L 575.713636 358.872139 
L 576.981818 367.683369 
L 577.615909 365.364624 
L 578.25 365.7927 
L 578.884091 363.045879 
L 579.518182 365.721354 
L 580.152273 361.725979 
L 580.786364 365.899719 
L 581.420455 364.758183 
L 582.054545 365.400297 
L 582.688636 362.368092 
L 583.322727 364.544145 
L 583.956818 363.509628 
L 584.590909 363.937704 
L 585.225 363.830685 
L 585.859091 363.973377 
L 586.493182 364.579818 
L 587.127273 365.542989 
L 587.761364 366.86289 
L 588.395455 365.221932 
L 589.029545 364.972221 
L 589.663636 367.041255 
L 590.297727 368.040099 
L 590.931818 362.867514 
L 591.565909 361.904344 
L 592.2 364.437126 
L 592.834091 365.114913 
L 593.468182 366.042411 
L 594.102273 364.936548 
L 594.736364 362.368092 
L 595.370455 364.36578 
L 596.004545 364.865202 
L 596.638636 362.796168 
L 597.272727 363.509628 
L 597.906818 366.791544 
L 598.540909 361.61896 
L 599.175 364.044723 
L 599.809091 364.900875 
L 600.443182 366.934236 
L 601.077273 365.507316 
L 601.711364 357.195508 
L 602.345455 364.00905 
L 602.979545 364.936548 
L 603.613636 363.081552 
L 604.247727 363.759339 
L 604.881818 363.795012 
L 605.515909 364.758183 
L 606.15 361.511941 
L 606.784091 364.508472 
L 607.418182 364.544145 
L 608.052273 365.364624 
L 608.686364 366.898563 
L 609.954545 364.579818 
L 610.588636 363.152898 
L 611.222727 365.364624 
L 611.856818 361.97569 
L 612.490909 366.292122 
L 613.125 366.220776 
L 613.759091 364.72251 
L 614.393182 360.441751 
L 615.027273 366.434814 
L 615.661364 365.542989 
L 616.295455 366.256449 
L 616.929545 359.799637 
L 617.563636 364.829529 
L 618.197727 364.401453 
L 619.465909 362.154055 
L 620.1 364.900875 
L 620.734091 364.579818 
L 621.368182 363.117225 
L 622.002273 364.508472 
L 622.636364 369.36 
L 623.270455 362.011363 
L 623.904545 364.865202 
L 624.538636 363.795012 
L 625.172727 361.476268 
L 626.440909 368.575194 
L 627.075 359.799637 
L 627.709091 362.332419 
L 628.977273 363.687993 
L 629.611364 363.010206 
L 630.245455 366.434814 
L 630.879545 364.044723 
L 631.513636 366.684525 
L 632.147727 368.111445 
L 632.781818 361.97569 
L 633.415909 364.651164 
L 634.05 365.150586 
L 634.684091 362.867514 
L 635.318182 363.687993 
L 635.952273 366.434814 
L 636.586364 364.294434 
L 637.220455 364.151742 
L 637.854545 361.547614 
L 638.488636 367.076928 
L 639.122727 365.935392 
L 640.390909 364.972221 
L 641.025 366.648852 
L 641.659091 363.973377 
L 642.293182 367.469331 
L 643.561364 363.224244 
L 644.195455 364.651164 
L 644.829545 363.723666 
L 645.463636 363.723666 
L 646.097727 367.362312 
L 646.731818 360.013675 
L 647.365909 366.613179 
L 648 360.54877 
L 648 360.54877 
" style="fill:none;stroke:#ff7f0e;stroke-linecap:square;stroke-width:1.5;"/>
   </g>
   <g id="patch_9">
    <path d="M 394.363636 384.48 
L 394.363636 51.84 
" style="fill:none;stroke:#000000;stroke-linecap:square;stroke-linejoin:miter;stroke-width:0.8;"/>
   </g>
   <g id="patch_10">
    <path d="M 648 384.48 
L 648 51.84 
" style="fill:none;stroke:#000000;stroke-linecap:square;stroke-linejoin:miter;stroke-width:0.8;"/>
   </g>
   <g id="patch_11">
    <path d="M 394.363636 384.48 
L 648 384.48 
" style="fill:none;stroke:#000000;stroke-linecap:square;stroke-linejoin:miter;stroke-width:0.8;"/>
   </g>
   <g id="patch_12">
    <path d="M 394.363636 51.84 
L 648 51.84 
" style="fill:none;stroke:#000000;stroke-linecap:square;stroke-linejoin:miter;stroke-width:0.8;"/>
   </g>
   <g id="legend_2">
    <g id="patch_13">
     <path d="M 453.276562 89.19625 
L 641 89.19625 
Q 643 89.19625 643 87.19625 
L 643 58.84 
Q 643 56.84 641 56.84 
L 453.276562 56.84 
Q 451.276562 56.84 451.276562 58.84 
L 451.276562 87.19625 
Q 451.276562 89.19625 453.276562 89.19625 
z
" style="fill:#ffffff;opacity:0.8;stroke:#cccccc;stroke-linejoin:miter;"/>
    </g>
    <g id="line2d_38">
     <path d="M 455.276562 64.938437 
L 475.276562 64.938437 
" style="fill:none;stroke:#1f77b4;stroke-linecap:square;stroke-width:1.5;"/>
    </g>
    <g id="line2d_39"/>
    <g id="text_36">
     <!-- Train from scratch -->
     <g transform="translate(483.276562 68.438437)scale(0.1 -0.1)">
      <use xlink:href="#DejaVuSans-84"/>
      <use x="46.333984" xlink:href="#DejaVuSans-114"/>
      <use x="87.447266" xlink:href="#DejaVuSans-97"/>
      <use x="148.726562" xlink:href="#DejaVuSans-105"/>
      <use x="176.509766" xlink:href="#DejaVuSans-110"/>
      <use x="239.888672" xlink:href="#DejaVuSans-32"/>
      <use x="271.675781" xlink:href="#DejaVuSans-102"/>
      <use x="306.880859" xlink:href="#DejaVuSans-114"/>
      <use x="345.744141" xlink:href="#DejaVuSans-111"/>
      <use x="406.925781" xlink:href="#DejaVuSans-109"/>
      <use x="504.337891" xlink:href="#DejaVuSans-32"/>
      <use x="536.125" xlink:href="#DejaVuSans-115"/>
      <use x="588.224609" xlink:href="#DejaVuSans-99"/>
      <use x="643.205078" xlink:href="#DejaVuSans-114"/>
      <use x="684.318359" xlink:href="#DejaVuSans-97"/>
      <use x="745.597656" xlink:href="#DejaVuSans-116"/>
      <use x="784.806641" xlink:href="#DejaVuSans-99"/>
      <use x="839.787109" xlink:href="#DejaVuSans-104"/>
     </g>
    </g>
    <g id="line2d_40">
     <path d="M 455.276562 79.616562 
L 475.276562 79.616562 
" style="fill:none;stroke:#ff7f0e;stroke-linecap:square;stroke-width:1.5;"/>
    </g>
    <g id="line2d_41"/>
    <g id="text_37">
     <!-- Train from synthetic-3d-texture -->
     <g transform="translate(483.276562 83.116562)scale(0.1 -0.1)">
      <use xlink:href="#DejaVuSans-84"/>
      <use x="46.333984" xlink:href="#DejaVuSans-114"/>
      <use x="87.447266" xlink:href="#DejaVuSans-97"/>
      <use x="148.726562" xlink:href="#DejaVuSans-105"/>
      <use x="176.509766" xlink:href="#DejaVuSans-110"/>
      <use x="239.888672" xlink:href="#DejaVuSans-32"/>
      <use x="271.675781" xlink:href="#DejaVuSans-102"/>
      <use x="306.880859" xlink:href="#DejaVuSans-114"/>
      <use x="345.744141" xlink:href="#DejaVuSans-111"/>
      <use x="406.925781" xlink:href="#DejaVuSans-109"/>
      <use x="504.337891" xlink:href="#DejaVuSans-32"/>
      <use x="536.125" xlink:href="#DejaVuSans-115"/>
      <use x="588.224609" xlink:href="#DejaVuSans-121"/>
      <use x="647.404297" xlink:href="#DejaVuSans-110"/>
      <use x="710.783203" xlink:href="#DejaVuSans-116"/>
      <use x="749.992188" xlink:href="#DejaVuSans-104"/>
      <use x="813.371094" xlink:href="#DejaVuSans-101"/>
      <use x="874.894531" xlink:href="#DejaVuSans-116"/>
      <use x="914.103516" xlink:href="#DejaVuSans-105"/>
      <use x="941.886719" xlink:href="#DejaVuSans-99"/>
      <use x="996.867188" xlink:href="#DejaVuSans-45"/>
      <use x="1032.951172" xlink:href="#DejaVuSans-51"/>
      <use x="1096.574219" xlink:href="#DejaVuSans-100"/>
      <use x="1160.050781" xlink:href="#DejaVuSans-45"/>
      <use x="1196.134766" xlink:href="#DejaVuSans-116"/>
      <use x="1235.34375" xlink:href="#DejaVuSans-101"/>
      <use x="1295.117188" xlink:href="#DejaVuSans-120"/>
      <use x="1354.296875" xlink:href="#DejaVuSans-116"/>
      <use x="1393.505859" xlink:href="#DejaVuSans-117"/>
      <use x="1456.884766" xlink:href="#DejaVuSans-114"/>
      <use x="1495.748047" xlink:href="#DejaVuSans-101"/>
     </g>
    </g>
   </g>
  </g>
  <g id="text_38">
   <!-- ShanghaiTech PartB -->
   <g transform="translate(300.64875 17.758125)scale(0.12 -0.12)">
    <defs>
     <path d="M 45.40625 27.984375 
Q 45.40625 37.75 41.375 43.109375 
Q 37.359375 48.484375 30.078125 48.484375 
Q 22.859375 48.484375 18.828125 43.109375 
Q 14.796875 37.75 14.796875 27.984375 
Q 14.796875 18.265625 18.828125 12.890625 
Q 22.859375 7.515625 30.078125 7.515625 
Q 37.359375 7.515625 41.375 12.890625 
Q 45.40625 18.265625 45.40625 27.984375 
z
M 54.390625 6.78125 
Q 54.390625 -7.171875 48.1875 -13.984375 
Q 42 -20.796875 29.203125 -20.796875 
Q 24.46875 -20.796875 20.265625 -20.09375 
Q 16.0625 -19.390625 12.109375 -17.921875 
L 12.109375 -9.1875 
Q 16.0625 -11.328125 19.921875 -12.34375 
Q 23.78125 -13.375 27.78125 -13.375 
Q 36.625 -13.375 41.015625 -8.765625 
Q 45.40625 -4.15625 45.40625 5.171875 
L 45.40625 9.625 
Q 42.625 4.78125 38.28125 2.390625 
Q 33.9375 0 27.875 0 
Q 17.828125 0 11.671875 7.65625 
Q 5.515625 15.328125 5.515625 27.984375 
Q 5.515625 40.671875 11.671875 48.328125 
Q 17.828125 56 27.875 56 
Q 33.9375 56 38.28125 53.609375 
Q 42.625 51.21875 45.40625 46.390625 
L 45.40625 54.6875 
L 54.390625 54.6875 
z
" id="DejaVuSans-103"/>
     <path d="M 19.671875 64.796875 
L 19.671875 37.40625 
L 32.078125 37.40625 
Q 38.96875 37.40625 42.71875 40.96875 
Q 46.484375 44.53125 46.484375 51.125 
Q 46.484375 57.671875 42.71875 61.234375 
Q 38.96875 64.796875 32.078125 64.796875 
z
M 9.8125 72.90625 
L 32.078125 72.90625 
Q 44.34375 72.90625 50.609375 67.359375 
Q 56.890625 61.8125 56.890625 51.125 
Q 56.890625 40.328125 50.609375 34.8125 
Q 44.34375 29.296875 32.078125 29.296875 
L 19.671875 29.296875 
L 19.671875 0 
L 9.8125 0 
z
" id="DejaVuSans-80"/>
     <path d="M 19.671875 34.8125 
L 19.671875 8.109375 
L 35.5 8.109375 
Q 43.453125 8.109375 47.28125 11.40625 
Q 51.125 14.703125 51.125 21.484375 
Q 51.125 28.328125 47.28125 31.5625 
Q 43.453125 34.8125 35.5 34.8125 
z
M 19.671875 64.796875 
L 19.671875 42.828125 
L 34.28125 42.828125 
Q 41.5 42.828125 45.03125 45.53125 
Q 48.578125 48.25 48.578125 53.8125 
Q 48.578125 59.328125 45.03125 62.0625 
Q 41.5 64.796875 34.28125 64.796875 
z
M 9.8125 72.90625 
L 35.015625 72.90625 
Q 46.296875 72.90625 52.390625 68.21875 
Q 58.5 63.53125 58.5 54.890625 
Q 58.5 48.1875 55.375 44.234375 
Q 52.25 40.28125 46.1875 39.3125 
Q 53.46875 37.75 57.5 32.78125 
Q 61.53125 27.828125 61.53125 20.40625 
Q 61.53125 10.640625 54.890625 5.3125 
Q 48.25 0 35.984375 0 
L 9.8125 0 
z
" id="DejaVuSans-66"/>
    </defs>
    <use xlink:href="#DejaVuSans-83"/>
    <use x="63.476562" xlink:href="#DejaVuSans-104"/>
    <use x="126.855469" xlink:href="#DejaVuSans-97"/>
    <use x="188.134766" xlink:href="#DejaVuSans-110"/>
    <use x="251.513672" xlink:href="#DejaVuSans-103"/>
    <use x="314.990234" xlink:href="#DejaVuSans-104"/>
    <use x="378.369141" xlink:href="#DejaVuSans-97"/>
    <use x="439.648438" xlink:href="#DejaVuSans-105"/>
    <use x="467.431641" xlink:href="#DejaVuSans-84"/>
    <use x="511.515625" xlink:href="#DejaVuSans-101"/>
    <use x="573.039062" xlink:href="#DejaVuSans-99"/>
    <use x="628.019531" xlink:href="#DejaVuSans-104"/>
    <use x="691.398438" xlink:href="#DejaVuSans-32"/>
    <use x="723.185547" xlink:href="#DejaVuSans-80"/>
    <use x="778.988281" xlink:href="#DejaVuSans-97"/>
    <use x="840.267578" xlink:href="#DejaVuSans-114"/>
    <use x="881.380859" xlink:href="#DejaVuSans-116"/>
    <use x="920.589844" xlink:href="#DejaVuSans-66"/>
   </g>
  </g>
 </g>
 <defs>
  <clipPath id="p9570472065">
   <rect height="332.64" width="253.636364" x="90" y="51.84"/>
  </clipPath>
  <clipPath id="p91d8da2e36">
   <rect height="332.64" width="253.636364" x="394.363636" y="51.84"/>
  </clipPath>
 </defs>
</svg>
