<?xml version="1.0" encoding="utf-8" standalone="no"?>
<!DOCTYPE svg PUBLIC "-//W3C//DTD SVG 1.1//EN"
  "http://www.w3.org/Graphics/SVG/1.1/DTD/svg11.dtd">
<!-- Created with matplotlib (https://matplotlib.org/) -->
<svg height="432pt" version="1.1" viewBox="0 0 720 432" width="720pt" xmlns="http://www.w3.org/2000/svg" xmlns:xlink="http://www.w3.org/1999/xlink">
 <metadata>
  <rdf:RDF xmlns:cc="http://creativecommons.org/ns#" xmlns:dc="http://purl.org/dc/elements/1.1/" xmlns:rdf="http://www.w3.org/1999/02/22-rdf-syntax-ns#">
   <cc:Work>
    <dc:type rdf:resource="http://purl.org/dc/dcmitype/StillImage"/>
    <dc:date>2022-01-11T17:39:26.985636</dc:date>
    <dc:format>image/svg+xml</dc:format>
    <dc:creator>
     <cc:Agent>
      <dc:title>Matplotlib v3.3.1, https://matplotlib.org/</dc:title>
     </cc:Agent>
    </dc:creator>
   </cc:Work>
  </rdf:RDF>
 </metadata>
 <defs>
  <style type="text/css">*{stroke-linecap:butt;stroke-linejoin:round;}</style>
 </defs>
 <g id="figure_1">
  <g id="patch_1">
   <path d="M 0 432 
L 720 432 
L 720 0 
L 0 0 
z
" style="fill:#ffffff;"/>
  </g>
  <g id="axes_1">
   <g id="patch_2">
    <path d="M 90 384.48 
L 343.636364 384.48 
L 343.636364 51.84 
L 90 51.84 
z
" style="fill:#ffffff;"/>
   </g>
   <g id="matplotlib.axis_1">
    <g id="xtick_1">
     <g id="line2d_1">
      <defs>
       <path d="M 0 0 
L 0 3.5 
" id="m2b9444adc0" style="stroke:#000000;stroke-width:0.8;"/>
      </defs>
      <g>
       <use style="stroke:#000000;stroke-width:0.8;" x="90" xlink:href="#m2b9444adc0" y="384.48"/>
      </g>
     </g>
     <g id="text_1">
      <!-- 0 -->
      <g transform="translate(86.81875 399.078438)scale(0.1 -0.1)">
       <defs>
        <path d="M 31.78125 66.40625 
Q 24.171875 66.40625 20.328125 58.90625 
Q 16.5 51.421875 16.5 36.375 
Q 16.5 21.390625 20.328125 13.890625 
Q 24.171875 6.390625 31.78125 6.390625 
Q 39.453125 6.390625 43.28125 13.890625 
Q 47.125 21.390625 47.125 36.375 
Q 47.125 51.421875 43.28125 58.90625 
Q 39.453125 66.40625 31.78125 66.40625 
z
M 31.78125 74.21875 
Q 44.046875 74.21875 50.515625 64.515625 
Q 56.984375 54.828125 56.984375 36.375 
Q 56.984375 17.96875 50.515625 8.265625 
Q 44.046875 -1.421875 31.78125 -1.421875 
Q 19.53125 -1.421875 13.0625 8.265625 
Q 6.59375 17.96875 6.59375 36.375 
Q 6.59375 54.828125 13.0625 64.515625 
Q 19.53125 74.21875 31.78125 74.21875 
z
" id="DejaVuSans-48"/>
       </defs>
       <use xlink:href="#DejaVuSans-48"/>
      </g>
     </g>
    </g>
    <g id="xtick_2">
     <g id="line2d_2">
      <g>
       <use style="stroke:#000000;stroke-width:0.8;" x="121.704545" xlink:href="#m2b9444adc0" y="384.48"/>
      </g>
     </g>
     <g id="text_2">
      <!-- 50 -->
      <g transform="translate(115.342045 399.078438)scale(0.1 -0.1)">
       <defs>
        <path d="M 10.796875 72.90625 
L 49.515625 72.90625 
L 49.515625 64.59375 
L 19.828125 64.59375 
L 19.828125 46.734375 
Q 21.96875 47.46875 24.109375 47.828125 
Q 26.265625 48.1875 28.421875 48.1875 
Q 40.625 48.1875 47.75 41.5 
Q 54.890625 34.8125 54.890625 23.390625 
Q 54.890625 11.625 47.5625 5.09375 
Q 40.234375 -1.421875 26.90625 -1.421875 
Q 22.3125 -1.421875 17.546875 -0.640625 
Q 12.796875 0.140625 7.71875 1.703125 
L 7.71875 11.625 
Q 12.109375 9.234375 16.796875 8.0625 
Q 21.484375 6.890625 26.703125 6.890625 
Q 35.15625 6.890625 40.078125 11.328125 
Q 45.015625 15.765625 45.015625 23.390625 
Q 45.015625 31 40.078125 35.4375 
Q 35.15625 39.890625 26.703125 39.890625 
Q 22.75 39.890625 18.8125 39.015625 
Q 14.890625 38.140625 10.796875 36.28125 
z
" id="DejaVuSans-53"/>
       </defs>
       <use xlink:href="#DejaVuSans-53"/>
       <use x="63.623047" xlink:href="#DejaVuSans-48"/>
      </g>
     </g>
    </g>
    <g id="xtick_3">
     <g id="line2d_3">
      <g>
       <use style="stroke:#000000;stroke-width:0.8;" x="153.409091" xlink:href="#m2b9444adc0" y="384.48"/>
      </g>
     </g>
     <g id="text_3">
      <!-- 100 -->
      <g transform="translate(143.865341 399.078438)scale(0.1 -0.1)">
       <defs>
        <path d="M 12.40625 8.296875 
L 28.515625 8.296875 
L 28.515625 63.921875 
L 10.984375 60.40625 
L 10.984375 69.390625 
L 28.421875 72.90625 
L 38.28125 72.90625 
L 38.28125 8.296875 
L 54.390625 8.296875 
L 54.390625 0 
L 12.40625 0 
z
" id="DejaVuSans-49"/>
       </defs>
       <use xlink:href="#DejaVuSans-49"/>
       <use x="63.623047" xlink:href="#DejaVuSans-48"/>
       <use x="127.246094" xlink:href="#DejaVuSans-48"/>
      </g>
     </g>
    </g>
    <g id="xtick_4">
     <g id="line2d_4">
      <g>
       <use style="stroke:#000000;stroke-width:0.8;" x="185.113636" xlink:href="#m2b9444adc0" y="384.48"/>
      </g>
     </g>
     <g id="text_4">
      <!-- 150 -->
      <g transform="translate(175.569886 399.078438)scale(0.1 -0.1)">
       <use xlink:href="#DejaVuSans-49"/>
       <use x="63.623047" xlink:href="#DejaVuSans-53"/>
       <use x="127.246094" xlink:href="#DejaVuSans-48"/>
      </g>
     </g>
    </g>
    <g id="xtick_5">
     <g id="line2d_5">
      <g>
       <use style="stroke:#000000;stroke-width:0.8;" x="216.818182" xlink:href="#m2b9444adc0" y="384.48"/>
      </g>
     </g>
     <g id="text_5">
      <!-- 200 -->
      <g transform="translate(207.274432 399.078438)scale(0.1 -0.1)">
       <defs>
        <path d="M 19.1875 8.296875 
L 53.609375 8.296875 
L 53.609375 0 
L 7.328125 0 
L 7.328125 8.296875 
Q 12.9375 14.109375 22.625 23.890625 
Q 32.328125 33.6875 34.8125 36.53125 
Q 39.546875 41.84375 41.421875 45.53125 
Q 43.3125 49.21875 43.3125 52.78125 
Q 43.3125 58.59375 39.234375 62.25 
Q 35.15625 65.921875 28.609375 65.921875 
Q 23.96875 65.921875 18.8125 64.3125 
Q 13.671875 62.703125 7.8125 59.421875 
L 7.8125 69.390625 
Q 13.765625 71.78125 18.9375 73 
Q 24.125 74.21875 28.421875 74.21875 
Q 39.75 74.21875 46.484375 68.546875 
Q 53.21875 62.890625 53.21875 53.421875 
Q 53.21875 48.921875 51.53125 44.890625 
Q 49.859375 40.875 45.40625 35.40625 
Q 44.1875 33.984375 37.640625 27.21875 
Q 31.109375 20.453125 19.1875 8.296875 
z
" id="DejaVuSans-50"/>
       </defs>
       <use xlink:href="#DejaVuSans-50"/>
       <use x="63.623047" xlink:href="#DejaVuSans-48"/>
       <use x="127.246094" xlink:href="#DejaVuSans-48"/>
      </g>
     </g>
    </g>
    <g id="xtick_6">
     <g id="line2d_6">
      <g>
       <use style="stroke:#000000;stroke-width:0.8;" x="248.522727" xlink:href="#m2b9444adc0" y="384.48"/>
      </g>
     </g>
     <g id="text_6">
      <!-- 250 -->
      <g transform="translate(238.978977 399.078438)scale(0.1 -0.1)">
       <use xlink:href="#DejaVuSans-50"/>
       <use x="63.623047" xlink:href="#DejaVuSans-53"/>
       <use x="127.246094" xlink:href="#DejaVuSans-48"/>
      </g>
     </g>
    </g>
    <g id="xtick_7">
     <g id="line2d_7">
      <g>
       <use style="stroke:#000000;stroke-width:0.8;" x="280.227273" xlink:href="#m2b9444adc0" y="384.48"/>
      </g>
     </g>
     <g id="text_7">
      <!-- 300 -->
      <g transform="translate(270.683523 399.078438)scale(0.1 -0.1)">
       <defs>
        <path d="M 40.578125 39.3125 
Q 47.65625 37.796875 51.625 33 
Q 55.609375 28.21875 55.609375 21.1875 
Q 55.609375 10.40625 48.1875 4.484375 
Q 40.765625 -1.421875 27.09375 -1.421875 
Q 22.515625 -1.421875 17.65625 -0.515625 
Q 12.796875 0.390625 7.625 2.203125 
L 7.625 11.71875 
Q 11.71875 9.328125 16.59375 8.109375 
Q 21.484375 6.890625 26.8125 6.890625 
Q 36.078125 6.890625 40.9375 10.546875 
Q 45.796875 14.203125 45.796875 21.1875 
Q 45.796875 27.640625 41.28125 31.265625 
Q 36.765625 34.90625 28.71875 34.90625 
L 20.21875 34.90625 
L 20.21875 43.015625 
L 29.109375 43.015625 
Q 36.375 43.015625 40.234375 45.921875 
Q 44.09375 48.828125 44.09375 54.296875 
Q 44.09375 59.90625 40.109375 62.90625 
Q 36.140625 65.921875 28.71875 65.921875 
Q 24.65625 65.921875 20.015625 65.03125 
Q 15.375 64.15625 9.8125 62.3125 
L 9.8125 71.09375 
Q 15.4375 72.65625 20.34375 73.4375 
Q 25.25 74.21875 29.59375 74.21875 
Q 40.828125 74.21875 47.359375 69.109375 
Q 53.90625 64.015625 53.90625 55.328125 
Q 53.90625 49.265625 50.4375 45.09375 
Q 46.96875 40.921875 40.578125 39.3125 
z
" id="DejaVuSans-51"/>
       </defs>
       <use xlink:href="#DejaVuSans-51"/>
       <use x="63.623047" xlink:href="#DejaVuSans-48"/>
       <use x="127.246094" xlink:href="#DejaVuSans-48"/>
      </g>
     </g>
    </g>
    <g id="xtick_8">
     <g id="line2d_8">
      <g>
       <use style="stroke:#000000;stroke-width:0.8;" x="311.931818" xlink:href="#m2b9444adc0" y="384.48"/>
      </g>
     </g>
     <g id="text_8">
      <!-- 350 -->
      <g transform="translate(302.388068 399.078438)scale(0.1 -0.1)">
       <use xlink:href="#DejaVuSans-51"/>
       <use x="63.623047" xlink:href="#DejaVuSans-53"/>
       <use x="127.246094" xlink:href="#DejaVuSans-48"/>
      </g>
     </g>
    </g>
    <g id="xtick_9">
     <g id="line2d_9">
      <g>
       <use style="stroke:#000000;stroke-width:0.8;" x="343.636364" xlink:href="#m2b9444adc0" y="384.48"/>
      </g>
     </g>
     <g id="text_9">
      <!-- 400 -->
      <g transform="translate(334.092614 399.078438)scale(0.1 -0.1)">
       <defs>
        <path d="M 37.796875 64.3125 
L 12.890625 25.390625 
L 37.796875 25.390625 
z
M 35.203125 72.90625 
L 47.609375 72.90625 
L 47.609375 25.390625 
L 58.015625 25.390625 
L 58.015625 17.1875 
L 47.609375 17.1875 
L 47.609375 0 
L 37.796875 0 
L 37.796875 17.1875 
L 4.890625 17.1875 
L 4.890625 26.703125 
z
" id="DejaVuSans-52"/>
       </defs>
       <use xlink:href="#DejaVuSans-52"/>
       <use x="63.623047" xlink:href="#DejaVuSans-48"/>
       <use x="127.246094" xlink:href="#DejaVuSans-48"/>
      </g>
     </g>
    </g>
    <g id="text_10">
     <!-- Epoch -->
     <g transform="translate(201.507244 412.756563)scale(0.1 -0.1)">
      <defs>
       <path d="M 9.8125 72.90625 
L 55.90625 72.90625 
L 55.90625 64.59375 
L 19.671875 64.59375 
L 19.671875 43.015625 
L 54.390625 43.015625 
L 54.390625 34.71875 
L 19.671875 34.71875 
L 19.671875 8.296875 
L 56.78125 8.296875 
L 56.78125 0 
L 9.8125 0 
z
" id="DejaVuSans-69"/>
       <path d="M 18.109375 8.203125 
L 18.109375 -20.796875 
L 9.078125 -20.796875 
L 9.078125 54.6875 
L 18.109375 54.6875 
L 18.109375 46.390625 
Q 20.953125 51.265625 25.265625 53.625 
Q 29.59375 56 35.59375 56 
Q 45.5625 56 51.78125 48.09375 
Q 58.015625 40.1875 58.015625 27.296875 
Q 58.015625 14.40625 51.78125 6.484375 
Q 45.5625 -1.421875 35.59375 -1.421875 
Q 29.59375 -1.421875 25.265625 0.953125 
Q 20.953125 3.328125 18.109375 8.203125 
z
M 48.6875 27.296875 
Q 48.6875 37.203125 44.609375 42.84375 
Q 40.53125 48.484375 33.40625 48.484375 
Q 26.265625 48.484375 22.1875 42.84375 
Q 18.109375 37.203125 18.109375 27.296875 
Q 18.109375 17.390625 22.1875 11.75 
Q 26.265625 6.109375 33.40625 6.109375 
Q 40.53125 6.109375 44.609375 11.75 
Q 48.6875 17.390625 48.6875 27.296875 
z
" id="DejaVuSans-112"/>
       <path d="M 30.609375 48.390625 
Q 23.390625 48.390625 19.1875 42.75 
Q 14.984375 37.109375 14.984375 27.296875 
Q 14.984375 17.484375 19.15625 11.84375 
Q 23.34375 6.203125 30.609375 6.203125 
Q 37.796875 6.203125 41.984375 11.859375 
Q 46.1875 17.53125 46.1875 27.296875 
Q 46.1875 37.015625 41.984375 42.703125 
Q 37.796875 48.390625 30.609375 48.390625 
z
M 30.609375 56 
Q 42.328125 56 49.015625 48.375 
Q 55.71875 40.765625 55.71875 27.296875 
Q 55.71875 13.875 49.015625 6.21875 
Q 42.328125 -1.421875 30.609375 -1.421875 
Q 18.84375 -1.421875 12.171875 6.21875 
Q 5.515625 13.875 5.515625 27.296875 
Q 5.515625 40.765625 12.171875 48.375 
Q 18.84375 56 30.609375 56 
z
" id="DejaVuSans-111"/>
       <path d="M 48.78125 52.59375 
L 48.78125 44.1875 
Q 44.96875 46.296875 41.140625 47.34375 
Q 37.3125 48.390625 33.40625 48.390625 
Q 24.65625 48.390625 19.8125 42.84375 
Q 14.984375 37.3125 14.984375 27.296875 
Q 14.984375 17.28125 19.8125 11.734375 
Q 24.65625 6.203125 33.40625 6.203125 
Q 37.3125 6.203125 41.140625 7.25 
Q 44.96875 8.296875 48.78125 10.40625 
L 48.78125 2.09375 
Q 45.015625 0.34375 40.984375 -0.53125 
Q 36.96875 -1.421875 32.421875 -1.421875 
Q 20.0625 -1.421875 12.78125 6.34375 
Q 5.515625 14.109375 5.515625 27.296875 
Q 5.515625 40.671875 12.859375 48.328125 
Q 20.21875 56 33.015625 56 
Q 37.15625 56 41.109375 55.140625 
Q 45.0625 54.296875 48.78125 52.59375 
z
" id="DejaVuSans-99"/>
       <path d="M 54.890625 33.015625 
L 54.890625 0 
L 45.90625 0 
L 45.90625 32.71875 
Q 45.90625 40.484375 42.875 44.328125 
Q 39.84375 48.1875 33.796875 48.1875 
Q 26.515625 48.1875 22.3125 43.546875 
Q 18.109375 38.921875 18.109375 30.90625 
L 18.109375 0 
L 9.078125 0 
L 9.078125 75.984375 
L 18.109375 75.984375 
L 18.109375 46.1875 
Q 21.34375 51.125 25.703125 53.5625 
Q 30.078125 56 35.796875 56 
Q 45.21875 56 50.046875 50.171875 
Q 54.890625 44.34375 54.890625 33.015625 
z
" id="DejaVuSans-104"/>
      </defs>
      <use xlink:href="#DejaVuSans-69"/>
      <use x="63.183594" xlink:href="#DejaVuSans-112"/>
      <use x="126.660156" xlink:href="#DejaVuSans-111"/>
      <use x="187.841797" xlink:href="#DejaVuSans-99"/>
      <use x="242.822266" xlink:href="#DejaVuSans-104"/>
     </g>
    </g>
   </g>
   <g id="matplotlib.axis_2">
    <g id="ytick_1">
     <g id="line2d_10">
      <defs>
       <path d="M 0 0 
L -3.5 0 
" id="m119adbd245" style="stroke:#000000;stroke-width:0.8;"/>
      </defs>
      <g>
       <use style="stroke:#000000;stroke-width:0.8;" x="90" xlink:href="#m119adbd245" y="327.154961"/>
      </g>
     </g>
     <g id="text_11">
      <!-- 10 -->
      <g transform="translate(70.275 330.954179)scale(0.1 -0.1)">
       <use xlink:href="#DejaVuSans-49"/>
       <use x="63.623047" xlink:href="#DejaVuSans-48"/>
      </g>
     </g>
    </g>
    <g id="ytick_2">
     <g id="line2d_11">
      <g>
       <use style="stroke:#000000;stroke-width:0.8;" x="90" xlink:href="#m119adbd245" y="267.627402"/>
      </g>
     </g>
     <g id="text_12">
      <!-- 20 -->
      <g transform="translate(70.275 271.42662)scale(0.1 -0.1)">
       <use xlink:href="#DejaVuSans-50"/>
       <use x="63.623047" xlink:href="#DejaVuSans-48"/>
      </g>
     </g>
    </g>
    <g id="ytick_3">
     <g id="line2d_12">
      <g>
       <use style="stroke:#000000;stroke-width:0.8;" x="90" xlink:href="#m119adbd245" y="208.099843"/>
      </g>
     </g>
     <g id="text_13">
      <!-- 30 -->
      <g transform="translate(70.275 211.899061)scale(0.1 -0.1)">
       <use xlink:href="#DejaVuSans-51"/>
       <use x="63.623047" xlink:href="#DejaVuSans-48"/>
      </g>
     </g>
    </g>
    <g id="ytick_4">
     <g id="line2d_13">
      <g>
       <use style="stroke:#000000;stroke-width:0.8;" x="90" xlink:href="#m119adbd245" y="148.572283"/>
      </g>
     </g>
     <g id="text_14">
      <!-- 40 -->
      <g transform="translate(70.275 152.371502)scale(0.1 -0.1)">
       <use xlink:href="#DejaVuSans-52"/>
       <use x="63.623047" xlink:href="#DejaVuSans-48"/>
      </g>
     </g>
    </g>
    <g id="ytick_5">
     <g id="line2d_14">
      <g>
       <use style="stroke:#000000;stroke-width:0.8;" x="90" xlink:href="#m119adbd245" y="89.044724"/>
      </g>
     </g>
     <g id="text_15">
      <!-- 50 -->
      <g transform="translate(70.275 92.843943)scale(0.1 -0.1)">
       <use xlink:href="#DejaVuSans-53"/>
       <use x="63.623047" xlink:href="#DejaVuSans-48"/>
      </g>
     </g>
    </g>
    <g id="text_16">
     <!-- MAE -->
     <g transform="translate(64.195312 229.05375)rotate(-90)scale(0.1 -0.1)">
      <defs>
       <path d="M 9.8125 72.90625 
L 24.515625 72.90625 
L 43.109375 23.296875 
L 61.8125 72.90625 
L 76.515625 72.90625 
L 76.515625 0 
L 66.890625 0 
L 66.890625 64.015625 
L 48.09375 14.015625 
L 38.1875 14.015625 
L 19.390625 64.015625 
L 19.390625 0 
L 9.8125 0 
z
" id="DejaVuSans-77"/>
       <path d="M 34.1875 63.1875 
L 20.796875 26.90625 
L 47.609375 26.90625 
z
M 28.609375 72.90625 
L 39.796875 72.90625 
L 67.578125 0 
L 57.328125 0 
L 50.6875 18.703125 
L 17.828125 18.703125 
L 11.1875 0 
L 0.78125 0 
z
" id="DejaVuSans-65"/>
      </defs>
      <use xlink:href="#DejaVuSans-77"/>
      <use x="86.279297" xlink:href="#DejaVuSans-65"/>
      <use x="154.6875" xlink:href="#DejaVuSans-69"/>
     </g>
    </g>
   </g>
   <g id="line2d_15">
    <path clip-path="url(#pb520c02442)" d="M 90 66.96 
L 90.634091 92.914016 
L 91.268182 177.740787 
L 91.902273 175.71685 
L 92.536364 226.255748 
L 93.170455 184.110236 
L 93.804545 229.827402 
L 94.438636 250.721575 
L 95.072727 248.578583 
L 95.706818 258.102992 
L 96.340909 251.019213 
L 96.975 248.459528 
L 97.609091 278.223307 
L 98.243182 276.913701 
L 98.877273 269.413228 
L 99.511364 242.923465 
L 100.145455 297.926929 
L 100.779545 286.67622 
L 101.413636 286.914331 
L 102.047727 262.627087 
L 102.681818 274.770709 
L 103.315909 293.99811 
L 103.95 301.55811 
L 104.584091 284.057008 
L 105.218182 298.760315 
L 105.852273 296.617323 
L 106.486364 292.867087 
L 107.120455 295.664882 
L 107.754545 307.808504 
L 108.388636 310.963465 
L 109.022727 300.010394 
L 109.656818 308.939528 
L 110.290909 287.628661 
L 110.925 312.808819 
L 111.559091 282.211654 
L 112.827273 274.234961 
L 113.461364 288.64063 
L 114.095455 323.226142 
L 114.729545 313.225512 
L 115.363636 283.99748 
L 115.997727 306.082205 
L 116.631818 311.915906 
L 117.265909 302.153386 
L 117.9 305.96315 
L 118.534091 318.64252 
L 119.168182 324.535748 
L 119.802273 305.129764 
L 120.436364 300.784252 
L 121.070455 306.20126 
L 121.704545 310.368189 
L 122.338636 332.274331 
L 122.972727 332.691024 
L 123.606818 337.691339 
L 124.240909 332.691024 
L 125.509091 339.35811 
L 126.777273 333.405354 
L 127.411364 334.417323 
L 128.045455 342.03685 
L 128.679545 338.108031 
L 129.947727 342.155906 
L 130.581818 332.095748 
L 131.215909 345.548976 
L 131.85 338.941417 
L 132.484091 341.679685 
L 133.118182 343.822677 
L 133.752273 337.631811 
L 134.386364 343.227402 
L 135.020455 338.64378 
L 135.654545 345.251339 
L 136.288636 338.048504 
L 136.922727 342.929764 
L 137.556818 342.810709 
L 138.190909 342.929764 
L 139.459091 341.620157 
L 140.093182 345.251339 
L 140.727273 341.382047 
L 141.361364 338.465197 
L 141.995455 344.537008 
L 142.629545 343.108346 
L 143.263636 345.013228 
L 143.897727 341.739213 
L 144.531818 342.155906 
L 145.165909 347.513386 
L 145.8 340.310551 
L 146.434091 345.846614 
L 147.068182 345.846614 
L 147.702273 340.786772 
L 148.336364 342.394016 
L 148.970455 344.47748 
L 149.604545 348.942047 
L 150.238636 345.727559 
L 151.506818 344.298898 
L 152.140909 346.68 
L 152.775 344.120315 
L 153.409091 343.286929 
L 154.043182 348.703937 
L 154.677273 347.037165 
L 155.311364 346.799055 
L 155.945455 349.894488 
L 156.579545 351.79937 
L 157.213636 346.025197 
L 157.847727 343.822677 
L 158.481818 350.608819 
L 159.115909 348.703937 
L 159.75 347.870551 
L 160.384091 346.144252 
L 161.018182 350.251654 
L 161.652273 348.049134 
L 162.286364 351.56126 
L 162.920455 348.465827 
L 163.554545 350.906457 
L 164.188636 348.763465 
L 164.822727 350.549291 
L 165.456818 349.001575 
L 166.090909 344.834646 
L 166.725 348.644409 
L 167.359091 350.073071 
L 167.993182 348.465827 
L 168.627273 348.227717 
L 169.261364 344.834646 
L 169.895455 351.620787 
L 170.529545 347.811024 
L 171.163636 345.191811 
L 171.797727 346.91811 
L 172.431818 347.811024 
L 173.065909 349.061102 
L 173.7 348.168189 
L 174.334091 348.88252 
L 174.968182 350.489764 
L 175.602273 350.906457 
L 176.236364 349.834961 
L 176.870455 348.049134 
L 177.504545 350.311181 
L 178.138636 348.703937 
L 178.772727 351.79937 
L 179.406818 348.822992 
L 180.040909 349.12063 
L 180.675 348.227717 
L 181.309091 350.073071 
L 181.943182 349.239685 
L 183.211364 348.584882 
L 183.845455 350.430236 
L 184.479545 346.620472 
L 185.113636 349.537323 
L 185.747727 348.406299 
L 186.381818 349.715906 
L 187.015909 349.299213 
L 187.65 348.108661 
L 188.284091 348.465827 
L 188.918182 351.56126 
L 189.552273 350.132598 
L 190.186364 350.370709 
L 190.820455 347.751496 
L 192.088636 352.03748 
L 192.722727 351.085039 
L 193.356818 351.144567 
L 193.990909 349.477795 
L 194.625 352.573228 
L 195.259091 349.894488 
L 195.893182 349.299213 
L 196.527273 350.787402 
L 197.161364 349.299213 
L 197.795455 349.35874 
L 198.429545 350.906457 
L 199.063636 348.287244 
L 199.697727 350.906457 
L 200.331818 350.251654 
L 200.965909 347.930079 
L 201.6 352.513701 
L 202.234091 347.572913 
L 202.868182 350.787402 
L 203.502273 347.632441 
L 204.136364 348.406299 
L 204.770455 350.549291 
L 205.404545 349.299213 
L 206.038636 347.572913 
L 206.672727 349.477795 
L 207.306818 349.715906 
L 207.940909 350.311181 
L 208.575 349.35874 
L 209.209091 349.834961 
L 209.843182 349.954016 
L 210.477273 349.715906 
L 211.111364 349.299213 
L 211.745455 351.620787 
L 212.379545 348.88252 
L 213.013636 351.918425 
L 214.281818 349.180157 
L 214.915909 348.644409 
L 215.55 346.91811 
L 216.184091 348.406299 
L 216.818182 347.15622 
L 217.452273 352.394646 
L 218.086364 349.299213 
L 218.720455 350.489764 
L 219.354545 354.00189 
L 219.988636 351.382677 
L 220.622727 352.275591 
L 221.256818 348.703937 
L 221.890909 347.632441 
L 222.525 347.811024 
L 223.159091 347.334803 
L 223.793182 351.263622 
L 224.427273 349.894488 
L 225.061364 350.251654 
L 225.695455 351.620787 
L 226.329545 347.572913 
L 226.963636 351.263622 
L 227.597727 349.775433 
L 228.231818 350.787402 
L 228.865909 350.549291 
L 229.5 350.727874 
L 230.134091 348.406299 
L 230.768182 348.584882 
L 231.402273 349.061102 
L 232.036364 345.965669 
L 232.670455 351.620787 
L 233.304545 348.644409 
L 233.938636 347.751496 
L 234.572727 348.88252 
L 235.206818 349.35874 
L 235.840909 350.668346 
L 236.475 348.406299 
L 237.109091 351.79937 
L 237.743182 347.215748 
L 238.377273 350.489764 
L 239.011364 348.763465 
L 239.645455 350.013543 
L 240.279545 349.537323 
L 240.913636 350.489764 
L 241.547727 351.085039 
L 242.181818 349.954016 
L 242.815909 349.715906 
L 243.45 348.168189 
L 244.084091 349.834961 
L 244.718182 349.537323 
L 245.352273 352.811339 
L 245.986364 346.68 
L 246.620455 349.239685 
L 247.254545 346.44189 
L 247.888636 347.513386 
L 248.522727 347.930079 
L 249.156818 346.144252 
L 249.790909 346.560945 
L 250.425 347.275276 
L 251.059091 348.88252 
L 251.693182 348.287244 
L 252.327273 348.346772 
L 252.961364 351.025512 
L 253.595455 349.715906 
L 254.229545 352.216063 
L 254.863636 347.572913 
L 255.497727 351.442205 
L 256.131818 348.525354 
L 256.765909 352.394646 
L 257.4 351.680315 
L 258.034091 349.775433 
L 258.668182 349.477795 
L 259.302273 347.096693 
L 259.936364 351.680315 
L 260.570455 350.906457 
L 261.204545 352.216063 
L 261.838636 349.418268 
L 262.472727 351.442205 
L 263.106818 348.584882 
L 263.740909 349.954016 
L 264.375 347.691969 
L 265.009091 348.227717 
L 265.643182 349.775433 
L 266.277273 349.894488 
L 266.911364 347.453858 
L 267.545455 348.703937 
L 268.813636 350.430236 
L 269.447727 350.251654 
L 270.081818 347.037165 
L 270.715909 349.477795 
L 271.35 347.989606 
L 271.984091 346.20378 
L 272.618182 349.715906 
L 273.252273 349.35874 
L 273.886364 349.954016 
L 274.520455 349.775433 
L 275.154545 347.989606 
L 275.788636 349.180157 
L 276.422727 351.085039 
L 277.056818 348.584882 
L 277.690909 348.287244 
L 278.325 348.942047 
L 278.959091 348.763465 
L 279.593182 346.263307 
L 280.227273 351.680315 
L 280.861364 348.406299 
L 281.495455 349.715906 
L 282.129545 349.834961 
L 282.763636 348.108661 
L 283.397727 348.88252 
L 284.031818 351.918425 
L 284.665909 349.299213 
L 285.3 347.572913 
L 285.934091 348.406299 
L 286.568182 350.132598 
L 287.202273 347.930079 
L 287.836364 350.549291 
L 288.470455 351.144567 
L 289.104545 349.299213 
L 289.738636 350.787402 
L 290.372727 349.477795 
L 291.006818 349.180157 
L 291.640909 350.787402 
L 292.275 349.35874 
L 292.909091 350.549291 
L 293.543182 352.573228 
L 294.177273 349.477795 
L 294.811364 349.715906 
L 296.079545 350.906457 
L 296.713636 349.715906 
L 297.347727 349.299213 
L 297.981818 349.954016 
L 298.615909 350.906457 
L 299.25 349.299213 
L 299.884091 349.954016 
L 300.518182 348.287244 
L 301.152273 350.251654 
L 301.786364 349.299213 
L 302.420455 347.632441 
L 303.054545 351.620787 
L 303.688636 347.751496 
L 304.322727 346.91811 
L 304.956818 349.537323 
L 305.590909 349.894488 
L 306.225 352.03748 
L 306.859091 350.311181 
L 307.493182 347.572913 
L 308.761364 349.35874 
L 309.395455 352.513701 
L 310.029545 348.406299 
L 310.663636 348.644409 
L 311.297727 351.56126 
L 311.931818 351.085039 
L 312.565909 348.406299 
L 313.2 349.477795 
L 313.834091 349.35874 
L 314.468182 350.311181 
L 315.102273 350.906457 
L 315.736364 349.299213 
L 316.370455 349.954016 
L 317.004545 347.572913 
L 317.638636 349.180157 
L 318.272727 348.287244 
L 318.906818 351.56126 
L 319.540909 348.465827 
L 320.175 350.787402 
L 320.809091 349.299213 
L 321.443182 351.918425 
L 322.077273 349.954016 
L 322.711364 351.085039 
L 323.345455 347.632441 
L 323.979545 349.715906 
L 324.613636 349.35874 
L 325.247727 349.715906 
L 325.881818 347.751496 
L 326.515909 348.406299 
L 327.15 349.299213 
L 328.418182 347.930079 
L 329.052273 350.251654 
L 329.686364 351.144567 
L 330.954545 352.03748 
L 331.588636 350.549291 
L 332.222727 349.715906 
L 332.856818 349.894488 
L 333.490909 349.537323 
L 334.125 350.549291 
L 334.759091 348.88252 
L 335.393182 349.299213 
L 336.027273 350.132598 
L 336.661364 350.370709 
L 337.295455 349.834961 
L 337.929545 352.573228 
L 338.563636 347.572913 
L 339.197727 352.513701 
L 339.831818 348.108661 
L 340.465909 350.787402 
L 341.1 346.91811 
L 341.734091 349.477795 
L 342.368182 350.906457 
L 343.002273 349.299213 
L 343.002273 349.299213 
" style="fill:none;stroke:#1f77b4;stroke-linecap:square;stroke-width:1.5;"/>
   </g>
   <g id="line2d_16">
    <path clip-path="url(#pb520c02442)" d="M 90 105.295748 
L 90.634091 128.749606 
L 91.268182 169.645039 
L 91.902273 154.644094 
L 92.536364 196.075276 
L 93.170455 191.729764 
L 93.804545 197.206299 
L 94.438636 254.709921 
L 95.072727 271.675276 
L 95.706818 266.19874 
L 96.340909 272.091969 
L 96.975 267.032126 
L 97.609091 266.853543 
L 98.243182 283.937953 
L 98.877273 251.376378 
L 99.511364 227.327244 
L 100.145455 272.568189 
L 100.779545 292.628976 
L 101.413636 288.521575 
L 102.047727 270.425197 
L 102.681818 289.11685 
L 103.315909 304.355906 
L 103.95 309.534803 
L 104.584091 288.521575 
L 105.218182 307.570394 
L 105.852273 287.688189 
L 106.486364 290.664567 
L 107.120455 287.688189 
L 107.754545 317.511496 
L 108.388636 313.285039 
L 109.022727 283.28315 
L 109.656818 313.582677 
L 110.290909 295.367244 
L 110.925 314.773228 
L 111.559091 284.057008 
L 112.193182 245.542677 
L 112.827273 272.389606 
L 113.461364 287.628661 
L 114.095455 317.094803 
L 114.729545 314.594646 
L 115.363636 303.641575 
L 115.997727 322.452283 
L 116.631818 325.904882 
L 117.265909 292.152756 
L 117.9 301.736693 
L 118.534091 320.071181 
L 119.168182 328.345512 
L 119.802273 334.23874 
L 120.436364 322.988031 
L 121.070455 319.594961 
L 121.704545 279.235276 
L 122.338636 282.449764 
L 122.972727 282.033071 
L 123.606818 324.059528 
L 124.240909 320.845039 
L 124.875 326.262047 
L 125.509091 309.891969 
L 126.143182 330.131339 
L 126.777273 330.190866 
L 127.411364 335.072126 
L 128.045455 341.501102 
L 128.679545 333.167244 
L 129.313636 332.810079 
L 129.947727 334.179213 
L 130.581818 316.737638 
L 131.215909 315.904252 
L 131.85 309.296693 
L 132.484091 297.807874 
L 133.118182 317.392441 
L 133.752273 320.785512 
L 135.020455 308.701417 
L 135.654545 326.20252 
L 136.288636 315.249449 
L 136.922727 338.762835 
L 137.556818 330.726614 
L 138.190909 287.926299 
L 138.825 311.08252 
L 139.459091 307.034646 
L 140.093182 305.665512 
L 140.727273 325.547717 
L 141.361364 290.188346 
L 141.995455 324.357165 
L 142.629545 323.642835 
L 143.263636 329.297953 
L 143.897727 332.869606 
L 144.531818 320.547402 
L 145.165909 285.664252 
L 145.8 283.937953 
L 146.434091 313.99937 
L 147.068182 336.500787 
L 147.702273 317.749606 
L 148.336364 293.402835 
L 148.970455 317.571024 
L 150.238636 336.619843 
L 151.506818 329.595591 
L 152.140909 314.297008 
L 152.775 321.678425 
L 154.043182 347.334803 
L 154.677273 349.954016 
L 155.311364 351.085039 
L 155.945455 354.656693 
L 156.579545 349.299213 
L 157.213636 351.79937 
L 157.847727 353.466142 
L 158.481818 357.454488 
L 159.115909 354.597165 
L 159.75 354.656693 
L 160.384091 355.251969 
L 161.018182 353.108976 
L 161.652273 355.311496 
L 162.286364 358.764094 
L 162.920455 357.275906 
L 163.554545 359.240315 
L 164.188636 357.097323 
L 164.822727 359.180787 
L 165.456818 359.954646 
L 166.090909 358.704567 
L 166.725 358.645039 
L 167.359091 358.228346 
L 167.993182 359.240315 
L 168.627273 358.88315 
L 169.261364 359.061732 
L 169.895455 360.490394 
L 170.529545 359.716535 
L 171.163636 358.287874 
L 171.797727 354.180472 
L 172.431818 361.502362 
L 173.065909 360.133228 
L 173.7 360.966614 
L 174.334091 360.668976 
L 174.968182 363.823937 
L 176.236364 361.026142 
L 176.870455 362.03811 
L 177.504545 361.026142 
L 178.138636 359.240315 
L 178.772727 361.32378 
L 180.040909 362.454803 
L 180.675 363.466772 
L 181.309091 360.966614 
L 181.943182 362.871496 
L 182.577273 358.764094 
L 183.211364 359.954646 
L 183.845455 365.252598 
L 184.479545 361.502362 
L 185.113636 359.954646 
L 185.747727 359.716535 
L 186.381818 363.526299 
L 187.015909 359.776063 
L 187.65 352.275591 
L 188.284091 359.299843 
L 188.918182 362.454803 
L 189.552273 363.764409 
L 190.186364 359.59748 
L 190.820455 359.716535 
L 191.454545 365.312126 
L 192.088636 363.109606 
L 192.722727 364.24063 
L 193.356818 363.585827 
L 193.990909 363.466772 
L 194.625 364.062047 
L 195.259091 358.704567 
L 195.893182 364.47874 
L 196.527273 361.621417 
L 197.161364 363.526299 
L 197.795455 363.764409 
L 198.429545 363.347717 
L 199.063636 360.728504 
L 199.697727 363.585827 
L 200.331818 361.978583 
L 200.965909 363.764409 
L 201.6 364.181102 
L 202.234091 361.621417 
L 202.868182 365.669291 
L 203.502273 361.680945 
L 204.136364 360.966614 
L 204.770455 362.573858 
L 205.404545 362.514331 
L 206.038636 357.15685 
L 206.672727 363.169134 
L 207.306818 361.383307 
L 207.940909 362.395276 
L 208.575 361.56189 
L 209.209091 360.430866 
L 209.843182 364.895433 
L 211.111364 361.32378 
L 211.745455 365.014488 
L 212.379545 363.645354 
L 213.013636 366.740787 
L 213.647727 365.371654 
L 214.281818 361.859528 
L 214.915909 365.431181 
L 215.55 360.430866 
L 216.184091 362.633386 
L 216.818182 363.585827 
L 217.452273 365.788346 
L 218.086364 364.657323 
L 218.720455 366.205039 
L 219.354545 366.800315 
L 219.988636 367.693228 
L 220.622727 367.097953 
L 221.256818 365.847874 
L 221.890909 366.91937 
L 222.525 366.562205 
L 223.159091 362.752441 
L 223.793182 366.621732 
L 224.427273 367.990866 
L 225.061364 367.097953 
L 225.695455 365.371654 
L 226.329545 367.752756 
L 226.963636 367.752756 
L 227.597727 367.097953 
L 228.231818 367.395591 
L 228.865909 367.217008 
L 229.5 366.383622 
L 230.134091 367.574173 
L 230.768182 366.740787 
L 231.402273 367.217008 
L 232.036364 364.300157 
L 232.670455 366.562205 
L 233.304545 366.205039 
L 233.938636 366.562205 
L 234.572727 365.669291 
L 235.206818 368.228976 
L 235.840909 367.514646 
L 237.109091 367.097953 
L 237.743182 365.490709 
L 238.377273 366.621732 
L 239.011364 365.907402 
L 239.645455 367.514646 
L 240.279545 367.097953 
L 240.913636 366.91937 
L 241.547727 367.514646 
L 242.181818 366.68126 
L 242.815909 367.097953 
L 243.45 365.788346 
L 244.084091 367.097953 
L 244.718182 367.217008 
L 245.352273 367.812283 
L 245.986364 366.44315 
L 246.620455 367.752756 
L 247.254545 365.133543 
L 247.888636 366.68126 
L 248.522727 367.276535 
L 249.156818 367.276535 
L 249.790909 365.788346 
L 250.425 365.609764 
L 251.059091 366.68126 
L 251.693182 368.169449 
L 252.327273 367.574173 
L 252.961364 367.217008 
L 253.595455 367.276535 
L 254.229545 368.764724 
L 255.497727 366.502677 
L 256.131818 366.324094 
L 256.765909 368.467087 
L 257.4 367.15748 
L 258.034091 366.800315 
L 258.668182 367.395591 
L 259.302273 364.00252 
L 259.936364 367.455118 
L 260.570455 367.276535 
L 261.204545 367.276535 
L 261.838636 366.800315 
L 262.472727 367.514646 
L 263.106818 367.990866 
L 263.740909 367.15748 
L 264.375 367.812283 
L 265.009091 367.514646 
L 266.277273 367.276535 
L 266.911364 367.038425 
L 267.545455 368.050394 
L 268.813636 368.467087 
L 269.447727 366.68126 
L 270.081818 366.859843 
L 270.715909 368.288504 
L 271.35 361.859528 
L 271.984091 367.455118 
L 272.618182 368.348031 
L 273.252273 367.514646 
L 273.886364 367.812283 
L 274.520455 367.931339 
L 275.154545 367.693228 
L 275.788636 366.324094 
L 276.422727 367.336063 
L 277.056818 367.097953 
L 277.690909 366.740787 
L 278.325 367.633701 
L 278.959091 367.336063 
L 279.593182 367.514646 
L 280.227273 365.371654 
L 280.861364 367.574173 
L 281.495455 367.455118 
L 282.129545 368.586142 
L 282.763636 367.693228 
L 283.397727 367.336063 
L 284.031818 368.526614 
L 284.665909 368.764724 
L 285.3 367.871811 
L 285.934091 369.062362 
L 286.568182 368.050394 
L 287.202273 368.050394 
L 287.836364 366.740787 
L 288.470455 368.586142 
L 289.104545 367.15748 
L 289.738636 368.348031 
L 290.372727 369.062362 
L 291.006818 369.062362 
L 291.640909 368.586142 
L 292.275 368.645669 
L 292.909091 367.038425 
L 293.543182 366.026457 
L 294.177273 367.217008 
L 294.811364 367.217008 
L 296.079545 368.050394 
L 296.713636 368.467087 
L 297.347727 366.383622 
L 297.981818 367.038425 
L 298.615909 368.705197 
L 299.25 367.336063 
L 299.884091 367.15748 
L 300.518182 367.276535 
L 301.152273 367.990866 
L 301.786364 367.633701 
L 302.420455 367.514646 
L 303.054545 367.097953 
L 303.688636 367.455118 
L 304.322727 367.395591 
L 304.956818 368.228976 
L 305.590909 368.228976 
L 306.225 367.990866 
L 307.493182 368.764724 
L 308.127273 367.931339 
L 308.761364 368.645669 
L 309.395455 367.574173 
L 310.663636 368.348031 
L 311.297727 367.693228 
L 311.931818 368.645669 
L 312.565909 368.407559 
L 313.2 368.645669 
L 313.834091 366.44315 
L 314.468182 366.264567 
L 315.736364 369.002835 
L 316.370455 368.705197 
L 317.004545 366.91937 
L 317.638636 366.978898 
L 318.272727 367.812283 
L 318.906818 367.812283 
L 319.540909 368.288504 
L 320.175 367.752756 
L 320.809091 367.812283 
L 321.443182 367.693228 
L 322.077273 367.455118 
L 322.711364 368.467087 
L 323.345455 368.526614 
L 323.979545 367.693228 
L 324.613636 368.764724 
L 325.247727 367.812283 
L 325.881818 368.348031 
L 326.515909 365.550236 
L 327.15 368.348031 
L 327.784091 368.645669 
L 328.418182 367.633701 
L 329.052273 368.169449 
L 329.686364 367.752756 
L 330.320455 367.633701 
L 330.954545 367.990866 
L 331.588636 367.15748 
L 332.222727 368.169449 
L 332.856818 368.526614 
L 333.490909 367.574173 
L 334.125 368.407559 
L 334.759091 367.633701 
L 335.393182 367.455118 
L 336.027273 368.050394 
L 336.661364 368.050394 
L 337.295455 367.693228 
L 337.929545 366.859843 
L 338.563636 367.514646 
L 339.197727 368.943307 
L 340.465909 367.574173 
L 341.1 366.740787 
L 341.734091 369.181417 
L 342.368182 367.693228 
L 343.002273 369.36 
L 343.636364 367.514646 
L 343.636364 367.514646 
" style="fill:none;stroke:#ff7f0e;stroke-linecap:square;stroke-width:1.5;"/>
   </g>
   <g id="patch_3">
    <path d="M 90 384.48 
L 90 51.84 
" style="fill:none;stroke:#000000;stroke-linecap:square;stroke-linejoin:miter;stroke-width:0.8;"/>
   </g>
   <g id="patch_4">
    <path d="M 343.636364 384.48 
L 343.636364 51.84 
" style="fill:none;stroke:#000000;stroke-linecap:square;stroke-linejoin:miter;stroke-width:0.8;"/>
   </g>
   <g id="patch_5">
    <path d="M 90 384.48 
L 343.636364 384.48 
" style="fill:none;stroke:#000000;stroke-linecap:square;stroke-linejoin:miter;stroke-width:0.8;"/>
   </g>
   <g id="patch_6">
    <path d="M 90 51.84 
L 343.636364 51.84 
" style="fill:none;stroke:#000000;stroke-linecap:square;stroke-linejoin:miter;stroke-width:0.8;"/>
   </g>
   <g id="legend_1">
    <g id="patch_7">
     <path d="M 143.201989 89.19625 
L 336.636364 89.19625 
Q 338.636364 89.19625 338.636364 87.19625 
L 338.636364 58.84 
Q 338.636364 56.84 336.636364 56.84 
L 143.201989 56.84 
Q 141.201989 56.84 141.201989 58.84 
L 141.201989 87.19625 
Q 141.201989 89.19625 143.201989 89.19625 
z
" style="fill:#ffffff;opacity:0.8;stroke:#cccccc;stroke-linejoin:miter;"/>
    </g>
    <g id="line2d_17">
     <path d="M 145.201989 64.938437 
L 165.201989 64.938437 
" style="fill:none;stroke:#1f77b4;stroke-linecap:square;stroke-width:1.5;"/>
    </g>
    <g id="line2d_18"/>
    <g id="text_17">
     <!-- Train from ImageNet pre-trained -->
     <g transform="translate(173.201989 68.438437)scale(0.1 -0.1)">
      <defs>
       <path d="M -0.296875 72.90625 
L 61.375 72.90625 
L 61.375 64.59375 
L 35.5 64.59375 
L 35.5 0 
L 25.59375 0 
L 25.59375 64.59375 
L -0.296875 64.59375 
z
" id="DejaVuSans-84"/>
       <path d="M 41.109375 46.296875 
Q 39.59375 47.171875 37.8125 47.578125 
Q 36.03125 48 33.890625 48 
Q 26.265625 48 22.1875 43.046875 
Q 18.109375 38.09375 18.109375 28.8125 
L 18.109375 0 
L 9.078125 0 
L 9.078125 54.6875 
L 18.109375 54.6875 
L 18.109375 46.1875 
Q 20.953125 51.171875 25.484375 53.578125 
Q 30.03125 56 36.53125 56 
Q 37.453125 56 38.578125 55.875 
Q 39.703125 55.765625 41.0625 55.515625 
z
" id="DejaVuSans-114"/>
       <path d="M 34.28125 27.484375 
Q 23.390625 27.484375 19.1875 25 
Q 14.984375 22.515625 14.984375 16.5 
Q 14.984375 11.71875 18.140625 8.90625 
Q 21.296875 6.109375 26.703125 6.109375 
Q 34.1875 6.109375 38.703125 11.40625 
Q 43.21875 16.703125 43.21875 25.484375 
L 43.21875 27.484375 
z
M 52.203125 31.203125 
L 52.203125 0 
L 43.21875 0 
L 43.21875 8.296875 
Q 40.140625 3.328125 35.546875 0.953125 
Q 30.953125 -1.421875 24.3125 -1.421875 
Q 15.921875 -1.421875 10.953125 3.296875 
Q 6 8.015625 6 15.921875 
Q 6 25.140625 12.171875 29.828125 
Q 18.359375 34.515625 30.609375 34.515625 
L 43.21875 34.515625 
L 43.21875 35.40625 
Q 43.21875 41.609375 39.140625 45 
Q 35.0625 48.390625 27.6875 48.390625 
Q 23 48.390625 18.546875 47.265625 
Q 14.109375 46.140625 10.015625 43.890625 
L 10.015625 52.203125 
Q 14.9375 54.109375 19.578125 55.046875 
Q 24.21875 56 28.609375 56 
Q 40.484375 56 46.34375 49.84375 
Q 52.203125 43.703125 52.203125 31.203125 
z
" id="DejaVuSans-97"/>
       <path d="M 9.421875 54.6875 
L 18.40625 54.6875 
L 18.40625 0 
L 9.421875 0 
z
M 9.421875 75.984375 
L 18.40625 75.984375 
L 18.40625 64.59375 
L 9.421875 64.59375 
z
" id="DejaVuSans-105"/>
       <path d="M 54.890625 33.015625 
L 54.890625 0 
L 45.90625 0 
L 45.90625 32.71875 
Q 45.90625 40.484375 42.875 44.328125 
Q 39.84375 48.1875 33.796875 48.1875 
Q 26.515625 48.1875 22.3125 43.546875 
Q 18.109375 38.921875 18.109375 30.90625 
L 18.109375 0 
L 9.078125 0 
L 9.078125 54.6875 
L 18.109375 54.6875 
L 18.109375 46.1875 
Q 21.34375 51.125 25.703125 53.5625 
Q 30.078125 56 35.796875 56 
Q 45.21875 56 50.046875 50.171875 
Q 54.890625 44.34375 54.890625 33.015625 
z
" id="DejaVuSans-110"/>
       <path id="DejaVuSans-32"/>
       <path d="M 37.109375 75.984375 
L 37.109375 68.5 
L 28.515625 68.5 
Q 23.6875 68.5 21.796875 66.546875 
Q 19.921875 64.59375 19.921875 59.515625 
L 19.921875 54.6875 
L 34.71875 54.6875 
L 34.71875 47.703125 
L 19.921875 47.703125 
L 19.921875 0 
L 10.890625 0 
L 10.890625 47.703125 
L 2.296875 47.703125 
L 2.296875 54.6875 
L 10.890625 54.6875 
L 10.890625 58.5 
Q 10.890625 67.625 15.140625 71.796875 
Q 19.390625 75.984375 28.609375 75.984375 
z
" id="DejaVuSans-102"/>
       <path d="M 52 44.1875 
Q 55.375 50.25 60.0625 53.125 
Q 64.75 56 71.09375 56 
Q 79.640625 56 84.28125 50.015625 
Q 88.921875 44.046875 88.921875 33.015625 
L 88.921875 0 
L 79.890625 0 
L 79.890625 32.71875 
Q 79.890625 40.578125 77.09375 44.375 
Q 74.3125 48.1875 68.609375 48.1875 
Q 61.625 48.1875 57.5625 43.546875 
Q 53.515625 38.921875 53.515625 30.90625 
L 53.515625 0 
L 44.484375 0 
L 44.484375 32.71875 
Q 44.484375 40.625 41.703125 44.40625 
Q 38.921875 48.1875 33.109375 48.1875 
Q 26.21875 48.1875 22.15625 43.53125 
Q 18.109375 38.875 18.109375 30.90625 
L 18.109375 0 
L 9.078125 0 
L 9.078125 54.6875 
L 18.109375 54.6875 
L 18.109375 46.1875 
Q 21.1875 51.21875 25.484375 53.609375 
Q 29.78125 56 35.6875 56 
Q 41.65625 56 45.828125 52.96875 
Q 50 49.953125 52 44.1875 
z
" id="DejaVuSans-109"/>
       <path d="M 9.8125 72.90625 
L 19.671875 72.90625 
L 19.671875 0 
L 9.8125 0 
z
" id="DejaVuSans-73"/>
       <path d="M 45.40625 27.984375 
Q 45.40625 37.75 41.375 43.109375 
Q 37.359375 48.484375 30.078125 48.484375 
Q 22.859375 48.484375 18.828125 43.109375 
Q 14.796875 37.75 14.796875 27.984375 
Q 14.796875 18.265625 18.828125 12.890625 
Q 22.859375 7.515625 30.078125 7.515625 
Q 37.359375 7.515625 41.375 12.890625 
Q 45.40625 18.265625 45.40625 27.984375 
z
M 54.390625 6.78125 
Q 54.390625 -7.171875 48.1875 -13.984375 
Q 42 -20.796875 29.203125 -20.796875 
Q 24.46875 -20.796875 20.265625 -20.09375 
Q 16.0625 -19.390625 12.109375 -17.921875 
L 12.109375 -9.1875 
Q 16.0625 -11.328125 19.921875 -12.34375 
Q 23.78125 -13.375 27.78125 -13.375 
Q 36.625 -13.375 41.015625 -8.765625 
Q 45.40625 -4.15625 45.40625 5.171875 
L 45.40625 9.625 
Q 42.625 4.78125 38.28125 2.390625 
Q 33.9375 0 27.875 0 
Q 17.828125 0 11.671875 7.65625 
Q 5.515625 15.328125 5.515625 27.984375 
Q 5.515625 40.671875 11.671875 48.328125 
Q 17.828125 56 27.875 56 
Q 33.9375 56 38.28125 53.609375 
Q 42.625 51.21875 45.40625 46.390625 
L 45.40625 54.6875 
L 54.390625 54.6875 
z
" id="DejaVuSans-103"/>
       <path d="M 56.203125 29.59375 
L 56.203125 25.203125 
L 14.890625 25.203125 
Q 15.484375 15.921875 20.484375 11.0625 
Q 25.484375 6.203125 34.421875 6.203125 
Q 39.59375 6.203125 44.453125 7.46875 
Q 49.3125 8.734375 54.109375 11.28125 
L 54.109375 2.78125 
Q 49.265625 0.734375 44.1875 -0.34375 
Q 39.109375 -1.421875 33.890625 -1.421875 
Q 20.796875 -1.421875 13.15625 6.1875 
Q 5.515625 13.8125 5.515625 26.8125 
Q 5.515625 40.234375 12.765625 48.109375 
Q 20.015625 56 32.328125 56 
Q 43.359375 56 49.78125 48.890625 
Q 56.203125 41.796875 56.203125 29.59375 
z
M 47.21875 32.234375 
Q 47.125 39.59375 43.09375 43.984375 
Q 39.0625 48.390625 32.421875 48.390625 
Q 24.90625 48.390625 20.390625 44.140625 
Q 15.875 39.890625 15.1875 32.171875 
z
" id="DejaVuSans-101"/>
       <path d="M 9.8125 72.90625 
L 23.09375 72.90625 
L 55.421875 11.921875 
L 55.421875 72.90625 
L 64.984375 72.90625 
L 64.984375 0 
L 51.703125 0 
L 19.390625 60.984375 
L 19.390625 0 
L 9.8125 0 
z
" id="DejaVuSans-78"/>
       <path d="M 18.3125 70.21875 
L 18.3125 54.6875 
L 36.8125 54.6875 
L 36.8125 47.703125 
L 18.3125 47.703125 
L 18.3125 18.015625 
Q 18.3125 11.328125 20.140625 9.421875 
Q 21.96875 7.515625 27.59375 7.515625 
L 36.8125 7.515625 
L 36.8125 0 
L 27.59375 0 
Q 17.1875 0 13.234375 3.875 
Q 9.28125 7.765625 9.28125 18.015625 
L 9.28125 47.703125 
L 2.6875 47.703125 
L 2.6875 54.6875 
L 9.28125 54.6875 
L 9.28125 70.21875 
z
" id="DejaVuSans-116"/>
       <path d="M 4.890625 31.390625 
L 31.203125 31.390625 
L 31.203125 23.390625 
L 4.890625 23.390625 
z
" id="DejaVuSans-45"/>
       <path d="M 45.40625 46.390625 
L 45.40625 75.984375 
L 54.390625 75.984375 
L 54.390625 0 
L 45.40625 0 
L 45.40625 8.203125 
Q 42.578125 3.328125 38.25 0.953125 
Q 33.9375 -1.421875 27.875 -1.421875 
Q 17.96875 -1.421875 11.734375 6.484375 
Q 5.515625 14.40625 5.515625 27.296875 
Q 5.515625 40.1875 11.734375 48.09375 
Q 17.96875 56 27.875 56 
Q 33.9375 56 38.25 53.625 
Q 42.578125 51.265625 45.40625 46.390625 
z
M 14.796875 27.296875 
Q 14.796875 17.390625 18.875 11.75 
Q 22.953125 6.109375 30.078125 6.109375 
Q 37.203125 6.109375 41.296875 11.75 
Q 45.40625 17.390625 45.40625 27.296875 
Q 45.40625 37.203125 41.296875 42.84375 
Q 37.203125 48.484375 30.078125 48.484375 
Q 22.953125 48.484375 18.875 42.84375 
Q 14.796875 37.203125 14.796875 27.296875 
z
" id="DejaVuSans-100"/>
      </defs>
      <use xlink:href="#DejaVuSans-84"/>
      <use x="46.333984" xlink:href="#DejaVuSans-114"/>
      <use x="87.447266" xlink:href="#DejaVuSans-97"/>
      <use x="148.726562" xlink:href="#DejaVuSans-105"/>
      <use x="176.509766" xlink:href="#DejaVuSans-110"/>
      <use x="239.888672" xlink:href="#DejaVuSans-32"/>
      <use x="271.675781" xlink:href="#DejaVuSans-102"/>
      <use x="306.880859" xlink:href="#DejaVuSans-114"/>
      <use x="345.744141" xlink:href="#DejaVuSans-111"/>
      <use x="406.925781" xlink:href="#DejaVuSans-109"/>
      <use x="504.337891" xlink:href="#DejaVuSans-32"/>
      <use x="536.125" xlink:href="#DejaVuSans-73"/>
      <use x="565.617188" xlink:href="#DejaVuSans-109"/>
      <use x="663.029297" xlink:href="#DejaVuSans-97"/>
      <use x="724.308594" xlink:href="#DejaVuSans-103"/>
      <use x="787.785156" xlink:href="#DejaVuSans-101"/>
      <use x="849.308594" xlink:href="#DejaVuSans-78"/>
      <use x="924.113281" xlink:href="#DejaVuSans-101"/>
      <use x="985.636719" xlink:href="#DejaVuSans-116"/>
      <use x="1024.845703" xlink:href="#DejaVuSans-32"/>
      <use x="1056.632812" xlink:href="#DejaVuSans-112"/>
      <use x="1120.109375" xlink:href="#DejaVuSans-114"/>
      <use x="1158.972656" xlink:href="#DejaVuSans-101"/>
      <use x="1220.496094" xlink:href="#DejaVuSans-45"/>
      <use x="1256.580078" xlink:href="#DejaVuSans-116"/>
      <use x="1295.789062" xlink:href="#DejaVuSans-114"/>
      <use x="1336.902344" xlink:href="#DejaVuSans-97"/>
      <use x="1398.181641" xlink:href="#DejaVuSans-105"/>
      <use x="1425.964844" xlink:href="#DejaVuSans-110"/>
      <use x="1489.34375" xlink:href="#DejaVuSans-101"/>
      <use x="1550.867188" xlink:href="#DejaVuSans-100"/>
     </g>
    </g>
    <g id="line2d_19">
     <path d="M 145.201989 79.616562 
L 165.201989 79.616562 
" style="fill:none;stroke:#ff7f0e;stroke-linecap:square;stroke-width:1.5;"/>
    </g>
    <g id="line2d_20"/>
    <g id="text_18">
     <!-- Train from synthetic-2d -->
     <g transform="translate(173.201989 83.116562)scale(0.1 -0.1)">
      <defs>
       <path d="M 44.28125 53.078125 
L 44.28125 44.578125 
Q 40.484375 46.53125 36.375 47.5 
Q 32.28125 48.484375 27.875 48.484375 
Q 21.1875 48.484375 17.84375 46.4375 
Q 14.5 44.390625 14.5 40.28125 
Q 14.5 37.15625 16.890625 35.375 
Q 19.28125 33.59375 26.515625 31.984375 
L 29.59375 31.296875 
Q 39.15625 29.25 43.1875 25.515625 
Q 47.21875 21.78125 47.21875 15.09375 
Q 47.21875 7.46875 41.1875 3.015625 
Q 35.15625 -1.421875 24.609375 -1.421875 
Q 20.21875 -1.421875 15.453125 -0.5625 
Q 10.6875 0.296875 5.421875 2 
L 5.421875 11.28125 
Q 10.40625 8.6875 15.234375 7.390625 
Q 20.0625 6.109375 24.8125 6.109375 
Q 31.15625 6.109375 34.5625 8.28125 
Q 37.984375 10.453125 37.984375 14.40625 
Q 37.984375 18.0625 35.515625 20.015625 
Q 33.0625 21.96875 24.703125 23.78125 
L 21.578125 24.515625 
Q 13.234375 26.265625 9.515625 29.90625 
Q 5.8125 33.546875 5.8125 39.890625 
Q 5.8125 47.609375 11.28125 51.796875 
Q 16.75 56 26.8125 56 
Q 31.78125 56 36.171875 55.265625 
Q 40.578125 54.546875 44.28125 53.078125 
z
" id="DejaVuSans-115"/>
       <path d="M 32.171875 -5.078125 
Q 28.375 -14.84375 24.75 -17.8125 
Q 21.140625 -20.796875 15.09375 -20.796875 
L 7.90625 -20.796875 
L 7.90625 -13.28125 
L 13.1875 -13.28125 
Q 16.890625 -13.28125 18.9375 -11.515625 
Q 21 -9.765625 23.484375 -3.21875 
L 25.09375 0.875 
L 2.984375 54.6875 
L 12.5 54.6875 
L 29.59375 11.921875 
L 46.6875 54.6875 
L 56.203125 54.6875 
z
" id="DejaVuSans-121"/>
      </defs>
      <use xlink:href="#DejaVuSans-84"/>
      <use x="46.333984" xlink:href="#DejaVuSans-114"/>
      <use x="87.447266" xlink:href="#DejaVuSans-97"/>
      <use x="148.726562" xlink:href="#DejaVuSans-105"/>
      <use x="176.509766" xlink:href="#DejaVuSans-110"/>
      <use x="239.888672" xlink:href="#DejaVuSans-32"/>
      <use x="271.675781" xlink:href="#DejaVuSans-102"/>
      <use x="306.880859" xlink:href="#DejaVuSans-114"/>
      <use x="345.744141" xlink:href="#DejaVuSans-111"/>
      <use x="406.925781" xlink:href="#DejaVuSans-109"/>
      <use x="504.337891" xlink:href="#DejaVuSans-32"/>
      <use x="536.125" xlink:href="#DejaVuSans-115"/>
      <use x="588.224609" xlink:href="#DejaVuSans-121"/>
      <use x="647.404297" xlink:href="#DejaVuSans-110"/>
      <use x="710.783203" xlink:href="#DejaVuSans-116"/>
      <use x="749.992188" xlink:href="#DejaVuSans-104"/>
      <use x="813.371094" xlink:href="#DejaVuSans-101"/>
      <use x="874.894531" xlink:href="#DejaVuSans-116"/>
      <use x="914.103516" xlink:href="#DejaVuSans-105"/>
      <use x="941.886719" xlink:href="#DejaVuSans-99"/>
      <use x="996.867188" xlink:href="#DejaVuSans-45"/>
      <use x="1032.951172" xlink:href="#DejaVuSans-50"/>
      <use x="1096.574219" xlink:href="#DejaVuSans-100"/>
     </g>
    </g>
   </g>
  </g>
  <g id="axes_2">
   <g id="patch_8">
    <path d="M 394.363636 384.48 
L 648 384.48 
L 648 51.84 
L 394.363636 51.84 
z
" style="fill:#ffffff;"/>
   </g>
   <g id="matplotlib.axis_3">
    <g id="xtick_10">
     <g id="line2d_21">
      <g>
       <use style="stroke:#000000;stroke-width:0.8;" x="394.363636" xlink:href="#m2b9444adc0" y="384.48"/>
      </g>
     </g>
     <g id="text_19">
      <!-- 0 -->
      <g transform="translate(391.182386 399.078438)scale(0.1 -0.1)">
       <use xlink:href="#DejaVuSans-48"/>
      </g>
     </g>
    </g>
    <g id="xtick_11">
     <g id="line2d_22">
      <g>
       <use style="stroke:#000000;stroke-width:0.8;" x="426.068182" xlink:href="#m2b9444adc0" y="384.48"/>
      </g>
     </g>
     <g id="text_20">
      <!-- 50 -->
      <g transform="translate(419.705682 399.078438)scale(0.1 -0.1)">
       <use xlink:href="#DejaVuSans-53"/>
       <use x="63.623047" xlink:href="#DejaVuSans-48"/>
      </g>
     </g>
    </g>
    <g id="xtick_12">
     <g id="line2d_23">
      <g>
       <use style="stroke:#000000;stroke-width:0.8;" x="457.772727" xlink:href="#m2b9444adc0" y="384.48"/>
      </g>
     </g>
     <g id="text_21">
      <!-- 100 -->
      <g transform="translate(448.228977 399.078438)scale(0.1 -0.1)">
       <use xlink:href="#DejaVuSans-49"/>
       <use x="63.623047" xlink:href="#DejaVuSans-48"/>
       <use x="127.246094" xlink:href="#DejaVuSans-48"/>
      </g>
     </g>
    </g>
    <g id="xtick_13">
     <g id="line2d_24">
      <g>
       <use style="stroke:#000000;stroke-width:0.8;" x="489.477273" xlink:href="#m2b9444adc0" y="384.48"/>
      </g>
     </g>
     <g id="text_22">
      <!-- 150 -->
      <g transform="translate(479.933523 399.078438)scale(0.1 -0.1)">
       <use xlink:href="#DejaVuSans-49"/>
       <use x="63.623047" xlink:href="#DejaVuSans-53"/>
       <use x="127.246094" xlink:href="#DejaVuSans-48"/>
      </g>
     </g>
    </g>
    <g id="xtick_14">
     <g id="line2d_25">
      <g>
       <use style="stroke:#000000;stroke-width:0.8;" x="521.181818" xlink:href="#m2b9444adc0" y="384.48"/>
      </g>
     </g>
     <g id="text_23">
      <!-- 200 -->
      <g transform="translate(511.638068 399.078438)scale(0.1 -0.1)">
       <use xlink:href="#DejaVuSans-50"/>
       <use x="63.623047" xlink:href="#DejaVuSans-48"/>
       <use x="127.246094" xlink:href="#DejaVuSans-48"/>
      </g>
     </g>
    </g>
    <g id="xtick_15">
     <g id="line2d_26">
      <g>
       <use style="stroke:#000000;stroke-width:0.8;" x="552.886364" xlink:href="#m2b9444adc0" y="384.48"/>
      </g>
     </g>
     <g id="text_24">
      <!-- 250 -->
      <g transform="translate(543.342614 399.078438)scale(0.1 -0.1)">
       <use xlink:href="#DejaVuSans-50"/>
       <use x="63.623047" xlink:href="#DejaVuSans-53"/>
       <use x="127.246094" xlink:href="#DejaVuSans-48"/>
      </g>
     </g>
    </g>
    <g id="xtick_16">
     <g id="line2d_27">
      <g>
       <use style="stroke:#000000;stroke-width:0.8;" x="584.590909" xlink:href="#m2b9444adc0" y="384.48"/>
      </g>
     </g>
     <g id="text_25">
      <!-- 300 -->
      <g transform="translate(575.047159 399.078438)scale(0.1 -0.1)">
       <use xlink:href="#DejaVuSans-51"/>
       <use x="63.623047" xlink:href="#DejaVuSans-48"/>
       <use x="127.246094" xlink:href="#DejaVuSans-48"/>
      </g>
     </g>
    </g>
    <g id="xtick_17">
     <g id="line2d_28">
      <g>
       <use style="stroke:#000000;stroke-width:0.8;" x="616.295455" xlink:href="#m2b9444adc0" y="384.48"/>
      </g>
     </g>
     <g id="text_26">
      <!-- 350 -->
      <g transform="translate(606.751705 399.078438)scale(0.1 -0.1)">
       <use xlink:href="#DejaVuSans-51"/>
       <use x="63.623047" xlink:href="#DejaVuSans-53"/>
       <use x="127.246094" xlink:href="#DejaVuSans-48"/>
      </g>
     </g>
    </g>
    <g id="xtick_18">
     <g id="line2d_29">
      <g>
       <use style="stroke:#000000;stroke-width:0.8;" x="648" xlink:href="#m2b9444adc0" y="384.48"/>
      </g>
     </g>
     <g id="text_27">
      <!-- 400 -->
      <g transform="translate(638.45625 399.078438)scale(0.1 -0.1)">
       <use xlink:href="#DejaVuSans-52"/>
       <use x="63.623047" xlink:href="#DejaVuSans-48"/>
       <use x="127.246094" xlink:href="#DejaVuSans-48"/>
      </g>
     </g>
    </g>
    <g id="text_28">
     <!-- Epoch -->
     <g transform="translate(505.870881 412.756563)scale(0.1 -0.1)">
      <use xlink:href="#DejaVuSans-69"/>
      <use x="63.183594" xlink:href="#DejaVuSans-112"/>
      <use x="126.660156" xlink:href="#DejaVuSans-111"/>
      <use x="187.841797" xlink:href="#DejaVuSans-99"/>
      <use x="242.822266" xlink:href="#DejaVuSans-104"/>
     </g>
    </g>
   </g>
   <g id="matplotlib.axis_4">
    <g id="ytick_6">
     <g id="line2d_30">
      <g>
       <use style="stroke:#000000;stroke-width:0.8;" x="394.363636" xlink:href="#m119adbd245" y="383.28551"/>
      </g>
     </g>
     <g id="text_29">
      <!-- 0 -->
      <g transform="translate(381.001136 387.084729)scale(0.1 -0.1)">
       <use xlink:href="#DejaVuSans-48"/>
      </g>
     </g>
    </g>
    <g id="ytick_7">
     <g id="line2d_31">
      <g>
       <use style="stroke:#000000;stroke-width:0.8;" x="394.363636" xlink:href="#m119adbd245" y="342.448238"/>
      </g>
     </g>
     <g id="text_30">
      <!-- 10 -->
      <g transform="translate(374.638636 346.247456)scale(0.1 -0.1)">
       <use xlink:href="#DejaVuSans-49"/>
       <use x="63.623047" xlink:href="#DejaVuSans-48"/>
      </g>
     </g>
    </g>
    <g id="ytick_8">
     <g id="line2d_32">
      <g>
       <use style="stroke:#000000;stroke-width:0.8;" x="394.363636" xlink:href="#m119adbd245" y="301.610966"/>
      </g>
     </g>
     <g id="text_31">
      <!-- 20 -->
      <g transform="translate(374.638636 305.410184)scale(0.1 -0.1)">
       <use xlink:href="#DejaVuSans-50"/>
       <use x="63.623047" xlink:href="#DejaVuSans-48"/>
      </g>
     </g>
    </g>
    <g id="ytick_9">
     <g id="line2d_33">
      <g>
       <use style="stroke:#000000;stroke-width:0.8;" x="394.363636" xlink:href="#m119adbd245" y="260.773693"/>
      </g>
     </g>
     <g id="text_32">
      <!-- 30 -->
      <g transform="translate(374.638636 264.572912)scale(0.1 -0.1)">
       <use xlink:href="#DejaVuSans-51"/>
       <use x="63.623047" xlink:href="#DejaVuSans-48"/>
      </g>
     </g>
    </g>
    <g id="ytick_10">
     <g id="line2d_34">
      <g>
       <use style="stroke:#000000;stroke-width:0.8;" x="394.363636" xlink:href="#m119adbd245" y="219.936421"/>
      </g>
     </g>
     <g id="text_33">
      <!-- 40 -->
      <g transform="translate(374.638636 223.73564)scale(0.1 -0.1)">
       <use xlink:href="#DejaVuSans-52"/>
       <use x="63.623047" xlink:href="#DejaVuSans-48"/>
      </g>
     </g>
    </g>
    <g id="ytick_11">
     <g id="line2d_35">
      <g>
       <use style="stroke:#000000;stroke-width:0.8;" x="394.363636" xlink:href="#m119adbd245" y="179.099149"/>
      </g>
     </g>
     <g id="text_34">
      <!-- 50 -->
      <g transform="translate(374.638636 182.898368)scale(0.1 -0.1)">
       <use xlink:href="#DejaVuSans-53"/>
       <use x="63.623047" xlink:href="#DejaVuSans-48"/>
      </g>
     </g>
    </g>
    <g id="ytick_12">
     <g id="line2d_36">
      <g>
       <use style="stroke:#000000;stroke-width:0.8;" x="394.363636" xlink:href="#m119adbd245" y="138.261877"/>
      </g>
     </g>
     <g id="text_35">
      <!-- 60 -->
      <g transform="translate(374.638636 142.061096)scale(0.1 -0.1)">
       <defs>
        <path d="M 33.015625 40.375 
Q 26.375 40.375 22.484375 35.828125 
Q 18.609375 31.296875 18.609375 23.390625 
Q 18.609375 15.53125 22.484375 10.953125 
Q 26.375 6.390625 33.015625 6.390625 
Q 39.65625 6.390625 43.53125 10.953125 
Q 47.40625 15.53125 47.40625 23.390625 
Q 47.40625 31.296875 43.53125 35.828125 
Q 39.65625 40.375 33.015625 40.375 
z
M 52.59375 71.296875 
L 52.59375 62.3125 
Q 48.875 64.0625 45.09375 64.984375 
Q 41.3125 65.921875 37.59375 65.921875 
Q 27.828125 65.921875 22.671875 59.328125 
Q 17.53125 52.734375 16.796875 39.40625 
Q 19.671875 43.65625 24.015625 45.921875 
Q 28.375 48.1875 33.59375 48.1875 
Q 44.578125 48.1875 50.953125 41.515625 
Q 57.328125 34.859375 57.328125 23.390625 
Q 57.328125 12.15625 50.6875 5.359375 
Q 44.046875 -1.421875 33.015625 -1.421875 
Q 20.359375 -1.421875 13.671875 8.265625 
Q 6.984375 17.96875 6.984375 36.375 
Q 6.984375 53.65625 15.1875 63.9375 
Q 23.390625 74.21875 37.203125 74.21875 
Q 40.921875 74.21875 44.703125 73.484375 
Q 48.484375 72.75 52.59375 71.296875 
z
" id="DejaVuSans-54"/>
       </defs>
       <use xlink:href="#DejaVuSans-54"/>
       <use x="63.623047" xlink:href="#DejaVuSans-48"/>
      </g>
     </g>
    </g>
    <g id="ytick_13">
     <g id="line2d_37">
      <g>
       <use style="stroke:#000000;stroke-width:0.8;" x="394.363636" xlink:href="#m119adbd245" y="97.424605"/>
      </g>
     </g>
     <g id="text_36">
      <!-- 70 -->
      <g transform="translate(374.638636 101.223824)scale(0.1 -0.1)">
       <defs>
        <path d="M 8.203125 72.90625 
L 55.078125 72.90625 
L 55.078125 68.703125 
L 28.609375 0 
L 18.3125 0 
L 43.21875 64.59375 
L 8.203125 64.59375 
z
" id="DejaVuSans-55"/>
       </defs>
       <use xlink:href="#DejaVuSans-55"/>
       <use x="63.623047" xlink:href="#DejaVuSans-48"/>
      </g>
     </g>
    </g>
    <g id="ytick_14">
     <g id="line2d_38">
      <g>
       <use style="stroke:#000000;stroke-width:0.8;" x="394.363636" xlink:href="#m119adbd245" y="56.587333"/>
      </g>
     </g>
     <g id="text_37">
      <!-- 80 -->
      <g transform="translate(374.638636 60.386552)scale(0.1 -0.1)">
       <defs>
        <path d="M 31.78125 34.625 
Q 24.75 34.625 20.71875 30.859375 
Q 16.703125 27.09375 16.703125 20.515625 
Q 16.703125 13.921875 20.71875 10.15625 
Q 24.75 6.390625 31.78125 6.390625 
Q 38.8125 6.390625 42.859375 10.171875 
Q 46.921875 13.96875 46.921875 20.515625 
Q 46.921875 27.09375 42.890625 30.859375 
Q 38.875 34.625 31.78125 34.625 
z
M 21.921875 38.8125 
Q 15.578125 40.375 12.03125 44.71875 
Q 8.5 49.078125 8.5 55.328125 
Q 8.5 64.0625 14.71875 69.140625 
Q 20.953125 74.21875 31.78125 74.21875 
Q 42.671875 74.21875 48.875 69.140625 
Q 55.078125 64.0625 55.078125 55.328125 
Q 55.078125 49.078125 51.53125 44.71875 
Q 48 40.375 41.703125 38.8125 
Q 48.828125 37.15625 52.796875 32.3125 
Q 56.78125 27.484375 56.78125 20.515625 
Q 56.78125 9.90625 50.3125 4.234375 
Q 43.84375 -1.421875 31.78125 -1.421875 
Q 19.734375 -1.421875 13.25 4.234375 
Q 6.78125 9.90625 6.78125 20.515625 
Q 6.78125 27.484375 10.78125 32.3125 
Q 14.796875 37.15625 21.921875 38.8125 
z
M 18.3125 54.390625 
Q 18.3125 48.734375 21.84375 45.5625 
Q 25.390625 42.390625 31.78125 42.390625 
Q 38.140625 42.390625 41.71875 45.5625 
Q 45.3125 48.734375 45.3125 54.390625 
Q 45.3125 60.0625 41.71875 63.234375 
Q 38.140625 66.40625 31.78125 66.40625 
Q 25.390625 66.40625 21.84375 63.234375 
Q 18.3125 60.0625 18.3125 54.390625 
z
" id="DejaVuSans-56"/>
       </defs>
       <use xlink:href="#DejaVuSans-56"/>
       <use x="63.623047" xlink:href="#DejaVuSans-48"/>
      </g>
     </g>
    </g>
    <g id="text_38">
     <!-- MSE -->
     <g transform="translate(368.558949 228.807656)rotate(-90)scale(0.1 -0.1)">
      <defs>
       <path d="M 53.515625 70.515625 
L 53.515625 60.890625 
Q 47.90625 63.578125 42.921875 64.890625 
Q 37.9375 66.21875 33.296875 66.21875 
Q 25.25 66.21875 20.875 63.09375 
Q 16.5 59.96875 16.5 54.203125 
Q 16.5 49.359375 19.40625 46.890625 
Q 22.3125 44.4375 30.421875 42.921875 
L 36.375 41.703125 
Q 47.40625 39.59375 52.65625 34.296875 
Q 57.90625 29 57.90625 20.125 
Q 57.90625 9.515625 50.796875 4.046875 
Q 43.703125 -1.421875 29.984375 -1.421875 
Q 24.8125 -1.421875 18.96875 -0.25 
Q 13.140625 0.921875 6.890625 3.21875 
L 6.890625 13.375 
Q 12.890625 10.015625 18.65625 8.296875 
Q 24.421875 6.59375 29.984375 6.59375 
Q 38.421875 6.59375 43.015625 9.90625 
Q 47.609375 13.234375 47.609375 19.390625 
Q 47.609375 24.75 44.3125 27.78125 
Q 41.015625 30.8125 33.5 32.328125 
L 27.484375 33.5 
Q 16.453125 35.6875 11.515625 40.375 
Q 6.59375 45.0625 6.59375 53.421875 
Q 6.59375 63.09375 13.40625 68.65625 
Q 20.21875 74.21875 32.171875 74.21875 
Q 37.3125 74.21875 42.625 73.28125 
Q 47.953125 72.359375 53.515625 70.515625 
z
" id="DejaVuSans-83"/>
      </defs>
      <use xlink:href="#DejaVuSans-77"/>
      <use x="86.279297" xlink:href="#DejaVuSans-83"/>
      <use x="149.755859" xlink:href="#DejaVuSans-69"/>
     </g>
    </g>
   </g>
   <g id="line2d_39">
    <path clip-path="url(#p93a6204b18)" d="M 394.363636 66.96 
L 394.997727 102.73345 
L 395.631818 182.692829 
L 396.265909 183.346226 
L 396.9 236.598028 
L 397.534091 205.684213 
L 398.168182 242.315246 
L 398.802273 261.263741 
L 399.436364 259.221877 
L 400.070455 268.124402 
L 400.704545 263.019743 
L 401.338636 253.708845 
L 401.972727 287.113734 
L 402.606818 287.195409 
L 403.240909 280.089723 
L 403.875 249.543444 
L 404.509091 303.775341 
L 405.143182 288.257178 
L 405.777273 294.096907 
L 406.411364 267.144308 
L 407.045455 271.595571 
L 407.679545 302.264362 
L 408.313636 306.878974 
L 408.947727 293.647698 
L 409.581818 301.488454 
L 410.215909 304.306226 
L 410.85 297.772262 
L 411.484091 303.611992 
L 412.118182 313.739635 
L 412.752273 314.107171 
L 413.386364 298.670682 
L 414.020455 315.250614 
L 414.654545 292.463417 
L 415.288636 318.395084 
L 415.922727 288.992248 
L 416.556818 280.212235 
L 417.190909 280.783957 
L 417.825 297.486401 
L 418.459091 323.948953 
L 419.093182 318.640108 
L 419.727273 291.115787 
L 420.361364 313.331263 
L 420.995455 316.802431 
L 421.629545 304.83711 
L 422.263636 310.840189 
L 422.897727 323.418069 
L 423.531818 328.073518 
L 424.165909 312.228656 
L 424.8 304.918785 
L 425.434091 310.390979 
L 426.068182 314.066334 
L 426.702273 335.710088 
L 427.336364 335.179203 
L 427.970455 338.895395 
L 428.604545 336.11846 
L 429.238636 340.365537 
L 429.872727 340.202188 
L 430.506818 340.16135 
L 431.140909 335.342552 
L 431.775 339.507954 
L 432.409091 344.612613 
L 433.043182 341.304794 
L 433.677273 342.12154 
L 434.311364 344.245078 
L 434.945455 334.852505 
L 435.579545 348.369642 
L 436.213636 341.05977 
L 436.847727 344.775962 
L 437.481818 346.00108 
L 438.115909 339.957164 
L 438.75 347.062849 
L 439.384091 341.182282 
L 440.018182 347.634571 
L 440.652273 341.835679 
L 441.286364 346.041918 
L 441.920455 345.715219 
L 442.554545 346.00108 
L 443.188636 344.816799 
L 443.822727 345.225172 
L 444.456818 347.79792 
L 445.090909 345.143498 
L 445.725 341.018933 
L 446.359091 345.960243 
L 446.993182 344.857637 
L 447.627273 348.002107 
L 448.261364 345.266009 
L 448.895455 345.020986 
L 449.529545 349.431411 
L 450.163636 342.244051 
L 450.797727 348.124619 
L 451.431818 348.818852 
L 452.065909 342.039865 
L 452.7 344.571776 
L 453.968182 351.228251 
L 454.602273 348.573828 
L 455.236364 348.002107 
L 455.870455 345.388521 
L 456.504545 348.69634 
L 457.138636 347.226199 
L 457.772727 346.246104 
L 458.406818 351.881648 
L 459.040909 350.819878 
L 459.675 350.615692 
L 460.309091 353.351789 
L 460.943182 353.964348 
L 461.577273 348.737178 
L 462.211364 347.185361 
L 462.845455 352.494207 
L 463.479545 350.779041 
L 464.113636 350.248157 
L 464.747727 346.736151 
L 465.381818 352.371695 
L 466.015909 351.024065 
L 466.65 353.106766 
L 467.284091 351.024065 
L 467.918182 353.229278 
L 468.552273 350.574855 
L 469.186364 352.698393 
L 469.820455 352.249183 
L 470.454545 348.24713 
L 471.088636 351.84081 
L 471.722727 352.984254 
L 472.356818 350.779041 
L 472.990909 349.676435 
L 473.625 348.002107 
L 474.259091 354.209372 
L 474.893182 350.248157 
L 475.527273 347.79792 
L 477.429545 351.963322 
L 478.063636 351.024065 
L 478.697727 351.350763 
L 479.331818 353.596813 
L 479.965909 353.474301 
L 481.234091 350.697367 
L 481.868182 353.147603 
L 482.502273 351.105739 
L 483.136364 354.005186 
L 483.770455 350.084808 
L 484.404545 351.922485 
L 485.038636 351.554949 
L 485.672727 352.73923 
L 486.306818 351.514112 
L 486.940909 351.473275 
L 487.575 352.126671 
L 488.209091 353.229278 
L 488.843182 349.268062 
L 489.477273 351.922485 
L 490.111364 351.269088 
L 491.379545 351.799973 
L 492.013636 350.697367 
L 492.647727 351.350763 
L 493.281818 353.964348 
L 493.915909 352.249183 
L 494.55 353.025091 
L 495.184091 350.207319 
L 495.818182 352.371695 
L 496.452273 353.474301 
L 497.086364 353.678488 
L 497.720455 353.310952 
L 498.354545 352.494207 
L 498.988636 355.230304 
L 499.622727 352.126671 
L 500.256818 351.759136 
L 500.890909 353.106766 
L 501.525 351.514112 
L 502.159091 352.249183 
L 502.793182 352.780068 
L 503.427273 350.534018 
L 504.061364 352.657556 
L 504.695455 352.167508 
L 505.329545 351.269088 
L 505.963636 354.168535 
L 506.597727 351.024065 
L 507.231818 353.18844 
L 507.865909 350.370668 
L 509.134091 353.678488 
L 509.768182 352.616718 
L 510.402273 351.105739 
L 511.036364 351.84081 
L 511.670455 352.984254 
L 512.304545 352.126671 
L 512.938636 352.902579 
L 513.572727 351.309926 
L 514.206818 352.902579 
L 514.840909 352.453369 
L 515.475 352.249183 
L 516.109091 354.005186 
L 516.743182 351.84081 
L 517.377273 354.53607 
L 518.011364 353.270115 
L 518.645455 351.677461 
L 519.279545 352.249183 
L 519.913636 350.819878 
L 520.547727 351.718298 
L 521.181818 350.819878 
L 521.815909 354.331884 
L 522.45 352.167508 
L 523.084091 352.902579 
L 523.718182 355.8837 
L 524.352273 353.270115 
L 524.986364 354.209372 
L 525.620455 352.004159 
L 526.254545 350.983228 
L 526.888636 351.228251 
L 527.522727 349.717272 
L 528.156818 352.698393 
L 529.425 353.229278 
L 530.059091 353.882674 
L 530.693182 351.105739 
L 531.327273 353.310952 
L 531.961364 352.780068 
L 532.595455 354.331884 
L 533.229545 352.943417 
L 533.863636 353.18844 
L 534.497727 351.759136 
L 535.131818 351.024065 
L 535.765909 352.453369 
L 536.4 346.409453 
L 537.034091 353.270115 
L 537.668182 350.49318 
L 538.302273 350.983228 
L 538.936364 351.881648 
L 539.570455 351.636624 
L 540.204545 352.494207 
L 540.838636 352.29002 
L 541.472727 354.372721 
L 542.106818 350.411506 
L 542.740909 353.229278 
L 543.375 350.901553 
L 544.009091 352.535044 
L 544.643182 351.595787 
L 545.277273 352.943417 
L 545.911364 353.025091 
L 546.545455 352.371695 
L 547.179545 352.330858 
L 547.813636 350.94239 
L 548.447727 352.208346 
L 549.081818 351.636624 
L 549.715909 354.454396 
L 550.35 348.941364 
L 550.984091 352.412532 
L 551.618182 349.14555 
L 552.252273 351.881648 
L 552.886364 350.860716 
L 553.520455 350.656529 
L 554.154545 348.573828 
L 554.788636 350.288994 
L 555.422727 350.248157 
L 556.056818 351.024065 
L 556.690909 350.94239 
L 557.325 353.515138 
L 557.959091 350.94239 
L 558.593182 354.53607 
L 559.227273 350.901553 
L 559.861364 353.596813 
L 560.495455 349.59476 
L 561.129545 354.53607 
L 561.763636 353.882674 
L 563.031818 351.881648 
L 563.665909 349.104713 
L 564.3 353.474301 
L 564.934091 353.229278 
L 565.568182 354.209372 
L 566.202273 350.94239 
L 566.836364 353.596813 
L 567.470455 351.759136 
L 568.104545 351.187414 
L 568.738636 351.269088 
L 569.372727 351.636624 
L 570.006818 352.73923 
L 570.640909 352.494207 
L 571.275 350.452343 
L 571.909091 352.044997 
L 572.543182 352.330858 
L 573.177273 352.902579 
L 573.811364 353.106766 
L 574.445455 350.615692 
L 575.079545 352.371695 
L 575.713636 346.246104 
L 576.347727 350.574855 
L 576.981818 352.208346 
L 577.615909 352.330858 
L 578.25 351.759136 
L 578.884091 353.025091 
L 579.518182 349.186388 
L 580.152273 352.126671 
L 580.786364 352.861742 
L 581.420455 351.554949 
L 582.054545 351.514112 
L 582.688636 352.29002 
L 583.322727 351.922485 
L 583.956818 349.227225 
L 584.590909 353.800999 
L 585.859091 353.474301 
L 586.493182 352.126671 
L 587.127273 353.964348 
L 587.761364 350.819878 
L 588.395455 351.84081 
L 589.029545 351.514112 
L 589.663636 351.759136 
L 590.297727 352.249183 
L 590.931818 352.126671 
L 591.565909 352.494207 
L 592.2 351.677461 
L 592.834091 352.249183 
L 593.468182 351.718298 
L 594.102273 354.53607 
L 594.736364 355.230304 
L 595.370455 351.105739 
L 596.004545 352.167508 
L 596.638636 350.534018 
L 597.272727 353.678488 
L 597.906818 352.902579 
L 598.540909 351.799973 
L 599.175 353.18844 
L 599.809091 353.106766 
L 600.443182 350.697367 
L 601.711364 351.84081 
L 602.345455 350.370668 
L 602.979545 354.168535 
L 603.613636 351.350763 
L 604.247727 352.902579 
L 604.881818 351.554949 
L 605.515909 351.309926 
L 606.15 354.005186 
L 606.784091 352.780068 
L 607.418182 352.249183 
L 608.052273 353.025091 
L 608.686364 353.310952 
L 609.320455 351.024065 
L 609.954545 353.270115 
L 610.588636 351.269088 
L 611.222727 352.453369 
L 611.856818 352.984254 
L 612.490909 351.881648 
L 613.125 351.922485 
L 613.759091 352.657556 
L 614.393182 352.371695 
L 615.027273 352.249183 
L 615.661364 350.207319 
L 616.295455 352.616718 
L 616.929545 351.269088 
L 617.563636 353.678488 
L 618.197727 351.309926 
L 618.831818 351.84081 
L 619.465909 353.106766 
L 620.1 353.678488 
L 620.734091 350.819878 
L 621.368182 350.697367 
L 622.002273 351.105739 
L 622.636364 355.230304 
L 623.270455 352.453369 
L 623.904545 351.350763 
L 624.538636 351.554949 
L 625.172727 352.902579 
L 625.806818 351.514112 
L 627.075 352.902579 
L 628.343182 351.269088 
L 628.977273 353.270115 
L 629.611364 354.53607 
L 630.245455 354.168535 
L 630.879545 351.024065 
L 631.513636 352.167508 
L 632.147727 352.780068 
L 632.781818 350.370668 
L 633.415909 352.249183 
L 634.05 352.494207 
L 634.684091 350.534018 
L 635.318182 351.799973 
L 635.952273 351.677461 
L 637.220455 351.881648 
L 637.854545 352.249183 
L 638.488636 353.474301 
L 639.122727 353.310952 
L 639.756818 352.249183 
L 640.390909 352.126671 
L 641.025 353.964348 
L 641.659091 352.371695 
L 642.293182 351.84081 
L 642.927273 352.616718 
L 643.561364 350.207319 
L 644.195455 351.922485 
L 644.829545 353.18844 
L 645.463636 354.005186 
L 646.097727 352.657556 
L 646.731818 353.025091 
L 647.365909 352.984254 
L 647.365909 352.984254 
" style="fill:none;stroke:#1f77b4;stroke-linecap:square;stroke-width:1.5;"/>
   </g>
   <g id="line2d_40">
    <path clip-path="url(#p93a6204b18)" d="M 394.363636 116.20975 
L 394.997727 133.606428 
L 395.631818 178.894963 
L 396.265909 152.309899 
L 396.9 210.911384 
L 397.534091 207.358542 
L 398.168182 208.093612 
L 398.802273 263.101418 
L 399.436364 278.170371 
L 400.070455 271.922269 
L 400.704545 281.600702 
L 401.338636 264.204024 
L 401.972727 272.167292 
L 402.606818 284.132613 
L 403.875 232.718488 
L 404.509091 276.455206 
L 405.143182 291.36081 
L 405.777273 291.605834 
L 406.411364 275.107576 
L 407.045455 278.088697 
L 407.679545 299.242404 
L 408.313636 308.757488 
L 408.947727 297.159703 
L 409.581818 302.468548 
L 410.215909 292.218393 
L 411.484091 294.913653 
L 412.118182 316.230709 
L 412.752273 315.863174 
L 413.386364 280.865631 
L 414.020455 313.127076 
L 414.654545 296.383795 
L 415.288636 316.679919 
L 415.922727 287.072897 
L 416.556818 241.580176 
L 417.190909 275.270925 
L 417.825 289.400621 
L 418.459091 318.231735 
L 419.093182 316.475733 
L 419.727273 305.776367 
L 420.361364 325.133234 
L 420.995455 328.890263 
L 421.629545 287.277083 
L 422.897727 321.376205 
L 423.531818 328.563565 
L 424.165909 334.158271 
L 424.8 321.866253 
L 425.434091 317.782525 
L 426.068182 282.662471 
L 426.702273 283.683403 
L 427.336364 273.351573 
L 427.970455 324.684024 
L 428.604545 322.601323 
L 429.238636 329.788683 
L 429.872727 311.656935 
L 430.506818 331.217988 
L 431.140909 328.359379 
L 431.775 333.954085 
L 432.409091 342.570749 
L 433.043182 335.995949 
L 433.677273 332.524781 
L 434.311364 335.179203 
L 434.945455 312.269494 
L 435.579545 315.087265 
L 436.213636 311.820284 
L 436.847727 304.102039 
L 437.481818 317.823363 
L 438.115909 322.887184 
L 438.75 315.495638 
L 439.384091 310.390979 
L 440.018182 330.197056 
L 440.652273 317.619176 
L 441.286364 337.057718 
L 441.920455 331.871384 
L 442.554545 282.784983 
L 443.188636 305.408832 
L 443.822727 301.610966 
L 444.456818 305.653856 
L 445.090909 325.459932 
L 445.725 279.109629 
L 446.359091 323.70393 
L 446.993182 323.663093 
L 447.627273 331.463011 
L 448.261364 334.689156 
L 448.895455 314.678893 
L 449.529545 275.80181 
L 450.163636 281.437353 
L 450.797727 312.432843 
L 451.431818 336.526833 
L 452.065909 318.068386 
L 452.7 294.301094 
L 453.334091 318.068386 
L 454.602273 334.689156 
L 455.236364 333.913248 
L 456.504545 315.209777 
L 457.138636 321.743741 
L 457.772727 335.710088 
L 458.406818 346.368616 
L 459.040909 350.003133 
L 459.675 350.94239 
L 460.309091 354.944443 
L 460.943182 348.287968 
L 461.577273 351.350763 
L 462.211364 352.984254 
L 462.845455 357.313005 
L 463.479545 353.63765 
L 464.113636 355.516165 
L 464.747727 352.780068 
L 465.381818 353.964348 
L 466.015909 354.617745 
L 466.65 357.68054 
L 467.284091 357.843889 
L 467.918182 359.518217 
L 468.552273 356.659608 
L 469.186364 358.823984 
L 469.820455 358.701472 
L 470.454545 359.681567 
L 471.722727 358.660635 
L 472.356818 359.436543 
L 472.990909 358.293099 
L 473.625 360.539149 
L 474.893182 359.763241 
L 475.527273 357.68054 
L 476.161364 352.943417 
L 476.795455 362.009291 
L 477.429545 360.661661 
L 478.063636 361.437569 
L 478.697727 360.784173 
L 479.331818 363.397758 
L 479.965909 362.907711 
L 480.6 361.151708 
L 481.868182 361.192546 
L 482.502273 358.987333 
L 483.136364 361.641756 
L 483.770455 361.478406 
L 484.404545 363.07106 
L 485.038636 363.96948 
L 485.672727 360.784173 
L 486.306818 362.131803 
L 486.940909 359.804078 
L 487.575 360.784173 
L 488.209091 365.235436 
L 488.843182 361.600918 
L 489.477273 359.844916 
L 490.111364 360.416637 
L 490.745455 363.07106 
L 491.379545 360.620824 
L 492.013636 352.085834 
L 492.647727 359.804078 
L 493.281818 362.131803 
L 493.915909 363.683619 
L 494.55 359.436543 
L 495.184091 359.314031 
L 495.818182 365.153761 
L 496.452273 362.907711 
L 497.086364 364.255341 
L 497.720455 364.132829 
L 498.354545 363.07106 
L 498.988636 363.52027 
L 499.622727 359.314031 
L 500.256818 364.051155 
L 500.890909 361.968454 
L 501.525 363.397758 
L 502.159091 362.540176 
L 502.793182 362.458501 
L 503.427273 360.539149 
L 504.061364 363.111897 
L 504.695455 361.682593 
L 505.329545 363.765294 
L 505.963636 364.41869 
L 506.597727 362.458501 
L 507.231818 364.827063 
L 507.865909 361.437569 
L 508.5 361.355895 
L 509.134091 362.050128 
L 509.768182 362.499338 
L 510.402273 356.78212 
L 511.036364 363.152735 
L 511.670455 359.395706 
L 512.304545 363.07106 
L 512.938636 361.764267 
L 513.572727 357.353842 
L 514.206818 365.602971 
L 514.840909 363.52027 
L 515.475 360.947522 
L 516.109091 364.704551 
L 516.743182 364.296178 
L 517.377273 366.746415 
L 518.011364 364.704551 
L 518.645455 362.254315 
L 519.279545 365.194598 
L 519.913636 361.478406 
L 520.547727 362.254315 
L 521.815909 366.297205 
L 522.45 364.827063 
L 523.084091 365.562134 
L 523.718182 367.032275 
L 524.352273 367.154787 
L 524.986364 367.154787 
L 525.620455 365.643808 
L 526.254545 366.909764 
L 526.888636 366.991438 
L 527.522727 363.683619 
L 528.156818 366.705577 
L 528.790909 368.379905 
L 529.425 367.399811 
L 530.059091 365.725483 
L 530.693182 367.318136 
L 531.327273 368.175719 
L 531.961364 367.440648 
L 532.595455 367.195625 
L 533.229545 367.440648 
L 533.863636 366.542228 
L 534.497727 367.644835 
L 535.131818 367.032275 
L 535.765909 367.440648 
L 536.4 362.581013 
L 537.034091 367.073113 
L 537.668182 366.256367 
L 538.302273 366.501391 
L 538.936364 366.256367 
L 539.570455 368.257394 
L 540.204545 366.868926 
L 540.838636 367.930695 
L 541.472727 366.828089 
L 542.106818 365.480459 
L 542.740909 366.256367 
L 543.375 366.093018 
L 544.009091 367.808184 
L 544.643182 366.909764 
L 545.277273 367.481485 
L 545.911364 367.767346 
L 546.545455 367.032275 
L 547.179545 367.522323 
L 547.813636 366.21553 
L 548.447727 366.460554 
L 549.081818 367.522323 
L 549.715909 367.726509 
L 550.35 366.705577 
L 550.984091 367.685672 
L 551.618182 365.357947 
L 552.252273 367.11395 
L 553.520455 367.236462 
L 554.788636 365.847995 
L 555.422727 366.378879 
L 556.056818 368.216556 
L 556.690909 367.481485 
L 557.325 367.522323 
L 557.959091 367.399811 
L 558.593182 368.91079 
L 559.861364 366.419716 
L 560.495455 366.623903 
L 561.129545 368.01237 
L 561.763636 367.032275 
L 562.397727 366.950601 
L 563.031818 367.889858 
L 563.665909 362.907711 
L 564.3 367.358974 
L 564.934091 367.195625 
L 565.568182 367.440648 
L 566.202273 364.990412 
L 566.836364 367.481485 
L 567.470455 367.644835 
L 568.104545 366.623903 
L 568.738636 368.01237 
L 569.372727 368.01237 
L 570.006818 367.277299 
L 570.640909 366.991438 
L 571.275 367.522323 
L 571.909091 367.644835 
L 572.543182 368.420743 
L 573.177273 368.502417 
L 573.811364 367.11395 
L 574.445455 367.073113 
L 575.079545 368.339068 
L 575.713636 358.905658 
L 576.347727 367.318136 
L 576.981818 368.747441 
L 577.615909 367.726509 
L 578.884091 368.420743 
L 579.518182 366.133856 
L 580.152273 366.093018 
L 580.786364 367.073113 
L 581.420455 366.501391 
L 583.956818 368.01237 
L 584.590909 366.66474 
L 585.225 368.094045 
L 585.859091 368.01237 
L 586.493182 368.339068 
L 587.127273 367.685672 
L 587.761364 367.726509 
L 588.395455 368.665766 
L 589.029545 368.502417 
L 589.663636 368.624929 
L 590.297727 369.074139 
L 590.931818 368.298231 
L 591.565909 368.175719 
L 592.2 366.909764 
L 592.834091 368.829115 
L 593.468182 367.318136 
L 594.736364 368.869953 
L 596.638636 368.869953 
L 597.272727 366.133856 
L 598.540909 367.440648 
L 599.175 367.808184 
L 599.809091 367.032275 
L 600.443182 367.930695 
L 601.077273 368.543255 
L 601.711364 366.21553 
L 602.979545 368.584092 
L 603.613636 367.11395 
L 604.247727 367.399811 
L 604.881818 367.889858 
L 605.515909 368.175719 
L 606.15 367.318136 
L 606.784091 367.971533 
L 607.418182 367.236462 
L 608.052273 367.481485 
L 608.686364 368.257394 
L 609.320455 368.584092 
L 609.954545 368.053207 
L 610.588636 367.889858 
L 611.856818 369.033302 
L 612.490909 367.889858 
L 613.125 369.033302 
L 613.759091 367.808184 
L 614.393182 368.298231 
L 615.027273 368.420743 
L 615.661364 367.889858 
L 616.295455 368.706604 
L 616.929545 368.951627 
L 617.563636 368.46158 
L 618.197727 366.868926 
L 618.831818 366.746415 
L 619.465909 368.134882 
L 620.1 369.196651 
L 620.734091 368.951627 
L 621.368182 367.358974 
L 622.002273 367.318136 
L 622.636364 367.971533 
L 623.270455 368.094045 
L 623.904545 368.788278 
L 624.538636 368.339068 
L 625.172727 367.685672 
L 625.806818 368.175719 
L 626.440909 367.440648 
L 627.075 368.869953 
L 627.709091 368.665766 
L 628.343182 368.094045 
L 628.977273 368.829115 
L 629.611364 368.134882 
L 630.245455 368.298231 
L 630.879545 365.684646 
L 631.513636 368.543255 
L 632.147727 369.074139 
L 632.781818 367.318136 
L 633.415909 368.339068 
L 634.05 368.257394 
L 634.684091 367.767346 
L 635.318182 367.56316 
L 635.952273 367.481485 
L 636.586364 368.584092 
L 637.220455 368.543255 
L 637.854545 367.930695 
L 638.488636 368.665766 
L 639.122727 368.420743 
L 639.756818 367.522323 
L 640.390909 368.053207 
L 641.025 368.379905 
L 641.659091 368.257394 
L 642.293182 366.093018 
L 642.927273 367.889858 
L 643.561364 368.747441 
L 645.463636 367.644835 
L 646.097727 368.829115 
L 646.731818 368.420743 
L 647.365909 369.36 
L 648 367.522323 
L 648 367.522323 
" style="fill:none;stroke:#ff7f0e;stroke-linecap:square;stroke-width:1.5;"/>
   </g>
   <g id="patch_9">
    <path d="M 394.363636 384.48 
L 394.363636 51.84 
" style="fill:none;stroke:#000000;stroke-linecap:square;stroke-linejoin:miter;stroke-width:0.8;"/>
   </g>
   <g id="patch_10">
    <path d="M 648 384.48 
L 648 51.84 
" style="fill:none;stroke:#000000;stroke-linecap:square;stroke-linejoin:miter;stroke-width:0.8;"/>
   </g>
   <g id="patch_11">
    <path d="M 394.363636 384.48 
L 648 384.48 
" style="fill:none;stroke:#000000;stroke-linecap:square;stroke-linejoin:miter;stroke-width:0.8;"/>
   </g>
   <g id="patch_12">
    <path d="M 394.363636 51.84 
L 648 51.84 
" style="fill:none;stroke:#000000;stroke-linecap:square;stroke-linejoin:miter;stroke-width:0.8;"/>
   </g>
   <g id="legend_2">
    <g id="patch_13">
     <path d="M 447.565625 89.19625 
L 641 89.19625 
Q 643 89.19625 643 87.19625 
L 643 58.84 
Q 643 56.84 641 56.84 
L 447.565625 56.84 
Q 445.565625 56.84 445.565625 58.84 
L 445.565625 87.19625 
Q 445.565625 89.19625 447.565625 89.19625 
z
" style="fill:#ffffff;opacity:0.8;stroke:#cccccc;stroke-linejoin:miter;"/>
    </g>
    <g id="line2d_41">
     <path d="M 449.565625 64.938437 
L 469.565625 64.938437 
" style="fill:none;stroke:#1f77b4;stroke-linecap:square;stroke-width:1.5;"/>
    </g>
    <g id="line2d_42"/>
    <g id="text_39">
     <!-- Train from ImageNet pre-trained -->
     <g transform="translate(477.565625 68.438437)scale(0.1 -0.1)">
      <use xlink:href="#DejaVuSans-84"/>
      <use x="46.333984" xlink:href="#DejaVuSans-114"/>
      <use x="87.447266" xlink:href="#DejaVuSans-97"/>
      <use x="148.726562" xlink:href="#DejaVuSans-105"/>
      <use x="176.509766" xlink:href="#DejaVuSans-110"/>
      <use x="239.888672" xlink:href="#DejaVuSans-32"/>
      <use x="271.675781" xlink:href="#DejaVuSans-102"/>
      <use x="306.880859" xlink:href="#DejaVuSans-114"/>
      <use x="345.744141" xlink:href="#DejaVuSans-111"/>
      <use x="406.925781" xlink:href="#DejaVuSans-109"/>
      <use x="504.337891" xlink:href="#DejaVuSans-32"/>
      <use x="536.125" xlink:href="#DejaVuSans-73"/>
      <use x="565.617188" xlink:href="#DejaVuSans-109"/>
      <use x="663.029297" xlink:href="#DejaVuSans-97"/>
      <use x="724.308594" xlink:href="#DejaVuSans-103"/>
      <use x="787.785156" xlink:href="#DejaVuSans-101"/>
      <use x="849.308594" xlink:href="#DejaVuSans-78"/>
      <use x="924.113281" xlink:href="#DejaVuSans-101"/>
      <use x="985.636719" xlink:href="#DejaVuSans-116"/>
      <use x="1024.845703" xlink:href="#DejaVuSans-32"/>
      <use x="1056.632812" xlink:href="#DejaVuSans-112"/>
      <use x="1120.109375" xlink:href="#DejaVuSans-114"/>
      <use x="1158.972656" xlink:href="#DejaVuSans-101"/>
      <use x="1220.496094" xlink:href="#DejaVuSans-45"/>
      <use x="1256.580078" xlink:href="#DejaVuSans-116"/>
      <use x="1295.789062" xlink:href="#DejaVuSans-114"/>
      <use x="1336.902344" xlink:href="#DejaVuSans-97"/>
      <use x="1398.181641" xlink:href="#DejaVuSans-105"/>
      <use x="1425.964844" xlink:href="#DejaVuSans-110"/>
      <use x="1489.34375" xlink:href="#DejaVuSans-101"/>
      <use x="1550.867188" xlink:href="#DejaVuSans-100"/>
     </g>
    </g>
    <g id="line2d_43">
     <path d="M 449.565625 79.616562 
L 469.565625 79.616562 
" style="fill:none;stroke:#ff7f0e;stroke-linecap:square;stroke-width:1.5;"/>
    </g>
    <g id="line2d_44"/>
    <g id="text_40">
     <!-- Train from synthetic-2d -->
     <g transform="translate(477.565625 83.116562)scale(0.1 -0.1)">
      <use xlink:href="#DejaVuSans-84"/>
      <use x="46.333984" xlink:href="#DejaVuSans-114"/>
      <use x="87.447266" xlink:href="#DejaVuSans-97"/>
      <use x="148.726562" xlink:href="#DejaVuSans-105"/>
      <use x="176.509766" xlink:href="#DejaVuSans-110"/>
      <use x="239.888672" xlink:href="#DejaVuSans-32"/>
      <use x="271.675781" xlink:href="#DejaVuSans-102"/>
      <use x="306.880859" xlink:href="#DejaVuSans-114"/>
      <use x="345.744141" xlink:href="#DejaVuSans-111"/>
      <use x="406.925781" xlink:href="#DejaVuSans-109"/>
      <use x="504.337891" xlink:href="#DejaVuSans-32"/>
      <use x="536.125" xlink:href="#DejaVuSans-115"/>
      <use x="588.224609" xlink:href="#DejaVuSans-121"/>
      <use x="647.404297" xlink:href="#DejaVuSans-110"/>
      <use x="710.783203" xlink:href="#DejaVuSans-116"/>
      <use x="749.992188" xlink:href="#DejaVuSans-104"/>
      <use x="813.371094" xlink:href="#DejaVuSans-101"/>
      <use x="874.894531" xlink:href="#DejaVuSans-116"/>
      <use x="914.103516" xlink:href="#DejaVuSans-105"/>
      <use x="941.886719" xlink:href="#DejaVuSans-99"/>
      <use x="996.867188" xlink:href="#DejaVuSans-45"/>
      <use x="1032.951172" xlink:href="#DejaVuSans-50"/>
      <use x="1096.574219" xlink:href="#DejaVuSans-100"/>
     </g>
    </g>
   </g>
  </g>
  <g id="text_41">
   <!-- ShanghaiTech PartB -->
   <g transform="translate(300.64875 17.758125)scale(0.12 -0.12)">
    <defs>
     <path d="M 19.671875 64.796875 
L 19.671875 37.40625 
L 32.078125 37.40625 
Q 38.96875 37.40625 42.71875 40.96875 
Q 46.484375 44.53125 46.484375 51.125 
Q 46.484375 57.671875 42.71875 61.234375 
Q 38.96875 64.796875 32.078125 64.796875 
z
M 9.8125 72.90625 
L 32.078125 72.90625 
Q 44.34375 72.90625 50.609375 67.359375 
Q 56.890625 61.8125 56.890625 51.125 
Q 56.890625 40.328125 50.609375 34.8125 
Q 44.34375 29.296875 32.078125 29.296875 
L 19.671875 29.296875 
L 19.671875 0 
L 9.8125 0 
z
" id="DejaVuSans-80"/>
     <path d="M 19.671875 34.8125 
L 19.671875 8.109375 
L 35.5 8.109375 
Q 43.453125 8.109375 47.28125 11.40625 
Q 51.125 14.703125 51.125 21.484375 
Q 51.125 28.328125 47.28125 31.5625 
Q 43.453125 34.8125 35.5 34.8125 
z
M 19.671875 64.796875 
L 19.671875 42.828125 
L 34.28125 42.828125 
Q 41.5 42.828125 45.03125 45.53125 
Q 48.578125 48.25 48.578125 53.8125 
Q 48.578125 59.328125 45.03125 62.0625 
Q 41.5 64.796875 34.28125 64.796875 
z
M 9.8125 72.90625 
L 35.015625 72.90625 
Q 46.296875 72.90625 52.390625 68.21875 
Q 58.5 63.53125 58.5 54.890625 
Q 58.5 48.1875 55.375 44.234375 
Q 52.25 40.28125 46.1875 39.3125 
Q 53.46875 37.75 57.5 32.78125 
Q 61.53125 27.828125 61.53125 20.40625 
Q 61.53125 10.640625 54.890625 5.3125 
Q 48.25 0 35.984375 0 
L 9.8125 0 
z
" id="DejaVuSans-66"/>
    </defs>
    <use xlink:href="#DejaVuSans-83"/>
    <use x="63.476562" xlink:href="#DejaVuSans-104"/>
    <use x="126.855469" xlink:href="#DejaVuSans-97"/>
    <use x="188.134766" xlink:href="#DejaVuSans-110"/>
    <use x="251.513672" xlink:href="#DejaVuSans-103"/>
    <use x="314.990234" xlink:href="#DejaVuSans-104"/>
    <use x="378.369141" xlink:href="#DejaVuSans-97"/>
    <use x="439.648438" xlink:href="#DejaVuSans-105"/>
    <use x="467.431641" xlink:href="#DejaVuSans-84"/>
    <use x="511.515625" xlink:href="#DejaVuSans-101"/>
    <use x="573.039062" xlink:href="#DejaVuSans-99"/>
    <use x="628.019531" xlink:href="#DejaVuSans-104"/>
    <use x="691.398438" xlink:href="#DejaVuSans-32"/>
    <use x="723.185547" xlink:href="#DejaVuSans-80"/>
    <use x="778.988281" xlink:href="#DejaVuSans-97"/>
    <use x="840.267578" xlink:href="#DejaVuSans-114"/>
    <use x="881.380859" xlink:href="#DejaVuSans-116"/>
    <use x="920.589844" xlink:href="#DejaVuSans-66"/>
   </g>
  </g>
 </g>
 <defs>
  <clipPath id="pb520c02442">
   <rect height="332.64" width="253.636364" x="90" y="51.84"/>
  </clipPath>
  <clipPath id="p93a6204b18">
   <rect height="332.64" width="253.636364" x="394.363636" y="51.84"/>
  </clipPath>
 </defs>
</svg>
